<svg xmlns="http://www.w3.org/2000/svg" xmlns:xlink="http://www.w3.org/1999/xlink" width="90" height="90" viewBox="0 0 90 90"><defs><filter id="a" x="0" y="0" width="90" height="90" filterUnits="userSpaceOnUse"><feOffset dy="3" input="SourceAlpha"/><feGaussianBlur stdDeviation="3" result="b"/><feFlood flood-opacity="0.161"/><feComposite operator="in" in2="b"/><feComposite in="SourceGraphic"/></filter></defs><g transform="translate(-227.911 -1945.911)"><g transform="matrix(1, 0, 0, 1, 227.91, 1945.91)" filter="url(#a)"><circle cx="36" cy="36" r="36" transform="translate(9 6)" fill="#00828f"/></g><path d="M40.506,19.387H26.484V5.366A3.116,3.116,0,0,0,23.369,2.25H20.253a3.116,3.116,0,0,0-3.116,3.116V19.387H3.116A3.116,3.116,0,0,0,0,22.5v3.116a3.116,3.116,0,0,0,3.116,3.116H17.137V42.756a3.116,3.116,0,0,0,3.116,3.116h3.116a3.116,3.116,0,0,0,3.116-3.116V28.734H40.506a3.116,3.116,0,0,0,3.116-3.116V22.5A3.116,3.116,0,0,0,40.506,19.387Z" transform="translate(250.845 1963.595)" fill="#fff"/></g></svg>