<svg width="35" height="35" viewBox="0 0 35 35" fill="none" xmlns="http://www.w3.org/2000/svg">
<path d="M27.3848 18.4963C27.3681 15.6274 28.6575 13.4652 31.2612 11.8709C29.805 9.76765 27.6018 8.61084 24.6977 8.38789C21.9479 8.16915 18.9394 10.0032 17.8379 10.0032C16.6737 10.0032 14.0116 8.46361 11.9169 8.46361C7.59406 8.53092 3 11.9382 3 18.8707C3 20.9193 3.37136 23.0352 4.11409 25.2142C5.10718 28.083 8.68729 35.1122 12.4218 34.9986C14.3746 34.9524 15.7557 33.6021 18.2969 33.6021C20.7629 33.6021 22.0397 34.9986 24.2178 34.9986C27.9857 34.944 31.2237 28.5542 32.1667 25.6769C27.1136 23.2749 27.3848 18.6435 27.3848 18.4963V18.4963ZM22.9994 5.66625C25.1149 3.13389 24.923 0.828694 24.8604 0C22.9911 0.109371 20.8296 1.283 19.5987 2.72586C18.2426 4.27387 17.4456 6.18786 17.6167 8.34583C19.6363 8.50147 21.4806 7.45404 22.9994 5.66625V5.66625Z" fill="#505050"/>
</svg>
