<svg width="24" height="24" viewBox="0 0 24 24" fill="none" xmlns="http://www.w3.org/2000/svg">
<path d="M13.8302 19.0013C13.6808 19.0018 13.5332 18.9688 13.3982 18.9048C13.2632 18.8407 13.1443 18.7473 13.0502 18.6313L8.22016 12.6313C8.07308 12.4523 7.99268 12.2279 7.99268 11.9963C7.99268 11.7646 8.07308 11.5402 8.22016 11.3613L13.2202 5.36125C13.3899 5.15704 13.6338 5.02861 13.8982 5.00423C14.1627 4.97985 14.4259 5.06151 14.6302 5.23125C14.8344 5.40099 14.9628 5.6449 14.9872 5.90933C15.0116 6.17375 14.9299 6.43704 14.7602 6.64125L10.2902 12.0013L14.6102 17.3613C14.7324 17.508 14.8101 17.6868 14.834 17.8763C14.8579 18.0659 14.827 18.2583 14.7449 18.4308C14.6629 18.6034 14.5331 18.7488 14.371 18.8499C14.2089 18.9509 14.0212 19.0035 13.8302 19.0013Z" fill="#44546A"/>
</svg>
