<svg width="24" height="24" viewBox="0 0 24 24" fill="none" xmlns="http://www.w3.org/2000/svg">
<path d="M21.284 10.7152H6.03678L10.7035 5.10999C10.9217 4.84745 11.0267 4.50898 10.9954 4.16903C10.964 3.82909 10.7989 3.51551 10.5364 3.2973C10.2738 3.07908 9.93536 2.9741 9.59542 3.00544C9.25547 3.03678 8.9419 3.20188 8.72368 3.46443L2.29569 11.178C2.25244 11.2394 2.21377 11.3038 2.17998 11.3709C2.17998 11.4351 2.17998 11.4737 2.08999 11.538C2.03172 11.6854 2.00121 11.8423 2 12.0008C2.00121 12.1593 2.03172 12.3162 2.08999 12.4636C2.08999 12.5279 2.08999 12.5665 2.17998 12.6307C2.21377 12.6978 2.25244 12.7622 2.29569 12.8236L8.72368 20.5372C8.84456 20.6823 8.99592 20.799 9.16702 20.879C9.33811 20.959 9.52473 21.0003 9.71359 21C10.014 21.0006 10.3051 20.896 10.5364 20.7043C10.6666 20.5964 10.7742 20.4638 10.853 20.3143C10.9319 20.1647 10.9805 20.001 10.996 19.8326C11.0116 19.6643 10.9937 19.4945 10.9435 19.333C10.8933 19.1715 10.8118 19.0215 10.7035 18.8916L6.03678 13.2864H21.284C21.6249 13.2864 21.9519 13.151 22.193 12.9099C22.4341 12.6688 22.5696 12.3418 22.5696 12.0008C22.5696 11.6598 22.4341 11.3328 22.193 11.0917C21.9519 10.8507 21.6249 10.7152 21.284 10.7152Z" fill="#00828F"/>
</svg>
