<svg width="45" height="45" viewBox="0 0 45 45" fill="none" xmlns="http://www.w3.org/2000/svg">
<path d="M9.375 13.125H13.125V31.875H9.375V13.125ZM26.25 13.125H28.125V31.875H26.25V13.125ZM18.75 13.125H24.375V31.875H18.75V13.125ZM15 13.125H16.875V31.875H15V13.125ZM30 13.125H35.625V31.875H30V13.125Z" fill="white"/>
<path d="M7.5 9.375H15V5.625H7.5C5.43187 5.625 3.75 7.30687 3.75 9.375V16.875H7.5V9.375ZM7.5 39.375H15V35.625H7.5V28.125H3.75V35.625C3.75 37.6931 5.43187 39.375 7.5 39.375ZM37.5 5.625H30V9.375H37.5V16.875H41.25V9.375C41.25 7.30687 39.5681 5.625 37.5 5.625ZM37.5 35.625H30V39.375H37.5C39.5681 39.375 41.25 37.6931 41.25 35.625V28.125H37.5V35.625Z" fill="white"/>
</svg>
