<svg width="39" height="39" viewBox="0 0 39 39" fill="none" xmlns="http://www.w3.org/2000/svg">
<path d="M12.5919 7.1903C14.2818 6.48415 16.4723 6.07149 18.76 6.02802C23.1017 5.94588 27.7274 7.27518 28.1842 9.90104C28.2059 9.99159 28.2195 10.0855 28.2217 10.1825L28.5473 24.6187C28.6459 29.7903 24.518 34.078 19.3461 34.1763C16.8407 34.2239 14.4667 33.2931 12.6616 31.5552C10.8564 29.8174 9.83609 27.4805 9.78822 24.9798L9.46558 10.6575C9.46509 10.6507 9.46461 10.6439 9.46484 10.6371C9.46473 10.6314 9.46497 10.6253 9.4645 10.6192L9.4628 10.5487C9.46061 10.4524 9.46993 10.3587 9.48755 10.2681C9.60276 9.43287 10.2183 8.18163 12.5919 7.1903ZM18.8098 8.64729C17.009 8.6815 15.2708 8.97849 13.9165 9.48342C12.6921 9.93969 12.2221 10.406 12.1066 10.5837C12.4626 11.0908 14.7743 12.1615 18.8751 12.0836C22.9758 12.0056 25.246 10.8458 25.5817 10.3276C25.4592 10.1548 24.9718 9.70672 23.7309 9.29658C22.3581 8.84382 20.6106 8.61307 18.8098 8.64729ZM12.4078 24.9254C12.4786 28.6523 15.569 31.6275 19.296 31.5567C23.0236 31.4858 25.9988 28.3954 25.9281 24.6728L25.6734 13.383C23.87 14.2246 21.3515 14.6567 18.9245 14.7032C16.6203 14.747 14.4286 14.4548 12.753 13.8814C12.5382 13.8081 12.3415 13.7313 12.1535 13.6528L12.4078 24.9254Z" fill="#87D799"/>
<path d="M14.2027 19.3044L14.4981 18.0663L15.1828 18.37C15.7835 18.6365 16.4253 18.889 17.0949 19.1224C17.424 18.3193 17.9056 17.5268 18.53 16.762L19.335 15.776L19.8191 16.3475C20.5908 17.2584 21.4668 18.1485 22.497 19.0687C23.31 19.7949 23.8681 20.7884 24.0682 21.8661C24.2746 22.9771 24.1035 24.0933 23.5734 25.0939L22.1214 27.8348L20.6454 27.7805C19.3552 27.7331 18.2211 27.4933 17.2748 27.0677C16.3776 26.6642 15.6439 26.0928 15.094 25.3694C13.9464 23.8596 13.6299 21.7057 14.2027 19.3044ZM15.3983 19.2241C15.8245 20.1686 16.3664 21.11 17.0164 22.0323C17.6846 22.9803 18.4671 23.9101 19.3424 24.796C20.2553 25.7201 21.0816 26.4044 21.5895 26.799L21.6709 24.5838C21.7066 23.6118 21.4216 22.6847 20.8467 21.903C20.2886 21.1441 19.4857 20.5845 18.5857 20.3271C18.2207 20.2226 17.8621 20.1136 17.5155 20.0018L17.5149 20.0037L17.1985 19.8977C17.1955 19.8967 17.1925 19.8957 17.1895 19.8947C16.5686 19.6865 15.9686 19.4615 15.3983 19.2241ZM23.3799 21.9939C23.2079 21.0678 22.7287 20.2144 22.0306 19.5909C21.0025 18.6726 20.1232 17.782 19.345 16.8707L19.0723 17.2048C18.5029 17.9022 18.0629 18.6207 17.7606 19.3452C18.0904 19.4512 18.4312 19.5547 18.7783 19.654C19.8264 19.9537 20.7613 20.6052 21.4107 21.4882C22.0802 22.3986 22.4121 23.4779 22.3705 24.6096L22.3208 25.9629L22.9548 24.7662C23.4101 23.9067 23.5572 22.948 23.3799 21.9939ZM15.6514 24.9458C16.1298 25.5751 16.7726 26.0742 17.562 26.4292C18.4255 26.8176 19.4716 27.0368 20.6711 27.0809L20.8238 27.0865C20.3098 26.6698 19.6162 26.0683 18.8562 25.3001C17.9518 24.3859 17.1422 23.425 16.4502 22.4441C15.8098 21.5366 15.2694 20.6097 14.8358 19.6775C14.3788 21.7847 14.6658 23.6491 15.6514 24.9458Z" fill="#87D799"/>
</svg>
