<svg width="30" height="30" viewBox="0 0 30 30" fill="none" xmlns="http://www.w3.org/2000/svg">
<mask id="path-1-outside-1" maskUnits="userSpaceOnUse" x="5" y="1" width="20" height="28" fill="black">
<rect fill="white" x="5" y="1" width="20" height="28"/>
<path d="M22.1971 22.2937C22.4141 22.5321 23.3909 22.367 23.0002 21.9085C22.6095 21.4499 20.2483 20.787 20.2483 20.787L19.119 20.3977V18.7957C20.7412 17.8136 21.7533 16.2121 21.7533 14.4703V13.9576C22.934 13.9045 23.875 13.0762 23.875 12.0656C23.875 11.5824 23.6595 11.1412 23.3061 10.8062L23.4046 6.95294C23.428 6.12295 23.2109 5.28961 22.7771 4.54304C22.6583 4.33872 22.366 4.25431 22.1241 4.35468C21.8821 4.45505 21.7824 4.70207 21.9011 4.9065C22.2661 5.53448 22.4487 6.23537 22.4289 6.93362L22.3437 10.2691C22.1565 10.216 21.9586 10.183 21.7533 10.1737V9.67352C21.7533 9.34049 21.6118 9.01803 21.3549 8.76545C20.8435 8.26261 20.1001 7.97426 19.3155 7.97426H15.7691C15.0375 7.97426 14.3375 7.74408 13.7983 7.32619L12.0907 6.00288C11.8508 5.81678 11.4853 5.81369 11.2411 5.99573L10.835 6.29832C9.81218 7.06013 9.22564 8.15778 9.22564 9.30995V10.1738C9.07814 10.1804 8.93449 10.1992 8.79591 10.2289L8.63695 6.79897C8.57802 5.56288 9.67582 4.52609 11.1361 4.43871L11.9425 4.39045C12.1691 4.37686 12.3894 4.31407 12.5793 4.20897L14.4388 3.17983C16.4197 2.0834 20.1918 3.58297 21.9334 4.93572C22.1317 5.08974 22.4403 5.07879 22.6227 4.91112C22.8051 4.74351 22.7922 4.48268 22.5938 4.3286C20.5229 2.72007 16.2594 1.18644 13.9041 2.49006L12.0446 3.51897C11.9936 3.5472 11.9344 3.56404 11.8735 3.56772L11.0671 3.61598C10.1109 3.67321 9.23235 4.03717 8.59319 4.64083C7.95404 5.24448 7.62329 6.02274 7.66191 6.8316L7.83962 10.6635C7.38795 11.0104 7.10403 11.5105 7.10403 12.0656C7.10403 13.0763 8.04527 13.9045 9.22577 13.9576V14.1692C9.22577 15.9742 10.2312 17.6433 11.8584 18.7177V19.6385C10.9352 19.7864 10.1825 20.3451 9.8773 21.0806L8.12023 21.6864C7.42494 21.9261 6.77335 22.2491 6.18368 22.6465C5.97308 22.7885 5.93844 23.0479 6.10645 23.2259C6.20276 23.328 6.34479 23.3811 6.48818 23.3811C6.59485 23.3811 6.70223 23.3517 6.7921 23.2911C7.30889 22.9428 7.8798 22.6597 8.48874 22.4498L9.73026 22.0218V24.6112C8.84306 24.7964 8.18326 25.4744 8.18326 26.2805C8.18326 27.2286 9.09612 28 10.2182 28C11.3403 28 12.2531 27.2286 12.2531 26.2805C12.2531 25.4744 11.5932 24.7964 10.7061 24.6112V21.8098C10.7061 21.767 10.7088 21.7247 10.7133 21.6829L12.05 21.222L14.8641 25.3639C14.9912 25.5508 15.2287 25.667 15.4838 25.6671H15.4841C15.739 25.6671 15.9764 25.5513 16.1038 25.3645L18.927 21.222L20.0321 21.603C20.0319 21.603 21.98 22.0552 22.1971 22.2937ZM22.8994 12.0656C22.8994 12.6214 22.3955 13.0792 21.7535 13.1307V11.0006C22.3953 11.0521 22.8994 11.51 22.8994 12.0656ZM11.2773 26.2806C11.2773 26.7742 10.8021 27.1756 10.2181 27.1756C9.63414 27.1756 9.15896 26.7741 9.15896 26.2806C9.15896 25.7872 9.63414 25.3856 10.2181 25.3856C10.8021 25.3856 11.2773 25.7871 11.2773 26.2806ZM8.07972 12.0656C8.07972 11.5099 8.58369 11.0521 9.22571 11.0006V13.1307C8.58369 13.0792 8.07972 12.6214 8.07972 12.0656ZM10.2015 14.1693V9.3099C10.2015 8.3944 10.6676 7.5222 11.4802 6.9169L11.6567 6.78532L13.1388 7.93392C13.8584 8.49169 14.7926 8.79885 15.7691 8.79885H19.3156C19.8156 8.79885 20.2892 8.98259 20.6151 9.30297C20.7199 9.40603 20.7776 9.53766 20.7776 9.67352V14.4704C20.7776 16.3688 19.3551 18.0709 17.2378 18.7055C16.2092 19.0139 15.1088 19.0519 14.054 18.8155C11.7489 18.1079 10.2015 16.2428 10.2015 14.1693ZM15.4843 24.621L12.8205 20.7004C12.8285 20.6666 12.8341 20.6321 12.8341 20.5966V19.2549C13.1241 19.3862 13.4271 19.5014 13.7429 19.5973C13.7555 19.601 13.7683 19.6045 13.7811 19.6074C14.3267 19.7315 14.8826 19.7933 15.4376 19.7933C16.1568 19.7933 16.8742 19.6894 17.5641 19.4826C17.7628 19.4231 17.9555 19.3547 18.1433 19.2799V20.5966C18.1433 20.632 18.1488 20.6663 18.1567 20.7L15.4843 24.621Z"/>
</mask>
<path d="M22.1971 22.2937C22.4141 22.5321 23.3909 22.367 23.0002 21.9085C22.6095 21.4499 20.2483 20.787 20.2483 20.787L19.119 20.3977V18.7957C20.7412 17.8136 21.7533 16.2121 21.7533 14.4703V13.9576C22.934 13.9045 23.875 13.0762 23.875 12.0656C23.875 11.5824 23.6595 11.1412 23.3061 10.8062L23.4046 6.95294C23.428 6.12295 23.2109 5.28961 22.7771 4.54304C22.6583 4.33872 22.366 4.25431 22.1241 4.35468C21.8821 4.45505 21.7824 4.70207 21.9011 4.9065C22.2661 5.53448 22.4487 6.23537 22.4289 6.93362L22.3437 10.2691C22.1565 10.216 21.9586 10.183 21.7533 10.1737V9.67352C21.7533 9.34049 21.6118 9.01803 21.3549 8.76545C20.8435 8.26261 20.1001 7.97426 19.3155 7.97426H15.7691C15.0375 7.97426 14.3375 7.74408 13.7983 7.32619L12.0907 6.00288C11.8508 5.81678 11.4853 5.81369 11.2411 5.99573L10.835 6.29832C9.81218 7.06013 9.22564 8.15778 9.22564 9.30995V10.1738C9.07814 10.1804 8.93449 10.1992 8.79591 10.2289L8.63695 6.79897C8.57802 5.56288 9.67582 4.52609 11.1361 4.43871L11.9425 4.39045C12.1691 4.37686 12.3894 4.31407 12.5793 4.20897L14.4388 3.17983C16.4197 2.0834 20.1918 3.58297 21.9334 4.93572C22.1317 5.08974 22.4403 5.07879 22.6227 4.91112C22.8051 4.74351 22.7922 4.48268 22.5938 4.3286C20.5229 2.72007 16.2594 1.18644 13.9041 2.49006L12.0446 3.51897C11.9936 3.5472 11.9344 3.56404 11.8735 3.56772L11.0671 3.61598C10.1109 3.67321 9.23235 4.03717 8.59319 4.64083C7.95404 5.24448 7.62329 6.02274 7.66191 6.8316L7.83962 10.6635C7.38795 11.0104 7.10403 11.5105 7.10403 12.0656C7.10403 13.0763 8.04527 13.9045 9.22577 13.9576V14.1692C9.22577 15.9742 10.2312 17.6433 11.8584 18.7177V19.6385C10.9352 19.7864 10.1825 20.3451 9.8773 21.0806L8.12023 21.6864C7.42494 21.9261 6.77335 22.2491 6.18368 22.6465C5.97308 22.7885 5.93844 23.0479 6.10645 23.2259C6.20276 23.328 6.34479 23.3811 6.48818 23.3811C6.59485 23.3811 6.70223 23.3517 6.7921 23.2911C7.30889 22.9428 7.8798 22.6597 8.48874 22.4498L9.73026 22.0218V24.6112C8.84306 24.7964 8.18326 25.4744 8.18326 26.2805C8.18326 27.2286 9.09612 28 10.2182 28C11.3403 28 12.2531 27.2286 12.2531 26.2805C12.2531 25.4744 11.5932 24.7964 10.7061 24.6112V21.8098C10.7061 21.767 10.7088 21.7247 10.7133 21.6829L12.05 21.222L14.8641 25.3639C14.9912 25.5508 15.2287 25.667 15.4838 25.6671H15.4841C15.739 25.6671 15.9764 25.5513 16.1038 25.3645L18.927 21.222L20.0321 21.603C20.0319 21.603 21.98 22.0552 22.1971 22.2937ZM22.8994 12.0656C22.8994 12.6214 22.3955 13.0792 21.7535 13.1307V11.0006C22.3953 11.0521 22.8994 11.51 22.8994 12.0656ZM11.2773 26.2806C11.2773 26.7742 10.8021 27.1756 10.2181 27.1756C9.63414 27.1756 9.15896 26.7741 9.15896 26.2806C9.15896 25.7872 9.63414 25.3856 10.2181 25.3856C10.8021 25.3856 11.2773 25.7871 11.2773 26.2806ZM8.07972 12.0656C8.07972 11.5099 8.58369 11.0521 9.22571 11.0006V13.1307C8.58369 13.0792 8.07972 12.6214 8.07972 12.0656ZM10.2015 14.1693V9.3099C10.2015 8.3944 10.6676 7.5222 11.4802 6.9169L11.6567 6.78532L13.1388 7.93392C13.8584 8.49169 14.7926 8.79885 15.7691 8.79885H19.3156C19.8156 8.79885 20.2892 8.98259 20.6151 9.30297C20.7199 9.40603 20.7776 9.53766 20.7776 9.67352V14.4704C20.7776 16.3688 19.3551 18.0709 17.2378 18.7055C16.2092 19.0139 15.1088 19.0519 14.054 18.8155C11.7489 18.1079 10.2015 16.2428 10.2015 14.1693ZM15.4843 24.621L12.8205 20.7004C12.8285 20.6666 12.8341 20.6321 12.8341 20.5966V19.2549C13.1241 19.3862 13.4271 19.5014 13.7429 19.5973C13.7555 19.601 13.7683 19.6045 13.7811 19.6074C14.3267 19.7315 14.8826 19.7933 15.4376 19.7933C16.1568 19.7933 16.8742 19.6894 17.5641 19.4826C17.7628 19.4231 17.9555 19.3547 18.1433 19.2799V20.5966C18.1433 20.632 18.1488 20.6663 18.1567 20.7L15.4843 24.621Z" fill="#00828F"/>
<path d="M22.1971 22.2937C22.4141 22.5321 23.3909 22.367 23.0002 21.9085C22.6095 21.4499 20.2483 20.787 20.2483 20.787L19.119 20.3977V18.7957C20.7412 17.8136 21.7533 16.2121 21.7533 14.4703V13.9576C22.934 13.9045 23.875 13.0762 23.875 12.0656C23.875 11.5824 23.6595 11.1412 23.3061 10.8062L23.4046 6.95294C23.428 6.12295 23.2109 5.28961 22.7771 4.54304C22.6583 4.33872 22.366 4.25431 22.1241 4.35468C21.8821 4.45505 21.7824 4.70207 21.9011 4.9065C22.2661 5.53448 22.4487 6.23537 22.4289 6.93362L22.3437 10.2691C22.1565 10.216 21.9586 10.183 21.7533 10.1737V9.67352C21.7533 9.34049 21.6118 9.01803 21.3549 8.76545C20.8435 8.26261 20.1001 7.97426 19.3155 7.97426H15.7691C15.0375 7.97426 14.3375 7.74408 13.7983 7.32619L12.0907 6.00288C11.8508 5.81678 11.4853 5.81369 11.2411 5.99573L10.835 6.29832C9.81218 7.06013 9.22564 8.15778 9.22564 9.30995V10.1738C9.07814 10.1804 8.93449 10.1992 8.79591 10.2289L8.63695 6.79897C8.57802 5.56288 9.67582 4.52609 11.1361 4.43871L11.9425 4.39045C12.1691 4.37686 12.3894 4.31407 12.5793 4.20897L14.4388 3.17983C16.4197 2.0834 20.1918 3.58297 21.9334 4.93572C22.1317 5.08974 22.4403 5.07879 22.6227 4.91112C22.8051 4.74351 22.7922 4.48268 22.5938 4.3286C20.5229 2.72007 16.2594 1.18644 13.9041 2.49006L12.0446 3.51897C11.9936 3.5472 11.9344 3.56404 11.8735 3.56772L11.0671 3.61598C10.1109 3.67321 9.23235 4.03717 8.59319 4.64083C7.95404 5.24448 7.62329 6.02274 7.66191 6.8316L7.83962 10.6635C7.38795 11.0104 7.10403 11.5105 7.10403 12.0656C7.10403 13.0763 8.04527 13.9045 9.22577 13.9576V14.1692C9.22577 15.9742 10.2312 17.6433 11.8584 18.7177V19.6385C10.9352 19.7864 10.1825 20.3451 9.8773 21.0806L8.12023 21.6864C7.42494 21.9261 6.77335 22.2491 6.18368 22.6465C5.97308 22.7885 5.93844 23.0479 6.10645 23.2259C6.20276 23.328 6.34479 23.3811 6.48818 23.3811C6.59485 23.3811 6.70223 23.3517 6.7921 23.2911C7.30889 22.9428 7.8798 22.6597 8.48874 22.4498L9.73026 22.0218V24.6112C8.84306 24.7964 8.18326 25.4744 8.18326 26.2805C8.18326 27.2286 9.09612 28 10.2182 28C11.3403 28 12.2531 27.2286 12.2531 26.2805C12.2531 25.4744 11.5932 24.7964 10.7061 24.6112V21.8098C10.7061 21.767 10.7088 21.7247 10.7133 21.6829L12.05 21.222L14.8641 25.3639C14.9912 25.5508 15.2287 25.667 15.4838 25.6671H15.4841C15.739 25.6671 15.9764 25.5513 16.1038 25.3645L18.927 21.222L20.0321 21.603C20.0319 21.603 21.98 22.0552 22.1971 22.2937ZM22.8994 12.0656C22.8994 12.6214 22.3955 13.0792 21.7535 13.1307V11.0006C22.3953 11.0521 22.8994 11.51 22.8994 12.0656ZM11.2773 26.2806C11.2773 26.7742 10.8021 27.1756 10.2181 27.1756C9.63414 27.1756 9.15896 26.7741 9.15896 26.2806C9.15896 25.7872 9.63414 25.3856 10.2181 25.3856C10.8021 25.3856 11.2773 25.7871 11.2773 26.2806ZM8.07972 12.0656C8.07972 11.5099 8.58369 11.0521 9.22571 11.0006V13.1307C8.58369 13.0792 8.07972 12.6214 8.07972 12.0656ZM10.2015 14.1693V9.3099C10.2015 8.3944 10.6676 7.5222 11.4802 6.9169L11.6567 6.78532L13.1388 7.93392C13.8584 8.49169 14.7926 8.79885 15.7691 8.79885H19.3156C19.8156 8.79885 20.2892 8.98259 20.6151 9.30297C20.7199 9.40603 20.7776 9.53766 20.7776 9.67352V14.4704C20.7776 16.3688 19.3551 18.0709 17.2378 18.7055C16.2092 19.0139 15.1088 19.0519 14.054 18.8155C11.7489 18.1079 10.2015 16.2428 10.2015 14.1693ZM15.4843 24.621L12.8205 20.7004C12.8285 20.6666 12.8341 20.6321 12.8341 20.5966V19.2549C13.1241 19.3862 13.4271 19.5014 13.7429 19.5973C13.7555 19.601 13.7683 19.6045 13.7811 19.6074C14.3267 19.7315 14.8826 19.7933 15.4376 19.7933C16.1568 19.7933 16.8742 19.6894 17.5641 19.4826C17.7628 19.4231 17.9555 19.3547 18.1433 19.2799V20.5966C18.1433 20.632 18.1488 20.6663 18.1567 20.7L15.4843 24.621Z" stroke="#00828F" stroke-width="0.4" mask="url(#path-1-outside-1)"/>
</svg>
