<svg width="30" height="30" viewBox="0 0 30 30" fill="none" xmlns="http://www.w3.org/2000/svg">
<path d="M21.4753 3.14994C19.9126 1.68456 17.2348 1.35012 14.8123 3.76091C12.3934 1.35248 9.71201 1.68456 8.14927 3.14875C6.32883 4.85403 6.29677 7.7068 8.05189 9.45343L14.8123 16.1824L21.5727 9.45462C23.3278 7.70798 23.2958 4.85521 21.4753 3.14994ZM20.7332 8.61793L14.8123 14.5114L8.89145 8.61911C7.60658 7.33927 7.63152 5.25819 8.96389 4.01026C9.53151 3.4761 10.2915 3.18303 11.1038 3.18303C12.8043 3.18303 13.569 4.19461 14.8123 5.43191C16.0224 4.2277 16.8014 3.18303 18.5209 3.18303C19.3331 3.18303 20.0931 3.4761 20.6619 4.00907C21.9907 5.25465 22.0216 7.33572 20.7332 8.61793Z" fill="#DA8300"/>
<path d="M26.5956 3.18304C25.5495 3.18304 24.6814 3.96301 24.5769 4.99823L23.8252 12.3854C23.463 12.4622 23.1305 12.6371 22.8728 12.8936L16.8748 18.4502C16.0495 19.1983 15.5709 20.2654 15.5626 21.381V28H22.6876V24.8849C22.6876 24.4039 22.8907 23.9359 23.2588 23.5885L27.7653 19.0624C28.3199 18.5046 28.6251 17.766 28.6251 16.9825V5.20267C28.6251 4.08945 27.7143 3.18304 26.5956 3.18304ZM27.4376 16.9825C27.4376 17.4528 27.2547 17.896 26.921 18.2316L22.4287 22.7435C21.8385 23.299 21.5001 24.0789 21.5001 24.8849V26.8182H16.7501V21.3881C16.756 20.6045 17.0921 19.8541 17.6799 19.3223L23.697 13.7456C23.8585 13.5849 24.0793 13.5057 24.3133 13.5294C24.4427 13.5412 24.6291 13.5873 24.7883 13.7456C24.9343 13.891 25.0151 14.0848 25.0151 14.2892C25.0151 14.4937 24.9331 14.6875 24.8085 14.8127L20.176 18.9938L20.974 19.8683L25.6278 15.6672C25.9983 15.2984 26.2026 14.8092 26.2026 14.288C26.2026 13.7669 25.9995 13.2776 25.629 12.9101C25.4485 12.7281 25.2383 12.5887 25.008 12.4929L25.7573 5.11877C25.8012 4.68861 26.1622 4.3648 26.5956 4.3648C27.06 4.3648 27.4376 4.7406 27.4376 5.20267V16.9825Z" fill="#DA8300"/>
<path d="M12.7503 18.4502L6.75223 12.8936C6.49454 12.6371 6.16205 12.461 5.79986 12.3854L5.04817 4.99823C4.94367 3.96301 4.07561 3.18304 3.02943 3.18304C1.91081 3.18304 1 4.08945 1 5.20267V16.9825C1 17.766 1.30519 18.5046 1.85975 19.0612L6.36629 23.5873C6.73442 23.9347 6.93748 24.4039 6.93748 24.8849V28H14.0625V21.381C14.0553 20.2654 13.5756 19.1994 12.7503 18.4502ZM12.875 26.8182H8.12498V24.8849C8.12498 24.0801 7.78654 23.299 7.19635 22.7435L2.70406 18.2316C2.37037 17.896 2.1875 17.4528 2.1875 16.9825V5.20267C2.1875 4.7406 2.56512 4.3648 3.02943 4.3648C3.46287 4.3648 3.82387 4.68861 3.8678 5.1164L4.61711 12.4906C4.38674 12.5875 4.17655 12.7269 3.99605 12.9077C3.62674 13.2753 3.42249 13.7645 3.42249 14.2857C3.42249 14.8068 3.62674 15.2961 3.99724 15.6648L8.65104 19.8659L9.44903 18.9914L4.81661 14.8104C4.69074 14.6851 4.60999 14.4925 4.60999 14.2869C4.60999 14.0812 4.69074 13.8886 4.8368 13.7433C4.99474 13.5849 5.18236 13.5388 5.3118 13.527C5.54692 13.5045 5.76661 13.5825 5.92811 13.7433L11.9452 19.32C12.533 19.8518 12.869 20.6022 12.875 21.3857V26.8182V26.8182Z" fill="#DA8300"/>
</svg>
