<svg width="32" height="30" viewBox="0 0 32 30" fill="none" xmlns="http://www.w3.org/2000/svg">
<path d="M10.3101 20.0003H10.3115C10.3128 20.0003 10.314 20 10.3152 20H27.3125C27.731 20 28.0989 19.7039 28.2139 19.2747L31.9639 5.27474C32.0447 4.97292 31.9881 4.64844 31.8111 4.39792C31.6338 4.1474 31.3567 4 31.0626 4H8.14796L7.4778 0.783073C7.38234 0.325521 7.00196 0 6.56251 0H0.937502C0.419678 0 0 0.447656 0 1C0 1.55234 0.419678 2 0.937502 2H5.81056C5.92921 2.57005 9.01759 17.3945 9.19533 18.2474C8.19899 18.7094 7.50001 19.769 7.50001 21C7.50001 22.6542 8.76173 24 10.3125 24H27.3125C27.8304 24 28.25 23.5523 28.25 23C28.25 22.4477 27.8304 22 27.3125 22H10.3125C9.79567 22 9.37502 21.5513 9.37502 21C9.37502 20.4495 9.79421 20.0016 10.3101 20.0003V20.0003ZM29.8196 6L26.6053 18H11.0645L8.56447 6H29.8196Z" fill="#00828F"/>
<path d="M9.375 27C9.375 28.6542 10.6367 30 12.1875 30C13.7383 30 15 28.6542 15 27C15 25.3458 13.7383 24 12.1875 24C10.6367 24 9.375 25.3458 9.375 27ZM12.1875 26C12.7044 26 13.125 26.4487 13.125 27C13.125 27.5513 12.7044 28 12.1875 28C11.6707 28 11.25 27.5513 11.25 27C11.25 26.4487 11.6707 26 12.1875 26Z" fill="#00828F"/>
<path d="M22.625 27C22.625 28.6542 23.8867 30 25.4375 30C26.9883 30 28.25 28.6542 28.25 27C28.25 25.3458 26.9883 24 25.4375 24C23.8867 24 22.625 25.3458 22.625 27ZM25.4375 26C25.9543 26 26.375 26.4487 26.375 27C26.375 27.5513 25.9543 28 25.4375 28C24.9207 28 24.5 27.5513 24.5 27C24.5 26.4487 24.9207 26 25.4375 26Z" fill="#00828F"/>
</svg>
