<svg id="cart-white" xmlns="http://www.w3.org/2000/svg" width="32" height="30" viewBox="0 0 32 30">
  <path id="Path_11689" data-name="Path 11689" d="M10.31,20h17a.949.949,0,0,0,.9-.725l3.75-14a1.054,1.054,0,0,0-.153-.877.919.919,0,0,0-.749-.4H8.148L7.478.783A.953.953,0,0,0,6.563,0H.938A.97.97,0,0,0,0,1,.97.97,0,0,0,.938,2H5.811L9.2,18.247A3.016,3.016,0,0,0,7.5,21a2.914,2.914,0,0,0,2.812,3h17a1,1,0,0,0,0-2h-17a1,1,0,0,1,0-2ZM29.82,6,26.605,18H11.064L8.564,6Z" fill="#fff"/>
  <path id="Path_11690" data-name="Path 11690" d="M9.375,27a2.914,2.914,0,0,0,2.813,3,3.006,3.006,0,0,0,0-6A2.914,2.914,0,0,0,9.375,27Zm2.813-1a1,1,0,1,1-.937,1A.971.971,0,0,1,12.188,26Z" fill="#fff"/>
  <path id="Path_11691" data-name="Path 11691" d="M22.625,27a2.818,2.818,0,1,0,2.813-3A2.914,2.914,0,0,0,22.625,27Zm2.813-1a1,1,0,1,1-.937,1A.972.972,0,0,1,25.438,26Z" fill="#fff"/>
</svg>
