<svg width="13" height="14" viewBox="0 0 13 14" fill="none" xmlns="http://www.w3.org/2000/svg">
<g clip-path="url(#clip0_1800_2103)">
<path d="M7.67788 6.68652L12.8497 1.51467C12.952 1.39533 13.0054 1.24181 12.9993 1.0848C12.9932 0.927786 12.9281 0.778845 12.817 0.667739C12.7059 0.556631 12.557 0.491542 12.4 0.485477C12.243 0.479412 12.0894 0.53282 11.9701 0.635025L6.79823 5.80687L1.62642 0.628786C1.50894 0.51131 1.34961 0.445312 1.18347 0.445312C1.01734 0.445312 0.858005 0.51131 0.740529 0.628786C0.623053 0.746262 0.557055 0.905594 0.557055 1.07173C0.557055 1.23786 0.623053 1.3972 0.740529 1.51467L5.91861 6.68652L0.740529 11.8584C0.675222 11.9143 0.62218 11.9831 0.584734 12.0605C0.547288 12.1379 0.526244 12.2222 0.522926 12.3081C0.519607 12.3941 0.534084 12.4797 0.565449 12.5598C0.596813 12.6398 0.644389 12.7126 0.705187 12.7733C0.765986 12.8342 0.838695 12.8818 0.918753 12.9131C0.998811 12.9445 1.08449 12.9589 1.17041 12.9556C1.25633 12.9523 1.34063 12.9312 1.41803 12.8938C1.49543 12.8564 1.56425 12.8033 1.62018 12.738L6.79823 7.56617L11.9701 12.738C12.0894 12.8402 12.243 12.8936 12.4 12.8876C12.557 12.8815 12.7059 12.8164 12.817 12.7053C12.9281 12.5942 12.9932 12.4452 12.9993 12.2882C13.0054 12.1312 12.952 11.9777 12.8497 11.8584L7.67788 6.68652Z" fill="#828282"/>
</g>
<defs>
<clipPath id="clip0_1800_2103">
<rect width="12.4773" height="13.1012" fill="white" transform="translate(0.522461 0.445312)"/>
</clipPath>
</defs>
</svg>
