<svg width="40" height="40" viewBox="0 0 40 40" fill="none" xmlns="http://www.w3.org/2000/svg">
<path d="M21.5672 19.9999L30.7783 10.7888C30.9603 10.5763 31.0554 10.3028 31.0446 10.0232C31.0338 9.74357 30.9179 9.4783 30.72 9.28042C30.5221 9.08254 30.2569 8.96661 29.9772 8.95581C29.6976 8.94501 29.4242 9.04013 29.2116 9.22216L20.0005 18.4333L10.7894 9.21105C10.5802 9.00182 10.2964 8.88428 10.0005 8.88428C9.70462 8.88428 9.42085 9.00182 9.21162 9.21105C9.0024 9.42027 8.88486 9.70404 8.88486 9.99993C8.88486 10.2958 9.0024 10.5796 9.21162 10.7888L18.4338 19.9999L9.21162 29.211C9.09531 29.3107 9.00084 29.4332 8.93415 29.5711C8.86746 29.7089 8.82998 29.8591 8.82407 30.0121C8.81816 30.1651 8.84394 30.3177 8.8998 30.4603C8.95566 30.6029 9.0404 30.7324 9.14868 30.8407C9.25696 30.9489 9.38646 31.0337 9.52904 31.0895C9.67163 31.1454 9.82422 31.1712 9.97724 31.1653C10.1303 31.1594 10.2804 31.1219 10.4183 31.0552C10.5561 30.9885 10.6787 30.894 10.7783 30.7777L20.0005 21.5666L29.2116 30.7777C29.4242 30.9597 29.6976 31.0549 29.9772 31.0441C30.2569 31.0333 30.5221 30.9173 30.72 30.7194C30.9179 30.5216 31.0338 30.2563 31.0446 29.9767C31.0554 29.697 30.9603 29.4236 30.7783 29.211L21.5672 19.9999Z" fill="black"/>
</svg>
