<svg width="19" height="16" viewBox="0 0 19 16" fill="none" xmlns="http://www.w3.org/2000/svg">
<path d="M5.72195 15.042C4.35193 15.0369 3.14589 14.2341 2.74863 13.0629H0.847656V11.4795H2.74863C3.20495 10.1123 4.74889 9.27811 6.31634 9.55187C7.88379 9.82563 8.96231 11.1179 8.80857 12.5379C8.65482 13.958 7.31907 15.0417 5.72195 15.042ZM5.72195 11.0837C4.98777 11.0837 4.39259 11.6154 4.39259 12.2712C4.39259 12.9271 4.98777 13.4587 5.72195 13.4587C6.45613 13.4587 7.0513 12.9271 7.0513 12.2712C7.0513 11.6154 6.45613 11.0837 5.72195 11.0837ZM18.5723 13.0629H9.71V11.4795H18.5723V13.0629ZM13.6981 10.292C12.1009 10.2917 10.7652 9.20802 10.6114 7.78795C10.4577 6.36787 11.5362 5.07563 13.1037 4.80187C14.6711 4.52811 16.215 5.36232 16.6714 6.72955H18.5723V8.31288H16.6714C16.2741 9.48414 15.0681 10.2869 13.6981 10.292ZM13.6981 6.33371C12.9639 6.33371 12.3687 6.86538 12.3687 7.52121C12.3687 8.17705 12.9639 8.70871 13.6981 8.70871C14.4322 8.70871 15.0274 8.17705 15.0274 7.52121C15.0274 6.86538 14.4322 6.33371 13.6981 6.33371ZM9.71 8.31288H0.847656V6.72955H9.71V8.31288ZM7.49441 5.54205C5.89729 5.54168 4.56154 4.45802 4.40779 3.03795C4.25405 1.61787 5.33257 0.325634 6.90002 0.0518716C8.46747 -0.221891 10.0114 0.612319 10.4677 1.97955H18.5723V3.56288H10.4677C10.0702 4.73398 8.86434 5.53667 7.49441 5.54205ZM7.49441 1.58372C6.76945 1.58459 6.17896 2.10418 6.16704 2.75169C6.15512 3.39921 6.72618 3.93585 7.45072 3.95802C8.17525 3.98018 8.78607 3.47969 8.82377 2.83297V3.06255V2.77122C8.82377 2.11538 8.2286 1.58372 7.49441 1.58372ZM3.50636 3.56288H0.847656V1.97955H3.50636V3.56288Z" fill="url(#paint0_linear_1304_146)"/>
<defs>
<linearGradient id="paint0_linear_1304_146" x1="21.4807" y1="15.042" x2="2.85396" y2="16.2461" gradientUnits="userSpaceOnUse">
<stop stop-color="#35C0ED"/>
<stop offset="0.861651" stop-color="#7380B4"/>
</linearGradient>
</defs>
</svg>
