<svg width="30" height="30" viewBox="0 0 30 30" fill="none" xmlns="http://www.w3.org/2000/svg">
<path d="M23.3523 4.26896H18.1129C17.7671 2.94793 16.5715 2 15.1656 2C13.7597 2 12.564 2.94793 12.2182 4.26896H6.96025C5.87934 4.26896 5 5.14874 5 6.23008V26.0389C5 27.1202 5.87934 28 6.96025 28H23.3523C24.4332 28 25.3125 27.1202 25.3125 26.0389V6.23008C25.3125 5.14869 24.4332 4.26896 23.3523 4.26896V4.26896ZM12.0463 9.22516H18.2662C19.1768 9.22516 19.9176 8.484 19.9176 7.57304V7.51891H22.064V24.75H8.24855V7.51896H10.3949V7.57309C10.3949 8.48405 11.1358 9.22516 12.0463 9.22516V9.22516ZM13.4596 5.28458H16.8529V6.17767H13.4596V5.28458ZM15.1656 3.01562C16.0084 3.01562 16.7379 3.52618 17.0443 4.26896H13.2868C13.5932 3.52618 14.3227 3.01562 15.1656 3.01562V3.01562ZM12.4445 5.28458V6.68548C12.4445 6.96595 12.6717 7.1933 12.9521 7.1933H17.3605C17.6408 7.1933 17.8681 6.96595 17.8681 6.68548V5.28458H18.9024V7.57309C18.9024 7.92404 18.617 8.20958 18.2662 8.20958H12.0463C11.6955 8.20958 11.4101 7.92404 11.4101 7.57309V5.28458H12.4445ZM24.2973 26.0389C24.2973 26.5603 23.8733 26.9844 23.3523 26.9844H6.96025C6.43911 26.9844 6.01517 26.5602 6.01517 26.0389V6.23008C6.01517 5.70871 6.43916 5.28458 6.96025 5.28458H10.3949V6.50333H7.74097C7.46063 6.50333 7.23338 6.73068 7.23338 7.01114V25.2578C7.23338 25.5383 7.46063 25.7656 7.74097 25.7656H22.5715C22.8519 25.7656 23.0791 25.5383 23.0791 25.2578V7.01114C23.0791 6.73068 22.8519 6.50333 22.5715 6.50333H19.9176V5.28458H23.3523C23.8734 5.28458 24.2973 5.70876 24.2973 6.23008V26.0389Z" fill="#DA8300"/>
<path d="M19.5214 21.9301H17.4509C17.1705 21.9301 16.9433 22.1574 16.9433 22.4379C16.9433 22.7183 17.1705 22.9457 17.4509 22.9457H19.5214C19.8018 22.9457 20.029 22.7183 20.029 22.4379C20.029 22.1574 19.8018 21.9301 19.5214 21.9301Z" fill="#DA8300"/>
<path d="M12.8616 21.9301H10.791C10.5106 21.9301 10.2834 22.1574 10.2834 22.4379C10.2834 22.7183 10.5106 22.9457 10.791 22.9457H12.8616C13.142 22.9457 13.3692 22.7183 13.3692 22.4379C13.3692 22.1574 13.142 21.9301 12.8616 21.9301V21.9301Z" fill="#DA8300"/>
<path d="M15.6349 22.2435C15.5531 22.0473 15.3513 21.9192 15.1387 21.9307C14.9275 21.9421 14.7416 22.0884 14.6802 22.2906C14.6197 22.4896 14.6903 22.7145 14.8566 22.8407C15.0286 22.9712 15.2676 22.9791 15.4475 22.86C15.6476 22.7274 15.7255 22.4648 15.6349 22.2435V22.2435Z" fill="#DA8300"/>
<path d="M12.9177 14.5451H13.6262V15.2539C13.6262 15.5344 13.8534 15.7618 14.1338 15.7618H16.1785C16.4589 15.7618 16.6861 15.5344 16.6861 15.2539V14.5451H17.3946C17.6749 14.5451 17.9022 14.3178 17.9022 14.0373V11.9917C17.9022 11.7112 17.6749 11.4838 17.3946 11.4838H16.6861V10.775C16.6861 10.4946 16.4589 10.2672 16.1785 10.2672H14.1338C13.8534 10.2672 13.6262 10.4946 13.6262 10.775V11.4838H12.9177C12.6373 11.4838 12.4101 11.7112 12.4101 11.9917V14.0373C12.4101 14.3178 12.6373 14.5451 12.9177 14.5451ZM13.4253 12.4995H14.1338C14.4141 12.4995 14.6413 12.2722 14.6413 11.9917V11.2829H15.6709V11.9917C15.6709 12.2722 15.8982 12.4995 16.1785 12.4995H16.887V13.5296H16.1785C15.8982 13.5296 15.6709 13.7569 15.6709 14.0374V14.7461H14.6413V14.0373C14.6413 13.7569 14.4141 13.5295 14.1338 13.5295H13.4253V12.4995Z" fill="#DA8300"/>
<path d="M10.0104 17.7054V20.3114C10.0104 20.5919 10.2377 20.8192 10.518 20.8192H19.7947C20.075 20.8192 20.3023 20.5919 20.3023 20.3114V17.7054C20.3023 17.4249 20.075 17.1976 19.7947 17.1976H10.518C10.2377 17.1976 10.0104 17.4249 10.0104 17.7054ZM11.0256 18.2132H19.2871V19.8036H11.0256V18.2132Z" fill="#DA8300"/>
</svg>
