<svg width="32" height="8" viewBox="0 0 32 8" fill="none" xmlns="http://www.w3.org/2000/svg">
<path d="M8.49972 3.99998C8.49972 5.0419 8.08582 6.04115 7.34907 6.7779C6.61232 7.51465 5.61307 7.92855 4.57115 7.92855C3.52923 7.92855 2.52998 7.51465 1.79323 6.7779C1.05648 6.04115 0.642578 5.0419 0.642578 3.99998C0.642578 2.95806 1.05648 1.95881 1.79323 1.22206C2.52998 0.485313 3.52923 0.0714111 4.57115 0.0714111C5.61307 0.0714111 6.61232 0.485313 7.34907 1.22206C8.08582 1.95881 8.49972 2.95806 8.49972 3.99998Z" fill="#35C0ED"/>
<path d="M19.9275 3.99998C19.9275 5.0419 19.5136 6.04115 18.7768 6.7779C18.0401 7.51465 17.0408 7.92855 15.9989 7.92855C14.957 7.92855 13.9577 7.51465 13.221 6.7779C12.4842 6.04115 12.0703 5.0419 12.0703 3.99998C12.0703 2.95806 12.4842 1.95881 13.221 1.22206C13.9577 0.485313 14.957 0.0714111 15.9989 0.0714111C17.0408 0.0714111 18.0401 0.485313 18.7768 1.22206C19.5136 1.95881 19.9275 2.95806 19.9275 3.99998Z" fill="#35C0ED"/>
<path d="M27.4286 7.92855C28.4705 7.92855 29.4697 7.51465 30.2065 6.7779C30.9432 6.04115 31.3571 5.0419 31.3571 3.99998C31.3571 2.95806 30.9432 1.95881 30.2065 1.22206C29.4697 0.485313 28.4705 0.0714111 27.4286 0.0714111C26.3866 0.0714111 25.3874 0.485313 24.6507 1.22206C23.9139 1.95881 23.5 2.95806 23.5 3.99998C23.5 5.0419 23.9139 6.04115 24.6507 6.7779C25.3874 7.51465 26.3866 7.92855 27.4286 7.92855Z" fill="#35C0ED"/>
</svg>
