<svg width="20" height="20" viewBox="0 0 20 20" fill="none" xmlns="http://www.w3.org/2000/svg">
<path d="M17.7618 2.23481C16.8958 1.36883 15.7213 0.882324 14.4966 0.882324C13.2719 0.882324 12.0974 1.36883 11.2314 2.23481L2.2314 11.2348C1.36541 12.1008 0.878906 13.2753 0.878906 14.5C0.878906 15.7247 1.36541 16.8993 2.2314 17.7652C3.09739 18.6312 4.27193 19.1177 5.49662 19.1177C6.72132 19.1177 7.89585 18.6312 8.76184 17.7652L17.7618 8.76525C18.6265 7.89857 19.1122 6.72429 19.1122 5.50003C19.1122 4.27576 18.6265 3.10148 17.7618 2.23481ZM8.2314 17.2348C7.50387 17.9493 6.52361 18.3476 5.50391 18.343C4.4842 18.3384 3.50758 17.9313 2.78653 17.2102C2.06548 16.4892 1.65836 15.5125 1.65376 14.4928C1.64915 13.4731 2.04743 12.4929 2.76194 11.7653L6.99662 7.53037L12.4663 13L8.2314 17.2348ZM17.2314 8.23481L12.9966 12.4697L7.52697 7.00003L11.7618 2.76525C12.4889 2.04816 13.47 1.6477 14.4911 1.65121C15.5123 1.65472 16.4906 2.06193 17.2127 2.78399C17.9347 3.50606 18.3419 4.48439 18.3454 5.50554C18.349 6.52669 17.9485 7.50779 17.2314 8.23481ZM15.5618 6.03506C15.6309 6.10659 15.6687 6.20262 15.667 6.30204C15.6653 6.40146 15.6241 6.49612 15.5526 6.56522L13.2637 8.77621C13.1922 8.84532 13.0961 8.88319 12.9967 8.88147C12.8972 8.87976 12.8025 8.83861 12.7334 8.76708C12.6643 8.69554 12.6264 8.59948 12.6282 8.50003C12.6299 8.40058 12.671 8.30589 12.7426 8.23678L15.0316 6.02578C15.067 5.99157 15.1088 5.96468 15.1546 5.94663C15.2004 5.92858 15.2494 5.91974 15.2986 5.9206C15.3478 5.92146 15.3964 5.93201 15.4416 5.95165C15.4868 5.97129 15.5276 5.99963 15.5618 6.03506Z" fill="#828282"/>
</svg>
