<svg width="25" height="25" viewBox="0 0 25 25" fill="none" xmlns="http://www.w3.org/2000/svg">
<path d="M20.5354 12.5C20.0423 12.5 19.6426 12.8998 19.6426 13.3929V22.3213C19.6426 22.8144 19.2428 23.2142 18.7497 23.2142H2.67854C2.18541 23.2142 1.78567 22.8144 1.78567 22.3213V4.46442C1.78567 3.9713 2.18541 3.57156 2.67854 3.57156H13.3927C13.8858 3.57156 14.2855 3.17182 14.2855 2.6787C14.2855 2.18558 13.8858 1.78589 13.3927 1.78589H2.67854C1.19922 1.78589 0 2.98511 0 4.46442V22.3213C0 23.8006 1.19922 24.9998 2.67854 24.9998H18.7498C20.2291 24.9998 21.4283 23.8006 21.4283 22.3213V13.3928C21.4283 12.8998 21.0285 12.5 20.5354 12.5Z" fill="#35C0ED"/>
<path d="M23.9992 1.00134C23.3581 0.360169 22.4886 3.15657e-05 21.5819 0.000136196C20.6747 -0.00247956 19.8043 0.358286 19.165 1.00192L7.4044 12.7615C7.30683 12.8598 7.23322 12.9793 7.18922 13.1106L5.40355 18.4677C5.2477 18.9356 5.50065 19.4411 5.9685 19.5969C6.05927 19.6272 6.15432 19.6426 6.24996 19.6427C6.3458 19.6425 6.44106 19.6272 6.53209 19.5972L11.8892 17.8115C12.0207 17.7676 12.1403 17.6936 12.2383 17.5954L23.9988 5.8349C25.3337 4.50023 25.3338 2.33616 23.9992 1.00134ZM22.7364 4.57327L11.1293 16.1803L7.66152 17.3383L8.81596 13.8749L20.4274 2.26795C21.0658 1.63085 22.0998 1.6319 22.7369 2.27025C23.0412 2.57519 23.2127 2.98801 23.214 3.41883C23.2151 3.85194 23.0431 4.26754 22.7364 4.57327Z" fill="#35C0ED"/>
</svg>
