<svg width="20" height="20" viewBox="0 0 20 20" fill="none" xmlns="http://www.w3.org/2000/svg">
<path d="M17.778 3.33398H2.22244C1.92775 3.33398 1.64514 3.45105 1.43676 3.65942C1.22839 3.86779 1.11133 4.15041 1.11133 4.4451V15.5562C1.11133 15.8509 1.22839 16.1335 1.43676 16.3419C1.64514 16.5503 1.92775 16.6673 2.22244 16.6673H17.778C18.0727 16.6673 18.3553 16.5503 18.5637 16.3419C18.772 16.1335 18.8891 15.8509 18.8891 15.5562V4.4451C18.8891 4.15041 18.772 3.86779 18.5637 3.65942C18.3553 3.45105 18.0727 3.33398 17.778 3.33398ZM16.9224 15.5562H3.14466L7.03355 11.534L6.23355 10.7618L2.22244 14.9118V5.28954L9.128 12.1618C9.33618 12.3687 9.61779 12.4849 9.91133 12.4849C10.2049 12.4849 10.4865 12.3687 10.6947 12.1618L17.778 5.11732V14.8395L13.6891 10.7507L12.9058 11.534L16.9224 15.5562ZM2.95022 4.4451H16.878L9.91133 11.3729L2.95022 4.4451Z" fill="#828282"/>
</svg>
