<svg width="24" height="24" viewBox="0 0 24 24" fill="none" xmlns="http://www.w3.org/2000/svg">
<path d="M13.8297 18.9993C13.6803 18.9998 13.5327 18.9668 13.3977 18.9028C13.2627 18.8388 13.1438 18.7453 13.0497 18.6293L8.21968 12.6293C8.07259 12.4504 7.99219 12.2259 7.99219 11.9943C7.99219 11.7627 8.07259 11.5382 8.21968 11.3593L13.2197 5.3593C13.3894 5.15508 13.6333 5.02666 13.8978 5.00228C14.1622 4.9779 14.4255 5.05956 14.6297 5.2293C14.8339 5.39904 14.9623 5.64295 14.9867 5.90738C15.0111 6.1718 14.9294 6.43508 14.7597 6.6393L10.2897 11.9993L14.6097 17.3593C14.732 17.5061 14.8096 17.6848 14.8335 17.8744C14.8574 18.0639 14.8265 18.2563 14.7444 18.4289C14.6624 18.6014 14.5326 18.7468 14.3705 18.8479C14.2084 18.949 14.0207 19.0015 13.8297 18.9993Z" fill="#44546A"/>
</svg>
