<svg width="35" height="35" viewBox="0 0 35 35" fill="none" xmlns="http://www.w3.org/2000/svg">
<path d="M17.0001 3.0625C8.71585 3.0625 2 9.77835 2 18.0626C2 25.4926 7.40783 31.6459 14.4984 32.8374V21.192H10.8799V17.0013H14.4984V13.9113C14.4984 10.3259 16.6882 8.37209 19.8871 8.37209C21.4191 8.37209 22.7357 8.48625 23.1179 8.53653V12.2842L20.8993 12.2853C19.16 12.2853 18.8247 13.1116 18.8247 14.3246V16.9992H22.9748L22.4335 21.1899H18.8247V32.9376C26.2463 32.0343 32 25.7243 32 18.0583C32 9.77835 25.2841 3.0625 17.0001 3.0625Z" fill="#505050"/>
</svg>
