<svg width="32" height="32" viewBox="0 0 32 32" fill="none" xmlns="http://www.w3.org/2000/svg">
<g clip-path="url(#clip0_327_17804)">
<path d="M32 16.0022C32 23.9884 26.149 30.6079 18.4998 31.8081V20.6283H22.2281L22.9369 16.0022H18.4998V13.0006C18.4998 11.7361 19.1185 10.5009 21.1076 10.5009H23.1259V6.5633C23.1259 6.5633 21.2943 6.25054 19.5438 6.25054C15.8897 6.25054 13.5002 8.46458 13.5002 12.4764V16.0022H9.43665V20.6283H13.5002V31.8081C5.85103 30.6079 0 23.9884 0 16.0022C0 7.16564 7.16344 0.00219727 16 0.00219727C24.8366 0.00219727 32 7.16564 32 16.0022ZM13.5002 31.8087C14.3147 31.9369 15.1495 32.0022 16 32.0022C15.1496 32.0022 14.3147 31.9359 13.5002 31.8081V31.8087ZM18.4998 31.8087V31.8081C18.3742 31.8278 18.2484 31.846 18.1224 31.8627C18.2484 31.8461 18.3742 31.8281 18.4998 31.8087ZM18.1224 31.8627C17.428 31.9547 16.7196 32.0022 16 32.0022C16.7197 32.0022 17.428 31.9539 18.1224 31.8627Z" fill="#444444"/>
</g>
<defs>
<clipPath id="clip0_327_17804">
<rect width="32" height="32" fill="white"/>
</clipPath>
</defs>
</svg>
