<svg width="21" height="19" viewBox="0 0 21 19" fill="none" xmlns="http://www.w3.org/2000/svg">
<path fill-rule="evenodd" clip-rule="evenodd" d="M6.66184 11.2392H7.66107C7.84427 11.2392 7.99415 11.3925 7.99415 11.5798V12.9421C7.99415 13.1294 7.84427 13.2827 7.66107 13.2827H6.66184V14.3044C6.66184 14.4917 6.51195 14.6449 6.32876 14.6449H4.99645C4.81325 14.6449 4.66337 14.4917 4.66337 14.3044V13.2827H3.66413C3.48094 13.2827 3.33105 13.1294 3.33105 12.9421V11.5798C3.33105 11.3925 3.48094 11.2392 3.66413 11.2392H4.66337V10.2175C4.66337 10.0302 4.81325 9.87695 4.99645 9.87695H6.32876C6.51195 9.87695 6.66184 10.0302 6.66184 10.2175V11.2392ZM6.3296 12.602H7.32884V11.9209H6.3296C6.14641 11.9209 5.99652 11.7676 5.99652 11.5803V10.5586H5.33036V11.5803C5.33036 11.7676 5.18048 11.9209 4.99728 11.9209H3.99805V12.602H4.99728C5.18048 12.602 5.33036 12.7553 5.33036 12.9426V13.9643H5.99652V12.9426C5.99652 12.7553 6.14641 12.602 6.3296 12.602Z" fill="#9F9FA6"/>
<path fill-rule="evenodd" clip-rule="evenodd" d="M15.5348 12.2605H17.6532C19.3052 12.2605 20.6509 13.6364 20.6509 15.3257C20.6509 16.143 20.3411 16.9127 19.7749 17.4917C19.2053 18.0741 18.4526 18.3908 17.6532 18.3908H11.6578C11.4079 18.3908 11.1581 18.3602 10.9117 18.2954C10.8784 18.2852 10.8484 18.2682 10.8217 18.2512C10.6752 18.3363 10.5053 18.3908 10.3254 18.3908H0.999236C0.449656 18.3908 0 17.931 0 17.3691V15.6662V8.85483V7.83312C0 7.7582 0.0233155 7.68668 0.0666157 7.62878L2.66463 4.08685C2.11505 4.08685 1.66539 3.62708 1.66539 3.06513V1.02171C1.66539 0.45977 2.11505 0 2.66463 0H8.66005C9.20963 0 9.65928 0.45977 9.65928 1.02171V3.06513C9.65928 3.62708 9.20963 4.08685 8.66005 4.08685L10.6585 6.81141V3.74628C10.6585 2.05705 12.0042 0.681141 13.6562 0.681141C15.3083 0.681141 16.6539 2.05705 16.6539 3.74628V9.87654C16.6539 10.8404 16.2143 11.6986 15.5348 12.2605ZM11.3242 9.87691C11.3242 11.1915 12.3701 12.2609 13.6558 12.2609C14.9415 12.2609 15.9873 11.1915 15.9873 9.87691V7.15234H11.3242V7.83348V8.8552V9.87691ZM0.666016 9.19531H10.6584V9.87645V15.3256H0.666016V9.19531ZM11.7772 12.2601C11.6107 12.1204 11.4575 11.9672 11.3242 11.7969V12.2805C11.4341 12.2703 11.5474 12.2601 11.6573 12.2601H11.7772ZM13.6558 1.36328C14.9415 1.36328 15.9873 2.43267 15.9873 3.74728V6.47184H11.3242V3.74728C11.3242 2.43267 12.3701 1.36328 13.6558 1.36328ZM2.33203 1.02221V3.06563C2.33203 3.25295 2.48192 3.4062 2.66511 3.4062H8.66052C8.84372 3.4062 8.9936 3.25295 8.9936 3.06563V1.02221C8.9936 0.834897 8.84372 0.681641 8.66052 0.681641H7.99437V1.70335C7.99437 1.89067 7.84448 2.04392 7.66129 2.04392C7.4781 2.04392 7.32821 1.89067 7.32821 1.70335V0.681641H5.9959V1.70335C5.9959 1.89067 5.84601 2.04392 5.66282 2.04392C5.47962 2.04392 5.32974 1.89067 5.32974 1.70335V0.681641H3.99742V1.70335C3.99742 1.89067 3.84754 2.04392 3.66435 2.04392C3.48115 2.04392 3.33127 1.89067 3.33127 1.70335V0.681641H2.66511C2.48192 0.681641 2.33203 0.834897 2.33203 1.02221ZM3.49719 4.08594H7.82721L10.6584 7.9446V8.51336H0.666016V7.9446L3.49719 4.08594ZM0.999094 17.7107H10.3253C10.5085 17.7107 10.6584 17.5574 10.6584 17.3701V16.0078H0.666016V17.3701C0.666016 17.5574 0.815901 17.7107 0.999094 17.7107ZM11.2754 17.6719C11.3054 17.5766 11.3254 17.4744 11.3254 17.3688V15.666V12.9687C11.4353 12.9516 11.5485 12.9414 11.6584 12.9414H14.3231V17.7094H11.6584C11.5319 17.7094 11.402 17.6958 11.2754 17.6719ZM17.6529 17.7094C18.2724 17.7094 18.8587 17.4608 19.305 17.0112C19.7413 16.5583 19.9845 15.9589 19.9845 15.3254C19.9845 14.0108 18.9386 12.9414 17.6529 12.9414H14.9883V17.7094H17.6529Z" fill="#9F9FA6"/>
</svg>
