<svg width="35" height="35" viewBox="0 0 35 35" fill="none" xmlns="http://www.w3.org/2000/svg">
<path d="M33.5831 14.4234C33.7923 15.5217 33.9063 16.67 33.9063 17.8683C33.9063 27.2414 27.5046 33.9062 17.8359 33.9062C15.6371 33.9069 13.4597 33.483 11.4282 32.6587C9.39661 31.8345 7.5507 30.626 5.99592 29.1024C4.44113 27.5788 3.20794 25.77 2.36681 23.7792C1.52567 21.7884 1.09308 19.6547 1.09375 17.5C1.09308 15.3453 1.52567 13.2116 2.36681 11.2208C3.20794 9.23003 4.44113 7.42116 5.99592 5.89756C7.5507 4.37397 9.39661 3.16552 11.4282 2.34126C13.4597 1.51701 15.6371 1.09309 17.8359 1.09375C22.3565 1.09375 26.1338 2.72371 29.0319 5.37031L24.3123 9.99519V9.98352C22.5555 8.34357 20.3258 7.50192 17.8359 7.50192C12.3119 7.50192 7.8219 12.0751 7.8219 17.49C7.8219 22.9032 12.3119 27.4864 17.8359 27.4864C22.848 27.4864 26.2597 24.6782 26.9604 20.8216H17.8359V14.4234H33.5848H33.5831Z" fill="#505050"/>
</svg>
