<svg width="20" height="17" viewBox="0 0 20 17" fill="none" xmlns="http://www.w3.org/2000/svg">
<path fill-rule="evenodd" clip-rule="evenodd" d="M18.0402 6.56441C18.0383 6.57929 18.0363 6.59788 18.0363 6.61276C18.0235 6.85449 17.6613 12.2564 10.9766 14.6923C10.9729 14.6942 10.971 14.6942 10.9673 14.6961V11.362L10.9766 11.3527L15.0127 6.99768C15.3767 6.60532 15.3544 5.98982 14.9607 5.6235C14.5669 5.25903 13.9521 5.28134 13.5862 5.67556L10.9766 8.49273L10.9673 8.50202V5.59932C10.971 5.59188 10.9729 5.58631 10.9766 5.57887C11.2998 4.85738 12.847 1.94538 16.6732 1.94538C16.7103 1.94538 16.7475 1.94538 16.7846 1.94724C18.2817 3.74167 18.0421 6.53652 18.0402 6.56441ZM9.0319 8.50202L9.02447 8.49273L6.413 5.67556C6.04895 5.28134 5.4323 5.25717 5.04039 5.6235C4.64663 5.98982 4.62248 6.60532 4.9882 6.99768L9.02447 11.3527L9.0319 11.3601V14.6961C9.03005 14.6961 9.02633 14.6942 9.02447 14.6942C2.33791 12.2582 1.97572 6.85449 1.96457 6.61648C1.96272 6.59974 1.96086 6.58115 1.96086 6.56441C1.95714 6.53466 1.7064 3.75283 3.21459 1.94724C3.25359 1.94538 3.2926 1.94538 3.3316 1.94538C7.17267 1.94538 8.69943 4.84994 9.02447 5.58259C9.02633 5.58816 9.03005 5.59374 9.0319 5.59932V8.50202ZM17.9139 0.303427C17.7467 0.136071 17.5238 0.0337978 17.288 0.0189217C13.6271 -0.206079 11.2589 1.646 10.0015 3.38836C8.74215 1.646 6.37399 -0.207939 2.71291 0.0189217C2.47535 0.0337978 2.25247 0.136071 2.0853 0.303427C-0.26614 2.65757 -0.00796428 6.3673 0.0236112 6.72991C0.0384702 6.99396 0.190775 8.82186 1.38693 10.9194C2.53293 12.9295 4.89738 15.6016 9.66898 16.9424C9.69313 16.9498 9.71913 16.9572 9.74514 16.9647H9.74699C9.76557 16.9702 9.78228 16.974 9.80086 16.9777C9.825 16.9833 9.84915 16.987 9.87515 16.9907C9.91787 16.9981 9.96059 17 10.0031 17C10.0442 17 10.085 16.9981 10.1259 16.9907L10.1928 16.9795C10.2132 16.9758 10.2336 16.9702 10.2541 16.9647C10.2817 16.9572 10.3098 16.9498 10.3376 16.9405C19.1565 14.4562 19.9217 7.41049 19.9737 6.75036C19.996 6.53466 20.3192 2.7115 17.9139 0.303427Z" fill="#88B04B"/>
</svg>
