<svg width="86" height="86" viewBox="0 0 86 86" fill="none" xmlns="http://www.w3.org/2000/svg">
<circle cx="43" cy="43" r="43" fill="#7380B4"/>
<g clip-path="url(#clip0)">
<path d="M58.6273 45.1098L58.3369 45.1215C57.4481 45.1581 56.6124 45.5243 55.9869 46.1498L51.6209 50.47C51.5352 50.3528 51.4407 50.2404 51.3378 50.1334C50.72 49.4922 49.8554 49.1242 48.9648 49.1242H42.6319C41.4501 49.1242 40.298 48.9711 39.2075 48.6693C36.2858 47.8607 33.4979 48.4445 31.1457 50.3576C30.2177 51.1123 29.5336 51.933 29.0916 52.5449C28.6056 52.241 28.042 52.0824 27.4568 52.0919C26.6548 52.1055 25.907 52.4311 25.3508 53.0086L22.6624 55.7991C21.5319 56.9728 21.5561 58.8588 22.7162 60.0028L24.566 61.8277C24.5729 61.8343 24.5799 61.8412 24.5868 61.8474L29.1601 66.09C29.735 66.6353 30.4766 66.9063 31.2171 66.9063C31.9971 66.9063 32.7764 66.6056 33.3594 66.0072L35.9808 63.3181C36.54 62.7443 36.8417 61.9873 36.8304 61.1864C36.8264 60.8843 36.7776 60.5899 36.6883 60.3105L37.9272 60.1662C38.5805 60.09 39.2459 60.0515 39.9044 60.0515H49.5397C49.6914 60.0515 49.8448 60.0453 49.9957 60.0325L50.9193 59.9556C51.8806 59.8754 52.8071 59.5418 53.5988 58.991C53.9877 58.7207 54.34 58.4007 54.6469 58.0399L61.1398 50.4011C61.866 49.5468 62.1012 48.3976 61.769 47.3268C61.3457 45.963 60.0537 45.049 58.6273 45.1098ZM34.6324 62.0038L32.011 64.6929C31.5895 65.1254 30.8912 65.1382 30.4543 64.7218C30.4514 64.7193 30.4481 64.7163 30.4451 64.7138L25.8781 60.4771L24.0386 58.6625C23.6091 58.2388 23.5999 57.5401 24.0189 57.1054L26.7068 54.3148C26.9134 54.1002 27.191 53.9794 27.4887 53.9746C27.785 53.9673 28.0677 54.0808 28.2815 54.2885L34.6108 60.4302C34.8239 60.6371 34.9437 60.9151 34.9481 61.2124C34.9521 61.5098 34.84 61.791 34.6324 62.0038ZM59.7054 49.1813L53.2125 56.8205C53.0107 57.0574 52.7789 57.2676 52.5236 57.4456C52.0032 57.8074 51.3946 58.0264 50.7629 58.0791L49.8393 58.156C49.7401 58.1641 49.6394 58.1685 49.5397 58.1685H39.9044C39.1734 58.1685 38.4351 58.2113 37.7097 58.2959L35.4765 58.5556L30.5231 53.7794C30.8762 53.2715 31.48 52.5124 32.3337 51.8184C34.2197 50.2851 36.3631 49.8357 38.7054 50.4839C39.9593 50.8311 41.2806 51.0072 42.6319 51.0072H48.9648C49.3464 51.0072 49.717 51.1647 49.9814 51.4397C50.1715 51.6367 50.2934 51.8777 50.3454 52.1308C50.3461 52.2055 50.3553 52.2802 50.3736 52.3534C50.3886 52.6867 50.2872 53.0258 50.0653 53.3023L50.0407 53.3327C49.7716 53.6681 49.3702 53.8607 48.9399 53.8607H43.4269C42.9069 53.8607 42.4854 54.2822 42.4854 54.8023C42.4854 55.3219 42.9069 55.7438 43.4269 55.7438H48.9399C49.9444 55.7438 50.8808 55.2945 51.5096 54.5104L51.5341 54.48C52.0021 53.897 52.2409 53.195 52.2559 52.4907L57.3148 47.485C57.6085 47.1913 57.9989 47.0199 58.4138 47.0031L58.7042 46.9913C59.2762 46.9657 59.7999 47.3352 59.9705 47.8849C60.1104 48.3364 60.0116 48.8213 59.7054 49.1813Z" fill="white"/>
<path d="M40.5091 54.5576C40.3912 54.0515 39.8847 53.7366 39.3783 53.8545C38.8722 53.9728 38.5572 54.4789 38.6751 54.9854L38.6828 55.018C38.7843 55.4527 39.1713 55.746 39.5991 55.746C39.6698 55.746 39.7415 55.7379 39.8133 55.7211C40.3198 55.6032 40.6347 55.0971 40.5168 54.5906L40.5091 54.5576Z" fill="white"/>
<path d="M43.7495 42.4075C43.8213 42.4075 43.8942 42.3994 43.9671 42.3822C44.4732 42.2625 44.7863 41.7553 44.6665 41.2492L44.6588 41.2166C44.5391 40.7105 44.0319 40.3981 43.5258 40.5171C43.0197 40.6368 42.7066 41.144 42.8263 41.6502L42.834 41.6827C42.9365 42.116 43.3229 42.4075 43.7495 42.4075Z" fill="white"/>
<path d="M52.1001 43.6332L52.0924 43.6002C51.9726 43.0945 51.4658 42.7818 50.9593 42.9011C50.4536 43.0205 50.1401 43.5277 50.2599 44.0338L50.2676 44.0668C50.3701 44.4997 50.7565 44.7915 51.1831 44.7915C51.2549 44.7915 51.3277 44.7831 51.4006 44.7659C51.9067 44.6465 52.2198 44.1389 52.1001 43.6332Z" fill="white"/>
<path d="M50.6753 46.4494C50.1688 46.5677 49.8539 47.0738 49.9721 47.5802L49.9795 47.6132C50.0809 48.0475 50.468 48.3408 50.8957 48.3408C50.9664 48.3408 51.0386 48.3328 51.1103 48.3159C51.6168 48.198 51.9314 47.6919 51.8135 47.1855L51.8058 47.1525C51.6878 46.646 51.1817 46.3318 50.6753 46.4494Z" fill="white"/>
<path d="M34.3422 40.1571C33.8361 40.2769 33.523 40.7841 33.6427 41.2902L33.6504 41.3228C33.7529 41.756 34.1393 42.0479 34.5659 42.0479C34.6377 42.0479 34.7106 42.0394 34.7835 42.0222C35.2896 41.9025 35.6027 41.3953 35.4829 40.8892L35.4752 40.8566C35.3555 40.3505 34.8483 40.0381 34.3422 40.1571Z" fill="white"/>
<path d="M38.0952 38.6952C38.167 38.6952 38.2399 38.6868 38.3127 38.6696C38.8188 38.5498 39.1319 38.0426 39.0122 37.5365L39.0045 37.5039C38.8848 36.9978 38.3776 36.6854 37.8714 36.8045C37.3657 36.9242 37.0522 37.4314 37.172 37.9375L37.1797 37.9701C37.2822 38.4033 37.6686 38.6952 38.0952 38.6952Z" fill="white"/>
<path d="M47.1613 37.5797C47.233 37.5797 47.3059 37.5713 47.3792 37.5541C47.8849 37.4343 48.198 36.9271 48.0786 36.421L48.0706 36.3884C47.9508 35.8823 47.444 35.5696 46.9379 35.689C46.4318 35.8087 46.1187 36.3159 46.2384 36.822L46.2461 36.8546C46.3486 37.2879 46.735 37.5797 47.1613 37.5797Z" fill="white"/>
<path d="M40.0944 45.8436C39.5883 45.963 39.2751 46.4702 39.3945 46.9763L39.4022 47.0089C39.5044 47.4425 39.8907 47.7344 40.3177 47.7344C40.3892 47.7344 40.462 47.7263 40.5345 47.7091C41.0406 47.5897 41.3541 47.0825 41.2347 46.5764L41.227 46.5438C41.1073 46.0377 40.6005 45.7243 40.0944 45.8436Z" fill="white"/>
<path d="M63.0027 20.8117C60.4623 18.2716 56.3292 18.2716 53.791 20.8095L46.7653 27.7854C46.7638 27.7869 46.7623 27.788 46.7609 27.7891C46.758 27.7924 46.7543 27.796 46.7514 27.7993L46.7177 27.8327C46.669 27.881 46.6272 27.9337 46.5913 27.989C46.2434 28.468 45.9461 29.3978 46.658 31.0425C47.1626 32.2074 48.0576 33.4657 49.1779 34.586C50.2981 35.7066 51.5568 36.6012 52.7213 37.1059C53.4585 37.4248 54.0521 37.5413 54.526 37.5413C55.1072 37.5413 55.5075 37.3662 55.7719 37.1751C55.8264 37.1395 55.8788 37.0985 55.9268 37.0509L61.9341 31.0864C62.1128 30.9956 62.2542 30.8521 62.3435 30.6796L63.0027 30.0252C63.7267 29.3012 64.2566 28.4442 64.5778 27.4782C65.3615 25.1212 64.7576 22.5669 63.0027 20.8117ZM55.1204 22.1432C56.9265 20.337 59.865 20.337 61.6712 22.1432C62.9192 23.3912 63.348 25.208 62.791 26.8842C62.5633 27.5697 62.1864 28.1784 61.6734 28.6914L56.182 34.1439C56.1311 34.0154 56.0769 33.8905 56.0213 33.7715C55.5023 32.6593 54.5952 31.4255 53.4669 30.2973C52.2995 29.1298 50.9035 28.0982 49.6323 27.5921L55.1204 22.1432ZM50.5094 33.2544C48.5791 31.3241 48.0243 29.5963 48.1045 29.1408C48.5495 29.0873 50.1904 29.6842 52.1354 31.6288C54.0796 33.5734 54.6762 35.2151 54.6231 35.6597C54.1682 35.7392 52.4394 35.1847 50.5094 33.2544Z" fill="white"/>
<path d="M30.2112 37.0224C30.2592 37.07 30.3112 37.1113 30.3661 37.1461C30.6301 37.3373 31.0304 37.5127 31.6116 37.5127C32.0855 37.5127 32.6791 37.3963 33.4159 37.0769C34.5808 36.5726 35.8391 35.6776 36.9597 34.5574C38.08 33.4368 38.975 32.1785 39.4793 31.0136C40.1915 29.3693 39.8942 28.4395 39.5466 27.9605C39.5104 27.9048 39.4683 27.8517 39.4192 27.8034L39.3851 27.7693C39.3822 27.7664 39.3793 27.7634 39.3764 27.7605C39.3742 27.7583 39.372 27.7561 39.3698 27.7539L32.3682 20.8116C29.8281 18.2716 25.6947 18.2716 23.1547 20.8116C20.6146 23.3517 20.6146 27.4851 23.1576 30.0281L30.2112 37.0224ZM35.6282 33.2258C33.6979 35.1561 31.9697 35.711 31.5145 35.6308C31.4614 35.1862 32.0576 33.5444 34.0022 31.5999C35.9464 29.6553 37.586 29.0573 38.0331 29.1122C38.1129 29.5674 37.5585 31.2955 35.6282 33.2258ZM24.4862 22.1432C26.2924 20.337 29.2308 20.337 31.0396 22.1458L36.5001 27.5602C36.3778 27.6093 36.2588 27.6609 36.1449 27.714C35.0327 28.2329 33.799 29.14 32.6707 30.2683C31.5427 31.3966 30.6353 32.6304 30.1163 33.7426C30.0603 33.8623 30.0061 33.9876 29.9548 34.1165L24.4862 28.694C22.6801 26.8878 22.6804 23.949 24.4862 22.1432Z" fill="white"/>
<path d="M42.8375 38.9611C44.3401 38.9611 45.5621 37.739 45.5621 36.2365C45.5621 34.7346 44.3401 33.5122 42.8375 33.5122C41.3357 33.5122 40.1133 34.7343 40.1133 36.2365C40.1136 37.739 41.3357 38.9611 42.8375 38.9611ZM42.8375 35.3953C43.3015 35.3953 43.6791 35.7728 43.6791 36.2368C43.6791 36.7008 43.3015 37.078 42.8375 37.078C42.3739 37.078 41.9963 36.7008 41.9963 36.2368C41.9963 35.7728 42.3739 35.3953 42.8375 35.3953Z" fill="white"/>
<path d="M48.4723 43.2743C49.9745 43.2743 51.1965 42.0523 51.1965 40.5501C51.1965 39.0479 49.9745 37.8258 48.4723 37.8258C46.9701 37.8258 45.748 39.0479 45.748 40.5501C45.748 42.0523 46.9701 43.2743 48.4723 43.2743ZM48.4723 39.7089C48.9363 39.7089 49.3135 40.0861 49.3135 40.5501C49.3135 41.0141 48.9363 41.3913 48.4723 41.3913C48.0083 41.3913 47.6311 41.0141 47.6311 40.5501C47.6311 40.0861 48.0083 39.7089 48.4723 39.7089Z" fill="white"/>
<path d="M45.4645 48.6067C46.9667 48.6067 48.1887 47.3847 48.1887 45.8825C48.1887 44.3803 46.9667 43.1582 45.4645 43.1582C43.9623 43.1582 42.7402 44.3803 42.7402 45.8825C42.7402 47.3847 43.9623 48.6067 45.4645 48.6067ZM45.4645 45.0413C45.9285 45.0413 46.3057 45.4188 46.3057 45.8825C46.3057 46.3465 45.9285 46.724 45.4645 46.724C45.0005 46.724 44.6229 46.3465 44.6229 45.8825C44.6229 45.4188 45.0005 45.0413 45.4645 45.0413Z" fill="white"/>
<path d="M39.3044 39.6085C37.9777 39.6085 36.8984 40.6878 36.8984 42.0145C36.8984 43.341 37.9777 44.4206 39.3044 44.4206C40.6312 44.4206 41.7105 43.341 41.7105 42.0145C41.7105 40.6878 40.6312 39.6085 39.3044 39.6085ZM39.3044 42.5375C39.0162 42.5375 38.7815 42.3028 38.7815 42.0145C38.7815 41.726 39.0162 41.4916 39.3044 41.4916C39.593 41.4916 39.8274 41.726 39.8274 42.0145C39.8274 42.3028 39.593 42.5375 39.3044 42.5375Z" fill="white"/>
</g>
<defs>
<clipPath id="clip0">
<rect width="48" height="48" fill="white" transform="translate(19 19)"/>
</clipPath>
</defs>
</svg>
