<svg xmlns="http://www.w3.org/2000/svg" width="40" height="40" viewBox="0 0 40 40"><path d="M12.309,18.107a2.582,2.582,0,0,0-3.633-.026,2.543,2.543,0,0,0-.709,1.31L6.73,18.18a1.894,1.894,0,0,1-.55-1.1l-.933-7.016A2.635,2.635,0,0,0,0,10.413V20.489a4.079,4.079,0,0,0,.967,2.636l3.3,3.894a.586.586,0,0,0,.894-.758l-3.3-3.894a2.906,2.906,0,0,1-.689-1.878V10.413a1.463,1.463,0,0,1,2.914-.193l.933,7.016a3.07,3.07,0,0,0,.892,1.782l2.776,2.718h0l2.628,2.572a.586.586,0,1,0,.82-.837L9.506,20.9A1.392,1.392,0,0,1,9.5,18.914a1.4,1.4,0,0,1,1.972.014l5.421,5.523A3.9,3.9,0,0,1,18.017,27.2V39.414a.586.586,0,0,0,1.172,0V27.2a5.064,5.064,0,0,0-1.458-3.568ZM6.963,28.382a.586.586,0,0,0-.894.758L8.9,32.472a1.977,1.977,0,0,1,.469,1.278v5.665a.586.586,0,0,0,1.172,0V33.75a3.151,3.151,0,0,0-.747-2.036ZM19.115,15.635h1.771a1.178,1.178,0,0,0,1.176-1.176v-3.1h3.1a1.178,1.178,0,0,0,1.176-1.176V8.408a1.178,1.178,0,0,0-1.176-1.176h-3.1v-3.1a1.178,1.178,0,0,0-1.176-1.176H19.115a1.178,1.178,0,0,0-1.176,1.176v3.1h-3.1a1.178,1.178,0,0,0-1.176,1.176v1.771a1.178,1.178,0,0,0,1.176,1.176h3.1v3.1A1.178,1.178,0,0,0,19.115,15.635ZM14.83,10.179l0-1.775h3.394a.882.882,0,0,0,.881-.881l0-3.4,1.775,0V7.522a.882.882,0,0,0,.881.881h3.394l0,0,0,1.776H21.771a.882.882,0,0,0-.881.881l0,3.4-1.775,0V11.064a.882.882,0,0,0-.881-.881ZM28.255,13.56a.586.586,0,0,0-1.04-.54,8.075,8.075,0,1,1,.8-2.429.586.586,0,0,0,1.157.187,9.3,9.3,0,1,0-.92,2.782Zm9.11-5.782a2.643,2.643,0,0,0-2.612,2.288l-.933,7.016a1.894,1.894,0,0,1-.55,1.1l-1.237,1.211a2.542,2.542,0,0,0-.709-1.31,2.581,2.581,0,0,0-3.633.026l-5.421,5.523A5.064,5.064,0,0,0,20.811,27.2V39.414a.586.586,0,0,0,1.172,0V27.2a3.9,3.9,0,0,1,1.123-2.747l5.421-5.523a1.4,1.4,0,0,1,1.972-.014,1.392,1.392,0,0,1-.006,1.983L27.865,23.47a.586.586,0,1,0,.82.837l2.628-2.572h0l2.776-2.717a3.07,3.07,0,0,0,.892-1.781l.933-7.016a1.463,1.463,0,0,1,2.914.193V20.489a2.906,2.906,0,0,1-.689,1.878l-7.928,9.347a3.151,3.151,0,0,0-.747,2.036v5.664a.586.586,0,0,0,1.172,0V33.75a1.977,1.977,0,0,1,.469-1.278l7.928-9.347A4.079,4.079,0,0,0,40,20.489V10.413A2.638,2.638,0,0,0,37.365,7.778Z" fill="#828282"/></svg>