<svg width="16" height="16" viewBox="0 0 16 16" fill="none" xmlns="http://www.w3.org/2000/svg">
<path d="M14.3037 6.7695C14.3857 7.20883 14.4304 7.66817 14.4304 8.1475C14.4304 11.8968 11.921 14.5628 8.13103 14.5628C7.26913 14.5631 6.41563 14.3935 5.61929 14.0638C4.82295 13.7341 4.09939 13.2507 3.48993 12.6413C2.88048 12.0318 2.39709 11.3082 2.06738 10.5119C1.73767 9.71556 1.5681 8.86206 1.56836 8.00017C1.5681 7.13827 1.73767 6.28477 2.06738 5.48843C2.39709 4.69209 2.88048 3.96853 3.48993 3.35907C4.09939 2.74962 4.82295 2.26623 5.61929 1.93652C6.41563 1.60681 7.26913 1.43724 8.13103 1.4375C9.90303 1.4375 11.3837 2.0895 12.5197 3.14817L10.6697 4.99817V4.9935C9.98103 4.3375 9.10703 4.00083 8.13103 4.00083C5.96569 4.00083 4.20569 5.83017 4.20569 7.99617C4.20569 10.1615 5.96569 11.9948 8.13103 11.9948C10.0957 11.9948 11.433 10.8715 11.7077 9.32883H8.13103V6.7695H14.3044H14.3037Z" fill="white"/>
</svg>
