<svg xmlns="http://www.w3.org/2000/svg" width="26" height="26" viewBox="0 0 26 26"><g transform="translate(-746 -151)"><rect width="26" height="26" transform="translate(746 151)" fill="none"/><path d="M.83.912a2.71,2.71,0,0,1,2-.912H17.173a2.709,2.709,0,0,1,2,.912A3.275,3.275,0,0,1,20,3.108v9.784a3.276,3.276,0,0,1-.829,2.2,2.709,2.709,0,0,1-2,.912H2.828a2.709,2.709,0,0,1-2-.912A3.275,3.275,0,0,1,0,12.892V3.108A3.276,3.276,0,0,1,.83.912ZM10,8.366a2.047,2.047,0,0,0,1.173-.375L16.3,4.4a.716.716,0,0,0,.274-.445.77.77,0,0,0-.087-.528.652.652,0,0,0-.4-.31.6.6,0,0,0-.482.085L10.479,6.793a.827.827,0,0,1-.957,0L4.393,3.2a.613.613,0,0,0-.235-.1.589.589,0,0,0-.252.006.619.619,0,0,0-.231.112.686.686,0,0,0-.174.2.753.753,0,0,0-.091.258.779.779,0,0,0,.006.277.747.747,0,0,0,.1.254A.678.678,0,0,0,3.7,4.4L8.828,7.992A2.047,2.047,0,0,0,10,8.366Z" transform="translate(749 156)" fill="#abb3bb" fill-rule="evenodd"/></g></svg>