<svg xmlns="http://www.w3.org/2000/svg" width="26" height="26" viewBox="0 0 26 26"><g transform="translate(-716 -151)"><rect width="26" height="26" transform="translate(716 151)" fill="none"/><path d="M13.253,19H2.748a2.765,2.765,0,0,1-1.943-.788A2.644,2.644,0,0,1,0,16.311V11.036A2.657,2.657,0,0,1,.646,9.312,2.762,2.762,0,0,1,2.273,8.4V5.6A5.5,5.5,0,0,1,3.95,1.641a5.815,5.815,0,0,1,8.1,0A5.5,5.5,0,0,1,13.726,5.6V8.4a2.759,2.759,0,0,1,1.628.916A2.657,2.657,0,0,1,16,11.036v5.276a2.642,2.642,0,0,1-.806,1.9A2.76,2.76,0,0,1,13.253,19ZM8,11.2a1.285,1.285,0,0,0-.895.357,1.167,1.167,0,0,0-.25,1.4,1.246,1.246,0,0,0,.361.425v1.877a.75.75,0,0,0,.053.3.772.772,0,0,0,.169.256.784.784,0,0,0,.257.172.8.8,0,0,0,.3.06.812.812,0,0,0,.305-.06.8.8,0,0,0,.257-.172.771.771,0,0,0,.168-.256.751.751,0,0,0,.054-.3V13.387a1.25,1.25,0,0,0,.359-.425,1.206,1.206,0,0,0,.133-.537,1.229,1.229,0,0,0-.383-.868A1.283,1.283,0,0,0,8,11.2ZM8,2.006a3.684,3.684,0,0,0-1.4.274,3.626,3.626,0,0,0-1.184.781,3.521,3.521,0,0,0-.784,1.168A3.443,3.443,0,0,0,4.367,5.6V8.35h7.266V5.6a3.458,3.458,0,0,0-.264-1.373,3.522,3.522,0,0,0-.785-1.168A3.612,3.612,0,0,0,9.4,2.281,3.691,3.691,0,0,0,8,2.006Z" transform="translate(721 155)" fill="#abb3bb"/></g></svg>