<svg width="24" height="24" viewBox="0 0 24 24" fill="none" xmlns="http://www.w3.org/2000/svg">
<path d="M11.9337 11.5333C13.7337 11.5333 15.1337 10.0667 15.1337 8.26665C15.1337 6.46665 13.667 5.06665 11.867 5.06665C10.067 5.06665 8.66699 6.53332 8.66699 8.26665C8.66699 10.0667 10.1337 11.5333 11.9337 11.5333ZM11.867 6.39998C11.9337 6.39998 11.9337 6.39998 11.867 6.39998C12.9337 6.39998 13.8003 7.26665 13.8003 8.33332C13.8003 9.39998 12.9337 10.2 11.867 10.2C10.8003 10.2 10.0003 9.33332 10.0003 8.33332C10.0003 7.26665 10.867 6.39998 11.867 6.39998Z" fill="#44546A"/>
<path d="M21.8 11.1334C20.5333 10 18.8667 9.40002 17.1333 9.46669H16.6C16.4667 10 16.2667 10.4667 16 10.8667C16.4 10.8 16.7333 10.8 17.1333 10.8C18.4 10.7334 19.6667 11.1334 20.6667 11.8667V16.6667H22V11.3334L21.8 11.1334Z" fill="#44546A"/>
<path d="M15.6003 5.20003C15.9337 4.40003 16.867 4.00003 17.7337 4.33337C18.5337 4.6667 18.9337 5.60003 18.6003 6.4667C18.3337 7.0667 17.7337 7.4667 17.1337 7.4667C17.0003 7.4667 16.8003 7.4667 16.667 7.40003C16.7337 7.73337 16.7337 8.0667 16.7337 8.33336V8.73337C16.867 8.73337 17.0003 8.80003 17.1337 8.80003C18.8003 8.80003 20.1337 7.4667 20.1337 5.8667C20.1337 4.20003 18.8003 2.8667 17.2003 2.8667C16.1337 2.8667 15.2003 3.40003 14.667 4.33337C15.0003 4.53337 15.3337 4.80003 15.6003 5.20003Z" fill="#44546A"/>
<path d="M8 10.9333C7.73333 10.5333 7.53333 10.0667 7.4 9.53335H6.86667C5.13333 9.46668 3.46667 10.0667 2.2 11.1333L2 11.3333V16.6667H3.33333V11.8667C4.4 11.1333 5.6 10.7333 6.86667 10.8C7.26667 10.8 7.66667 10.8667 8 10.9333Z" fill="#44546A"/>
<path d="M6.86619 8.73336C6.99952 8.73336 7.13285 8.73336 7.26619 8.66669V8.26669C7.26619 7.93336 7.26619 7.60003 7.33285 7.33336C7.19952 7.40002 6.99952 7.40003 6.86619 7.40003C5.99952 7.40003 5.26619 6.66669 5.26619 5.80002C5.26619 4.93336 5.99952 4.20003 6.86619 4.20003C7.53285 4.20003 8.13285 4.60003 8.39952 5.20003C8.66619 4.86669 9.06619 4.53336 9.39952 4.26669C8.53286 2.86669 6.73285 2.40003 5.33285 3.26669C3.93285 4.13336 3.46619 5.93336 4.33285 7.33336C4.86619 8.20003 5.79952 8.73336 6.86619 8.73336Z" fill="#44546A"/>
<path d="M17.4003 15.1333L17.267 14.9333C15.9337 13.4667 14.067 12.6 12.067 12.6667C10.067 12.6 8.13366 13.4667 6.80033 14.9333L6.66699 15.1333V20.2C6.66699 20.8 7.13366 21.3333 7.80033 21.3333H16.3337C16.9337 21.3333 17.467 20.8 17.467 20.2V15.1333H17.4003ZM16.067 20H8.00033V15.6C9.06699 14.5333 10.5337 14 12.067 14C13.5337 13.9333 15.0003 14.5333 16.067 15.6V20Z" fill="#44546A"/>
</svg>
