<svg xmlns="http://www.w3.org/2000/svg" width="14" height="14" viewBox="0 0 14 14"><g transform="translate(-0.719 -0.656)"><path d="M14.517,6.685H8.791a.457.457,0,0,0-.457.457V8.972a.457.457,0,0,0,.457.457h3.225a4.3,4.3,0,0,1-1.852,2.17l1.374,2.381a6.884,6.884,0,0,0,3.508-6.017,4.736,4.736,0,0,0-.078-.9A.463.463,0,0,0,14.517,6.685Z" transform="translate(-0.328 -0.267)" fill="#167ee6"/><path d="M7.775,12.309a4.271,4.271,0,0,1-3.694-2.137L1.7,11.543a7.012,7.012,0,0,0,9.585,2.573v0L9.912,11.732A4.235,4.235,0,0,1,7.775,12.309Z" transform="translate(-0.037 -0.4)" fill="#12b347"/><path d="M11.523,14.178v0L10.15,11.794a4.245,4.245,0,0,1-2.134.577v2.747A6.988,6.988,0,0,0,11.523,14.178Z" transform="translate(-0.303 -0.462)" fill="#0f993e"/><path d="M3.466,7.814A4.246,4.246,0,0,1,4.043,5.68L1.663,4.31a6.979,6.979,0,0,0,0,7.009L4.043,9.948A4.216,4.216,0,0,1,3.466,7.814Z" transform="translate(0 -0.158)" fill="#ffd500"/><path d="M7.775,3.4a4.254,4.254,0,0,1,2.711.974A.457.457,0,0,0,11.1,4.35l1.3-1.3a.46.46,0,0,0-.027-.673A7,7,0,0,0,1.7,4.17L4.081,5.541A4.271,4.271,0,0,1,7.775,3.4Z" transform="translate(-0.037 0)" fill="#ff4b26"/><path d="M10.727,4.377a.457.457,0,0,0,.613-.027l1.3-1.3a.46.46,0,0,0-.027-.673A6.974,6.974,0,0,0,8.016.656V3.4A4.237,4.237,0,0,1,10.727,4.377Z" transform="translate(-0.306 0)" fill="#d93f21"/></g></svg>