<svg xmlns="http://www.w3.org/2000/svg" width="26" height="26" viewBox="0 0 26 26"><g transform="translate(-789 -151)"><rect width="26" height="26" transform="translate(789 151)" fill="none"/><g transform="translate(794 155)"><path d="M5.83,7.14A3.9,3.9,0,1,1,8,7.8,3.9,3.9,0,0,1,5.83,7.14Z" fill="#abb3bb"/><path d="M3.231,11.26a8.5,8.5,0,0,1,12.659,3.886,1.49,1.49,0,0,1-.155,1.407,1.543,1.543,0,0,1-1.277.681H1.541a1.541,1.541,0,0,1-1.277-.68,1.508,1.508,0,0,1-.157-1.408A8.5,8.5,0,0,1,3.231,11.26Z" fill="#abb3bb"/></g></g></svg>