<svg width="32" height="32" viewBox="0 0 32 32" fill="none" xmlns="http://www.w3.org/2000/svg">
<g clip-path="url(#clip0_327_17810)">
<path d="M16.0006 0.640015C7.51743 0.640015 0.640625 7.51681 0.640625 16C0.640625 24.4832 7.51743 31.36 16.0006 31.36C24.4838 31.36 31.3606 24.4832 31.3606 16C31.3606 7.51681 24.4838 0.640015 16.0006 0.640015ZM12.2406 22.3664H9.13023V12.3568H12.2406V22.3664ZM10.6662 11.128C9.68382 11.128 9.04862 10.432 9.04862 9.57121C9.04862 8.69281 9.70302 8.01761 10.7062 8.01761C11.7094 8.01761 12.3238 8.69281 12.343 9.57121C12.343 10.432 11.7094 11.128 10.6662 11.128ZM23.6006 22.3664H20.4902V16.8192C20.4902 15.528 20.039 14.6512 18.9142 14.6512C18.055 14.6512 17.5446 15.2448 17.319 15.816C17.2358 16.0192 17.215 16.3072 17.215 16.5936V22.3648H14.103V15.5488C14.103 14.2992 14.063 13.2544 14.0214 12.3552H16.7238L16.8662 13.7456H16.9286C17.3382 13.0928 18.3414 12.1296 20.0198 12.1296C22.0662 12.1296 23.6006 13.5008 23.6006 16.448V22.3664Z" fill="#444444"/>
</g>
<defs>
<clipPath id="clip0_327_17810">
<rect width="32" height="32" fill="white"/>
</clipPath>
</defs>
</svg>
