<svg width="22" height="22" viewBox="0 0 22 22" fill="none" xmlns="http://www.w3.org/2000/svg">
<path d="M10.9825 7.24236C11.455 7.24236 11.8381 6.85932 11.8381 6.38681C11.8381 5.91429 11.455 5.53125 10.9825 5.53125C10.51 5.53125 10.127 5.91429 10.127 6.38681C10.127 6.85932 10.51 7.24236 10.9825 7.24236Z" fill="#35C0ED"/>
<path d="M12.8325 15.2783H11.6102V8.61719H9.77691C9.61483 8.61719 9.45939 8.68157 9.34479 8.79618C9.23018 8.91078 9.1658 9.06622 9.1658 9.2283C9.1658 9.39038 9.23018 9.54581 9.34479 9.66042C9.45939 9.77503 9.61483 9.83941 9.77691 9.83941H10.388V15.2783H9.1658C9.00372 15.2783 8.84828 15.3427 8.73368 15.4573C8.61907 15.5719 8.55469 15.7273 8.55469 15.8894C8.55469 16.0515 8.61907 16.2069 8.73368 16.3215C8.84828 16.4361 9.00372 16.5005 9.1658 16.5005H12.8325C12.9945 16.5005 13.15 16.4361 13.2646 16.3215C13.3792 16.2069 13.4436 16.0515 13.4436 15.8894C13.4436 15.7273 13.3792 15.5719 13.2646 15.4573C13.15 15.3427 12.9945 15.2783 12.8325 15.2783Z" fill="#35C0ED"/>
<path d="M11.0004 20.7782C9.06658 20.7782 7.17614 20.2048 5.5682 19.1304C3.96025 18.056 2.70701 16.5289 1.96695 14.7422C1.22689 12.9556 1.03326 10.9896 1.41054 9.09289C1.78782 7.19619 2.71906 5.45395 4.08651 4.08651C5.45395 2.71906 7.19619 1.78782 9.09289 1.41054C10.9896 1.03326 12.9556 1.22689 14.7422 1.96695C16.5289 2.70701 18.056 3.96025 19.1304 5.5682C20.2048 7.17614 20.7782 9.06658 20.7782 11.0004C20.7782 13.5937 19.7481 16.0807 17.9144 17.9144C16.0807 19.7481 13.5937 20.7782 11.0004 20.7782ZM11.0004 2.44488C9.30831 2.44488 7.65418 2.94666 6.24723 3.88675C4.84027 4.82685 3.74369 6.16305 3.09614 7.72637C2.44859 9.28969 2.27916 11.0099 2.60928 12.6695C2.93939 14.3292 3.75423 15.8536 4.95075 17.0501C6.14726 18.2466 7.67172 19.0615 9.33133 19.3916C10.9909 19.7217 12.7112 19.5523 14.2745 18.9047C15.8378 18.2572 17.174 17.1606 18.1141 15.7537C19.0542 14.3467 19.556 12.6926 19.556 11.0004C19.556 8.73136 18.6546 6.55523 17.0501 4.95075C15.4457 3.34627 13.2695 2.44488 11.0004 2.44488Z" fill="#35C0ED"/>
</svg>
