<svg width="26" height="26" viewBox="0 0 26 26" fill="none" xmlns="http://www.w3.org/2000/svg">
<path d="M13 0C10.4288 0 7.91543 0.762437 5.77759 2.1909C3.63975 3.61935 1.97351 5.64968 0.989572 8.02512C0.0056327 10.4006 -0.251811 13.0144 0.249797 15.5362C0.751405 18.0579 1.98953 20.3743 3.80762 22.1924C5.6257 24.0105 7.94208 25.2486 10.4638 25.7502C12.9856 26.2518 15.5995 25.9944 17.9749 25.0104C20.3503 24.0265 22.3807 22.3603 23.8091 20.2224C25.2376 18.0846 26 15.5712 26 13C25.9961 9.55338 24.6252 6.24905 22.1881 3.81192C19.751 1.3748 16.4466 0.00390394 13 0ZM12.7501 6C13.0468 6 13.3368 6.08797 13.5835 6.2528C13.8302 6.41762 14.0224 6.65189 14.136 6.92597C14.2495 7.20006 14.2792 7.50166 14.2213 7.79264C14.1634 8.08361 14.0206 8.35088 13.8108 8.56066C13.601 8.77044 13.3337 8.9133 13.0428 8.97118C12.7518 9.02906 12.4502 8.99935 12.1761 8.88582C11.902 8.77229 11.6677 8.58003 11.5029 8.33335C11.3381 8.08668 11.2501 7.79667 11.2501 7.5C11.2501 7.10218 11.4082 6.72064 11.6895 6.43934C11.9708 6.15804 12.3523 6 12.7501 6ZM14.0001 20H13.0001C12.7349 20 12.4806 19.8946 12.293 19.7071C12.1055 19.5196 12.0001 19.2652 12.0001 19V13C11.7349 13 11.4806 12.8946 11.293 12.7071C11.1055 12.5196 11.0001 12.2652 11.0001 12C11.0001 11.7348 11.1055 11.4804 11.293 11.2929C11.4806 11.1054 11.7349 11 12.0001 11H13.0001C13.2653 11 13.5197 11.1054 13.7072 11.2929C13.8948 11.4804 14.0001 11.7348 14.0001 12V18C14.2653 18 14.5197 18.1054 14.7072 18.2929C14.8948 18.4804 15.0001 18.7348 15.0001 19C15.0001 19.2652 14.8948 19.5196 14.7072 19.7071C14.5197 19.8946 14.2653 20 14.0001 20Z" fill="white"/>
</svg>
