<svg xmlns="http://www.w3.org/2000/svg" width="22" height="22" viewBox="0 0 22 22"><g transform="translate(-333 -101.563)"><path d="M11.563.563a11,11,0,1,0,11,11A11,11,0,0,0,11.563.563Zm0,4.879A1.863,1.863,0,1,1,9.7,7.3,1.863,1.863,0,0,1,11.563,5.442Zm2.484,11.266a.532.532,0,0,1-.532.532h-3.9a.532.532,0,0,1-.532-.532V15.643a.532.532,0,0,1,.532-.532h.532V12.272H9.611a.532.532,0,0,1-.532-.532V10.675a.532.532,0,0,1,.532-.532H12.45a.532.532,0,0,1,.532.532v4.435h.532a.532.532,0,0,1,.532.532Z" transform="translate(332.438 101)" fill="#33beeb"/></g></svg>