<svg xmlns="http://www.w3.org/2000/svg" width="22" height="22" viewBox="0 0 22 22"><path d="M11,0A11,11,0,1,0,22,11,11,11,0,0,0,11,0Zm2.29,17.048q-.849.335-1.355.51a3.574,3.574,0,0,1-1.175.176,2.342,2.342,0,0,1-1.6-.5,1.62,1.62,0,0,1-.569-1.273,4.624,4.624,0,0,1,.042-.614c.029-.209.074-.443.137-.707l.709-2.5c.062-.24.116-.468.159-.681a3.018,3.018,0,0,0,.063-.589.908.908,0,0,0-.2-.668,1.121,1.121,0,0,0-.757-.187,1.987,1.987,0,0,0-.563.084c-.191.059-.357.112-.493.164l.187-.771Q8.574,9.2,9.21,9a3.934,3.934,0,0,1,1.2-.2,2.3,2.3,0,0,1,1.576.494,1.64,1.64,0,0,1,.553,1.281q0,.163-.038.575a3.845,3.845,0,0,1-.142.755l-.7,2.5c-.058.2-.109.429-.156.685a3.624,3.624,0,0,0-.068.583.837.837,0,0,0,.223.678,1.246,1.246,0,0,0,.77.181,2.234,2.234,0,0,0,.583-.09,3.314,3.314,0,0,0,.471-.158Zm-.125-10.13a1.682,1.682,0,0,1-1.187.458,1.7,1.7,0,0,1-1.192-.458,1.463,1.463,0,0,1-.5-1.111,1.477,1.477,0,0,1,.5-1.114,1.688,1.688,0,0,1,1.192-.463,1.669,1.669,0,0,1,1.187.463,1.5,1.5,0,0,1,0,2.225Z" fill="#35C0ED"/></svg>