<svg width="32" height="32" viewBox="0 0 32 32" fill="none" xmlns="http://www.w3.org/2000/svg">
<g clip-path="url(#clip0_327_17801)">
<path d="M15.9999 3.09398C20.2059 3.09398 20.6999 3.11298 22.3629 3.18798C23.9009 3.25698 24.7319 3.51298 25.2879 3.73198C26.0259 4.01898 26.5499 4.35698 27.1009 4.90698C27.6519 5.45698 27.9949 5.98198 28.2759 6.71998C28.4879 7.27598 28.7509 8.10698 28.8199 9.64498C28.8949 11.307 28.9139 11.801 28.9139 16.008C28.9139 20.215 28.8949 20.708 28.8199 22.371C28.7509 23.909 28.4949 24.74 28.2759 25.296C27.9879 26.034 27.6509 26.558 27.1009 27.109C26.5509 27.66 26.0259 28.003 25.2879 28.284C24.7319 28.496 23.9009 28.759 22.3629 28.828C20.6999 28.903 20.2069 28.922 15.9999 28.922C11.7929 28.922 11.2999 28.903 9.63688 28.828C8.09988 28.759 7.26788 28.503 6.71188 28.284C5.97488 27.996 5.44888 27.659 4.89888 27.109C4.34888 26.559 4.00488 26.034 3.72388 25.296C3.51188 24.74 3.24888 23.909 3.17988 22.371C3.10488 20.708 3.08588 20.215 3.08588 16.008C3.08588 11.801 3.10488 11.308 3.17988 9.64498C3.24888 8.10798 3.50488 7.27598 3.72388 6.71998C4.01088 5.98298 4.34888 5.45698 4.89888 4.90698C5.44888 4.35698 5.97388 4.01298 6.71188 3.73198C7.26788 3.51998 8.09988 3.25698 9.63688 3.18798C11.2989 3.10698 11.7929 3.09398 15.9999 3.09398ZM15.9999 0.255981C11.7249 0.255981 11.1869 0.274981 9.50588 0.349981C7.83088 0.424981 6.68688 0.693981 5.68688 1.08098C4.64988 1.48098 3.77388 2.02498 2.89888 2.89998C2.02388 3.77498 1.48588 4.65598 1.07988 5.68798C0.692883 6.68798 0.423883 7.83198 0.348883 9.51298C0.273883 11.188 0.254883 11.726 0.254883 16.001C0.254883 20.276 0.273883 20.814 0.348883 22.495C0.423883 24.17 0.692883 25.314 1.07988 26.32C1.47988 27.358 2.02388 28.233 2.89888 29.108C3.77388 29.983 4.65488 30.521 5.68688 30.927C6.68688 31.314 7.83088 31.583 9.51188 31.658C11.1929 31.733 11.7249 31.752 16.0059 31.752C20.2869 31.752 20.8189 31.733 22.4999 31.658C24.1749 31.583 25.3189 31.314 26.3249 30.927C27.3629 30.527 28.2379 29.983 29.1129 29.108C29.9879 28.233 30.5259 27.352 30.9319 26.32C31.3189 25.32 31.5879 24.176 31.6629 22.495C31.7379 20.814 31.7569 20.283 31.7569 16.001C31.7569 11.719 31.7379 11.188 31.6629 9.50698C31.5879 7.83198 31.3189 6.68798 30.9319 5.68198C30.5319 4.64398 29.9879 3.76898 29.1129 2.89398C28.2379 2.01898 27.3569 1.48098 26.3249 1.07498C25.3249 0.687981 24.1809 0.418981 22.4999 0.343981C20.8119 0.274981 20.2749 0.255981 15.9999 0.255981Z" fill="#444444"/>
<path d="M16 7.91202C13.8707 7.9357 11.8365 8.7982 10.3392 10.3123C8.84178 11.8265 8.00195 13.87 8.00195 15.9995C8.00195 18.129 8.84178 20.1726 10.3392 21.6867C11.8365 23.2008 13.8707 24.0633 16 24.087C20.463 24.087 24.087 20.462 24.087 15.999C24.087 11.536 20.462 7.91102 15.999 7.91102L16 7.91202ZM16 21.25C14.6076 21.25 13.2723 20.6969 12.2877 19.7123C11.3031 18.7278 10.75 17.3924 10.75 16C10.75 14.6076 11.3031 13.2723 12.2877 12.2877C13.2723 11.3031 14.6076 10.75 16 10.75C17.3924 10.75 18.7278 11.3031 19.7123 12.2877C20.6969 13.2723 21.25 14.6076 21.25 16C21.25 17.3924 20.6969 18.7278 19.7123 19.7123C18.7278 20.6969 17.3924 21.25 16 21.25ZM26.294 7.59402C26.2942 7.84182 26.2455 8.08723 26.1508 8.31622C26.0561 8.54521 25.9172 8.75331 25.742 8.92862C25.5669 9.10394 25.359 9.24305 25.1301 9.338C24.9012 9.43295 24.6558 9.48189 24.408 9.48202C24.1602 9.48215 23.9148 9.43347 23.6858 9.33876C23.4568 9.24405 23.2487 9.10517 23.0734 8.93004C22.8981 8.75491 22.759 8.54696 22.664 8.31807C22.5691 8.08918 22.5202 7.84382 22.52 7.59602C22.5196 7.09556 22.718 6.61543 23.0716 6.26127C23.4252 5.90711 23.9051 5.70792 24.4055 5.70752C24.906 5.70712 25.3861 5.90555 25.7403 6.25915C26.0944 6.61275 26.2936 7.09356 26.294 7.59402Z" fill="#444444"/>
</g>
<defs>
<clipPath id="clip0_327_17801">
<rect width="32" height="32" fill="white"/>
</clipPath>
</defs>
</svg>
