<svg xmlns="http://www.w3.org/2000/svg" width="32" height="32" viewBox="0 0 32 32"><g transform="translate(-240 -584)"><circle cx="16" cy="16" r="16" transform="translate(240 584)" fill="#fdca40"/><path d="M256,596.875A3.125,3.125,0,1,0,259.123,600,3.131,3.131,0,0,0,256,596.875Zm9.37,3.125c0-1.294.012-2.576-.06-3.868a5.185,5.185,0,0,0-5.44-5.44c-1.294-.072-2.576-.06-3.868-.06s-2.575-.012-3.867.06a5.185,5.185,0,0,0-5.44,5.44c-.072,1.294-.06,2.576-.06,3.868s-.012,2.575.06,3.867a5.185,5.185,0,0,0,5.44,5.44c1.294.072,2.576.06,3.867.06s2.576.012,3.868-.06a5.185,5.185,0,0,0,5.44-5.44C265.384,602.575,265.369,601.293,265.369,600ZM256,604.807A4.807,4.807,0,1,1,260.806,600,4.8,4.8,0,0,1,256,604.807Zm5-8.689a1.12,1.12,0,1,1,.43-.085A1.121,1.121,0,0,1,261,596.118Z" fill="#fff"/></g></svg>