<svg width="24" height="24" viewBox="0 0 24 24" fill="none" xmlns="http://www.w3.org/2000/svg">
<path d="M12.0008 2.40039C12.9556 2.40039 13.8712 2.77968 14.5464 3.45481C15.2215 4.12994 15.6008 5.04561 15.6008 6.00039V7.20039H16.8008C17.4373 7.20039 18.0478 7.45325 18.4978 7.90334C18.9479 8.35342 19.2008 8.96387 19.2008 9.60039V18.0004C19.2008 18.6369 18.9479 19.2474 18.4978 19.6974C18.0478 20.1475 17.4373 20.4004 16.8008 20.4004H7.20078C6.56426 20.4004 5.95381 20.1475 5.50372 19.6974C5.05364 19.2474 4.80078 18.6369 4.80078 18.0004V9.60039C4.80078 8.96387 5.05364 8.35342 5.50372 7.90334C5.95381 7.45325 6.56426 7.20039 7.20078 7.20039H8.40078V6.00039C8.40078 5.04561 8.78007 4.12994 9.4552 3.45481C10.1303 2.77968 11.046 2.40039 12.0008 2.40039ZM16.8008 8.40039H7.20078C6.88252 8.40039 6.5773 8.52682 6.35225 8.75186C6.12721 8.97691 6.00078 9.28213 6.00078 9.60039V18.0004C6.00078 18.3187 6.12721 18.6239 6.35225 18.8489C6.5773 19.074 6.88252 19.2004 7.20078 19.2004H16.8008C17.119 19.2004 17.4243 19.074 17.6493 18.8489C17.8744 18.6239 18.0008 18.3187 18.0008 18.0004V9.60039C18.0008 9.28213 17.8744 8.97691 17.6493 8.75186C17.4243 8.52682 17.119 8.40039 16.8008 8.40039ZM12.0008 12.6004C12.319 12.6004 12.6243 12.7268 12.8493 12.9519C13.0744 13.1769 13.2008 13.4821 13.2008 13.8004C13.2008 14.1187 13.0744 14.4239 12.8493 14.6489C12.6243 14.874 12.319 15.0004 12.0008 15.0004C11.6825 15.0004 11.3773 14.874 11.1523 14.6489C10.9272 14.4239 10.8008 14.1187 10.8008 13.8004C10.8008 13.4821 10.9272 13.1769 11.1523 12.9519C11.3773 12.7268 11.6825 12.6004 12.0008 12.6004ZM12.0008 3.60039C11.3643 3.60039 10.7538 3.85325 10.3037 4.30333C9.85364 4.75342 9.60078 5.36387 9.60078 6.00039V7.20039H14.4008V6.00039C14.4008 5.36387 14.1479 4.75342 13.6978 4.30333C13.2478 3.85325 12.6373 3.60039 12.0008 3.60039Z" fill="#828282"/>
</svg>
