<svg xmlns="http://www.w3.org/2000/svg" width="30" height="30" viewBox="0 0 30 30"><g transform="translate(-13045 -9967)"><rect width="30" height="30" transform="translate(13045 9967)" fill="none"/><g transform="translate(13049 9949.596)"><g transform="translate(18.383 30.147)"><path d="M430.6,204.142l-2.357-1.662a.646.646,0,0,0-1.017.528v3.324a.646.646,0,0,0,1.017.528L430.6,205.2A.646.646,0,0,0,430.6,204.142Z" transform="translate(-427.225 -202.361)" fill="#505050"/></g><g transform="translate(0 22.404)"><path d="M18.522,36.6a.645.645,0,0,0-.882.236,8.76,8.76,0,1,1,0-8.76.645.645,0,1,0,1.117-.646,10.051,10.051,0,1,0,0,10.052A.645.645,0,0,0,18.522,36.6Z" transform="translate(0 -22.404)" fill="#505050"/></g><g transform="translate(6.419 31.81)"><path d="M149.837,241a.645.645,0,0,0,0,1.291h10.027V241Z" transform="translate(-149.192 -241.001)" fill="#505050"/></g></g></g></svg>