<svg width="16" height="16" viewBox="0 0 16 16" fill="none" xmlns="http://www.w3.org/2000/svg">
<path fill-rule="evenodd" clip-rule="evenodd" d="M9.85081 1.16343C9.68337 0.814979 9.42083 0.520889 9.09343 0.31505C8.76604 0.109211 8.3871 0 8.00031 0C7.61351 0 7.23458 0.109211 6.90718 0.31505C6.57978 0.520889 6.31724 0.814979 6.1498 1.16343L0.243908 12.7734C-0.462674 14.1594 0.430195 16 2.09368 16H13.9062C15.5704 16 16.4618 14.1602 15.7567 12.7734L9.85081 1.16343ZM8.00031 5.09183C8.1933 5.09183 8.37839 5.16845 8.51486 5.30482C8.65132 5.4412 8.72799 5.62617 8.72799 5.81904V9.4551C8.72799 9.64797 8.65132 9.83293 8.51486 9.96931C8.37839 10.1057 8.1933 10.1823 8.00031 10.1823C7.80731 10.1823 7.62222 10.1057 7.48575 9.96931C7.34929 9.83293 7.27262 9.64797 7.27262 9.4551V5.81904C7.27262 5.62617 7.34929 5.4412 7.48575 5.30482C7.62222 5.16845 7.80731 5.09183 8.00031 5.09183ZM8.00031 11.2731C8.1933 11.2731 8.37839 11.3497 8.51486 11.4861C8.65132 11.6225 8.72799 11.8075 8.72799 12.0003V12.3639C8.72799 12.5568 8.65132 12.7418 8.51486 12.8782C8.37839 13.0145 8.1933 13.0912 8.00031 13.0912C7.80731 13.0912 7.62222 13.0145 7.48575 12.8782C7.34929 12.7418 7.27262 12.5568 7.27262 12.3639V12.0003C7.27262 11.8075 7.34929 11.6225 7.48575 11.4861C7.62222 11.3497 7.80731 11.2731 8.00031 11.2731Z" fill="#F48181"/>
</svg>
