<svg xmlns="http://www.w3.org/2000/svg" width="76" height="76" viewBox="0 0 76 76" fill="none"><path d="M74.8964 46.3063L74.8789 46.2763C74.0785 45.0577 72.8567 44.1771 71.4475 43.8033C70.0383 43.4294 68.5407 43.5885 67.2414 44.25L59.2314 48.3463C58.2721 46.9995 56.8606 46.0423 55.2544 45.6492C53.6483 45.2561 51.9543 45.4534 50.4814 46.205L40.3939 51.375C39.8678 51.6461 39.2838 51.7857 38.6919 51.782C38.1001 51.7783 37.5179 51.6314 36.9952 51.3538L30.1202 47.7038C27.5184 46.3149 24.5826 45.674 21.6387 45.8523C18.6948 46.0306 15.8578 47.021 13.4427 48.7138L12.6664 45.0113C12.6326 44.8501 12.5672 44.6973 12.4741 44.5615C12.381 44.4256 12.2619 44.3096 12.1238 44.2199C11.9857 44.1302 11.8313 44.0687 11.6693 44.0389C11.5074 44.0091 11.3411 44.0116 11.1802 44.0463L1.48642 46.1375C1.16373 46.2071 0.881684 46.4016 0.701829 46.6784C0.521974 46.9552 0.458915 47.2919 0.526418 47.615L6.17017 74.5063C6.22771 74.7882 6.38076 75.0416 6.60347 75.2238C6.82619 75.406 7.10493 75.5058 7.39267 75.5063C7.48086 75.5059 7.5688 75.4967 7.65517 75.4788L17.3539 73.3913C17.6769 73.3217 17.9591 73.1271 18.139 72.85C18.3189 72.5729 18.3818 72.2359 18.3139 71.9125L17.8139 69.5063L21.1277 68.7925C22.0935 68.586 23.0877 68.548 24.0664 68.68L39.6514 70.3888C42.8872 70.8167 46.1677 70.0467 48.8752 68.2238L73.8414 51.4738C74.6577 50.9212 75.2253 50.071 75.4225 49.1051C75.6196 48.1393 75.4308 47.1346 74.8964 46.3063ZM8.35767 72.7638L3.23267 48.32L10.4827 46.7575L15.6077 71.2025L8.35767 72.7638ZM72.4502 49.4013L47.4839 66.1513C45.2702 67.6362 42.5892 68.2588 39.9477 67.9013L24.3627 66.1925C23.1085 66.0234 21.8344 66.0742 20.5977 66.3425L17.2952 67.0525L14.0002 51.375L14.8539 50.78C16.8926 49.3455 19.2893 48.5048 21.7774 48.3517C24.2655 48.1985 26.7472 48.7388 28.9464 49.9125L35.8214 53.5625C36.7 54.0295 37.6786 54.2769 38.6735 54.2837C39.6685 54.2904 40.6503 54.0563 41.5352 53.6013L51.6252 48.425C52.6338 47.9096 53.8018 47.8009 54.8882 48.1214C55.9746 48.4419 56.8966 49.1671 57.4639 50.1475C57.6304 50.4346 57.6774 50.7756 57.5946 51.0969C57.5118 51.4183 57.3059 51.6942 57.0214 51.865L43.1114 60.115C40.6795 61.5655 37.7825 62.0243 35.0214 61.3963L22.4764 58.3963L21.8964 60.8288L34.4527 63.8288C37.8418 64.6054 41.3998 64.0453 44.3864 62.265L58.2964 54.015C58.8662 53.673 59.3349 53.1857 59.6545 52.603C59.9741 52.0203 60.1331 51.3631 60.1152 50.6988L68.3752 46.4725C69.1231 46.0927 69.9846 46.0011 70.7957 46.2153C71.6068 46.4294 72.3109 46.9343 72.7739 47.6338L72.7877 47.655C72.9678 47.9334 73.0332 48.2706 72.9703 48.5961C72.9074 48.9216 72.721 49.2101 72.4502 49.4013Z" fill="#7380B4"></path><path d="M8.59114 49.7263L6.14453 50.2402L6.65791 52.6844L9.10452 52.1705L8.59114 49.7263Z" fill="#7380B4"></path><path d="M37.2646 47.76C37.4785 47.9159 37.7363 47.9998 38.0009 47.9998C38.2655 47.9998 38.5233 47.9159 38.7371 47.76C51.2796 38.6113 59.0009 29.8875 61.8059 21.75H68.2309C68.5258 22.584 69.106 23.287 69.869 23.7345C70.632 24.1821 71.5287 24.3456 72.4006 24.196C73.2724 24.0464 74.0633 23.5934 74.6335 22.9171C75.2037 22.2407 75.5164 21.3846 75.5164 20.5C75.5164 19.6154 75.2037 18.7593 74.6335 18.0829C74.0633 17.4066 73.2724 16.9536 72.4006 16.804C71.5287 16.6544 70.632 16.8179 69.869 17.2655C69.106 17.7131 68.5258 18.416 68.2309 19.25H62.5009C62.7138 18.3286 62.8621 17.3934 62.9446 16.4513C63.1654 14.553 63.0009 12.6297 62.4609 10.7965C61.921 8.96337 61.0167 7.25799 59.8021 5.78251C58.5695 4.14021 56.971 2.80775 55.1337 1.89081C53.2963 0.97387 51.2706 0.497679 49.2171 0.500009C45.09 0.661387 41.138 2.21081 38.0009 4.89751C34.8638 2.21081 30.9118 0.661387 26.7846 0.500009C24.7309 0.497776 22.7048 0.973995 20.867 1.89091C19.0293 2.80783 17.4304 4.14024 16.1971 5.78251C14.9832 7.25831 14.0794 8.96375 13.5396 10.7969C12.9999 12.63 12.8354 14.5531 13.0559 16.4513C13.8096 26.0575 21.9546 36.5925 37.2646 47.76ZM71.7509 19.25C71.9981 19.25 72.2398 19.3233 72.4454 19.4607C72.6509 19.598 72.8111 19.7932 72.9057 20.0217C73.0003 20.2501 73.0251 20.5014 72.9769 20.7439C72.9286 20.9863 72.8096 21.2091 72.6348 21.3839C72.46 21.5587 72.2372 21.6778 71.9948 21.726C71.7523 21.7742 71.5009 21.7495 71.2725 21.6549C71.0441 21.5602 70.8489 21.4 70.7116 21.1945C70.5742 20.9889 70.5009 20.7472 70.5009 20.5C70.5009 20.1685 70.6326 19.8505 70.867 19.6161C71.1014 19.3817 71.4194 19.25 71.7509 19.25ZM18.0559 7.45376C18.1143 7.39593 18.1667 7.33226 18.2121 7.26376C19.2145 5.93903 20.5101 4.86461 21.9975 4.12483C23.4849 3.38505 25.1235 3.00004 26.7846 3.00001C32.5771 3.00001 37.0721 7.41126 37.1171 7.45501C37.2332 7.57123 37.3711 7.66343 37.5228 7.72633C37.6746 7.78924 37.8372 7.82162 38.0015 7.82162C38.1658 7.82162 38.3284 7.78924 38.4802 7.72633C38.6319 7.66343 38.7698 7.57123 38.8859 7.45501C38.9309 7.40876 43.3934 3.00001 49.2171 3.00001C50.8794 2.99374 52.5202 3.37598 54.0085 4.11625C55.4969 4.85653 56.7917 5.93435 57.7896 7.26376C57.8351 7.33226 57.8875 7.39593 57.9459 7.45376C58.9369 8.67421 59.6701 10.083 60.1011 11.5949C60.5321 13.1068 60.6519 14.6905 60.4534 16.25C60.3703 17.263 60.1988 18.2668 59.9409 19.25H49.9759L45.3359 11.125C45.2196 10.9198 45.0477 10.7516 44.8399 10.64C44.6321 10.5283 44.397 10.4777 44.1617 10.4941C43.9263 10.5104 43.7004 10.593 43.5101 10.7323C43.3197 10.8716 43.1727 11.0619 43.0859 11.2813L36.9046 26.75L32.9446 13.8825C32.8736 13.6517 32.7373 13.4464 32.5521 13.2914C32.367 13.1364 32.1408 13.0384 31.9011 13.0092C31.6614 12.98 31.4184 13.0208 31.2014 13.1268C30.9844 13.2327 30.8028 13.3993 30.6784 13.6063L27.2921 19.25H19.2509V21.75H28.0009C28.2166 21.75 28.4286 21.6941 28.6163 21.5879C28.804 21.4816 28.9611 21.3286 29.0721 21.1438L31.3759 17.2975L35.5521 30.8675C35.6293 31.1135 35.7806 31.3296 35.9854 31.4863C36.1901 31.6429 36.4383 31.7324 36.6959 31.7425H36.7509C37.0009 31.7426 37.2452 31.6677 37.4522 31.5276C37.6592 31.3874 37.8194 31.1884 37.9121 30.9563L44.4496 14.61L48.1659 21.11C48.2739 21.3032 48.4312 21.4642 48.6219 21.5767C48.8125 21.6891 49.0296 21.7489 49.2509 21.75H59.1259C56.8121 27.64 51.0571 35.54 38.0009 45.1988C20.3871 32.1688 16.0621 22.335 15.5559 16.35C15.3423 14.775 15.454 13.1729 15.884 11.6428C16.3139 10.1127 17.0532 8.68695 18.0559 7.45376Z" fill="#7380B4"></path><path d="M10.5 19.25H0.5V21.75H10.5V19.25Z" fill="#7380B4"></path></svg>