<svg xmlns="http://www.w3.org/2000/svg" width="45" height="45" viewBox="0 0 45 45"><g transform="translate(-4236 -552)"><g transform="translate(4236 553)"><path d="M34.07,9.578H31.277v-.82a1.758,1.758,0,1,0-3.516,0v.82H17.918v-.82a1.758,1.758,0,1,0-3.516,0V9.6a.585.585,0,0,0-.156-.022H11.911a2.933,2.933,0,0,0-2.93,2.93v9.981a.586.586,0,0,0,1.172,0V15.613H36.277a.586.586,0,1,0,0-1.172H10.154V12.508a1.76,1.76,0,0,1,1.758-1.758h2.335a.587.587,0,0,0,.156-.022v.754a1.758,1.758,0,1,0,3.516,0V10.75h9.844v.732a1.758,1.758,0,1,0,3.516,0V10.75H34.07a1.76,1.76,0,0,1,1.758,1.758V34.773a1.055,1.055,0,0,1-2.11,0V33.257a.586.586,0,0,0-.586-.586H26.316a.586.586,0,0,0,0,1.172h6.23v.93a2.212,2.212,0,0,0,.266,1.055H9.227a1.056,1.056,0,0,1-1.055-1.055v-.93H26.287a.586.586,0,1,0,0-1.172H15.432a4.8,4.8,0,1,0-6.261,0H7.586A.586.586,0,0,0,7,33.257v1.516A2.229,2.229,0,0,0,9.227,37H34.773A2.229,2.229,0,0,0,37,34.773V12.508A2.933,2.933,0,0,0,34.07,9.578Zm-17.324,1.9a.586.586,0,1,1-1.172,0V8.758a.586.586,0,0,1,1.172,0Zm13.359,0a.586.586,0,1,1-1.172,0V8.758a.586.586,0,1,1,1.172,0ZM8.669,29.031A3.633,3.633,0,1,1,12.3,32.664,3.637,3.637,0,0,1,8.669,29.031Z" fill="#717171"/><path d="M20.257,24.813a2.227,2.227,0,1,0,2.227,2.227A2.229,2.229,0,0,0,20.257,24.813Zm0,3.281a1.055,1.055,0,1,1,1.055-1.055A1.056,1.056,0,0,1,20.257,28.094Z" fill="#737373"/><path d="M25.725,24.813a2.227,2.227,0,1,0,2.227,2.227A2.229,2.229,0,0,0,25.725,24.813Zm0,3.281a1.055,1.055,0,1,1,1.055-1.055A1.056,1.056,0,0,1,25.725,28.094Z" fill="#737373"/><path d="M31.194,24.813a2.227,2.227,0,1,0,2.227,2.227A2.229,2.229,0,0,0,31.194,24.813Zm0,3.281a1.055,1.055,0,1,1,1.055-1.055A1.056,1.056,0,0,1,31.194,28.094Z" fill="#737373"/><path d="M14.788,18.719a2.227,2.227,0,1,0,2.227,2.226A2.229,2.229,0,0,0,14.788,18.719Zm0,3.281a1.055,1.055,0,1,1,1.055-1.055A1.056,1.056,0,0,1,14.788,22Z" fill="#737373"/><path d="M25.725,18.719a2.227,2.227,0,1,0,2.227,2.226A2.229,2.229,0,0,0,25.725,18.719Zm0,3.281a1.055,1.055,0,1,1,1.055-1.055A1.056,1.056,0,0,1,25.725,22Z" fill="#737373"/><path d="M31.194,18.719a2.227,2.227,0,1,0,2.227,2.226A2.229,2.229,0,0,0,31.194,18.719Zm0,3.281a1.055,1.055,0,1,1,1.055-1.055A1.056,1.056,0,0,1,31.194,22Z" fill="#737373"/><path d="M20.257,18.719a2.227,2.227,0,1,0,2.227,2.226A2.229,2.229,0,0,0,20.257,18.719Zm0,3.281a1.055,1.055,0,1,1,1.055-1.055A1.056,1.056,0,0,1,20.257,22Z" fill="#737373"/><path d="M14.389,27.6a.586.586,0,0,0-.829,0l-1.908,1.908L11,28.859a.586.586,0,0,0-.829.829l1.066,1.066a.586.586,0,0,0,.829,0l2.323-2.323A.586.586,0,0,0,14.389,27.6Z" fill="#737373"/></g><rect width="45" height="45" transform="translate(4236 552)" fill="none"/></g></svg>