<svg width="45" height="45" viewBox="0 0 45 45" fill="none" xmlns="http://www.w3.org/2000/svg">
<path d="M34.0703 9.57812H31.2773V8.75781C31.2773 7.78855 30.4888 7 29.5195 7C28.5503 7 27.7617 7.78855 27.7617 8.75781V9.57812H17.9179V8.75781C17.9179 7.78855 17.1294 7 16.1601 7C15.1909 7 14.4023 7.78855 14.4023 8.75781V9.5998C14.3525 9.58604 14.3003 9.57812 14.2461 9.57812H11.9115C10.2961 9.57812 8.98182 10.8924 8.98182 12.5078V22.4883C8.98182 22.8119 9.2442 23.0742 9.56775 23.0742C9.89131 23.0742 10.1537 22.8119 10.1537 22.4883V15.6133H36.2773C36.6009 15.6133 36.8633 15.351 36.8633 15.0273C36.8633 14.7037 36.6009 14.4414 36.2773 14.4414H10.1537V12.5078C10.1537 11.5386 10.9422 10.75 11.9115 10.75H14.2461C14.3003 10.75 14.3525 10.742 14.4023 10.7283V11.4824C14.4023 12.4517 15.1909 13.2402 16.1601 13.2402C17.1294 13.2402 17.9179 12.4517 17.9179 11.4824V10.75H27.7617V11.4824C27.7617 12.4517 28.5503 13.2402 29.5195 13.2402C30.4888 13.2402 31.2773 12.4517 31.2773 11.4824V10.75H34.0703C35.0396 10.75 35.8281 11.5386 35.8281 12.5078V34.7731C35.8281 35.3548 35.3549 35.8281 34.7731 35.8281C34.1913 35.8281 33.718 35.3548 33.718 34.7731V33.2573C33.718 32.9337 33.4557 32.6714 33.1321 32.6714H26.3164C25.9929 32.6714 25.7305 32.9337 25.7305 33.2573C25.7305 33.5809 25.9929 33.8433 26.3164 33.8433H32.5462V34.7731C32.5462 35.1546 32.6427 35.5139 32.8125 35.8281H9.22656C8.64502 35.8281 8.17188 35.355 8.17188 34.7734V33.8433H26.2866C26.6102 33.8433 26.8726 33.5809 26.8726 33.2573C26.8726 32.9337 26.6102 32.6714 26.2866 32.6714H15.4322C16.456 31.7896 17.1062 30.4853 17.1062 29.0312C17.1062 26.3819 14.9508 24.2266 12.3015 24.2266C9.65219 24.2266 7.49682 26.3819 7.49682 29.0312C7.49682 30.4853 8.14697 31.7896 9.17084 32.6714H7.58594C7.26238 32.6714 7 32.9337 7 33.2573V34.7734C7 36.0012 7.99885 37 9.22656 37H34.7731C36.001 37 37 36.001 37 34.7731V12.5078C37 10.8924 35.6857 9.57812 34.0703 9.57812ZM16.7461 11.4824C16.7461 11.8055 16.4832 12.0684 16.1601 12.0684C15.8371 12.0684 15.5742 11.8055 15.5742 11.4824V8.75781C15.5742 8.43473 15.8371 8.17188 16.1601 8.17188C16.4832 8.17188 16.7461 8.43473 16.7461 8.75781V11.4824ZM30.1054 11.4824C30.1054 11.8055 29.8426 12.0684 29.5195 12.0684C29.1964 12.0684 28.9336 11.8055 28.9336 11.4824V8.75781C28.9336 8.43473 29.1964 8.17188 29.5195 8.17188C29.8426 8.17188 30.1054 8.43473 30.1054 8.75781V11.4824ZM8.66869 29.0312C8.66869 27.0281 10.2984 25.3984 12.3015 25.3984C14.3046 25.3984 15.9343 27.0281 15.9343 29.0312C15.9343 31.0344 14.3046 32.6641 12.3015 32.6641C10.2984 32.6641 8.66869 31.0344 8.66869 29.0312Z" fill="#00828F"/>
<path d="M20.2566 24.8125C19.0289 24.8125 18.03 25.8113 18.03 27.0391C18.03 28.2668 19.0289 29.2656 20.2566 29.2656C21.4843 29.2656 22.4832 28.2668 22.4832 27.0391C22.4832 25.8113 21.4843 24.8125 20.2566 24.8125ZM20.2566 28.0938C19.675 28.0938 19.2019 27.6206 19.2019 27.0391C19.2019 26.4575 19.675 25.9844 20.2566 25.9844C20.8381 25.9844 21.3113 26.4575 21.3113 27.0391C21.3113 27.6206 20.8381 28.0938 20.2566 28.0938Z" fill="#00828F"/>
<path d="M25.7253 24.8125C24.4976 24.8125 23.4988 25.8113 23.4988 27.0391C23.4988 28.2668 24.4976 29.2656 25.7253 29.2656C26.9531 29.2656 27.9519 28.2668 27.9519 27.0391C27.9519 25.8113 26.9531 24.8125 25.7253 24.8125ZM25.7253 28.0938C25.1438 28.0938 24.6707 27.6206 24.6707 27.0391C24.6707 26.4575 25.1438 25.9844 25.7253 25.9844C26.3069 25.9844 26.78 26.4575 26.78 27.0391C26.78 27.6206 26.3069 28.0938 25.7253 28.0938Z" fill="#00828F"/>
<path d="M31.1941 24.8125C29.9664 24.8125 28.9675 25.8113 28.9675 27.0391C28.9675 28.2668 29.9664 29.2656 31.1941 29.2656C32.4218 29.2656 33.4207 28.2668 33.4207 27.0391C33.4207 25.8113 32.4218 24.8125 31.1941 24.8125ZM31.1941 28.0938C30.6125 28.0938 30.1394 27.6206 30.1394 27.0391C30.1394 26.4575 30.6125 25.9844 31.1941 25.9844C31.7756 25.9844 32.2488 26.4575 32.2488 27.0391C32.2488 27.6206 31.7756 28.0938 31.1941 28.0938Z" fill="#00828F"/>
<path d="M14.7878 18.7188C13.5601 18.7188 12.5613 19.7176 12.5613 20.9453C12.5613 22.173 13.5601 23.1719 14.7878 23.1719C16.0156 23.1719 17.0144 22.173 17.0144 20.9453C17.0144 19.7176 16.0156 18.7188 14.7878 18.7188ZM14.7878 22C14.2063 22 13.7332 21.5269 13.7332 20.9453C13.7332 20.3638 14.2063 19.8906 14.7878 19.8906C15.3694 19.8906 15.8425 20.3638 15.8425 20.9453C15.8425 21.5269 15.3694 22 14.7878 22Z" fill="#00828F"/>
<path d="M25.7253 18.7188C24.4976 18.7188 23.4988 19.7176 23.4988 20.9453C23.4988 22.173 24.4976 23.1719 25.7253 23.1719C26.9531 23.1719 27.9519 22.173 27.9519 20.9453C27.9519 19.7176 26.9531 18.7188 25.7253 18.7188ZM25.7253 22C25.1438 22 24.6707 21.5269 24.6707 20.9453C24.6707 20.3638 25.1438 19.8906 25.7253 19.8906C26.3069 19.8906 26.78 20.3638 26.78 20.9453C26.78 21.5269 26.3069 22 25.7253 22Z" fill="#00828F"/>
<path d="M31.1941 18.7188C29.9664 18.7188 28.9675 19.7176 28.9675 20.9453C28.9675 22.173 29.9664 23.1719 31.1941 23.1719C32.4218 23.1719 33.4207 22.173 33.4207 20.9453C33.4207 19.7176 32.4218 18.7188 31.1941 18.7188ZM31.1941 22C30.6125 22 30.1394 21.5269 30.1394 20.9453C30.1394 20.3638 30.6125 19.8906 31.1941 19.8906C31.7756 19.8906 32.2488 20.3638 32.2488 20.9453C32.2488 21.5269 31.7756 22 31.1941 22Z" fill="#00828F"/>
<path d="M20.2566 18.7188C19.0289 18.7188 18.03 19.7176 18.03 20.9453C18.03 22.173 19.0289 23.1719 20.2566 23.1719C21.4843 23.1719 22.4832 22.173 22.4832 20.9453C22.4832 19.7176 21.4843 18.7188 20.2566 18.7188ZM20.2566 22C19.675 22 19.2019 21.5269 19.2019 20.9453C19.2019 20.3638 19.675 19.8906 20.2566 19.8906C20.8381 19.8906 21.3113 20.3638 21.3113 20.9453C21.3113 21.5269 20.8381 22 20.2566 22Z" fill="#00828F"/>
<path d="M14.389 27.6032C14.1601 27.3744 13.7892 27.3744 13.5603 27.6032L11.6521 29.5115L11.0001 28.8594C10.7712 28.6306 10.4003 28.6306 10.1714 28.8594C9.94255 29.0882 9.94255 29.4592 10.1714 29.6881L11.2378 30.7544C11.3477 30.8643 11.4968 30.926 11.6521 30.926C11.8075 30.926 11.9565 30.8643 12.0665 30.7544L14.389 28.4319C14.6178 28.2031 14.6178 27.8321 14.389 27.6032Z" fill="#00828F"/>
</svg>
