<svg xmlns="http://www.w3.org/2000/svg" width="45" height="45" viewBox="0 0 45 45"><g transform="translate(-4229 -568)"><path d="M39.558,28.983h-.245a5.3,5.3,0,0,0,2.86-2.4A5.529,5.529,0,0,0,42,20.752a3.551,3.551,0,0,0-1.181-1.187v-.643a2.283,2.283,0,0,0-1.628-2.24l-2.455-.669a2.656,2.656,0,0,0-1.4,0l-2.43.669a2.283,2.283,0,0,0-1.62,2.231v.627a3.7,3.7,0,0,0-1.206,1.212,5.547,5.547,0,0,0-.169,5.833,5.251,5.251,0,0,0,2.852,2.4H31.542a5.42,5.42,0,0,0-3.957-1.755H24.953v-.7a7.44,7.44,0,0,0,4.269-5.992,2,2,0,0,0,1.325-3.41,1.978,1.978,0,0,0-1.291-.577V13.858h.936a.667.667,0,0,0,.675-.66v-.008A5.22,5.22,0,0,0,25.628,8H20.92a2.939,2.939,0,0,0-2.455,1.3A4.031,4.031,0,0,0,15.2,11.2a4.9,4.9,0,0,0-.717,1.905c0,.033.009.059.009.092v3.334a2,2,0,0,0,0,3.994,7.251,7.251,0,0,0,2.143,4.521,7.03,7.03,0,0,0,2.413,1.588v.585H16.415a5.411,5.411,0,0,0-4.531,2.507H10.028v-.05l1.105-.719a.572.572,0,0,0,.11-.092,4.7,4.7,0,0,0,1.4-3.368V20.292a2.194,2.194,0,0,0-1.662-2.122l-2.489-.627a.031.031,0,0,1-.025-.008,2.891,2.891,0,0,0-.54-.075,2.462,2.462,0,0,0-.818.083l-2.447.627a2.179,2.179,0,0,0-1.645,2.122v.969c0,.05-.025.1-.025.15,0,.067.025.125.025.184v3.911a4.631,4.631,0,0,0,2.649,4.228h-1.2A3.492,3.492,0,0,0,1,33.237v1.7a.627.627,0,0,0,.607.643h9.509v1.788a.669.669,0,0,0,.7.635H32.175a.663.663,0,0,0,.7-.635v-1.78h9.483a.628.628,0,0,0,.641-.61V32.668A3.558,3.558,0,0,0,39.558,28.983Zm1.257-4.638V21.412c0,.025.042.05.059.075A4.24,4.24,0,0,1,41,25.933a4.079,4.079,0,0,1-.869,1.061A5.3,5.3,0,0,0,40.815,24.345ZM14.491,19.181a.641.641,0,0,1-.548-.643.662.662,0,0,1,.2-.468.553.553,0,0,1,.346-.176Zm-5.881.276H8.5v-.084a.661.661,0,0,0-.245-.51l2.388.6a.852.852,0,0,1,.641.827v2.139A2.714,2.714,0,0,1,8.83,22.24a4.007,4.007,0,0,1-.8-.652.673.673,0,0,0,.472-.635v-.159h.11a.669.669,0,1,0,0-1.337ZM4.367,21.412v-1.12A.826.826,0,0,1,5,19.474l2.4-.61a.673.673,0,0,0-.245.51v.084H7.024a.669.669,0,1,0,0,1.337h.127v.117c-.084-.008-.194-.008-.3-.008a4.6,4.6,0,0,0-2.48.777v-.267Zm0,4.095V23.351A3.99,3.99,0,0,1,6.813,22.24a5.21,5.21,0,0,0,1.266,1.12,4.128,4.128,0,0,0,2.143.627,4.175,4.175,0,0,0,1.063-.142v1.671a3.383,3.383,0,0,1-.97,2.373l-1.35.861a3.472,3.472,0,0,1-2.236.017A3.428,3.428,0,0,1,4.367,25.507Zm2.776,8.741h-4.8V33.237a2.145,2.145,0,0,1,2.118-2.164H6.206l.937.961Zm.1-4a5.085,5.085,0,0,0,1.333-.025l-.683.677Zm3.873,2.181v1.822H8.5V32.2l1.088-1.128h1.73A5.723,5.723,0,0,0,11.116,32.426Zm16.545-.209a.877.877,0,0,1,.641.267.892.892,0,0,1,0,1.278.87.87,0,0,1-.641.259.9.9,0,1,1,0-1.805ZM29.593,18.07a.654.654,0,0,1,.194.468.62.62,0,0,1-.531.643v-1.3A1.015,1.015,0,0,1,29.593,18.07ZM19.461,10.265c0-.008.008-.008.008-.017a1.554,1.554,0,0,1,.3-.435,1.625,1.625,0,0,1,1.139-.468H25.62a3.937,3.937,0,0,1,3.839,3.175H20.92c-.008,0-.017.008-.025.008h-.068a1.585,1.585,0,0,1-1.51-1.579A1.357,1.357,0,0,1,19.461,10.265Zm-3.1,1.663a2.638,2.638,0,0,1,1.611-1.195,1.857,1.857,0,0,0-.008.217A2.935,2.935,0,0,0,19.6,13.566a5.658,5.658,0,0,1-3.763,1.7v-2A3.349,3.349,0,0,1,16.356,11.928ZM17.6,24.1a5.938,5.938,0,0,1-1.755-4.237V16.591a6.949,6.949,0,0,0,5.265-2.733h6.8v6.008A6.046,6.046,0,0,1,17.6,24.1Zm3.561,12.568h-8.69V32.426a3.854,3.854,0,0,1,.388-1.671,3.963,3.963,0,0,1,3.156-2.189V29a2.843,2.843,0,0,0-1.223.7,2.673,2.673,0,0,0-.8,1.914v2.858a.7.7,0,0,0,.675.694h.827a.669.669,0,1,0,0-1.337h-.152V31.624a1.371,1.371,0,0,1,.405-.978,1.348,1.348,0,0,1,.953-.41h.025a1.407,1.407,0,0,1,1.4,1.387V33.83h-.371a.669.669,0,1,0,0,1.337h1.029a.7.7,0,0,0,.692-.694V31.616a2.752,2.752,0,0,0-2.109-2.624v-.426h2.067l1.73,1.721ZM20.4,27.6v-.56a7.542,7.542,0,0,0,3.206-.059V27.6l-1.595,1.6Zm11.137,9.067H22.506v-6.1l2.05-2.006h2.422v2.423a2.247,2.247,0,1,0,2.278,3.727,2.27,2.27,0,0,0,.667-1.588,2.195,2.195,0,0,0-.667-1.579,2.3,2.3,0,0,0-.928-.56V28.624a4.059,4.059,0,0,1,2.413,1.487,3.8,3.8,0,0,1,.793,2.323Zm1.1-16.738v-1.02a.93.93,0,0,1,.641-.936L35.71,17.3a1.337,1.337,0,0,1,.447-.042.928.928,0,0,1,.219.042l2.447.669a.941.941,0,0,1,.641.944v2.465a3.663,3.663,0,0,1-3.4-1.086.7.7,0,0,0,.7-.668v-.167h.076a.669.669,0,1,0,0-1.337h-.076v-.192a.679.679,0,0,0-.607-.669H36.09a.674.674,0,0,0-.675.669v.192h-.152a.669.669,0,1,0,0,1.337h.152v.167a.624.624,0,0,0,.034.251H35.39a.651.651,0,0,0-.54.284,2.915,2.915,0,0,1-2.219,1.362Zm-1.552,5.992a4.225,4.225,0,0,1,.118-4.437c.025-.042.084-.075.084-.109v2.966a5.255,5.255,0,0,0,.709,2.683A3.968,3.968,0,0,1,31.078,25.925Zm1.552-1.579V22.858a3.9,3.9,0,0,0,2.81-1.3,5.02,5.02,0,0,0,3.3,1.228,5.282,5.282,0,0,0,.726-.05v1.613a3.845,3.845,0,0,1-.97,2.616l-1.274.886-1.24.242a3.139,3.139,0,0,1-1-.184.589.589,0,0,1-.068-.025c-.025-.008-.042-.025-.067-.034A3.77,3.77,0,0,1,32.631,24.345Zm.253,9.9V32.426a5.183,5.183,0,0,0-.472-2.106h2.05a2.345,2.345,0,0,0,.953.51v3.418Zm2.556-4.863a5.079,5.079,0,0,0,.616.042.654.654,0,0,0,.126-.017l.667-.134v.084a1.218,1.218,0,0,1-.759.251A1.13,1.13,0,0,1,35.44,29.384Zm1.325,4.863V30.88a3.042,3.042,0,0,0,1.038-.56h1.755a2.228,2.228,0,0,1,2.1,2.348v1.579Z" transform="translate(4230 568)" fill="#717171"/><rect width="45" height="45" transform="translate(4229 568)" fill="none"/></g></svg>