<svg width="45" height="45" viewBox="0 0 45 45" fill="none" xmlns="http://www.w3.org/2000/svg">
<path d="M39.5576 28.9833H39.313C40.5279 28.5571 41.5488 27.6964 42.1731 26.585C43.2278 24.7633 43.1603 22.507 41.996 20.7521C41.6585 20.2508 41.321 19.858 40.8148 19.5655V18.9221C40.8148 17.8692 40.1567 16.9499 39.1864 16.6825L36.7312 16.014C36.2756 15.8887 35.7863 15.8887 35.3307 16.014L32.9008 16.6825C31.939 16.9499 31.2809 17.8692 31.2809 18.9137V19.5405C30.7746 19.8329 30.4203 20.2424 30.0744 20.7521C28.9185 22.507 28.851 24.7633 29.9056 26.585C30.53 27.7048 31.5424 28.5571 32.7574 28.9833H31.5424C30.53 27.8803 29.0957 27.2368 27.5854 27.2284H24.9531V26.5265C27.3407 25.4151 28.9607 23.1338 29.2222 20.5349C30.3359 20.4764 31.1881 19.5321 31.129 18.429C31.1037 17.936 30.8928 17.4764 30.5468 17.1254C30.2009 16.7828 29.7453 16.5739 29.256 16.5488V13.858H30.1925C30.5637 13.858 30.8674 13.5655 30.8674 13.1979C30.8674 13.1979 30.8674 13.1979 30.8674 13.1895C30.8674 10.3232 28.5135 8.0001 25.628 8.0001H20.9201C19.933 7.99175 19.0134 8.48478 18.4649 9.29536C16.7185 9.404 15.7313 10.3734 15.1998 11.2007C14.8286 11.7856 14.5839 12.4291 14.4826 13.1059C14.4826 13.1394 14.4911 13.1644 14.4911 13.1979V16.5321C13.3774 16.5906 12.5252 17.5349 12.5843 18.6379C12.6434 19.6574 13.4618 20.468 14.4911 20.5265C14.6429 22.2313 15.4023 23.8357 16.6341 25.0474C17.3175 25.741 18.1443 26.2758 19.0471 26.6351V27.2201H16.4147C14.567 27.2368 12.8627 28.1811 11.884 29.727H10.0279V29.6769L11.1331 28.9582C11.1753 28.9332 11.2091 28.8998 11.2428 28.8663C12.1456 27.9722 12.6518 26.7605 12.6434 25.4986V20.2925C12.6434 19.2898 11.96 18.4207 10.9813 18.17L8.49232 17.5432C8.48388 17.5432 8.47544 17.5432 8.46701 17.5349C8.28983 17.4931 8.11265 17.468 7.92703 17.4597C7.64861 17.443 7.37862 17.468 7.10864 17.5432L4.66188 18.17C3.69162 18.4207 3.00822 19.2898 3.01665 20.2925V21.2619C3.01665 21.312 2.99134 21.3622 2.99134 21.4123C2.99134 21.4792 3.01665 21.5377 3.01665 21.5962V25.507C3.01665 27.3371 4.04598 28.9833 5.6659 29.7354H4.46783C2.53574 29.7354 1.00019 31.3315 1.00019 33.2368V34.9332C0.991755 35.2758 1.26174 35.5683 1.60766 35.5766C1.6161 35.5766 1.63297 35.5766 1.64141 35.5766H11.1162V37.3649C11.1162 37.7326 11.4453 38 11.8165 38H32.1752C32.5464 38 32.8755 37.7409 32.8755 37.3649V35.585H42.3587C42.7047 35.5933 42.9915 35.3176 43 34.9749C43 34.9666 43 34.9499 43 34.9415V32.6685C43.0084 30.6379 41.4729 28.9833 39.5576 28.9833ZM40.8148 24.3454V21.4123C40.8148 21.4374 40.8569 21.4625 40.8738 21.4875C41.7513 22.8246 41.8019 24.546 41.0004 25.9332C40.7726 26.3343 40.4773 26.6936 40.1314 26.9945C40.587 26.1839 40.8232 25.273 40.8148 24.3454ZM14.4911 19.1811C14.1705 19.131 13.9342 18.8552 13.9427 18.5377C13.9427 18.3622 14.0186 18.1951 14.1452 18.0697C14.238 17.9694 14.3561 17.9109 14.4911 17.8942V19.1811ZM8.61044 19.4569H8.50075V19.3733C8.50075 19.1728 8.40795 18.9889 8.25608 18.8636L10.6438 19.4652C11.0234 19.5655 11.285 19.8998 11.285 20.2925V22.4318C10.4835 22.7661 9.57226 22.6909 8.8298 22.2396C8.5345 22.0558 8.26452 21.8385 8.02828 21.5878C8.3067 21.4959 8.50075 21.2452 8.50075 20.9527V20.7939H8.61044C8.98167 20.7939 9.2854 20.4931 9.2854 20.1254C9.2854 19.7577 8.98167 19.4569 8.61044 19.4569ZM4.36659 21.4123V20.2925C4.35815 19.9081 4.6197 19.5655 4.99937 19.4736L7.3955 18.8636C7.24363 18.9889 7.15082 19.1811 7.15082 19.3733V19.4569H7.02427C6.65303 19.4569 6.3493 19.7577 6.3493 20.1254C6.3493 20.4931 6.65303 20.7939 7.02427 20.7939H7.15082V20.9109C7.06645 20.9026 6.95677 20.9026 6.84709 20.9026C5.96119 20.9193 5.10061 21.1867 4.36659 21.6797V21.4123ZM4.36659 25.507V23.351C4.70407 23.0084 5.72496 22.2563 6.81334 22.2396C7.1677 22.6741 7.59799 23.0585 8.0789 23.3594C8.72012 23.7605 9.46258 23.9778 10.2219 23.9861C10.5763 23.9861 10.9391 23.936 11.285 23.8441V25.5154C11.285 26.4012 10.9391 27.2535 10.3147 27.8886L8.96479 28.7493C8.23921 29 7.45456 29.0084 6.72897 28.766C5.31154 28.2981 4.36659 26.9861 4.36659 25.507ZM7.14239 34.2479H2.34169V33.2368C2.34169 32.0585 3.2782 31.0724 4.45939 31.0724H6.20587L7.14239 32.0334V34.2479ZM7.24363 30.2452C7.69079 30.2953 8.13796 30.2869 8.57669 30.2201L7.89329 30.897L7.24363 30.2452ZM11.1162 32.4262V34.2479H8.50075V32.2006L9.58914 31.0724H11.3187C11.2006 31.5738 11.1162 31.975 11.1162 32.4262ZM27.6614 32.2173C27.906 32.2173 28.1338 32.3092 28.3026 32.4847C28.4713 32.6518 28.5726 32.8858 28.5726 33.1198C28.5726 33.3621 28.4713 33.5961 28.3026 33.7632C28.1338 33.9304 27.906 34.0307 27.6614 34.0223C27.1551 34.0223 26.7502 33.6128 26.7502 33.1198C26.7502 32.6268 27.1551 32.2256 27.6614 32.2173ZM29.5934 18.0697C29.72 18.1951 29.7875 18.3622 29.7875 18.5377C29.8044 18.8552 29.5766 19.131 29.256 19.1811V17.8859C29.3825 17.9276 29.4922 17.9861 29.5934 18.0697ZM19.4605 10.2647C19.4605 10.2564 19.469 10.2564 19.469 10.248C19.5449 10.0892 19.6461 9.93882 19.7727 9.81347C20.0764 9.51263 20.4898 9.3455 20.9117 9.3455H25.6196C27.5348 9.3455 29.1378 10.7661 29.4585 12.521H20.9201C20.9117 12.521 20.9033 12.5293 20.8948 12.5293C20.8695 12.5293 20.8442 12.5293 20.8273 12.5293C19.9752 12.4876 19.3171 11.7856 19.3171 10.95C19.3002 10.7076 19.3593 10.4736 19.4605 10.2647ZM16.3557 11.9277C16.7522 11.3009 17.2922 10.9082 17.9672 10.7327C17.9587 10.8079 17.9587 10.8747 17.9587 10.95C17.9672 12.0614 18.5999 13.0725 19.6039 13.5655C18.1865 14.9778 16.6003 15.2368 15.841 15.2619V13.2647C15.841 13.1143 15.9844 12.5126 16.3557 11.9277ZM17.5959 24.1031C16.4654 22.975 15.8326 21.4541 15.841 19.8664V16.5906C16.9378 16.5572 19.2327 16.1978 21.1057 13.858H27.906V19.8664C27.8976 22.365 26.3367 24.5961 23.9744 25.4819C21.7638 26.3009 19.2665 25.7661 17.5959 24.1031ZM21.1564 36.6713H12.4662V32.4262C12.4662 31.8496 12.6012 31.2814 12.8543 30.7549C13.4533 29.5348 14.6429 28.7076 16.0098 28.5655V29C15.5457 29.1337 15.1239 29.3677 14.7864 29.702C14.2717 30.2034 13.9849 30.897 13.9849 31.6156V34.4735C13.9849 34.8496 14.2802 35.1504 14.6598 35.1671H15.4867C15.8579 35.1671 16.1616 34.8663 16.1616 34.4986C16.1616 34.1309 15.8579 33.8301 15.4867 33.8301H15.3348V31.624C15.3348 31.2563 15.4782 30.9053 15.7398 30.6463C15.9844 30.3872 16.3304 30.2452 16.6932 30.2368H16.7185C17.4862 30.2452 18.1106 30.8552 18.119 31.624V33.8301H17.7478C17.3766 33.8301 17.0728 34.1309 17.0728 34.4986C17.0728 34.8663 17.3766 35.1671 17.7478 35.1671H18.7771C19.1568 35.1588 19.4605 34.8579 19.469 34.4735V31.6156C19.469 30.3454 18.5409 29.2842 17.3597 28.9917V28.5655H19.4268L21.1564 30.2869V36.6713ZM20.397 27.6045V27.0446C21.4601 27.2535 22.5485 27.2368 23.6031 26.9861V27.6045L22.0085 29.2006L20.397 27.6045ZM31.534 36.6713H22.5063V30.5711L24.5565 28.5655H26.978V30.9889C26.033 31.2814 25.3918 32.1504 25.3918 33.1281C25.3918 33.7215 25.628 34.2897 26.0499 34.7159C26.4717 35.1421 27.0539 35.3761 27.6529 35.3761C28.252 35.3761 28.8341 35.1421 29.256 34.7159C29.6778 34.2981 29.9141 33.7298 29.9225 33.1281C29.9225 32.5348 29.6863 31.9666 29.256 31.5488C28.9944 31.2897 28.6738 31.0975 28.3279 30.9889V28.624C29.2897 28.8162 30.1419 29.3426 30.7409 30.1114C31.2556 30.78 31.534 31.5906 31.534 32.4346V36.6713ZM32.6308 19.9332V18.9137C32.6308 18.4708 32.8839 18.0781 33.272 17.9778L35.7103 17.3009C35.8538 17.2591 36.0056 17.2508 36.1575 17.2591C36.2334 17.2675 36.3094 17.2758 36.3769 17.3009L38.8236 17.9694C39.2117 18.0781 39.4648 18.4625 39.4648 18.9137V21.3789C37.5243 21.6964 36.419 20.6769 36.0647 20.2925C36.4444 20.2925 36.7481 20.0001 36.765 19.624V19.4569H36.8409C37.2121 19.4569 37.5159 19.1561 37.5159 18.7884C37.5159 18.4207 37.2121 18.1198 36.8409 18.1198H36.765V17.9276C36.765 17.585 36.5034 17.3009 36.1575 17.2591C36.1322 17.2591 36.1153 17.2591 36.09 17.2591C35.7188 17.2591 35.415 17.56 35.415 17.9276V18.1198H35.2632C34.8919 18.1198 34.5882 18.4207 34.5882 18.7884C34.5882 19.1561 34.8919 19.4569 35.2632 19.4569H35.415V19.624C35.4066 19.7076 35.4235 19.7995 35.4488 19.8747C35.4403 19.8747 35.4066 19.8747 35.3982 19.8747H35.3897C35.1704 19.8747 34.9679 19.9833 34.8497 20.1588C34.0735 21.2619 33.137 21.4959 32.6308 21.5209V19.9332ZM31.0784 25.9248C30.2769 24.5377 30.319 22.8246 31.1965 21.4875C31.2218 21.4457 31.2809 21.4123 31.2809 21.3789V24.3454C31.2724 25.2897 31.5171 26.209 31.9896 27.0279C31.6183 26.7187 31.3146 26.3427 31.0784 25.9248ZM32.6308 24.3454V22.858C33.3901 22.8413 34.4532 22.5989 35.4403 21.5544C36.3515 22.3482 37.5243 22.7828 38.7392 22.7828C38.9839 22.7828 39.2202 22.7661 39.4648 22.7326V24.3454C39.4817 25.3064 39.1358 26.234 38.4946 26.961L37.2206 27.8468L35.9803 28.0892C35.6344 28.0808 35.2969 28.0223 34.9763 27.9053C34.951 27.897 34.9257 27.8886 34.9088 27.8803C34.8835 27.8719 34.8666 27.8552 34.8413 27.8468C33.5167 27.2953 32.6308 25.8914 32.6308 24.3454ZM32.8839 34.2479V32.4262C32.8755 31.6992 32.7152 30.9805 32.4114 30.3204H34.4616C34.7401 30.5627 35.0607 30.7382 35.415 30.8301V34.2479H32.8839ZM35.4403 29.3844C35.6428 29.4095 35.8538 29.4262 36.0563 29.4262C36.0984 29.4262 36.1406 29.4179 36.1828 29.4095L36.8493 29.2758V29.3594C36.5962 29.5348 36.36 29.6184 36.09 29.6101C35.8538 29.6017 35.626 29.5265 35.4403 29.3844ZM36.765 34.2479V30.8802C37.1446 30.7633 37.499 30.5711 37.8027 30.3204H39.5576C40.7304 30.3204 41.6585 31.3733 41.6585 32.6685V34.2479H36.765Z" fill="#00828F"/>
</svg>
