<svg width="45" height="45" viewBox="0 0 45 45" fill="none" xmlns="http://www.w3.org/2000/svg">
<path d="M22.6503 24.1648C22.6813 24.1648 22.7124 24.1648 22.7497 24.1648C22.7621 24.1648 22.7745 24.1648 22.787 24.1648C22.8056 24.1648 22.8304 24.1648 22.8491 24.1648C24.6693 24.1338 26.1417 23.4939 27.2289 22.27C29.6207 19.5738 29.2231 14.9518 29.1796 14.5107C29.0243 11.1994 27.4587 9.61524 26.1665 8.87596C25.2036 8.32305 24.0791 8.02485 22.8242 8H22.7807C22.7745 8 22.7621 8 22.7559 8H22.7186C22.029 8 20.6747 8.11182 19.3763 8.85111C18.0717 9.59039 16.4813 11.1746 16.326 14.5107C16.2825 14.9518 15.8849 19.5738 18.2767 22.27C19.3577 23.4939 20.83 24.1338 22.6503 24.1648ZM17.9847 14.666C17.9847 14.6473 17.9909 14.6287 17.9909 14.6163C18.1959 10.1619 21.3581 9.68358 22.7124 9.68358H22.7373C22.7497 9.68358 22.7683 9.68358 22.787 9.68358C24.4643 9.72085 27.3158 10.4042 27.5084 14.6163C27.5084 14.6349 27.5084 14.6536 27.5146 14.666C27.5209 14.7095 27.9557 18.9339 25.9802 21.158C25.1974 22.0402 24.1537 22.475 22.7807 22.4875C22.7683 22.4875 22.7621 22.4875 22.7497 22.4875C22.7373 22.4875 22.731 22.4875 22.7186 22.4875C21.3519 22.475 20.302 22.0402 19.5254 21.158C17.5561 18.9464 17.9785 14.7033 17.9847 14.666Z" fill="#737373"/>
<path d="M35.5163 31.831C35.5163 31.8248 35.5163 31.8186 35.5163 31.8124C35.5163 31.7627 35.5101 31.713 35.5101 31.6571C35.4728 30.427 35.392 27.5506 32.6958 26.6312C32.6772 26.625 32.6523 26.6188 32.6337 26.6126C29.8319 25.8981 27.5022 24.2829 27.4774 24.2643C27.0984 23.9971 26.5766 24.0903 26.3094 24.4693C26.0423 24.8482 26.1355 25.3701 26.5144 25.6372C26.62 25.7118 29.0926 27.4326 32.1864 28.2278C33.6339 28.7434 33.7954 30.2904 33.8389 31.7068C33.8389 31.7627 33.8389 31.8124 33.8451 31.8621C33.8513 32.4212 33.8141 33.2848 33.7147 33.7818C32.7083 34.3533 28.7633 36.3289 22.7621 36.3289C16.7857 36.3289 12.8159 34.3471 11.8033 33.7755C11.7039 33.2785 11.6604 32.415 11.6728 31.8559C11.6728 31.8062 11.6791 31.7565 11.6791 31.7006C11.7225 30.2841 11.8841 28.7372 13.3316 28.2216C16.4254 27.4264 18.8979 25.6993 19.0036 25.631C19.3825 25.3639 19.4757 24.842 19.2086 24.4631C18.9414 24.0841 18.4196 23.9909 18.0406 24.258C18.0158 24.2767 15.6985 25.8919 12.8843 26.6064C12.8594 26.6126 12.8408 26.6188 12.8222 26.625C10.1259 27.5506 10.0452 30.427 10.0079 31.6509C10.0079 31.7068 10.0079 31.7565 10.0017 31.8062C10.0017 31.8124 10.0017 31.8186 10.0017 31.8248C9.99548 32.1479 9.98927 33.8066 10.3185 34.6391C10.3807 34.8006 10.4925 34.9373 10.6416 35.0305C10.8279 35.1547 15.2947 38 22.7683 38C30.2419 38 34.7087 35.1485 34.895 35.0305C35.0379 34.9373 35.156 34.8006 35.2181 34.6391C35.5287 33.8128 35.5225 32.1541 35.5163 31.831Z" fill="#737373"/>
</svg>
