<svg width="45" height="45" viewBox="0 0 45 45" fill="none" xmlns="http://www.w3.org/2000/svg">
<path d="M39.2708 17.0001C37.8897 17.0001 36.6266 17.1028 35.4449 17.2884C35.1199 14.4996 34.3117 11.7433 32.9861 9.08664C32.8137 8.74078 32.4463 8.58125 32.1216 8.70984C30.14 9.46452 28.3215 10.5276 26.6839 11.843C25.667 10.17 24.439 8.59492 22.9671 7.19289C22.6965 6.9357 22.3035 6.9357 22.0328 7.19289C20.5608 8.595 19.3329 10.17 18.3161 11.843C16.6784 10.5275 14.86 9.46452 12.8783 8.70984C12.5508 8.58211 12.1862 8.74156 12.0139 9.08664C10.6882 11.7438 9.87997 14.4997 9.55492 17.2883C8.37326 17.1027 7.11025 17.0001 5.72919 17.0001C5.32614 17.0001 5 17.3728 5 17.8334C5 23.6749 6.521 28.2525 9.64987 31.8283C12.6534 35.2601 16.9771 37 22.5 37C28.0229 37 32.3466 35.2601 35.3501 31.8283C38.479 28.2524 40 23.6749 40 17.8334C40 17.3728 39.6739 17.0001 39.2708 17.0001ZM32.0119 10.519C33.0844 12.8175 33.7413 15.1843 34.0121 17.5711C32.3332 17.974 30.8465 18.5913 29.521 19.453C29.1763 17.3039 28.4808 15.2125 27.4726 13.2411C28.848 12.1281 30.3649 11.2071 32.0119 10.519ZM12.9881 10.519C14.6351 11.2072 16.152 12.1282 17.5274 13.241C16.5193 15.2124 15.8238 17.3039 15.4791 19.453C14.1534 18.5913 12.6668 17.9738 10.9877 17.5709C11.2585 15.1847 11.9154 12.8178 12.9881 10.519ZM10.6809 30.6499C7.9508 27.529 6.60214 23.7082 6.46973 18.6765C10.168 18.7716 12.9818 19.606 15.2569 21.2532C15.2048 22.0103 15.1941 22.771 15.2297 23.5325C15.4428 28.0831 17.2168 32.1406 20.2509 35.2116C16.2056 34.806 12.9872 33.2849 10.6809 30.6499ZM22.5 35.1551C18.9653 32.2816 16.9059 28.1426 16.6851 23.4428C16.4402 18.1784 18.5522 12.9254 22.5 8.93203C26.4478 12.9254 28.5598 18.1784 28.3149 23.4429C28.0941 28.1426 26.0347 32.2816 22.5 35.1551ZM34.3191 30.6499C32.0128 33.2849 28.7944 34.806 24.7491 35.2116C27.7832 32.1406 29.5572 28.0831 29.7703 23.5324C29.8059 22.7709 29.7951 22.0102 29.7431 21.2532C32.0182 19.6059 34.832 18.7716 38.5303 18.6765C38.3979 23.7082 37.0491 27.529 34.3191 30.6499Z" fill="#00828F"/>
</svg>
