<svg  xmlns="http://www.w3.org/2000/svg" width="45" height="45" viewBox="0 0 45 45"><g transform="translate(-4190 -520)"><g transform="translate(4190 521)"><path d="M39.271,17a24.533,24.533,0,0,0-3.826.288,24.708,24.708,0,0,0-2.459-8.2.69.69,0,0,0-.864-.377,20.088,20.088,0,0,0-5.438,3.133,22.614,22.614,0,0,0-3.717-4.65.662.662,0,0,0-.934,0,22.609,22.609,0,0,0-3.717,4.65A20.086,20.086,0,0,0,12.878,8.71a.691.691,0,0,0-.864.377,24.712,24.712,0,0,0-2.459,8.2A24.531,24.531,0,0,0,5.729,17,.786.786,0,0,0,5,17.833c0,5.841,1.521,10.419,4.65,13.995C12.653,35.26,16.977,37,22.5,37s9.847-1.74,12.85-5.172C38.479,28.252,40,23.675,40,17.833A.786.786,0,0,0,39.271,17Zm-7.259-6.481a22.664,22.664,0,0,1,2,7.052,14.218,14.218,0,0,0-4.491,1.882,20.924,20.924,0,0,0-2.048-6.212A18.62,18.62,0,0,1,32.012,10.519Zm-19.024,0a18.629,18.629,0,0,1,4.539,2.722,20.927,20.927,0,0,0-2.048,6.212,14.22,14.22,0,0,0-4.491-1.882A22.665,22.665,0,0,1,12.988,10.519ZM10.681,30.65C7.951,27.529,6.6,23.708,6.47,18.677a15.063,15.063,0,0,1,8.787,2.577,19.755,19.755,0,0,0-.027,2.279,17.554,17.554,0,0,0,5.021,11.679A14.065,14.065,0,0,1,10.681,30.65ZM22.5,35.155a15.785,15.785,0,0,1-5.815-11.712A19.476,19.476,0,0,1,22.5,8.932a19.476,19.476,0,0,1,5.815,14.511A15.785,15.785,0,0,1,22.5,35.155ZM34.319,30.65a14.065,14.065,0,0,1-9.57,4.562A17.554,17.554,0,0,0,29.77,23.532a19.775,19.775,0,0,0-.027-2.279,15.062,15.062,0,0,1,8.787-2.577C38.4,23.708,37.049,27.529,34.319,30.65Z" fill="#717171"/></g><rect width="45" height="45" transform="translate(4190 520)" fill="none"/></g></svg>