<svg xmlns="http://www.w3.org/2000/svg" width="72" height="72" viewBox="0 0 72 72" fill="none"><g clip-path="url(#clip0_5116_3770)"><path d="M70.8819 27.5476H65.4899C67.574 21.3101 67.6509 15.0748 65.6519 10.6265C65.4448 10.1656 64.9433 9.91293 64.45 10.0206C62.1368 10.5243 59.7457 11.6779 57.4561 13.3808C56.0488 7.68436 53.0067 2.93554 48.9533 0.18457C48.5907 -0.0615233 48.1156 -0.0615233 47.753 0.18457C43.7007 2.93499 40.6581 7.68382 39.2491 13.3802C36.9595 11.6779 34.5689 10.5249 32.2569 10.0206C31.763 9.91293 31.2615 10.1656 31.0544 10.6265C29.0549 15.0765 29.1313 21.3112 31.2154 27.5476H27.7541L24.8856 20.1104C24.673 19.56 24.0545 19.2853 23.5041 19.4979C22.9537 19.7105 22.679 20.329 22.8916 20.8795L25.4635 27.5476H11.501L9.15763 14.1872L19.2315 11.39L21.387 16.9793C21.5996 17.5297 22.2181 17.8038 22.7685 17.5918C23.3195 17.3798 23.5936 16.7607 23.381 16.2103L21.2876 10.7825C22.1072 10.4353 22.7872 9.83273 23.2322 9.04502C23.7661 8.10075 23.9001 7.00541 23.6101 5.96061C23.3201 4.91527 22.64 4.0457 21.6963 3.51232C20.752 2.97838 19.6561 2.84435 18.6113 3.13439L6.0507 6.62199C3.89354 7.22074 2.62572 9.46305 3.22503 11.6208C3.71611 13.389 5.31132 14.5568 7.05869 14.592L9.33121 27.5476H1.06842C0.478453 27.5476 0 28.026 0 28.616C0 36.6569 2.59386 44.2605 7.50089 50.6056C11.4895 55.7637 16.864 59.7698 22.8921 62.1341C22.7306 62.1813 22.5697 62.2297 22.4093 62.2786C19.9984 63.0163 18.5745 65.2729 18.947 67.7668C19.32 70.259 21.3403 71.9998 23.8606 71.9998H48.0903C50.61 71.9998 52.6304 70.259 53.0034 67.7668C53.3758 65.2729 51.9525 63.0163 49.5405 62.2786C49.3823 62.2302 49.223 62.1824 49.0637 62.1357C51.239 61.286 53.3297 60.223 55.31 58.9585C55.8076 58.641 55.9532 57.9802 55.6357 57.483C55.3182 56.9854 54.6574 56.8398 54.1602 57.1573C51.3071 58.9788 48.2112 60.3554 44.9576 61.2486C44.4813 61.3793 44.1572 61.8188 44.1726 62.3121C44.1874 62.8054 44.539 63.2245 45.0224 63.325C46.3407 63.6002 47.6503 63.9358 48.9159 64.3226C50.6391 64.8494 51.0561 66.3369 50.8896 67.4509C50.7232 68.5638 49.8899 69.863 48.0903 69.863H23.8606C22.0605 69.863 21.2272 68.5638 21.0607 67.4509C20.8943 66.3369 21.3112 64.8494 23.0344 64.3226C24.2671 63.9457 25.542 63.6183 26.8258 63.3475H39.265C39.855 63.3475 40.3334 62.8691 40.3334 62.2791C40.3334 61.6891 39.855 61.2107 39.265 61.2107H26.8593C19.9055 59.27 13.6351 55.0441 9.19168 49.2983C4.79497 43.6128 2.37249 36.8519 2.15386 29.685H69.797C69.4911 39.5106 64.979 48.6457 57.3106 54.882C56.853 55.2545 56.7838 55.9274 57.1557 56.385C57.5281 56.8431 58.2015 56.9123 58.6591 56.5399C67.1059 49.6701 71.9503 39.4924 71.9503 28.6166C71.9503 28.026 71.4719 27.5476 70.8819 27.5476V27.5476ZM5.28386 11.0489C5.00041 10.0272 5.60081 8.96482 6.62254 8.68137L19.1832 5.19322C19.3546 5.14598 19.5281 5.12236 19.7006 5.12236C20.028 5.12236 20.3516 5.20695 20.6443 5.3723C21.0915 5.62553 21.4134 6.03697 21.5507 6.5319C21.6886 7.02738 21.6249 7.54594 21.3722 7.99308C21.1195 8.44022 20.7075 8.76267 20.2126 8.9L7.65195 12.387C7.65086 12.3876 7.65031 12.3876 7.64976 12.3881C6.62858 12.6705 5.56731 12.0701 5.28386 11.0489ZM63.2289 27.5476H57.5627L60.2532 22.2126C60.5186 21.6858 60.3071 21.0432 59.7803 20.7773C59.2535 20.512 58.6108 20.7234 58.3449 21.2502L55.1693 27.547H49.6905C49.6333 27.3899 49.5735 27.2312 49.5108 27.0708C49.7152 26.6011 49.9459 26.1089 50.2013 25.6019C52.1014 21.8342 54.6151 18.5493 57.4715 16.1015C59.6127 14.2652 61.8649 12.9743 64.0391 12.331C65.525 16.4047 65.2328 21.9715 63.2289 27.5476V27.5476ZM48.3534 2.38293C51.8987 5.06303 54.5074 9.55753 55.6088 14.8947C53.2682 16.9963 51.1615 19.6138 49.4219 22.573V9.0214C49.4219 8.43143 48.9434 7.95298 48.3534 7.95298C47.7629 7.95298 47.285 8.43143 47.285 9.0214V22.5752C45.5442 19.6138 43.4371 16.9963 41.0964 14.8952C42.1995 9.55753 44.8082 5.06303 48.3534 2.38293V2.38293ZM32.6677 12.3316C34.8288 12.971 37.0683 14.2509 39.1991 16.0702C39.2106 16.0812 39.2222 16.0916 39.2343 16.1021C42.089 18.5471 44.6027 21.832 46.5033 25.6019C46.8379 26.2649 47.1285 26.8928 47.3669 27.4701C47.3669 27.4701 47.3674 27.4701 47.3674 27.4707C47.3779 27.4965 47.3877 27.5218 47.3982 27.5476H41.5359L38.3603 21.2502C38.0944 20.7234 37.4517 20.512 36.9249 20.7778C36.3981 21.0432 36.1861 21.6858 36.452 22.2126L39.1425 27.5476H33.4763C31.4724 21.9731 31.1802 16.4064 32.6677 12.3316V12.3316Z" fill="#7380B4"></path></g><defs><clipPath id="clip0_5116_3770"><rect width="72" height="72" fill="white"></rect></clipPath></defs></svg>