<svg width="22" height="22" viewBox="0 0 22 22" fill="none" xmlns="http://www.w3.org/2000/svg">
<path d="M17.111 18.3333H3.66656V4.88885H11.7454L12.9677 3.66663H3.66656C3.3424 3.66663 3.03153 3.7954 2.80232 4.02461C2.57311 4.25382 2.44434 4.56469 2.44434 4.88885V18.3333C2.44434 18.6574 2.57311 18.9683 2.80232 19.1975C3.03153 19.4267 3.3424 19.5555 3.66656 19.5555H17.111C17.4352 19.5555 17.746 19.4267 17.9752 19.1975C18.2045 18.9683 18.3332 18.6574 18.3332 18.3333V9.16663L17.111 10.3888V18.3333Z" fill="#BDBDBD"/>
<path d="M20.49 3.56891L18.4306 1.50946C18.3392 1.41782 18.2306 1.3451 18.111 1.29549C17.9915 1.24588 17.8633 1.22034 17.7339 1.22034C17.6045 1.22034 17.4763 1.24588 17.3568 1.29549C17.2372 1.3451 17.1286 1.41782 17.0372 1.50946L8.6589 9.93669L7.98057 12.8761C7.95167 13.0186 7.95471 13.1657 7.98947 13.3069C8.02422 13.4481 8.08983 13.5798 8.18158 13.6926C8.27333 13.8054 8.38893 13.8964 8.52007 13.9592C8.65121 14.0219 8.79463 14.0549 8.94001 14.0556C9.01516 14.0639 9.09098 14.0639 9.16613 14.0556L12.13 13.4017L20.49 4.96224C20.5817 4.87084 20.6544 4.76226 20.704 4.64272C20.7536 4.52317 20.7791 4.39501 20.7791 4.26558C20.7791 4.13614 20.7536 4.00798 20.704 3.88844C20.6544 3.76889 20.5817 3.66031 20.49 3.56891ZM11.4945 12.2711L9.25779 12.7661L9.77724 10.5478L16.0839 4.19835L17.8072 5.92169L11.4945 12.2711ZM18.4978 5.23113L16.7745 3.5078L17.7217 2.54224L19.4572 4.2778L18.4978 5.23113Z" fill="#BDBDBD"/>
</svg>
