<svg width="22" height="22" viewBox="0 0 22 22" fill="none" xmlns="http://www.w3.org/2000/svg">
<path d="M11.0004 10.3889C11.8465 10.3889 12.6736 10.138 13.377 9.668C14.0805 9.19795 14.6288 8.52985 14.9526 7.74819C15.2764 6.96653 15.3611 6.10641 15.196 5.2766C15.031 4.44679 14.6235 3.68457 14.0253 3.08631C13.427 2.48805 12.6648 2.08063 11.835 1.91557C11.0052 1.75051 10.1451 1.83523 9.3634 2.159C8.58174 2.48278 7.91364 3.03107 7.44359 3.73455C6.97354 4.43802 6.72266 5.26509 6.72266 6.11115C6.72266 7.24569 7.17335 8.33376 7.97559 9.136C8.77783 9.93824 9.8659 10.3889 11.0004 10.3889ZM11.0004 3.0556C11.6048 3.0556 12.1955 3.2348 12.698 3.57055C13.2005 3.9063 13.5921 4.38351 13.8234 4.94184C14.0547 5.50017 14.1152 6.11454 13.9973 6.70726C13.8794 7.29998 13.5884 7.84443 13.161 8.27176C12.7337 8.69909 12.1893 8.9901 11.5965 9.108C11.0038 9.2259 10.3895 9.16539 9.83112 8.93412C9.27279 8.70285 8.79558 8.31121 8.45983 7.80873C8.12408 7.30625 7.94488 6.71549 7.94488 6.11115C7.94488 5.30077 8.2668 4.52358 8.83983 3.95055C9.41286 3.37752 10.19 3.0556 11.0004 3.0556Z" fill="#BDBDBD"/>
<path d="M18.6207 14.8927C17.6406 13.8569 16.4596 13.0318 15.1499 12.468C13.8401 11.9041 12.4291 11.6133 11.0032 11.6133C9.57719 11.6133 8.1662 11.9041 6.85645 12.468C5.54669 13.0318 4.3657 13.8569 3.38567 14.8927C3.17319 15.1197 3.05518 15.4191 3.05567 15.73V18.9444C3.05567 19.2686 3.18443 19.5794 3.41365 19.8086C3.64286 20.0379 3.95373 20.1666 4.27789 20.1666H17.7223C18.0465 20.1666 18.3574 20.0379 18.5866 19.8086C18.8158 19.5794 18.9446 19.2686 18.9446 18.9444V15.73C18.9467 15.4199 18.8309 15.1206 18.6207 14.8927ZM17.7223 18.9444H4.27789V15.7238C5.14397 14.8119 6.18656 14.0857 7.34222 13.5894C8.49787 13.0932 9.74242 12.8373 11.0001 12.8373C12.2578 12.8373 13.5023 13.0932 14.658 13.5894C15.8137 14.0857 16.8562 14.8119 17.7223 15.7238V18.9444Z" fill="#BDBDBD"/>
</svg>
