<svg width="24" height="24" viewBox="0 0 24 24" fill="none" xmlns="http://www.w3.org/2000/svg">
<path d="M10.7972 2.86559C11.1276 2.56875 11.5561 2.40454 12.0002 2.40454C12.4444 2.40454 12.8728 2.56875 13.2032 2.86559L19.8032 8.79599C19.9909 8.96474 20.1409 9.17107 20.2437 9.40157C20.3464 9.63208 20.3996 9.88162 20.3996 10.134V18.6C20.3996 19.0774 20.21 19.5352 19.8724 19.8728C19.5348 20.2103 19.077 20.4 18.5996 20.4H15.5996C15.1222 20.4 14.6644 20.2103 14.3268 19.8728C13.9893 19.5352 13.7996 19.0774 13.7996 18.6V14.4C13.7996 14.2409 13.7364 14.0882 13.6239 13.9757C13.5114 13.8632 13.3587 13.8 13.1996 13.8H10.7996C10.6405 13.8 10.4879 13.8632 10.3753 13.9757C10.2628 14.0882 10.1996 14.2409 10.1996 14.4V18.6C10.1996 19.0774 10.01 19.5352 9.6724 19.8728C9.33484 20.2103 8.877 20.4 8.39961 20.4H5.39961C4.92222 20.4 4.46438 20.2103 4.12682 19.8728C3.78925 19.5352 3.59961 19.0774 3.59961 18.6V10.134C3.59961 9.62399 3.81561 9.13799 4.19721 8.79599L10.7972 2.86559ZM12.4004 3.75839C12.2903 3.65955 12.1476 3.60489 11.9996 3.60489C11.8517 3.60489 11.7089 3.65955 11.5988 3.75839L4.99881 9.68879C4.93629 9.74491 4.88625 9.81354 4.85193 9.89024C4.81762 9.96693 4.79979 10.05 4.79961 10.134V18.6C4.79961 18.7591 4.86282 18.9117 4.97535 19.0243C5.08787 19.1368 5.24048 19.2 5.39961 19.2H8.39961C8.55874 19.2 8.71135 19.1368 8.82387 19.0243C8.9364 18.9117 8.99961 18.7591 8.99961 18.6V14.4C8.99961 13.9226 9.18925 13.4648 9.52682 13.1272C9.86438 12.7896 10.3222 12.6 10.7996 12.6H13.1996C13.677 12.6 14.1348 12.7896 14.4724 13.1272C14.81 13.4648 14.9996 13.9226 14.9996 14.4V18.6C14.9996 18.7591 15.0628 18.9117 15.1753 19.0243C15.2879 19.1368 15.4405 19.2 15.5996 19.2H18.5996C18.7587 19.2 18.9114 19.1368 19.0239 19.0243C19.1364 18.9117 19.1996 18.7591 19.1996 18.6V10.134C19.1994 10.05 19.1816 9.96693 19.1473 9.89024C19.113 9.81354 19.0629 9.74491 19.0004 9.68879L12.4004 3.75839Z" fill="#35C0ED"/>
</svg>
