<svg width="24" height="24" viewBox="0 0 24 24" fill="none" xmlns="http://www.w3.org/2000/svg">
<path d="M23.3196 11.4646C23.2331 11.3135 23.1171 11.1813 22.9784 11.076C22.8398 10.9706 22.6814 10.8943 22.5126 10.8515C21.5951 10.6264 20.6429 10.579 19.7076 10.7118C20.0587 8.94713 19.7912 7.55419 19.5225 6.72685C19.4229 6.41796 19.2122 6.15708 18.9311 5.9948C18.6501 5.83252 18.3187 5.78042 18.0014 5.8486C17.0838 6.05242 16.2119 6.42452 15.4299 6.94604C14.8417 5.62808 13.9335 4.47806 12.7876 3.60057C12.5607 3.42946 12.2842 3.33691 11.9999 3.33691C11.7157 3.33691 11.4392 3.42946 11.2123 3.60057C10.0664 4.47806 9.15805 5.62812 8.56991 6.94613C7.78798 6.4246 6.91616 6.0525 5.99863 5.84869C5.6813 5.78045 5.34994 5.83251 5.06882 5.99478C4.78771 6.15704 4.57688 6.41793 4.47725 6.72685C4.20866 7.55419 3.94119 8.94713 4.29228 10.7119C3.35694 10.5791 2.40483 10.6265 1.48728 10.8515C1.31875 10.8949 1.16057 10.9714 1.02199 11.0767C0.883405 11.1819 0.767209 11.3138 0.680199 11.4645C0.593189 11.6152 0.537112 11.7818 0.51525 11.9544C0.493388 12.1271 0.506181 12.3023 0.552879 12.47C0.876972 13.6286 1.87072 15.8324 4.88525 17.5729C7.89716 19.3118 10.5644 19.3124 11.9983 19.3124L11.9994 19.3125H12.0005L12.0016 19.3124C13.4354 19.3124 16.1026 19.3118 19.1146 17.5729C22.1292 15.8324 23.1229 13.6286 23.447 12.47C23.4943 12.3024 23.5075 12.127 23.4856 11.9543C23.4637 11.7815 23.4072 11.615 23.3196 11.4645V11.4646ZM18.2355 6.94894C18.2808 6.93938 18.328 6.94691 18.3681 6.97006C18.4082 6.99322 18.4382 7.03037 18.4526 7.07438C18.7172 7.88916 18.9769 9.34735 18.4235 11.2212C18.413 11.2488 18.4048 11.2772 18.3988 11.3061C18.1736 12.0273 17.8674 12.7208 17.4859 13.373C16.8425 14.4697 16.0251 15.4547 15.0658 16.2893C15.7614 15.0608 16.3124 13.4072 16.3124 11.2499C16.32 10.1578 16.1612 9.07092 15.8413 8.02669C16.5584 7.50958 17.3728 7.14297 18.2354 6.94894H18.2355ZM11.8851 4.50216C11.9182 4.47719 11.9585 4.46368 11.9999 4.46368C12.0414 4.46368 12.0817 4.47719 12.1148 4.50216C13.0386 5.19179 15.1874 7.22972 15.1874 11.2499C15.1874 15.496 12.824 17.5105 12.002 18.0827C11.1906 17.5096 8.81244 15.4698 8.81244 11.2499C8.81244 7.22972 10.9612 5.19179 11.8851 4.50216ZM5.54722 7.07438C5.56142 7.03024 5.59153 6.99295 5.6317 6.96979C5.67187 6.94662 5.71922 6.93922 5.76453 6.94904C6.62709 7.14302 7.44147 7.50957 8.15863 8.0266C7.8387 9.07085 7.67981 10.1578 7.68744 11.2499C7.68744 13.4071 8.2386 15.0608 8.93413 16.2893C7.97477 15.4547 7.1574 14.4697 6.51397 13.373C6.13202 12.72 5.82553 12.0257 5.60038 11.3034C5.59453 11.2759 5.5866 11.2488 5.57666 11.2224C5.02288 9.34791 5.28257 7.88935 5.54722 7.07438ZM1.63635 12.1669C1.63002 12.1435 1.62837 12.1191 1.6315 12.0951C1.63463 12.0711 1.64248 12.0479 1.65459 12.027C1.6667 12.006 1.68283 11.9876 1.70207 11.9729C1.7213 11.9582 1.74325 11.9474 1.76666 11.9412C2.38128 11.7837 3.35788 11.6587 4.61188 11.9042C4.85325 12.6103 5.16406 13.2907 5.53972 13.9355C6.47817 15.5448 7.75486 16.9311 9.28157 17.9987C7.93034 17.7645 6.63193 17.2903 5.44775 16.5986C2.77897 15.0578 1.91432 13.1605 1.63635 12.1668V12.1669ZM22.3635 12.1669C22.0857 13.1606 21.2209 15.0578 18.5521 16.5986C17.368 17.2903 16.0695 17.7645 14.7183 17.9987C16.245 16.9311 17.5217 15.5448 18.4602 13.9356C18.8358 13.2908 19.1466 12.6104 19.388 11.9043C20.6419 11.6587 21.6185 11.7836 22.2333 11.9413C22.2567 11.9475 22.2787 11.9583 22.2979 11.973C22.3171 11.9877 22.3333 12.006 22.3454 12.027C22.3575 12.048 22.3653 12.0711 22.3684 12.0951C22.3715 12.1191 22.3699 12.1435 22.3635 12.1669Z" fill="#BDBDBD"/>
</svg>
