<svg width="30" height="30" viewBox="0 0 30 30" fill="none" xmlns="http://www.w3.org/2000/svg">
<path d="M15.8333 10C15.8333 10.4602 15.4602 10.8333 15 10.8333C14.5398 10.8333 14.1667 10.4602 14.1667 10C14.1667 9.53983 14.5398 9.16675 15 9.16675C15.4602 9.16675 15.8333 9.53983 15.8333 10Z" fill="#505050"/>
<path d="M15 20.8333C14.655 20.8333 14.375 20.5533 14.375 20.2083V13.75H13.5417C13.1967 13.75 12.9167 13.47 12.9167 13.125C12.9167 12.78 13.1967 12.5 13.5417 12.5H15C15.345 12.5 15.625 12.78 15.625 13.125V20.2083C15.625 20.5533 15.345 20.8333 15 20.8333Z" fill="#505050"/>
<path d="M15 25C9.48578 25 5 20.5142 5 15C5 9.48578 9.48578 5 15 5C20.5142 5 25 9.48578 25 15C25 20.5142 20.5142 25 15 25ZM15 6.25C10.175 6.25 6.25 10.175 6.25 15C6.25 19.825 10.175 23.75 15 23.75C19.825 23.75 23.75 19.825 23.75 15C23.75 10.175 19.825 6.25 15 6.25Z" fill="#505050"/>
<path d="M16.875 20.8333H13.125C12.78 20.8333 12.5 20.5533 12.5 20.2083C12.5 19.8633 12.78 19.5833 13.125 19.5833H16.875C17.22 19.5833 17.5 19.8633 17.5 20.2083C17.5 20.5533 17.22 20.8333 16.875 20.8333Z" fill="#505050"/>
</svg>
