<svg width="30" height="30" viewBox="0 0 30 30" fill="none" xmlns="http://www.w3.org/2000/svg">
<path d="M24.461 13.6991C24.4604 13.6986 24.4599 13.698 24.4594 13.6975L16.301 5.5394C15.9533 5.1915 15.4909 5 14.9991 5C14.5073 5 14.045 5.1915 13.6971 5.5394L5.54293 13.6934C5.54018 13.6962 5.53728 13.6991 5.53469 13.7018C4.82058 14.42 4.8218 15.5853 5.5382 16.3018C5.8655 16.6292 6.29763 16.8187 6.75982 16.8387C6.77874 16.8405 6.79766 16.8415 6.81674 16.8415H7.14175V22.8452C7.14175 24.0334 8.10855 25 9.29675 25H12.4886C12.8122 25 13.0745 24.7376 13.0745 24.4141V19.7071C13.0745 19.1649 13.5157 18.7239 14.0578 18.7239H15.9404C16.4826 18.7239 16.9236 19.1649 16.9236 19.7071V24.4141C16.9236 24.7376 17.1859 25 17.5095 25H20.7013C21.8897 25 22.8563 24.0334 22.8563 22.8452V16.8415H23.1579C23.6495 16.8415 24.1118 16.65 24.4599 16.3019C25.1771 15.5844 25.1774 14.417 24.461 13.6991ZM23.6312 15.4733C23.5047 15.5998 23.3365 15.6696 23.1579 15.6696H22.2704C21.9468 15.6696 21.6845 15.9319 21.6845 16.2555V22.8452C21.6845 23.3872 21.2435 23.8282 20.7013 23.8282H18.0954V19.7071C18.0954 18.5189 17.1288 17.5521 15.9404 17.5521H14.0578C12.8695 17.5521 11.9027 18.5189 11.9027 19.7071V23.8282H9.29675C8.75476 23.8282 8.31363 23.3872 8.31363 22.8452V16.2555C8.31363 15.9319 8.05133 15.6696 7.72769 15.6696H6.85549C6.84634 15.669 6.83733 15.6685 6.82803 15.6684C6.65347 15.6653 6.48974 15.596 6.36706 15.4732C6.10613 15.2123 6.10613 14.7876 6.36706 14.5265C6.36691 14.5267 6.36721 14.5265 6.36706 14.5265L6.36782 14.5258L14.5259 6.36795C14.6523 6.24146 14.8203 6.17188 14.9991 6.17188C15.1778 6.17188 15.3458 6.24146 15.4723 6.36795L23.6286 14.5241C23.6298 14.5253 23.6312 14.5265 23.6324 14.5278C23.892 14.7891 23.8915 15.2129 23.6312 15.4733Z" fill="#505050"/>
</svg>
