<svg width="30" height="30" viewBox="0 0 30 30" fill="none" xmlns="http://www.w3.org/2000/svg">
<path d="M21.1171 6.74535H17.0869C16.8209 5.72918 15.9011 5 14.8197 5C13.7383 5 12.8185 5.72918 12.5525 6.74535H8.50788C7.67642 6.74535 7 7.42211 7 8.25391V23.4914C7 24.3232 7.67642 25 8.50788 25H21.1171C21.9486 25 22.625 24.3232 22.625 23.4914V8.25391C22.625 7.42207 21.9486 6.74535 21.1171 6.74535V6.74535ZM12.4202 10.5578H17.2048C17.9052 10.5578 18.4751 9.9877 18.4751 9.28695V9.24531H20.1262V22.5H9.49889V9.24535H11.15V9.28699C11.15 9.98773 11.7198 10.5578 12.4202 10.5578V10.5578ZM13.5074 7.5266H16.1176V8.21359H13.5074V7.5266ZM14.8197 5.78125C15.468 5.78125 16.0292 6.17398 16.2649 6.74535H13.3745C13.6101 6.17398 14.1713 5.78125 14.8197 5.78125V5.78125ZM12.7265 7.5266V8.60422C12.7265 8.81996 12.9013 8.99484 13.117 8.99484H16.5081C16.7237 8.99484 16.8985 8.81996 16.8985 8.60422V7.5266H17.6942V9.28699C17.6942 9.55695 17.4746 9.7766 17.2048 9.7766H12.4202C12.1504 9.7766 11.9308 9.55695 11.9308 9.28699V7.5266H12.7265ZM21.8441 23.4914C21.8441 23.8925 21.518 24.2188 21.1171 24.2188H8.50788C8.10701 24.2188 7.7809 23.8925 7.7809 23.4914V8.25391C7.7809 7.85285 8.10705 7.5266 8.50788 7.5266H11.15V8.4641H9.10844C8.89279 8.4641 8.71799 8.63898 8.71799 8.85473V22.8906C8.71799 23.1064 8.89279 23.2812 9.10844 23.2812H20.5166C20.7322 23.2812 20.907 23.1064 20.907 22.8906V8.85473C20.907 8.63898 20.7322 8.4641 20.5166 8.4641H18.475V7.5266H21.1171C21.518 7.5266 21.8441 7.85289 21.8441 8.25391V23.4914Z" fill="#505050"/>
<path d="M18.1704 20.3308H16.5776C16.3619 20.3308 16.1871 20.5057 16.1871 20.7214C16.1871 20.9372 16.3619 21.1121 16.5776 21.1121H18.1704C18.386 21.1121 18.5608 20.9372 18.5608 20.7214C18.5608 20.5057 18.386 20.3308 18.1704 20.3308Z" fill="#505050"/>
<path d="M13.0474 20.3308H11.4546C11.2389 20.3308 11.0641 20.5057 11.0641 20.7214C11.0641 20.9372 11.2389 21.1121 11.4546 21.1121H13.0474C13.263 21.1121 13.4378 20.9372 13.4378 20.7214C13.4378 20.5057 13.263 20.3308 13.0474 20.3308V20.3308Z" fill="#505050"/>
<path d="M15.1807 20.5719C15.1178 20.421 14.9626 20.3224 14.799 20.3312C14.6365 20.34 14.4936 20.4526 14.4463 20.6081C14.3998 20.7612 14.4541 20.9342 14.582 21.0313C14.7143 21.1316 14.8982 21.1377 15.0366 21.0461C15.1905 20.9441 15.2504 20.7421 15.1807 20.5719V20.5719Z" fill="#505050"/>
<path d="M13.0905 14.6501H13.6355V15.1953C13.6355 15.4111 13.8103 15.5859 14.0259 15.5859H15.5988C15.8145 15.5859 15.9893 15.4111 15.9893 15.1953V14.6501H16.5343C16.7499 14.6501 16.9247 14.4752 16.9247 14.2595V12.6859C16.9247 12.4701 16.7499 12.2952 16.5343 12.2952H15.9893V11.75C15.9893 11.5343 15.8145 11.3594 15.5988 11.3594H14.0259C13.8103 11.3594 13.6355 11.5343 13.6355 11.75V12.2952H13.0905C12.8748 12.2952 12.7 12.4701 12.7 12.6859V14.2595C12.7 14.4752 12.8748 14.6501 13.0905 14.6501ZM13.4809 13.0765H14.0259C14.2416 13.0765 14.4164 12.9016 14.4164 12.6859V12.1407H15.2084V12.6859C15.2084 12.9016 15.3832 13.0765 15.5988 13.0765H16.1438V13.8689H15.5988C15.3832 13.8689 15.2084 14.0437 15.2084 14.2595V14.8047H14.4164V14.2595C14.4164 14.0437 14.2416 13.8688 14.0259 13.8688H13.4809V13.0765Z" fill="#505050"/>
<path d="M10.8542 17.0811V19.0857C10.8542 19.3014 11.029 19.4763 11.2446 19.4763H18.3805C18.5962 19.4763 18.771 19.3014 18.771 19.0857V17.0811C18.771 16.8653 18.5962 16.6904 18.3805 16.6904H11.2446C11.029 16.6904 10.8542 16.8653 10.8542 17.0811ZM11.6351 17.4717H17.9901V18.6951H11.6351V17.4717Z" fill="#505050"/>
</svg>
