<svg width="30" height="30" viewBox="0 0 30 30" fill="none" xmlns="http://www.w3.org/2000/svg">
<path d="M19.7503 5.88457C18.5482 4.75735 16.4883 4.50009 14.6249 6.35454C12.7641 4.50191 10.7015 4.75735 9.49944 5.88366C8.0991 7.19541 8.07444 9.38984 9.42453 10.7334L14.6249 15.9095L19.8252 10.7343C21.1753 9.39075 21.1506 7.19632 19.7503 5.88457ZM19.1794 10.0907L14.6249 14.6241L10.0703 10.0916C9.08198 9.10713 9.10117 7.5063 10.1261 6.54635C10.5627 6.13546 11.1473 5.91002 11.7721 5.91002C13.0802 5.91002 13.6685 6.68816 14.6249 7.63993C15.5557 6.71362 16.1549 5.91002 17.4776 5.91002C18.1024 5.91002 18.687 6.13546 19.1245 6.54544C20.1467 7.50358 20.1705 9.1044 19.1794 10.0907Z" fill="#505050"/>
<path d="M23.689 5.91003C22.8842 5.91003 22.2165 6.51 22.1361 7.30633L21.5579 12.9888C21.2793 13.0479 21.0235 13.1824 20.8253 13.3797L16.2114 17.654C15.5765 18.2294 15.2084 19.0503 15.202 19.9084V25H20.6828V22.6038C20.6828 22.2338 20.839 21.8738 21.1222 21.6065L24.5887 18.1249C25.0153 17.6958 25.2501 17.1277 25.2501 16.525V7.46359C25.2501 6.60727 24.5494 5.91003 23.689 5.91003ZM24.3366 16.525C24.3366 16.8868 24.1959 17.2277 23.9393 17.4858L20.4836 20.9566C20.0297 21.3838 19.7693 21.9838 19.7693 22.6038V24.091H16.1155V19.9139C16.1201 19.3112 16.3786 18.7339 16.8307 18.3249L21.4592 14.0351C21.5834 13.9115 21.7534 13.8506 21.9333 13.8687C22.0329 13.8778 22.1763 13.9133 22.2987 14.0351C22.411 14.1469 22.4732 14.296 22.4732 14.4532C22.4732 14.6105 22.4101 14.7596 22.3142 14.856L18.7508 18.0722L19.3647 18.7449L22.9445 15.5132C23.2295 15.2296 23.3866 14.8532 23.3866 14.4523C23.3866 14.0514 23.2304 13.6751 22.9454 13.3924C22.8066 13.2524 22.6449 13.1451 22.4677 13.0715L23.0441 7.39905C23.0779 7.06816 23.3556 6.81908 23.689 6.81908C24.0461 6.81908 24.3366 7.10816 24.3366 7.46359V16.525Z" fill="#505050"/>
<path d="M13.0387 17.654L8.42479 13.3797C8.22657 13.1824 7.9708 13.047 7.6922 12.9888L7.11398 7.30633C7.0336 6.51 6.36586 5.91003 5.5611 5.91003C4.70062 5.91003 4 6.60727 4 7.46359V16.525C4 17.1277 4.23476 17.6958 4.66134 18.124L8.12792 21.6056C8.41109 21.8729 8.56729 22.2338 8.56729 22.6038V25H14.048V19.9084C14.0426 19.0503 13.6735 18.2303 13.0387 17.654ZM13.1346 24.091H9.48075V22.6038C9.48075 21.9847 9.22042 21.3838 8.76643 20.9566L5.31081 17.4858C5.05413 17.2277 4.91346 16.8868 4.91346 16.525V7.46359C4.91346 7.10816 5.20394 6.81908 5.5611 6.81908C5.89451 6.81908 6.1722 7.06816 6.206 7.39723L6.78239 13.0697C6.60518 13.1442 6.4435 13.2515 6.30466 13.3906C6.02057 13.6733 5.86346 14.0496 5.86346 14.4505C5.86346 14.8514 6.02057 15.2278 6.30557 15.5114L9.88541 18.743L10.4993 18.0703L6.93586 14.8541C6.83903 14.7578 6.77691 14.6096 6.77691 14.4514C6.77691 14.2933 6.83903 14.1451 6.95138 14.0333C7.07287 13.9115 7.2172 13.876 7.31677 13.8669C7.49763 13.8496 7.66662 13.9096 7.79085 14.0333L12.4193 18.3231C12.8715 18.7321 13.13 19.3094 13.1346 19.9121V24.091V24.091Z" fill="#505050"/>
</svg>
