<svg width="30" height="30" viewBox="0 0 30 30" fill="none" xmlns="http://www.w3.org/2000/svg">
<mask id="path-1-outside-1" maskUnits="userSpaceOnUse" x="6" y="3" width="18" height="25" fill="black">
<rect fill="white" x="6" y="3" width="18" height="25"/>
<path d="M21.4981 21.9521C21.6923 22.163 22.5667 22.017 22.2169 21.6113C21.8672 21.2057 19.7537 20.6193 19.7537 20.6193L18.7428 20.2749V18.8578C20.1949 17.989 21.1009 16.5723 21.1009 15.0314V14.5779C22.1577 14.5309 23 13.7982 23 12.9042C23 12.4768 22.8071 12.0865 22.4908 11.7901L22.5789 8.38145C22.5998 7.64723 22.4056 6.91004 22.0172 6.24961C21.9109 6.06887 21.6493 5.9942 21.4327 6.08299C21.2162 6.17178 21.1269 6.39029 21.2332 6.57114C21.5598 7.12666 21.7233 7.74668 21.7056 8.36436L21.6293 11.315C21.4618 11.268 21.2847 11.2388 21.1009 11.2306V10.7881C21.1009 10.4935 20.9742 10.2083 20.7443 9.98482C20.2865 9.54 19.6211 9.28492 18.9188 9.28492H15.7444C15.0895 9.28492 14.4629 9.0813 13.9803 8.71163L12.4518 7.54101C12.237 7.37638 11.9099 7.37365 11.6913 7.53468L11.3278 7.80236C10.4123 8.47627 9.88729 9.44726 9.88729 10.4665V11.2307C9.75526 11.2365 9.62667 11.2531 9.50263 11.2794L9.36035 8.24524C9.3076 7.15177 10.2902 6.23462 11.5973 6.15732L12.3192 6.11463C12.522 6.1026 12.7192 6.04706 12.8892 5.95409L14.5536 5.0437C16.3267 4.07378 19.7032 5.40032 21.262 6.59698C21.4395 6.73324 21.7158 6.72355 21.8791 6.57522C22.0424 6.42695 22.0308 6.19621 21.8532 6.05991C19.9995 4.63699 16.1832 3.28031 14.075 4.43351L12.4106 5.3437C12.3649 5.36868 12.3119 5.38357 12.2574 5.38683L11.5356 5.42952C10.6797 5.48015 9.89329 5.80211 9.32118 6.33612C8.74907 6.87012 8.45302 7.55858 8.48758 8.27411L8.64666 11.6638C8.24236 11.9707 7.98822 12.4131 7.98822 12.9042C7.98822 13.7983 8.83073 14.5309 9.8874 14.5778V14.7651C9.8874 16.3618 10.7873 17.8383 12.2439 18.7887V19.6033C11.4175 19.7341 10.7437 20.2283 10.4706 20.879L8.89782 21.4149C8.27547 21.6269 7.69223 21.9127 7.16442 22.2643C6.97591 22.3898 6.9449 22.6193 7.09528 22.7768C7.18149 22.867 7.30862 22.9141 7.43698 22.9141C7.53245 22.9141 7.62857 22.888 7.70901 22.8345C8.1716 22.5263 8.68262 22.2759 9.22768 22.0902L10.339 21.7116V24.0022C9.54484 24.166 8.95425 24.7658 8.95425 25.4789C8.95425 26.3176 9.77135 27 10.7757 27C11.7801 27 12.5972 26.3176 12.5972 25.4789C12.5972 24.7658 12.0065 24.166 11.2125 24.0022V21.5241C11.2125 21.4862 11.2149 21.4488 11.2189 21.4118L12.4154 21.0041L14.9343 24.6681C15.0481 24.8334 15.2607 24.9362 15.489 24.9363H15.4893C15.7174 24.9363 15.93 24.8338 16.0439 24.6686L18.5711 21.0041L19.5602 21.3411C19.5601 21.3411 21.3038 21.7411 21.4981 21.9521ZM22.1267 12.9042C22.1267 13.3959 21.6757 13.8008 21.101 13.8464V11.9621C21.6755 12.0076 22.1267 12.4127 22.1267 12.9042ZM11.7237 25.479C11.7237 25.9156 11.2984 26.2707 10.7756 26.2707C10.2529 26.2707 9.8276 25.9156 9.8276 25.479C9.8276 25.0425 10.2529 24.6873 10.7756 24.6873C11.2984 24.6873 11.7237 25.0424 11.7237 25.479ZM8.86157 12.9042C8.86157 12.4126 9.31267 12.0076 9.88734 11.9621V13.8464C9.31267 13.8008 8.86157 13.3958 8.86157 12.9042ZM10.7608 14.7652V10.4664C10.7608 9.65658 11.178 8.88503 11.9053 8.34956L12.0633 8.23317L13.39 9.24924C14.0341 9.74265 14.8703 10.0144 15.7444 10.0144H18.9189C19.3664 10.0144 19.7904 10.1769 20.082 10.4603C20.1758 10.5515 20.2275 10.6679 20.2275 10.7881V15.0315C20.2275 16.7109 18.9542 18.2165 17.059 18.7779C16.1383 19.0507 15.1533 19.0844 14.2092 18.8753C12.1459 18.2493 10.7608 16.5994 10.7608 14.7652ZM15.4895 24.0108L13.1051 20.5427C13.1123 20.5127 13.1172 20.4823 13.1172 20.4508V19.264C13.3768 19.3801 13.6481 19.482 13.9307 19.5668C13.942 19.5701 13.9534 19.5732 13.9649 19.5758C14.4533 19.6855 14.9509 19.7402 15.4477 19.7402C16.0914 19.7402 16.7335 19.6483 17.3511 19.4654C17.5289 19.4127 17.7014 19.3522 17.8695 19.286V20.4508C17.8695 20.4821 17.8744 20.5125 17.8815 20.5423L15.4895 24.0108Z"/>
</mask>
<path d="M21.4981 21.9521C21.6923 22.163 22.5667 22.017 22.2169 21.6113C21.8672 21.2057 19.7537 20.6193 19.7537 20.6193L18.7428 20.2749V18.8578C20.1949 17.989 21.1009 16.5723 21.1009 15.0314V14.5779C22.1577 14.5309 23 13.7982 23 12.9042C23 12.4768 22.8071 12.0865 22.4908 11.7901L22.5789 8.38145C22.5998 7.64723 22.4056 6.91004 22.0172 6.24961C21.9109 6.06887 21.6493 5.9942 21.4327 6.08299C21.2162 6.17178 21.1269 6.39029 21.2332 6.57114C21.5598 7.12666 21.7233 7.74668 21.7056 8.36436L21.6293 11.315C21.4618 11.268 21.2847 11.2388 21.1009 11.2306V10.7881C21.1009 10.4935 20.9742 10.2083 20.7443 9.98482C20.2865 9.54 19.6211 9.28492 18.9188 9.28492H15.7444C15.0895 9.28492 14.4629 9.0813 13.9803 8.71163L12.4518 7.54101C12.237 7.37638 11.9099 7.37365 11.6913 7.53468L11.3278 7.80236C10.4123 8.47627 9.88729 9.44726 9.88729 10.4665V11.2307C9.75526 11.2365 9.62667 11.2531 9.50263 11.2794L9.36035 8.24524C9.3076 7.15177 10.2902 6.23462 11.5973 6.15732L12.3192 6.11463C12.522 6.1026 12.7192 6.04706 12.8892 5.95409L14.5536 5.0437C16.3267 4.07378 19.7032 5.40032 21.262 6.59698C21.4395 6.73324 21.7158 6.72355 21.8791 6.57522C22.0424 6.42695 22.0308 6.19621 21.8532 6.05991C19.9995 4.63699 16.1832 3.28031 14.075 4.43351L12.4106 5.3437C12.3649 5.36868 12.3119 5.38357 12.2574 5.38683L11.5356 5.42952C10.6797 5.48015 9.89329 5.80211 9.32118 6.33612C8.74907 6.87012 8.45302 7.55858 8.48758 8.27411L8.64666 11.6638C8.24236 11.9707 7.98822 12.4131 7.98822 12.9042C7.98822 13.7983 8.83073 14.5309 9.8874 14.5778V14.7651C9.8874 16.3618 10.7873 17.8383 12.2439 18.7887V19.6033C11.4175 19.7341 10.7437 20.2283 10.4706 20.879L8.89782 21.4149C8.27547 21.6269 7.69223 21.9127 7.16442 22.2643C6.97591 22.3898 6.9449 22.6193 7.09528 22.7768C7.18149 22.867 7.30862 22.9141 7.43698 22.9141C7.53245 22.9141 7.62857 22.888 7.70901 22.8345C8.1716 22.5263 8.68262 22.2759 9.22768 22.0902L10.339 21.7116V24.0022C9.54484 24.166 8.95425 24.7658 8.95425 25.4789C8.95425 26.3176 9.77135 27 10.7757 27C11.7801 27 12.5972 26.3176 12.5972 25.4789C12.5972 24.7658 12.0065 24.166 11.2125 24.0022V21.5241C11.2125 21.4862 11.2149 21.4488 11.2189 21.4118L12.4154 21.0041L14.9343 24.6681C15.0481 24.8334 15.2607 24.9362 15.489 24.9363H15.4893C15.7174 24.9363 15.93 24.8338 16.0439 24.6686L18.5711 21.0041L19.5602 21.3411C19.5601 21.3411 21.3038 21.7411 21.4981 21.9521ZM22.1267 12.9042C22.1267 13.3959 21.6757 13.8008 21.101 13.8464V11.9621C21.6755 12.0076 22.1267 12.4127 22.1267 12.9042ZM11.7237 25.479C11.7237 25.9156 11.2984 26.2707 10.7756 26.2707C10.2529 26.2707 9.8276 25.9156 9.8276 25.479C9.8276 25.0425 10.2529 24.6873 10.7756 24.6873C11.2984 24.6873 11.7237 25.0424 11.7237 25.479ZM8.86157 12.9042C8.86157 12.4126 9.31267 12.0076 9.88734 11.9621V13.8464C9.31267 13.8008 8.86157 13.3958 8.86157 12.9042ZM10.7608 14.7652V10.4664C10.7608 9.65658 11.178 8.88503 11.9053 8.34956L12.0633 8.23317L13.39 9.24924C14.0341 9.74265 14.8703 10.0144 15.7444 10.0144H18.9189C19.3664 10.0144 19.7904 10.1769 20.082 10.4603C20.1758 10.5515 20.2275 10.6679 20.2275 10.7881V15.0315C20.2275 16.7109 18.9542 18.2165 17.059 18.7779C16.1383 19.0507 15.1533 19.0844 14.2092 18.8753C12.1459 18.2493 10.7608 16.5994 10.7608 14.7652ZM15.4895 24.0108L13.1051 20.5427C13.1123 20.5127 13.1172 20.4823 13.1172 20.4508V19.264C13.3768 19.3801 13.6481 19.482 13.9307 19.5668C13.942 19.5701 13.9534 19.5732 13.9649 19.5758C14.4533 19.6855 14.9509 19.7402 15.4477 19.7402C16.0914 19.7402 16.7335 19.6483 17.3511 19.4654C17.5289 19.4127 17.7014 19.3522 17.8695 19.286V20.4508C17.8695 20.4821 17.8744 20.5125 17.8815 20.5423L15.4895 24.0108Z" fill="#505050"/>
<path d="M21.4981 21.9521C21.6923 22.163 22.5667 22.017 22.2169 21.6113C21.8672 21.2057 19.7537 20.6193 19.7537 20.6193L18.7428 20.2749V18.8578C20.1949 17.989 21.1009 16.5723 21.1009 15.0314V14.5779C22.1577 14.5309 23 13.7982 23 12.9042C23 12.4768 22.8071 12.0865 22.4908 11.7901L22.5789 8.38145C22.5998 7.64723 22.4056 6.91004 22.0172 6.24961C21.9109 6.06887 21.6493 5.9942 21.4327 6.08299C21.2162 6.17178 21.1269 6.39029 21.2332 6.57114C21.5598 7.12666 21.7233 7.74668 21.7056 8.36436L21.6293 11.315C21.4618 11.268 21.2847 11.2388 21.1009 11.2306V10.7881C21.1009 10.4935 20.9742 10.2083 20.7443 9.98482C20.2865 9.54 19.6211 9.28492 18.9188 9.28492H15.7444C15.0895 9.28492 14.4629 9.0813 13.9803 8.71163L12.4518 7.54101C12.237 7.37638 11.9099 7.37365 11.6913 7.53468L11.3278 7.80236C10.4123 8.47627 9.88729 9.44726 9.88729 10.4665V11.2307C9.75526 11.2365 9.62667 11.2531 9.50263 11.2794L9.36035 8.24524C9.3076 7.15177 10.2902 6.23462 11.5973 6.15732L12.3192 6.11463C12.522 6.1026 12.7192 6.04706 12.8892 5.95409L14.5536 5.0437C16.3267 4.07378 19.7032 5.40032 21.262 6.59698C21.4395 6.73324 21.7158 6.72355 21.8791 6.57522C22.0424 6.42695 22.0308 6.19621 21.8532 6.05991C19.9995 4.63699 16.1832 3.28031 14.075 4.43351L12.4106 5.3437C12.3649 5.36868 12.3119 5.38357 12.2574 5.38683L11.5356 5.42952C10.6797 5.48015 9.89329 5.80211 9.32118 6.33612C8.74907 6.87012 8.45302 7.55858 8.48758 8.27411L8.64666 11.6638C8.24236 11.9707 7.98822 12.4131 7.98822 12.9042C7.98822 13.7983 8.83073 14.5309 9.8874 14.5778V14.7651C9.8874 16.3618 10.7873 17.8383 12.2439 18.7887V19.6033C11.4175 19.7341 10.7437 20.2283 10.4706 20.879L8.89782 21.4149C8.27547 21.6269 7.69223 21.9127 7.16442 22.2643C6.97591 22.3898 6.9449 22.6193 7.09528 22.7768C7.18149 22.867 7.30862 22.9141 7.43698 22.9141C7.53245 22.9141 7.62857 22.888 7.70901 22.8345C8.1716 22.5263 8.68262 22.2759 9.22768 22.0902L10.339 21.7116V24.0022C9.54484 24.166 8.95425 24.7658 8.95425 25.4789C8.95425 26.3176 9.77135 27 10.7757 27C11.7801 27 12.5972 26.3176 12.5972 25.4789C12.5972 24.7658 12.0065 24.166 11.2125 24.0022V21.5241C11.2125 21.4862 11.2149 21.4488 11.2189 21.4118L12.4154 21.0041L14.9343 24.6681C15.0481 24.8334 15.2607 24.9362 15.489 24.9363H15.4893C15.7174 24.9363 15.93 24.8338 16.0439 24.6686L18.5711 21.0041L19.5602 21.3411C19.5601 21.3411 21.3038 21.7411 21.4981 21.9521ZM22.1267 12.9042C22.1267 13.3959 21.6757 13.8008 21.101 13.8464V11.9621C21.6755 12.0076 22.1267 12.4127 22.1267 12.9042ZM11.7237 25.479C11.7237 25.9156 11.2984 26.2707 10.7756 26.2707C10.2529 26.2707 9.8276 25.9156 9.8276 25.479C9.8276 25.0425 10.2529 24.6873 10.7756 24.6873C11.2984 24.6873 11.7237 25.0424 11.7237 25.479ZM8.86157 12.9042C8.86157 12.4126 9.31267 12.0076 9.88734 11.9621V13.8464C9.31267 13.8008 8.86157 13.3958 8.86157 12.9042ZM10.7608 14.7652V10.4664C10.7608 9.65658 11.178 8.88503 11.9053 8.34956L12.0633 8.23317L13.39 9.24924C14.0341 9.74265 14.8703 10.0144 15.7444 10.0144H18.9189C19.3664 10.0144 19.7904 10.1769 20.082 10.4603C20.1758 10.5515 20.2275 10.6679 20.2275 10.7881V15.0315C20.2275 16.7109 18.9542 18.2165 17.059 18.7779C16.1383 19.0507 15.1533 19.0844 14.2092 18.8753C12.1459 18.2493 10.7608 16.5994 10.7608 14.7652ZM15.4895 24.0108L13.1051 20.5427C13.1123 20.5127 13.1172 20.4823 13.1172 20.4508V19.264C13.3768 19.3801 13.6481 19.482 13.9307 19.5668C13.942 19.5701 13.9534 19.5732 13.9649 19.5758C14.4533 19.6855 14.9509 19.7402 15.4477 19.7402C16.0914 19.7402 16.7335 19.6483 17.3511 19.4654C17.5289 19.4127 17.7014 19.3522 17.8695 19.286V20.4508C17.8695 20.4821 17.8744 20.5125 17.8815 20.5423L15.4895 24.0108Z" stroke="#505050" stroke-width="0.2" mask="url(#path-1-outside-1)"/>
</svg>
