<svg width="30" height="30" viewBox="0 0 30 30" fill="none" xmlns="http://www.w3.org/2000/svg">
<path d="M27.0341 11.6667C26.0655 11.6667 25.1797 11.7352 24.351 11.8589C24.123 9.99973 23.5562 8.16218 22.6266 6.39109C22.5057 6.16052 22.248 6.05416 22.0203 6.13989C20.6306 6.64302 19.3553 7.35176 18.2069 8.22869C17.4938 7.11333 16.6326 6.06328 15.6003 5.12859C15.4106 4.95714 15.1349 4.95714 14.9451 5.12859C13.9128 6.06333 13.0517 7.11333 12.3385 8.22869C11.1901 7.35166 9.91482 6.64302 8.52508 6.13989C8.29535 6.05474 8.03968 6.16104 7.91882 6.39109C6.98912 8.16254 6.42232 9.99983 6.19436 11.8589C5.36566 11.7351 4.47992 11.6667 3.51138 11.6667C3.22872 11.6667 3 11.9152 3 12.2223C3 16.1166 4.06667 19.1683 6.26095 21.5522C8.3673 23.8401 11.3995 25 15.2727 25C19.1459 25 22.1781 23.8401 24.2845 21.5522C26.4788 19.1683 27.5455 16.1166 27.5455 12.2223C27.5455 11.9152 27.3167 11.6667 27.0341 11.6667ZM21.9434 7.34598C22.6956 8.87832 23.1562 10.4562 23.3462 12.0474C22.1688 12.316 21.1261 12.7275 20.1965 13.302C19.9548 11.8693 19.467 10.475 18.76 9.16072C19.7246 8.41874 20.7884 7.80473 21.9434 7.34598ZM8.60202 7.34598C9.75709 7.80478 10.8209 8.41879 11.7855 9.16067C11.0785 10.4749 10.5907 11.8693 10.349 13.302C9.41926 12.7275 8.37675 12.3159 7.19919 12.0473C7.38908 10.4565 7.84979 8.87853 8.60202 7.34598ZM6.98403 20.7666C5.06939 18.686 4.12358 16.1388 4.03072 12.7844C6.62429 12.8477 8.59766 13.404 10.1932 14.5022C10.1566 15.0068 10.1491 15.514 10.1741 16.0216C10.3235 19.0554 11.5676 21.7604 13.6954 23.8078C10.8585 23.5373 8.6014 22.5233 6.98403 20.7666ZM15.2727 23.7701C12.7938 21.8544 11.3496 19.0951 11.1948 15.9619C11.023 12.4523 12.5042 8.95025 15.2727 6.28802C18.0413 8.95025 19.5224 12.4523 19.3507 15.9619C19.1958 19.0951 17.7516 21.8544 15.2727 23.7701ZM23.5614 20.7666C21.9441 22.5233 19.687 23.5373 16.85 23.8077C18.9778 21.7604 20.2219 19.0554 20.3714 16.0216C20.3964 15.5139 20.3888 15.0068 20.3523 14.5021C21.9478 13.4039 23.9212 12.8477 26.5147 12.7843C26.4219 16.1388 25.476 18.686 23.5614 20.7666Z" fill="#505050"/>
</svg>
