<svg width="30" height="30" viewBox="0 0 30 30" fill="none" xmlns="http://www.w3.org/2000/svg">
<path d="M23.0041 22.2883L21.8589 9.39264C21.8344 9.10634 21.593 8.88957 21.3108 8.88957H18.955C18.9223 6.73824 17.1636 5 15.0041 5C12.8446 5 11.0859 6.73824 11.0532 8.88957H8.69734C8.41104 8.88957 8.17382 9.10634 8.14928 9.39264L7.00409 22.2883C7.00409 22.3047 7 22.3211 7 22.3374C7 23.8057 8.3456 25 10.002 25H20.0061C21.6626 25 23.0082 23.8057 23.0082 22.3374C23.0082 22.3211 23.0082 22.3047 23.0041 22.2883ZM15.0041 6.10429C16.5542 6.10429 17.818 7.34765 17.8507 8.88957H12.1575C12.1902 7.34765 13.454 6.10429 15.0041 6.10429ZM20.0061 23.8957H10.002C8.96319 23.8957 8.12065 23.2086 8.10429 22.362L9.20041 9.99795H11.0491V11.6748C11.0491 11.9816 11.2945 12.227 11.6012 12.227C11.908 12.227 12.1534 11.9816 12.1534 11.6748V9.99795H17.8507V11.6748C17.8507 11.9816 18.0961 12.227 18.4029 12.227C18.7096 12.227 18.955 11.9816 18.955 11.6748V9.99795H20.8037L21.9039 22.362C21.8875 23.2086 21.0409 23.8957 20.0061 23.8957Z" fill="#505050"/>
</svg>
