<svg xmlns="http://www.w3.org/2000/svg" width="40" height="39.999" viewBox="0 0 40 39.999"><path d="M15,16.667a8.333,8.333,0,1,1,8.333-8.333A8.343,8.343,0,0,1,15,16.667Zm0-15a6.667,6.667,0,1,0,6.667,6.667A6.673,6.673,0,0,0,15,1.667Z" fill="#828282"/><path d="M10.833,35h-10A.834.834,0,0,1,0,34.167V27.5A7.509,7.509,0,0,1,7.5,20h15a7.468,7.468,0,0,1,5.405,2.31.834.834,0,0,1-1.21,1.147,5.8,5.8,0,0,0-4.195-1.79H7.5A5.84,5.84,0,0,0,1.667,27.5v5.833h9.167a.833.833,0,1,1,0,1.667Z" fill="#828282"/><path d="M24.167,40a.831.831,0,0,1-.745-.46l-3.1-6.207H15.833a.833.833,0,0,1,0-1.667h5a.835.835,0,0,1,.745.46l2.53,5.06L28.4,27.171a.834.834,0,0,1,.742-.5.876.876,0,0,1,.77.46l4.77,9.54h4.485a.833.833,0,0,1,0,1.667h-5a.835.835,0,0,1-.745-.46l-4.2-8.393L24.933,39.494a.834.834,0,0,1-.742.5Z" fill="#828282"/></svg>