<svg width="24" height="24" viewBox="0 0 24 24" fill="none" xmlns="http://www.w3.org/2000/svg">
<path d="M19.7618 4.2353C18.8958 3.36932 17.7213 2.88281 16.4966 2.88281C15.2719 2.88281 14.0974 3.36932 13.2314 4.2353L4.2314 13.2353C3.36541 14.1013 2.87891 15.2758 2.87891 16.5005C2.87891 17.7252 3.36541 18.8997 4.2314 19.7657C5.09739 20.6317 6.27193 21.1182 7.49662 21.1182C8.72132 21.1182 9.89585 20.6317 10.7618 19.7657L19.7618 10.7657C20.6265 9.89906 21.1122 8.72478 21.1122 7.50052C21.1122 6.27625 20.6265 5.10197 19.7618 4.2353ZM10.2314 19.2353C9.50387 19.9498 8.52361 20.3481 7.50391 20.3435C6.4842 20.3389 5.50758 19.9318 4.78653 19.2107C4.06548 18.4897 3.65836 17.513 3.65376 16.4933C3.64915 15.4736 4.04743 14.4934 4.76194 13.7658L8.99662 9.53086L14.4663 15.0005L10.2314 19.2353ZM19.2314 10.2353L14.9966 14.4702L9.52697 9.00052L13.7618 4.76573C14.4889 4.04865 15.47 3.64818 16.4911 3.6517C17.5123 3.65521 18.4906 4.06242 19.2127 4.78448C19.9347 5.50655 20.3419 6.48487 20.3454 7.50603C20.349 8.52718 19.9485 9.50828 19.2314 10.2353ZM17.5618 8.03555C17.6309 8.10708 17.6687 8.20311 17.667 8.30253C17.6653 8.40195 17.6241 8.49661 17.5526 8.5657L15.2637 10.7767C15.1922 10.8458 15.0961 10.8837 14.9967 10.882C14.8972 10.8802 14.8025 10.8391 14.7334 10.7676C14.6643 10.696 14.6264 10.6 14.6282 10.5005C14.6299 10.4011 14.671 10.3064 14.7426 10.2373L17.0316 8.02627C17.067 7.99206 17.1088 7.96516 17.1546 7.94712C17.2004 7.92907 17.2494 7.92023 17.2986 7.92109C17.3478 7.92195 17.3964 7.9325 17.4416 7.95214C17.4868 7.97178 17.5276 8.00012 17.5618 8.03555Z" fill="#828282"/>
</svg>
