<svg width="20" height="20" viewBox="0 0 20 20" fill="none" xmlns="http://www.w3.org/2000/svg">
<g clip-path="url(#clip0_2512_3529)">
<path d="M15.5342 8.22497C15.9781 7.59722 16.1296 6.8886 16.2766 6.20043C16.3721 5.75304 16.4624 5.33053 16.6286 4.93624C16.8138 4.49663 17.049 4.07931 17.3274 3.69585C17.3358 3.68425 17.3524 3.65969 17.3741 3.62673C17.4158 3.56356 17.4934 3.44591 17.5536 3.3716C17.6663 3.23244 17.6913 3.044 17.619 2.88012C17.5467 2.71608 17.3907 2.60775 17.2122 2.59722C17.0886 2.58974 16.9637 2.58455 16.8411 2.58135C15.5658 2.54854 14.2252 2.76659 12.9645 3.21139C12.2778 3.45385 11.4145 3.81395 10.8282 4.45284C10.4788 4.834 10.2226 5.28032 10.0797 5.74389C9.64645 5.33663 9.07043 5.09768 8.60397 4.93303C7.6767 4.60573 6.69037 4.44506 5.7515 4.46962C5.66147 4.47191 5.56961 4.47573 5.47852 4.48122C5.30731 4.49129 5.15793 4.5952 5.08865 4.75222C5.01938 4.90923 5.04349 5.08959 5.15152 5.2231C5.19165 5.27254 5.24597 5.35494 5.27512 5.39919C5.29236 5.42528 5.30548 5.44466 5.31204 5.45382C5.50903 5.72497 5.67551 6.02038 5.80673 6.33166C5.92331 6.60814 5.9877 6.90981 6.05591 7.22918C6.12656 7.56014 6.19919 7.89767 6.3327 8.22344H4.58588C2.05719 8.22329 0 10.2805 0 12.8093C0 15.3379 2.05719 17.395 4.58588 17.395H15.4141C17.9428 17.395 20 15.3379 20 12.8092C20 10.3208 18.0075 8.28875 15.5342 8.22497ZM11.4215 4.99697C11.8925 4.48351 12.6805 4.16521 13.2324 3.97051C14.3167 3.58782 15.4625 3.38625 16.5631 3.3832C16.2975 3.77138 16.0704 4.1878 15.8867 4.62359C15.6909 5.08791 15.5884 5.56795 15.4893 6.03228C15.3349 6.75539 15.1891 7.43837 14.7081 7.97136C14.6265 8.06185 14.536 8.14623 14.4386 8.22329H11.5833C11.5457 8.19384 11.5096 8.16317 11.4743 8.13173C11.8457 7.58867 12.2821 7.08834 12.7756 6.64156C13.3276 6.14199 13.9449 5.71444 14.6101 5.37096C14.8077 5.26903 14.8851 5.02611 14.7832 4.82866C14.6812 4.63122 14.4385 4.5537 14.2409 4.65563C13.5138 5.031 12.8391 5.49837 12.2354 6.04479C11.7616 6.47356 11.3354 6.94765 10.9633 7.45913C10.9111 7.35247 10.8681 7.24276 10.8348 7.13122C10.8208 7.04867 10.8018 6.96642 10.7784 6.88463C10.7623 6.78728 10.7539 6.68947 10.7536 6.59243C10.7516 6.04326 10.9952 5.46175 11.4215 4.99697ZM6.84311 7.06103C6.77017 6.71908 6.69464 6.36553 6.54861 6.01885C6.43982 5.76098 6.31058 5.51226 6.16272 5.2759C6.88492 5.30062 7.62878 5.44253 8.33618 5.69201C8.72543 5.82949 9.2804 6.05303 9.60556 6.40749C9.78638 6.60448 9.91882 6.83169 9.99298 7.06453C10.0076 7.1448 10.0259 7.22475 10.0478 7.3041C10.0565 7.36651 10.0613 7.42861 10.0612 7.49025C10.0607 7.62758 10.0359 7.76751 9.98962 7.90316C9.74564 7.5812 9.4783 7.28991 9.17038 7.01128C8.72528 6.6083 8.22784 6.26375 7.69165 5.98696C7.4942 5.88503 7.25143 5.96239 7.14951 6.15999C7.04742 6.35744 7.12494 6.60021 7.32239 6.70229C7.79678 6.94704 8.23669 7.25176 8.63022 7.60805C8.84598 7.80321 9.03885 8.00585 9.21722 8.22329H7.23572C7.02026 7.89034 6.9339 7.48598 6.84311 7.06103ZM0.804901 12.8092C0.804901 10.7245 2.50107 9.02834 4.58588 9.02834H9.59747V16.5901H4.58588C2.50107 16.5901 0.804901 14.894 0.804901 12.8092ZM15.4141 16.5901H10.4025V15.4061H14.9081C15.1305 15.4061 15.3107 15.2259 15.3107 15.0035C15.3107 14.7812 15.1305 14.601 14.9081 14.601H10.4025V9.02834H15.4141C17.4989 9.02834 19.1951 10.7245 19.1951 12.8093C19.1951 14.894 17.4989 16.5901 15.4141 16.5901Z" fill="#44546A"/>
<path d="M16.9115 14.9041C16.8607 14.6878 16.644 14.5538 16.4276 14.6045C16.2113 14.6553 16.0771 14.8719 16.1279 15.0883L16.1311 15.102C16.1748 15.2874 16.34 15.4126 16.5225 15.4126C16.553 15.4126 16.584 15.4091 16.615 15.4019C16.8314 15.3509 16.9656 15.1344 16.9148 14.9179L16.9115 14.9041Z" fill="#44546A"/>
</g>
<defs>
<clipPath id="clip0_2512_3529">
<rect width="20" height="20" fill="white"/>
</clipPath>
</defs>
</svg>
