<svg width="20" height="20" viewBox="0 0 20 20" fill="none" xmlns="http://www.w3.org/2000/svg">
<path d="M17.3133 12.1954C17.154 12.102 16.9499 12.1554 16.8572 12.3144L13.035 18.8334C12.7589 19.3112 12.1464 19.4759 11.6833 19.2085L10.9387 18.726C10.784 18.6256 10.5776 18.6696 10.4776 18.8243C10.3772 18.9787 10.4216 19.1855 10.5759 19.2855L11.3352 19.777C11.5969 19.9283 11.8833 20 12.1661 20C12.7426 20 13.3034 19.7016 13.6111 19.1688L17.4319 12.6515C17.525 12.4928 17.4721 12.2884 17.3133 12.1954Z" fill="#828282"/>
<path d="M18.3212 0H12.9863C11.9546 0 11.1861 0.328419 10.4165 1.09799C10.2862 1.22838 10.2862 1.4391 10.4165 1.56946C10.5469 1.69985 10.7576 1.69985 10.888 1.56946C11.5375 0.919925 12.126 0.666841 12.9863 0.666841H18.3212C18.8727 0.666841 19.3215 1.11565 19.3215 1.66714V7.00211C19.3215 7.86272 19.0684 8.45086 18.4186 9.10039L8.51627 19.0167C8.13815 19.3942 7.47928 19.3945 7.10186 19.0167L0.971656 12.8865C0.782615 12.6975 0.67856 12.4464 0.67856 12.179C0.67856 11.9119 0.782576 11.6608 0.971304 11.4721L9.92134 2.53475C10.059 2.56976 10.1971 2.60477 10.3401 2.6431C11.6966 3.00653 12.7669 3.38199 13.5648 3.71709C13.4077 4.00785 13.3197 4.33361 13.3197 4.66805C13.3197 5.77138 14.217 6.66865 15.3203 6.66865C16.4236 6.66865 17.3209 5.77138 17.3209 4.66805C17.3209 3.56471 16.4236 2.66744 15.3203 2.66744C15.1359 2.66744 14.9869 2.81682 14.9869 3.00086C14.9869 3.1849 15.1359 3.33428 15.3203 3.33428C16.0559 3.33428 16.654 3.93247 16.654 4.66801C16.654 5.40358 16.0558 6.00173 15.3203 6.00173C14.5848 6.00173 13.9866 5.40354 13.9866 4.66801C13.9866 4.42793 14.0523 4.19353 14.1733 3.98948C14.7508 4.26589 15.1119 4.49897 15.2547 4.64769C15.1936 4.66504 15.0993 4.68438 14.9569 4.69669C14.7735 4.71302 14.6378 4.87475 14.6542 5.05812C14.6695 5.2315 14.8149 5.36255 14.9859 5.36255C14.9956 5.36255 15.0056 5.36189 15.0156 5.36122C15.2207 5.3429 15.8445 5.28788 15.9646 4.84071C16.293 3.61402 11.4806 2.25826 10.5126 1.99884C9.03178 1.60204 7.60971 1.33063 6.5077 1.23463C5.15362 1.11627 4.49408 1.2703 4.37006 1.73376C4.31071 1.95617 4.15234 2.54666 6.85581 3.61265C7.02688 3.68033 7.22092 3.59632 7.28828 3.42494C7.35565 3.25356 7.2716 3.05983 7.10022 2.99246C5.79416 2.47731 5.25298 2.09985 5.07961 1.92214C5.49075 1.80144 6.89684 1.83645 9.16119 2.35125L0.500186 11.0003C0.185091 11.3154 0.0117188 11.7338 0.0117188 12.179C0.0117188 12.6245 0.185091 13.0432 0.500186 13.358L6.63035 19.4882C6.94478 19.8029 7.36358 19.9763 7.80871 19.9763C8.2542 19.9763 8.67264 19.8029 8.98774 19.4879L18.8904 9.57186C19.6602 8.8023 19.9884 8.03374 19.9884 7.00211V1.66718C19.9884 0.747881 19.2405 0 18.3212 0Z" fill="#828282"/>
<path d="M10.917 8.76674C10.7867 8.63635 10.5759 8.63635 10.4456 8.76674L10.2655 8.94679C10.0017 8.77209 9.687 8.66905 9.34757 8.66905C8.42831 8.66905 7.68039 9.41693 7.68039 10.3362C7.68039 10.8331 7.88545 11.2258 8.06418 11.5129C8.23091 11.7807 8.34727 12.1621 8.34727 12.3368C8.34727 12.8883 7.89846 13.3371 7.34697 13.3371C6.79548 13.3371 6.34667 12.8883 6.34667 12.3368C6.34667 12.1344 6.407 11.9394 6.52106 11.7727C6.62508 11.621 6.58608 11.4132 6.43436 11.3092C6.28232 11.2055 6.07491 11.2442 5.9709 11.3959C5.78049 11.674 5.67979 11.9994 5.67979 12.3369C5.67979 12.6763 5.78283 12.9911 5.95753 13.2548L5.77748 13.4349C5.64709 13.5652 5.64709 13.776 5.77748 13.9063C5.8425 13.9714 5.92788 14.004 6.01321 14.004C6.09859 14.004 6.18393 13.9714 6.24895 13.9063L6.429 13.7263C6.69275 13.901 7.0075 14.004 7.34693 14.004C8.26619 14.004 9.01411 13.2561 9.01411 12.3368C9.01411 12.0121 8.85273 11.5173 8.63032 11.1602C8.43194 10.8417 8.34723 10.5953 8.34723 10.3362C8.34723 9.78474 8.79604 9.33593 9.34753 9.33593C9.61495 9.33593 9.85666 9.44264 10.0361 9.61434C10.0417 9.62035 10.0437 9.62833 10.0494 9.63434C10.0554 9.64001 10.0634 9.642 10.0694 9.64767C10.2411 9.82706 10.3478 10.0688 10.3478 10.3362C10.3478 10.6036 10.2434 10.8553 10.054 11.0447C9.92364 11.1748 9.92364 11.3858 10.0537 11.5162C10.1834 11.6466 10.3948 11.6462 10.5251 11.5165C10.8406 11.2011 11.0146 10.782 11.0146 10.3362C11.0146 9.99676 10.9116 9.68201 10.7369 9.41826L10.9169 9.23821C11.0474 9.10786 11.0474 8.89709 10.917 8.76674Z" fill="#828282"/>
</svg>
