<svg width="43" height="40" viewBox="0 0 43 40" fill="none" xmlns="http://www.w3.org/2000/svg">
<g clip-path="url(#clip0_1398_1849)">
<path d="M25.6945 16.112H8.97228C8.65549 16.112 8.35168 15.9949 8.12768 15.7865C7.90368 15.5782 7.77783 15.2956 7.77783 15.0009V10.5564C7.77783 10.2617 7.90368 9.97912 8.12768 9.77075C8.35168 9.56238 8.65549 9.44531 8.97228 9.44531H25.6945C26.0113 9.44531 26.3151 9.56238 26.5391 9.77075C26.7631 9.97912 26.8889 10.2617 26.8889 10.5564V15.0009C26.8889 15.2956 26.7631 15.5782 26.5391 15.7865C26.3151 15.9949 26.0113 16.112 25.6945 16.112ZM10.1667 13.8898H24.5001V11.6009H10.1667V13.8898Z" fill="white"/>
<path d="M25.6945 18.4219H8.97228C8.65549 18.4219 8.35168 18.5389 8.12768 18.7473C7.90368 18.9557 7.77783 19.2383 7.77783 19.533V23.8885C7.77783 24.1832 7.90368 24.4658 8.12768 24.6742C8.35168 24.8826 8.65549 24.9997 8.97228 24.9997H22.5412L26.8889 20.8885V19.533C26.8889 19.2383 26.7631 18.9557 26.5391 18.7473C26.3151 18.5389 26.0113 18.4219 25.6945 18.4219ZM24.5001 22.7774H10.1667V20.5552H24.5001V22.7774Z" fill="white"/>
<path d="M13.8217 37.7889V37.7222L14.2039 36.1778H5.38889V7.22222H29.2778V18.6111L31.6667 16.5111V6.11111C31.6667 5.81643 31.5408 5.53381 31.3168 5.32544C31.0928 5.11706 30.789 5 30.4722 5H4.19444C3.87766 5 3.57385 5.11706 3.34984 5.32544C3.12584 5.53381 3 5.81643 3 6.11111V37.2222C3 37.5169 3.12584 37.7995 3.34984 38.0079C3.57385 38.2163 3.87766 38.3333 4.19444 38.3333H13.75C13.7598 38.1505 13.7838 37.9685 13.8217 37.7889Z" fill="white"/>
<path d="M26.8892 24.0781L25.9575 24.9559C26.1887 24.9116 26.4005 24.8045 26.5663 24.6483C26.7321 24.4921 26.8445 24.2937 26.8892 24.0781Z" fill="white"/>
<path d="M7.77783 32.7115C7.77783 33.0062 7.90368 33.2888 8.12768 33.4972C8.35168 33.7056 8.65549 33.8227 8.97228 33.8227H14.7534L15.1117 32.3782L15.267 31.7671V31.7115H10.1667V29.4449H17.7395L20.1284 27.2227H8.97228C8.65549 27.2227 8.35168 27.3397 8.12768 27.5481C7.90368 27.7565 7.77783 28.0391 7.77783 28.3338V32.7115Z" fill="white"/>
<path d="M40.6135 21.3014L36.5882 17.5569C36.4096 17.3903 36.1974 17.2581 35.9637 17.1679C35.73 17.0777 35.4795 17.0312 35.2266 17.0312C34.9736 17.0312 34.7231 17.0777 34.4894 17.1679C34.2558 17.2581 34.0435 17.3903 33.8649 17.5569L17.4891 32.8792L16.1393 38.2236C16.0888 38.4542 16.0877 38.6917 16.136 38.9227C16.1843 39.1537 16.2812 39.3735 16.421 39.5696C16.5608 39.7657 16.7408 39.9343 16.9507 40.0656C17.1607 40.1968 17.3964 40.2883 17.6443 40.3347C17.7675 40.3462 17.8915 40.3462 18.0146 40.3347C18.161 40.3569 18.3102 40.3569 18.4566 40.3347L24.2496 39.1458L40.6135 23.8903C40.7923 23.725 40.9341 23.5286 41.031 23.3121C41.1278 23.0957 41.1776 22.8636 41.1776 22.6292C41.1776 22.3947 41.1278 22.1626 41.031 21.9462C40.9341 21.7298 40.7923 21.5333 40.6135 21.368V21.3014ZM23.0313 37.1236L18.6596 38.0236L19.7227 33.9903L32.0016 22.4458L35.3699 25.5792L23.0313 37.1236ZM36.7196 24.3236L33.3513 21.1903L35.2505 19.4458L38.6427 22.6014L36.7196 24.3236Z" fill="white"/>
</g>
<defs>
<clipPath id="clip0_1398_1849">
<rect width="43" height="40" fill="white"/>
</clipPath>
</defs>
</svg>
