<svg xmlns="http://www.w3.org/2000/svg" width="80" height="80" viewBox="0 0 80 80" fill="none"><path d="M68.8059 10.0202H66.2203V7.43453C66.2203 6.09766 65.1328 5.01016 63.7959 5.01016H23.6345V3.67687C23.6345 1.64953 21.985 0 19.9575 0C17.93 0 16.2806 1.64953 16.2806 3.67687V5.01016H11.19C9.85312 5.01016 8.76562 6.09766 8.76562 7.43453V72.5656C8.76562 73.9025 9.85312 74.99 11.19 74.99H13.7756V77.5756C13.7756 78.9125 14.8631 80 16.2 80H68.8059C70.1428 80 71.2303 78.9125 71.2303 77.5756V12.4447C71.2303 11.1078 70.1428 10.0202 68.8059 10.0202ZM18.6244 3.67687C18.6244 2.94172 19.2225 2.34375 19.9577 2.34375C20.6928 2.34375 21.2908 2.94172 21.2908 3.67687V5.01016H18.6244V3.67687ZM68.8866 77.5756C68.8866 77.6202 68.8505 77.6562 68.8059 77.6562H16.2C16.1555 77.6562 16.1194 77.6202 16.1194 77.5756V74.99H63.7958C65.1327 74.99 66.2202 73.9025 66.2202 72.5656V18.7067C66.2202 18.0594 65.6955 17.5348 65.0483 17.5348C64.4011 17.5348 63.8764 18.0594 63.8764 18.7067V72.5656C63.8764 72.6102 63.8403 72.6462 63.7958 72.6462H11.19C11.1455 72.6462 11.1094 72.6102 11.1094 72.5656V7.43453C11.1094 7.39 11.1455 7.35391 11.19 7.35391H16.2808V11.1922C16.2808 13.2195 17.9303 14.8689 19.9578 14.8689C21.9853 14.8689 23.6347 13.2195 23.6347 11.1922C23.6347 10.5448 23.11 10.0203 22.4628 10.0203C21.8156 10.0203 21.2909 10.5448 21.2909 11.1922C21.2909 11.9272 20.6928 12.5252 19.9577 12.5252C19.2225 12.5252 18.6245 11.9272 18.6245 11.1922V7.35375H63.7959C63.8405 7.35375 63.8766 7.38984 63.8766 7.43438V13.697C63.8766 14.3442 64.4012 14.8689 65.0484 14.8689C65.6956 14.8689 66.2203 14.3442 66.2203 13.697V12.3639H68.8059C68.8505 12.3639 68.8866 12.4 68.8866 12.4447V77.5756Z" fill="#7380B4"></path><path d="M33.8159 34.99C33.8159 36.3269 34.9034 37.4144 36.2403 37.4144H38.7453C40.0822 37.4144 41.1697 36.3269 41.1697 34.99V29.8992H46.2605C47.5973 29.8992 48.6848 28.8117 48.6848 27.4748V24.9698C48.6848 23.633 47.5973 22.5453 46.2605 22.5453H41.1697V17.4547C41.1697 16.1178 40.0822 15.0302 38.7453 15.0302H36.2403C34.9034 15.0302 33.8159 16.1178 33.8159 17.4547V22.5453H28.7252C27.3883 22.5453 26.3008 23.633 26.3008 24.9698V27.4748C26.3008 28.8117 27.3883 29.8992 28.7252 29.8992H33.8159V34.99ZM28.7252 27.5553C28.6806 27.5553 28.6445 27.5192 28.6445 27.4747V24.9697C28.6445 24.9252 28.6806 24.8889 28.7252 24.8889H34.9878C35.635 24.8889 36.1597 24.3644 36.1597 23.717V17.4545C36.1597 17.41 36.1958 17.3737 36.2403 17.3737H38.7453C38.7898 17.3737 38.8259 17.4098 38.8259 17.4545V23.717C38.8259 24.3644 39.3506 24.8889 39.9978 24.8889H46.2605C46.305 24.8889 46.3411 24.925 46.3411 24.9697V27.4747C46.3411 27.5191 46.305 27.5553 46.2605 27.5553H39.9978C39.3506 27.5553 38.8259 28.08 38.8259 28.7272V34.9898C38.8259 35.0344 38.7898 35.0705 38.7453 35.0705H36.2403C36.1958 35.0705 36.1597 35.0344 36.1597 34.9898V28.7272C36.1597 28.08 35.635 27.5553 34.9878 27.5553H28.7252Z" fill="#7380B4"></path><path d="M55.0308 45.0908H29.9805C29.3333 45.0908 28.8086 45.6154 28.8086 46.2626C28.8086 46.9098 29.3333 47.4345 29.9805 47.4345H55.0308C55.678 47.4345 56.2027 46.9098 56.2027 46.2626C56.2027 45.6154 55.678 45.0908 55.0308 45.0908Z" fill="#7380B4"></path><path d="M23.7186 45.0908H19.9609C19.3137 45.0908 18.7891 45.6155 18.7891 46.2627C18.7891 46.9099 19.3137 47.4345 19.9609 47.4345H23.7186C24.3658 47.4345 24.8905 46.9099 24.8905 46.2627C24.8905 45.6155 24.3658 45.0908 23.7186 45.0908Z" fill="#7380B4"></path><path d="M55.0308 52.606H29.9805C29.3333 52.606 28.8086 53.1305 28.8086 53.7778C28.8086 54.425 29.3333 54.9497 29.9805 54.9497H55.0308C55.678 54.9497 56.2027 54.425 56.2027 53.7778C56.2027 53.1305 55.678 52.606 55.0308 52.606Z" fill="#7380B4"></path><path d="M55.0308 60.1209H29.9805C29.3333 60.1209 28.8086 60.6454 28.8086 61.2928C28.8086 61.94 29.3333 62.4647 29.9805 62.4647H55.0308C55.678 62.4647 56.2027 61.94 56.2027 61.2928C56.2027 60.6456 55.678 60.1209 55.0308 60.1209Z" fill="#7380B4"></path><path d="M23.7186 52.606H19.9609C19.3137 52.606 18.7891 53.1305 18.7891 53.7778C18.7891 54.425 19.3137 54.9497 19.9609 54.9497H23.7186C24.3658 54.9497 24.8905 54.425 24.8905 53.7778C24.8905 53.1305 24.3658 52.606 23.7186 52.606Z" fill="#7380B4"></path><path d="M23.7186 60.1209H19.9609C19.3137 60.1209 18.7891 60.6455 18.7891 61.2928C18.7891 61.94 19.3137 62.4647 19.9609 62.4647H23.7186C24.3658 62.4647 24.8905 61.94 24.8905 61.2928C24.8905 60.6456 24.3658 60.1209 23.7186 60.1209Z" fill="#7380B4"></path></svg>