<svg width="36" height="37" viewBox="0 0 36 37" fill="none" xmlns="http://www.w3.org/2000/svg">
<path d="M12.1247 6.87621C13.7353 6.22117 15.814 5.86059 17.9779 5.86059C22.0847 5.86093 26.4346 7.23818 26.8193 9.79847C26.8383 9.88688 26.8495 9.97841 26.8498 10.0727L26.8982 24.108C26.8986 29.1357 22.9184 33.2264 18.0263 33.2264C15.6565 33.2264 13.4285 32.2779 11.7529 30.5557C10.0773 28.8336 9.15445 26.5437 9.15411 24.1126L9.10636 10.1879C9.10602 10.1813 9.10569 10.1747 9.10603 10.1681C9.10602 10.1625 9.10636 10.1566 9.10603 10.1507L9.10569 10.0821C9.10535 9.98851 9.11585 9.89767 9.13413 9.80996C9.25808 9.00039 9.86256 7.79577 12.1247 6.87621ZM17.9779 8.40695C16.2745 8.40695 14.6256 8.66347 13.3361 9.12917C12.1701 9.54996 11.7173 9.99443 11.6049 10.165C11.9324 10.6644 14.099 11.7476 17.9779 11.7476C21.8568 11.7476 24.0241 10.6623 24.3509 10.165C24.2381 9.99477 23.7854 9.55031 22.6194 9.12882C21.3295 8.66347 19.6813 8.40695 17.9779 8.40695ZM11.632 24.108C11.632 27.7313 14.5007 30.6796 18.026 30.6796C21.552 30.6796 24.4207 27.7313 24.4207 24.1122L24.3827 13.136C22.6624 13.9205 20.2733 14.2939 17.9776 14.2943C15.798 14.2943 13.7309 13.9699 12.1569 13.3817C11.9551 13.3065 11.7705 13.2282 11.5941 13.1485L11.632 24.108Z" fill="#7380B4"/>
<path d="M21.0257 22.0038C20.8426 21.8469 20.5867 21.891 20.4527 22.102L19.3138 23.9105L17.3293 20.9402C18.0992 20.5725 18.6286 19.6792 18.5888 18.6514C18.5378 17.3352 17.5778 16.3017 16.4489 16.3479L14.8109 16.4149C14.5845 16.4242 14.4096 16.6452 14.4199 16.9091L14.6786 23.5935C14.6888 23.8574 14.8803 24.0634 15.1066 24.0542C15.333 24.0449 15.5079 23.8239 15.4977 23.56L15.4052 21.1727L16.4231 21.1311L18.8122 24.7071L17.3615 27.0105C17.2284 27.2223 17.2688 27.5214 17.4515 27.6793C17.5299 27.7466 17.6215 27.7769 17.7111 27.7732C17.8315 27.7683 17.9479 27.7019 18.0245 27.5811L19.3384 25.4947L20.6466 27.4528C20.7317 27.5801 20.8599 27.6445 20.9879 27.6392C21.0703 27.6359 21.1524 27.6035 21.222 27.5404C21.4001 27.38 21.4313 27.0798 21.2914 26.8707L19.84 24.6982L21.1156 22.6726C21.2488 22.4608 21.2084 22.1617 21.0257 22.0038ZM15.3683 20.2177L15.2574 17.353L16.4859 17.3028C17.1633 17.2751 17.7392 17.895 17.7698 18.6849C17.8004 19.4747 17.2742 20.1398 16.5968 20.1675L15.3683 20.2177Z" fill="#7380B4"/>
</svg>
