<svg width="17" height="31" viewBox="0 0 17 31" fill="none" xmlns="http://www.w3.org/2000/svg">
<path fill-rule="evenodd" clip-rule="evenodd" d="M0.34936 30.5261C0.238773 30.4158 0.151033 30.2848 0.0911678 30.1405C0.0313024 29.9962 0.000488281 29.8416 0.000488281 29.6854C0.000488281 29.5292 0.0313024 29.3745 0.0911678 29.2302C0.151033 29.086 0.238773 28.9549 0.34936 28.8446L13.761 15.4354L0.34936 2.02613C0.238952 1.91572 0.15137 1.78464 0.0916174 1.64039C0.0318645 1.49613 0.00111002 1.34152 0.00111002 1.18538C0.00111002 1.02924 0.0318645 0.874623 0.0916174 0.730367C0.15137 0.58611 0.238952 0.455036 0.34936 0.344627C0.459769 0.234219 0.590843 0.146637 0.7351 0.0868845C0.879356 0.0271317 1.03397 -0.0036217 1.19011 -0.0036217C1.34625 -0.0036217 1.50087 0.0271317 1.64512 0.0868845C1.78938 0.146637 1.92045 0.234219 2.03086 0.344627L16.2809 14.5946C16.3915 14.7049 16.4792 14.836 16.5391 14.9802C16.5989 15.1245 16.6297 15.2792 16.6297 15.4354C16.6297 15.5916 16.5989 15.7462 16.5391 15.8905C16.4792 16.0348 16.3915 16.1658 16.2809 16.2761L2.03086 30.5261C1.92055 30.6367 1.78951 30.7245 1.64524 30.7843C1.50097 30.8442 1.34631 30.875 1.19011 30.875C1.03391 30.875 0.87925 30.8442 0.734981 30.7843C0.590711 30.7245 0.459669 30.6367 0.34936 30.5261Z" fill="#44546A"/>
</svg>
