<svg width="17" height="31" viewBox="0 0 17 31" fill="none" xmlns="http://www.w3.org/2000/svg">
<path fill-rule="evenodd" clip-rule="evenodd" d="M16.28 0.348873C16.3906 0.459181 16.4784 0.590223 16.5382 0.734493C16.5981 0.878763 16.6289 1.03343 16.6289 1.18962C16.6289 1.34582 16.5981 1.50048 16.5382 1.64475C16.4784 1.78902 16.3906 1.92006 16.28 2.03037L2.86841 15.4396L16.28 28.8489C16.3904 28.9593 16.478 29.0904 16.5378 29.2346C16.5975 29.3789 16.6283 29.5335 16.6283 29.6896C16.6283 29.8458 16.5975 30.0004 16.5378 30.1446C16.478 30.2889 16.3904 30.42 16.28 30.5304C16.1696 30.6408 16.0386 30.7284 15.8943 30.7881C15.75 30.8479 15.5954 30.8786 15.4393 30.8786C15.2831 30.8786 15.1285 30.8479 14.9843 30.7881C14.84 30.7284 14.7089 30.6408 14.5985 30.5304L0.348532 16.2804C0.237945 16.1701 0.150206 16.039 0.0903408 15.8948C0.0304755 15.7505 -0.000339799 15.5958 -0.000339801 15.4396C-0.000339803 15.2834 0.0304755 15.1288 0.0903408 14.9845C0.150206 14.8402 0.237945 14.7092 0.348532 14.5989L14.5985 0.348873C14.7088 0.238285 14.8399 0.150546 14.9842 0.0906806C15.1284 0.0308153 15.2831 1.60487e-08 15.4393 1.41861e-08C15.5955 1.23235e-08 15.7501 0.0308153 15.8944 0.0906806C16.0387 0.150546 16.1697 0.238285 16.28 0.348873Z" fill="#44546A"/>
</svg>
