<svg xmlns="http://www.w3.org/2000/svg" width="64" height="64" viewBox="0 0 64 64" fill="none"><path d="M61 9C62.103 9 63 8.103 63 7V3C63 1.897 62.103 1 61 1H3C1.897 1 1 1.897 1 3V7C1 8.103 1.897 9 3 9H5V55H3C1.897 55 1 55.897 1 57V61C1 62.103 1.897 63 3 63H35.036H47H58.964C61.189 63 63 61.189 63 58.964C63 58.126 62.744 57.32 62.262 56.636L59 52.015V9H61ZM3 3H61L61.002 7H3V3ZM3 57H31.522C31.186 57.6 31 58.269 31 58.964C31 59.71 31.217 60.4 31.571 61H3V57ZM49 60C49 59.448 49.448 59 50 59C50.552 59 51 59.448 51 60C51 60.552 50.552 61 50 61C49.448 61 49 60.552 49 60ZM61 58.964C61 60.087 60.087 61 58.964 61H52.816C52.928 60.686 53 60.352 53 60C53 58.346 51.654 57 50 57C48.346 57 47 58.346 47 60C47 60.352 47.072 60.686 47.184 61H47H35.036C33.913 61 33 60.087 33 58.964C33 58.541 33.129 58.135 33.373 57.79L39.577 49H54.423L54.461 49.054C52.512 49.32 51 50.978 51 53C51 55.206 52.794 57 55 57C56.544 57 57.871 56.112 58.537 54.828L60.628 57.79C60.871 58.135 61 58.541 61 58.964ZM43 29V27H51L51.002 29H43ZM45 39.73V31H49V33H47V35H49V37H47V39H49V39.73C49 40.164 49.068 40.588 49.176 41H47V43H50.187L53.011 47H40.989L44.084 42.614C44.684 41.766 45 40.769 45 39.73ZM57 53C57 54.103 56.103 55 55 55C53.897 55 53 54.103 53 53C53 51.897 53.897 51 55 51C55.384 51 55.744 51.12 56.063 51.323L56.939 52.564C56.971 52.708 57 52.853 57 53ZM57 49.182L51.549 41.46C51.189 40.951 51 40.354 51 39.73V31C52.103 31 53 30.103 53 29V27C53 25.897 52.103 25 51 25H43C41.897 25 41 25.897 41 27V29C41 30.103 41.897 31 43 31V39.73C43 40.353 42.811 40.951 42.45 41.459L32.894 55H7V9H57V49.182Z" fill="#7380B4"></path><path d="M44 51C42.346 51 41 52.346 41 54C41 55.654 42.346 57 44 57C45.654 57 47 55.654 47 54C47 52.346 45.654 51 44 51ZM44 55C43.448 55 43 54.552 43 54C43 53.448 43.448 53 44 53C44.552 53 45 53.448 45 54C45 54.552 44.552 55 44 55Z" fill="#7380B4"></path><path d="M17 37.382L13 39.382V45.184C11.839 45.598 11 46.698 11 48C11 49.654 12.346 51 14 51C15.654 51 17 49.654 17 48C17 46.698 16.161 45.598 15 45.184V40.618L18 39.118L24 42.118L31 38.618V30.382L25 27.382V21.5L28.333 19H35.184C35.598 20.161 36.698 21 38 21C39.654 21 41 19.654 41 18C41 16.346 39.654 15 38 15C36.698 15 35.598 15.839 35.184 17H27.667L23.895 19.829L18 16.882L11 20.382V28.618L17 31.618V37.382ZM14 49C13.448 49 13 48.552 13 48C13 47.448 13.448 47 14 47C14.552 47 15 47.448 15 48C15 48.552 14.552 49 14 49ZM38 17C38.552 17 39 17.448 39 18C39 18.552 38.552 19 38 19C37.448 19 37 18.552 37 18C37 17.448 37.448 17 38 17ZM29 37.382L24 39.882L19 37.382V31.618L24 29.118L29 31.618V37.382ZM13 21.618L18 19.118L23 21.618V27.382L18 29.882L13 27.382V21.618Z" fill="#7380B4"></path><path d="M43 15H55V17H43V15Z" fill="#7380B4"></path><path d="M43 19H55V21H43V19Z" fill="#7380B4"></path><path d="M28 13H35V15H28V13Z" fill="#7380B4"></path><path d="M23 47H27V49H23V47Z" fill="#7380B4"></path><path d="M29 47H33V49H29V47Z" fill="#7380B4"></path><path d="M23 51H33V53H23V51Z" fill="#7380B4"></path></svg>