<svg width="21" height="21" viewBox="0 0 21 21" fill="none" xmlns="http://www.w3.org/2000/svg">
<path d="M20.75 19.69L15.086 14.026C16.4471 12.3919 17.1258 10.2961 16.981 8.17438C16.8361 6.05268 15.8789 4.0685 14.3084 2.63459C12.7379 1.20068 10.675 0.427459 8.54893 0.475767C6.42284 0.524076 4.39723 1.3902 2.89347 2.89396C1.38971 4.39772 0.523588 6.42333 0.475279 8.54942C0.42697 10.6755 1.2002 12.7384 2.6341 14.3089C4.06801 15.8794 6.05219 16.8366 8.17389 16.9815C10.2956 17.1263 12.3914 16.4475 14.0255 15.0865L19.6895 20.7505L20.75 19.69ZM1.99996 8.75045C1.99996 7.41543 2.39585 6.11039 3.13754 5.00035C3.87924 3.89032 4.93345 3.02516 6.16685 2.51427C7.40025 2.00337 8.75745 1.8697 10.0668 2.13015C11.3762 2.3906 12.5789 3.03348 13.5229 3.97748C14.4669 4.92149 15.1098 6.12422 15.3703 7.43359C15.6307 8.74296 15.497 10.1002 14.9862 11.3336C14.4753 12.567 13.6101 13.6212 12.5001 14.3629C11.39 15.1046 10.085 15.5005 8.74996 15.5005C6.96036 15.4985 5.24463 14.7867 3.97919 13.5212C2.71375 12.2558 2.00195 10.5401 1.99996 8.75045Z" fill="#828282"/>
</svg>
