<svg width="19" height="19" viewBox="0 0 19 19" fill="none" xmlns="http://www.w3.org/2000/svg">
<path d="M5.93742 17.0211C4.71359 17.0159 3.63625 16.2131 3.28138 15.0419H1.58325V13.4586H3.28138C3.68901 12.0913 5.0682 11.2571 6.46839 11.5309C7.86858 11.8046 8.83201 13.0969 8.69467 14.5169C8.55733 15.937 7.36412 17.0207 5.93742 17.0211ZM5.93742 13.0627C5.28158 13.0627 4.74992 13.5944 4.74992 14.2502C4.74992 14.9061 5.28158 15.4377 5.93742 15.4377C6.59326 15.4377 7.12492 14.9061 7.12492 14.2502C7.12492 13.5944 6.59326 13.0627 5.93742 13.0627ZM17.4166 15.0419H9.49992V13.4586H17.4166V15.0419ZM13.0624 12.2711C11.6357 12.2707 10.4425 11.187 10.3052 9.76695C10.1678 8.34687 11.1313 7.05464 12.5314 6.78088C13.9316 6.50711 15.3108 7.34132 15.7185 8.70855H17.4166V10.2919H15.7185C15.3636 11.4631 14.2862 12.2659 13.0624 12.2711ZM13.0624 8.31272C12.4066 8.31272 11.8749 8.84438 11.8749 9.50022C11.8749 10.1561 12.4066 10.6877 13.0624 10.6877C13.7183 10.6877 14.2499 10.1561 14.2499 9.50022C14.2499 8.84438 13.7183 8.31272 13.0624 8.31272ZM9.49992 10.2919H1.58325V8.70855H9.49992V10.2919ZM7.52075 7.52105C6.09405 7.52069 4.90084 6.43703 4.7635 5.01695C4.62616 3.59687 5.58959 2.30464 6.98978 2.03088C8.38997 1.75711 9.76917 2.59132 10.1768 3.95855H17.4166V5.54189H10.1768C9.8217 6.71299 8.74449 7.51568 7.52075 7.52105ZM7.52075 3.56272C6.87315 3.5636 6.34567 4.08318 6.33502 4.7307C6.32437 5.37821 6.83449 5.91486 7.48172 5.93702C8.12894 5.95919 8.67458 5.4587 8.70825 4.81197V5.04155V4.75022C8.70825 4.09438 8.17659 3.56272 7.52075 3.56272ZM3.95825 5.54189H1.58325V3.95855H3.95825V5.54189Z" fill="#35C0ED"/>
</svg>
