<svg width="40" height="40" viewBox="0 0 40 40" fill="none" xmlns="http://www.w3.org/2000/svg">
<path d="M30.0002 13.7506C29.3268 13.7509 28.6603 13.6146 28.041 13.3501C27.4217 13.0856 26.8625 12.6983 26.3971 12.2116L14.8346 18.717C15.0585 19.5581 15.0585 20.4432 14.8346 21.2842L26.3971 27.7897C27.239 26.9168 28.3704 26.3808 29.5792 26.2821C30.788 26.1835 31.9912 26.529 32.9636 27.2538C33.936 27.9787 34.6107 29.0332 34.8613 30.2198C35.112 31.4064 34.9214 32.6437 34.3253 33.6999C33.7292 34.7561 32.7684 35.5587 31.623 35.9574C30.4776 36.3561 29.2261 36.3234 28.1031 35.8656C26.98 35.4078 26.0624 34.5562 25.5221 33.4704C24.9818 32.3845 24.856 31.139 25.1682 29.967L13.6057 23.4616C12.915 24.1817 12.0247 24.6787 11.0492 24.8887C10.0737 25.0987 9.05777 25.012 8.13199 24.6398C7.2062 24.2676 6.41295 23.6269 5.85428 22.8002C5.29561 21.9734 4.99707 20.9984 4.99707 20.0006C4.99707 19.0028 5.29561 18.0279 5.85428 17.2011C6.41295 16.3744 7.2062 15.7337 8.13199 15.3615C9.05777 14.9893 10.0737 14.9026 11.0492 15.1126C12.0247 15.3226 12.915 15.8196 13.6057 16.5397L25.1682 10.0342C24.9001 9.02496 24.9547 7.95708 25.3244 6.98045C25.6942 6.00382 26.3604 5.16745 27.2296 4.58871C28.0988 4.00998 29.1275 3.71793 30.1711 3.75355C31.2148 3.78917 32.2211 4.15066 33.0489 4.78731C33.8766 5.42395 34.4843 6.30379 34.7865 7.30336C35.0888 8.30292 35.0705 9.37205 34.7343 10.3607C34.398 11.3493 33.7606 12.2079 32.9116 12.8159C32.0626 13.4238 31.0445 13.7507 30.0002 13.7506Z" fill="#697688"/>
</svg>
