<svg width="25" height="25" viewBox="0 0 32 30" fill="none" xmlns="http://www.w3.org/2000/svg">
<path d="M21.3375 0.697806C21.1893 0.558831 21.0037 0.466235 20.8035 0.431421C20.6033 0.396607 20.3973 0.421095 20.2109 0.501868C20.0245 0.582642 19.8657 0.716174 19.7542 0.886024C19.6427 1.05587 19.5833 1.25463 19.5833 1.45781V6.01781C19.285 6.02447 18.9375 6.04281 18.55 6.07781C17.2708 6.19614 15.5367 6.51614 13.7367 7.33197C10.0683 8.99447 6.29833 12.6436 5.42333 20.2986C5.39951 20.5082 5.43985 20.7201 5.53903 20.9062C5.63822 21.0923 5.79156 21.244 5.97879 21.3411C6.16603 21.4381 6.37832 21.4761 6.5876 21.4499C6.79688 21.4238 6.99328 21.3347 7.15083 21.1945C10.7633 17.9828 14.1483 16.6003 16.5975 16.012C17.5759 15.7715 18.5764 15.6319 19.5833 15.5953V20.2078C19.5833 20.411 19.6427 20.6097 19.7542 20.7796C19.8657 20.9494 20.0245 21.083 20.2109 21.1637C20.3973 21.2445 20.6033 21.269 20.8035 21.2342C21.0037 21.1994 21.1893 21.1068 21.3375 20.9678L31.3375 11.5928C31.4414 11.4954 31.5243 11.3777 31.5809 11.2469C31.6376 11.1162 31.6668 10.9753 31.6668 10.8328C31.6668 10.6903 31.6376 10.5494 31.5809 10.4187C31.5243 10.2879 31.4414 10.1702 31.3375 10.0728L21.3375 0.697806ZM20.505 8.1178L20.5217 8.11947H20.5233H20.5225C20.6672 8.13378 20.8134 8.11763 20.9515 8.07204C21.0896 8.02646 21.2166 7.95246 21.3244 7.8548C21.4322 7.75714 21.5183 7.638 21.5773 7.50504C21.6362 7.37208 21.6667 7.22825 21.6667 7.0828V3.86197L29.1017 10.8328L21.6667 17.8036V14.5828C21.6667 14.0578 21.2883 13.6161 20.7542 13.5495H20.7517L20.7483 13.5486L20.74 13.5478L20.7167 13.5453C20.603 13.5341 20.4891 13.5258 20.375 13.5203C20.1508 13.5086 19.8317 13.502 19.43 13.5153C18.3107 13.5617 17.1988 13.7197 16.1108 13.987C13.8775 14.5228 11.0283 15.6295 7.9625 17.8645C9.20083 12.7978 12.015 10.3995 14.5958 9.22947C16.13 8.53447 17.625 8.25614 18.7417 8.1528C19.2983 8.10114 19.755 8.09447 20.0675 8.09947C20.2135 8.10155 20.3594 8.10767 20.505 8.1178ZM5.20833 1.66614C3.827 1.66614 2.50224 2.21487 1.52549 3.19162C0.548734 4.16838 0 5.49314 0 6.87447V24.7911C0 26.1725 0.548734 27.4972 1.52549 28.474C2.50224 29.4507 3.827 29.9995 5.20833 29.9995H23.125C24.5063 29.9995 25.8311 29.4507 26.8078 28.474C27.7846 27.4972 28.3333 26.1725 28.3333 24.7911V22.9161C28.3333 22.6399 28.2236 22.3749 28.0282 22.1796C27.8329 21.9842 27.5679 21.8745 27.2917 21.8745C27.0154 21.8745 26.7504 21.9842 26.5551 22.1796C26.3597 22.3749 26.25 22.6399 26.25 22.9161V24.7911C26.25 25.6199 25.9208 26.4148 25.3347 27.0008C24.7487 27.5869 23.9538 27.9161 23.125 27.9161H5.20833C4.37953 27.9161 3.58468 27.5869 2.99862 27.0008C2.41257 26.4148 2.08333 25.6199 2.08333 24.7911V6.87447C2.08333 6.04567 2.41257 5.25081 2.99862 4.66476C3.58468 4.07871 4.37953 3.74947 5.20833 3.74947H12.0833C12.3596 3.74947 12.6246 3.63973 12.8199 3.44438C13.0153 3.24902 13.125 2.98407 13.125 2.70781C13.125 2.43154 13.0153 2.16659 12.8199 1.97124C12.6246 1.77589 12.3596 1.66614 12.0833 1.66614H5.20833Z" fill="#35C0ED"/>
</svg>