<svg width="88" height="88" viewBox="0 0 88 88" fill="none" xmlns="http://www.w3.org/2000/svg">
<g filter="url(#filter0_d)">
<circle cx="44" cy="40" r="24" fill="#35C0ED"/>
</g>
<path d="M50.9997 44C50.2512 44.0038 49.513 44.1755 48.8398 44.5026C48.1665 44.8298 47.5753 45.3039 47.1097 45.89L39.7997 41.32C40.0661 40.4602 40.0661 39.5398 39.7997 38.68L47.1097 34.11C47.8516 35.0287 48.8948 35.6552 50.0544 35.8784C51.214 36.1016 52.4152 35.9072 53.4452 35.3296C54.4752 34.752 55.2675 33.8285 55.6818 32.7226C56.0961 31.6168 56.1056 30.4 55.7086 29.2878C55.3117 28.1756 54.5339 27.2398 53.5131 26.6462C52.4922 26.0526 51.2942 25.8394 50.1312 26.0445C48.9683 26.2496 47.9155 26.8597 47.1593 27.7667C46.403 28.6737 45.9923 29.8191 45.9997 31C46.0044 31.4472 46.0717 31.8915 46.1997 32.32L38.8897 36.89C38.2443 36.0776 37.3622 35.486 36.3656 35.1974C35.3691 34.9087 34.3074 34.9373 33.3277 35.279C32.3481 35.6208 31.499 36.2588 30.8982 37.1047C30.2974 37.9506 29.9746 38.9624 29.9746 40C29.9746 41.0375 30.2974 42.0494 30.8982 42.8953C31.499 43.7412 32.3481 44.3792 33.3277 44.721C34.3074 45.0627 35.3691 45.0912 36.3656 44.8026C37.3622 44.5139 38.2443 43.9224 38.8897 43.11L46.1997 47.68C46.0717 48.1085 46.0044 48.5528 45.9997 49C45.9997 49.9889 46.2929 50.9556 46.8423 51.7778C47.3918 52.6001 48.1726 53.2409 49.0863 53.6194C49.9999 53.9978 51.0052 54.0968 51.9751 53.9039C52.9451 53.711 53.836 53.2348 54.5352 52.5355C55.2345 51.8363 55.7107 50.9453 55.9036 49.9754C56.0965 49.0055 55.9975 48.0002 55.6191 47.0866C55.2407 46.1729 54.5998 45.392 53.7775 44.8426C52.9553 44.2932 51.9886 44 50.9997 44ZM50.9997 28C51.593 28 52.1731 28.1759 52.6664 28.5056C53.1598 28.8352 53.5443 29.3038 53.7713 29.8519C53.9984 30.4001 54.0578 31.0033 53.9421 31.5853C53.8263 32.1672 53.5406 32.7018 53.121 33.1213C52.7015 33.5409 52.1669 33.8266 51.585 33.9423C51.003 34.0581 50.3998 33.9987 49.8516 33.7716C49.3035 33.5446 48.8349 33.16 48.5053 32.6667C48.1756 32.1734 47.9997 31.5933 47.9997 31C47.9997 30.2043 48.3158 29.4413 48.8784 28.8787C49.441 28.3161 50.204 28 50.9997 28ZM34.9997 43C34.4064 43 33.8263 42.824 33.333 42.4944C32.8396 42.1648 32.4551 41.6962 32.2281 41.148C32.001 40.5999 31.9416 39.9967 32.0573 39.4147C32.1731 38.8328 32.4588 38.2982 32.8784 37.8787C33.2979 37.4591 33.8325 37.1734 34.4144 37.0576C34.9964 36.9419 35.5996 37.0013 36.1477 37.2284C36.6959 37.4554 37.1645 37.8399 37.4941 38.3333C37.8237 38.8266 37.9997 39.4066 37.9997 40C37.9997 40.7956 37.6836 41.5587 37.121 42.1213C36.5584 42.6839 35.7953 43 34.9997 43ZM50.9997 52C50.4064 52 49.8263 51.824 49.333 51.4944C48.8396 51.1648 48.4551 50.6962 48.2281 50.148C48.001 49.5999 47.9416 48.9967 48.0573 48.4147C48.1731 47.8328 48.4588 47.2982 48.8784 46.8787C49.2979 46.4591 49.8325 46.1734 50.4144 46.0576C50.9964 45.9419 51.5996 46.0013 52.1477 46.2284C52.6959 46.4554 53.1645 46.8399 53.4941 47.3333C53.8237 47.8266 53.9997 48.4066 53.9997 49C53.9997 49.7956 53.6836 50.5587 53.121 51.1213C52.5584 51.6839 51.7953 52 50.9997 52Z" fill="white"/>
<defs>
<filter id="filter0_d" x="0" y="0" width="88" height="88" filterUnits="userSpaceOnUse" color-interpolation-filters="sRGB">
<feFlood flood-opacity="0" result="BackgroundImageFix"/>
<feColorMatrix in="SourceAlpha" type="matrix" values="0 0 0 0 0 0 0 0 0 0 0 0 0 0 0 0 0 0 127 0" result="hardAlpha"/>
<feOffset dy="4"/>
<feGaussianBlur stdDeviation="10"/>
<feComposite in2="hardAlpha" operator="out"/>
<feColorMatrix type="matrix" values="0 0 0 0 0 0 0 0 0 0 0 0 0 0 0 0 0 0 0.15 0"/>
<feBlend mode="normal" in2="BackgroundImageFix" result="effect1_dropShadow"/>
<feBlend mode="normal" in="SourceGraphic" in2="effect1_dropShadow" result="shape"/>
</filter>
</defs>
</svg>
