<svg xmlns="http://www.w3.org/2000/svg" width="152.21" height="26" viewBox="0 0 152.21 26"><g transform="translate(-3531 -1689)"><path d="M0,2A2,2,0,0,1,2,0H139.5a2,2,0,0,1,1.463.637l10.714,11.5a2,2,0,0,1-.06,2.788l-10.663,10.5a2,2,0,0,1-1.4.575H2a2,2,0,0,1-2-2V2Z" transform="translate(3531 1689)" fill="#35c0ed"/><path d="M5.526,1.9a.435.435,0,0,1-.156.186.369.369,0,0,1-.2.054.538.538,0,0,1-.27-.09q-.15-.1-.354-.21a2.7,2.7,0,0,0-.48-.2,1.92,1.92,0,0,0-.642-.1,1.861,1.861,0,0,0-.588.084,1.237,1.237,0,0,0-.42.222A.907.907,0,0,0,2.16,2.2a1.11,1.11,0,0,0-.084.438.776.776,0,0,0,.168.51,1.465,1.465,0,0,0,.456.348,4.2,4.2,0,0,0,.642.258q.36.114.732.246a6.2,6.2,0,0,1,.738.3,2.446,2.446,0,0,1,.642.432,1.889,1.889,0,0,1,.45.636,2.186,2.186,0,0,1,.174.918,2.975,2.975,0,0,1-.2,1.1,2.522,2.522,0,0,1-.588.894,2.8,2.8,0,0,1-.942.6A3.522,3.522,0,0,1,3.066,9.1a3.979,3.979,0,0,1-.816-.084A4.083,4.083,0,0,1,.786,8.424a3.453,3.453,0,0,1-.57-.468l.468-.774A.57.57,0,0,1,.84,7.044a.389.389,0,0,1,.21-.06.564.564,0,0,1,.324.126q.174.12.408.27a3.454,3.454,0,0,0,.558.276,2.232,2.232,0,0,0,.774.12,1.592,1.592,0,0,0,1.068-.324A1.183,1.183,0,0,0,4.56,6.51a.862.862,0,0,0-.174-.558,1.317,1.317,0,0,0-.45-.36,3.254,3.254,0,0,0-.642-.252q-.36-.1-.732-.222A6.312,6.312,0,0,1,1.83,4.83a2.371,2.371,0,0,1-.642-.438A2.036,2.036,0,0,1,.732,3.72a2.637,2.637,0,0,1-.168-1A2.4,2.4,0,0,1,.75,1.794,2.424,2.424,0,0,1,1.3,1,2.76,2.76,0,0,1,2.2.438,3.243,3.243,0,0,1,3.4.228a4.047,4.047,0,0,1,1.416.24,3.2,3.2,0,0,1,1.1.672ZM8.8,2.844V9H7.322V2.844ZM9.026,1.05a.844.844,0,0,1-.078.36.963.963,0,0,1-.21.294,1,1,0,0,1-.3.2.963.963,0,0,1-.372.072A.948.948,0,0,1,7.7,1.908a1.006,1.006,0,0,1-.5-.5.9.9,0,0,1-.072-.36A.963.963,0,0,1,7.2.678a1,1,0,0,1,.2-.3A.929.929,0,0,1,7.7.18.885.885,0,0,1,8.066.1.9.9,0,0,1,8.438.18a.912.912,0,0,1,.3.2.943.943,0,0,1,.21.3A.9.9,0,0,1,9.026,1.05Zm3.588,1.686a3.164,3.164,0,0,1,.744.084,2.455,2.455,0,0,1,.636.234h1.77v.552a.306.306,0,0,1-.072.216.428.428,0,0,1-.246.108l-.552.1a1.741,1.741,0,0,1,.09.33,1.8,1.8,0,0,1,.036.366,1.816,1.816,0,0,1-.69,1.452,2.342,2.342,0,0,1-.762.4,3.16,3.16,0,0,1-.954.138,3.449,3.449,0,0,1-.678-.066q-.288.174-.288.39a.294.294,0,0,0,.168.276,1.489,1.489,0,0,0,.45.12q.282.036.636.048t.726.036a5.38,5.38,0,0,1,.726.108,2.037,2.037,0,0,1,.63.234,1.228,1.228,0,0,1,.45.444,1.32,1.32,0,0,1,.174.714,1.668,1.668,0,0,1-.2.792,2.079,2.079,0,0,1-.582.684,2.954,2.954,0,0,1-.93.48,3.939,3.939,0,0,1-1.26.186,4.75,4.75,0,0,1-1.218-.138,2.785,2.785,0,0,1-.858-.36,1.544,1.544,0,0,1-.5-.516,1.217,1.217,0,0,1-.168-.612,1.047,1.047,0,0,1,.264-.726,1.809,1.809,0,0,1,.732-.468,1.021,1.021,0,0,1-.366-.336.978.978,0,0,1-.138-.546.889.889,0,0,1,.048-.282,1.176,1.176,0,0,1,.144-.294,1.445,1.445,0,0,1,.252-.27,1.648,1.648,0,0,1,.354-.234,1.966,1.966,0,0,1-.738-.672,1.81,1.81,0,0,1-.264-.984,1.838,1.838,0,0,1,.18-.822,1.858,1.858,0,0,1,.51-.63,2.333,2.333,0,0,1,.774-.4A3.322,3.322,0,0,1,12.613,2.736Zm1.626,6.54a.41.41,0,0,0-.108-.294.686.686,0,0,0-.294-.174,2.037,2.037,0,0,0-.438-.1q-.246-.03-.528-.042T12.3,8.64q-.294-.018-.57-.054a1.356,1.356,0,0,0-.408.33.668.668,0,0,0-.15.432.6.6,0,0,0,.078.3.7.7,0,0,0,.258.246,1.521,1.521,0,0,0,.462.156,3.945,3.945,0,0,0,1.4-.006,1.568,1.568,0,0,0,.492-.174.715.715,0,0,0,.288-.264A.629.629,0,0,0,14.239,9.276Zm-1.626-3.5a1.443,1.443,0,0,0,.48-.072.944.944,0,0,0,.336-.21.806.806,0,0,0,.2-.318,1.121,1.121,0,0,0,.072-.408.949.949,0,0,0-.276-.72,1.109,1.109,0,0,0-.816-.27,1.131,1.131,0,0,0-.822.27.961.961,0,0,0-.27.72,1.194,1.194,0,0,0,.066.4.969.969,0,0,0,.2.324,1.009,1.009,0,0,0,.342.21A1.477,1.477,0,0,0,12.613,5.772ZM16.694,9V2.844H17.6a.364.364,0,0,1,.378.27l.1.486a3.521,3.521,0,0,1,.39-.348,2.934,2.934,0,0,1,.438-.27,2.293,2.293,0,0,1,.5-.174,2.6,2.6,0,0,1,.576-.06,2.174,2.174,0,0,1,.894.174,1.7,1.7,0,0,1,.648.48,2.014,2.014,0,0,1,.4.738,3.044,3.044,0,0,1,.138.942V9H20.576V5.082a1.292,1.292,0,0,0-.264-.87.954.954,0,0,0-.78-.312,1.543,1.543,0,0,0-.72.174,2.58,2.58,0,0,0-.636.474V9Zm10.5-6.156V6.756a1.338,1.338,0,0,0,.258.876.982.982,0,0,0,.786.306,1.588,1.588,0,0,0,.72-.168,2.58,2.58,0,0,0,.636-.474V2.844h1.482V9h-.906a.364.364,0,0,1-.378-.27l-.1-.492a4.649,4.649,0,0,1-.4.354,2.577,2.577,0,0,1-.438.27,2.621,2.621,0,0,1-1.068.234,2.241,2.241,0,0,1-.894-.168,1.821,1.821,0,0,1-.648-.486,2.157,2.157,0,0,1-.4-.738,3.233,3.233,0,0,1-.132-.948V2.844Zm5.464,8.166V2.844h.906a.443.443,0,0,1,.246.066.308.308,0,0,1,.132.2l.12.57a3.124,3.124,0,0,1,.852-.69,2.339,2.339,0,0,1,1.134-.264,2,2,0,0,1,.918.21,2.02,2.02,0,0,1,.72.612,2.813,2.813,0,0,1,.468.984,4.835,4.835,0,0,1,.168,1.338,4.217,4.217,0,0,1-.186,1.278,3.1,3.1,0,0,1-.534,1.02,2.373,2.373,0,0,1-1.926.918,2.262,2.262,0,0,1-.888-.156,2.226,2.226,0,0,1-.648-.444v2.52Zm2.88-7.11a1.512,1.512,0,0,0-.792.2,2.254,2.254,0,0,0-.606.546V7.4a1.446,1.446,0,0,0,.546.438,1.712,1.712,0,0,0,.642.12,1.416,1.416,0,0,0,.606-.126,1.154,1.154,0,0,0,.462-.384,1.866,1.866,0,0,0,.294-.648,3.756,3.756,0,0,0,.1-.93,3.943,3.943,0,0,0-.09-.912,1.731,1.731,0,0,0-.246-.612.978.978,0,0,0-.4-.342A1.206,1.206,0,0,0,35.535,3.9Zm12.43,4a1.408,1.408,0,0,1-.732-.192,1.024,1.024,0,0,1-.444-.618,2.2,2.2,0,0,1-.75.618,1.979,1.979,0,0,1-.852.186,1.542,1.542,0,0,1-.66-.132,1.385,1.385,0,0,1-.468-.36,1.645,1.645,0,0,1-.282-.546,2.526,2.526,0,0,1-.09-.69,2.933,2.933,0,0,1,.084-.69,2.98,2.98,0,0,1,.264-.678,2.925,2.925,0,0,1,.432-.612,2.7,2.7,0,0,1,.618-.5,3.067,3.067,0,0,1,.792-.336,3.51,3.51,0,0,1,.972-.126,3.767,3.767,0,0,1,.792.072,3.468,3.468,0,0,1,.636.2L47.7,5.724a2.739,2.739,0,0,0-.1.642.918.918,0,0,0,.042.3.563.563,0,0,0,.12.192.445.445,0,0,0,.186.1,1.078,1.078,0,0,0,.234.024.81.81,0,0,0,.474-.156,1.414,1.414,0,0,0,.4-.45,2.541,2.541,0,0,0,.264-.684,3.458,3.458,0,0,0,.1-.864,3.569,3.569,0,0,0-.246-1.374,2.649,2.649,0,0,0-.678-.99,2.757,2.757,0,0,0-1.038-.6,4.134,4.134,0,0,0-1.326-.2,3.577,3.577,0,0,0-1.464.3,3.631,3.631,0,0,0-1.17.81,3.793,3.793,0,0,0-.774,1.218A4.1,4.1,0,0,0,42.451,5.5a4.564,4.564,0,0,0,.306,1.734,3.4,3.4,0,0,0,2.094,2,4.744,4.744,0,0,0,1.566.252,6.5,6.5,0,0,0,.864-.054,5.275,5.275,0,0,0,.738-.138,4.4,4.4,0,0,0,.612-.2,3.53,3.53,0,0,0,.492-.234.444.444,0,0,1,.2-.066.254.254,0,0,1,.246.192l.2.534a5.762,5.762,0,0,1-1.458.666,6.435,6.435,0,0,1-1.9.258,5.747,5.747,0,0,1-2.01-.342,4.645,4.645,0,0,1-1.6-.984,4.5,4.5,0,0,1-1.056-1.554A5.376,5.376,0,0,1,41.371,5.5a4.675,4.675,0,0,1,.636-2.382,4.868,4.868,0,0,1,.738-.978,4.762,4.762,0,0,1,.96-.762,4.678,4.678,0,0,1,1.14-.492,4.59,4.59,0,0,1,1.29-.18A4.674,4.674,0,0,1,47.767,1a4.19,4.19,0,0,1,1.386.816,3.877,3.877,0,0,1,.966,1.3,3.983,3.983,0,0,1,.36,1.722,3.718,3.718,0,0,1-.192,1.206,3,3,0,0,1-.528.972,2.509,2.509,0,0,1-.8.654A2.149,2.149,0,0,1,47.965,7.9Zm-2.484-.96a1.056,1.056,0,0,0,.312-.048A.857.857,0,0,0,46.1,6.72a1.328,1.328,0,0,0,.264-.33,1.966,1.966,0,0,0,.2-.51L47,4.188a2.143,2.143,0,0,0-.4-.036,1.535,1.535,0,0,0-.7.162,1.819,1.819,0,0,0-.564.438,2.182,2.182,0,0,0-.372.636,2.014,2.014,0,0,0-.138.738.981.981,0,0,0,.162.6A.586.586,0,0,0,45.481,6.936ZM53.2,2.844h1.176a.487.487,0,0,1,.282.078.335.335,0,0,1,.144.2l.882,3.288q.072.27.114.528t.09.516q.066-.258.138-.516t.162-.528l1.02-3.3a.372.372,0,0,1,.144-.2.419.419,0,0,1,.252-.078h.654a.449.449,0,0,1,.27.078.372.372,0,0,1,.144.2l1.008,3.36q.078.258.138.5t.126.486q.042-.258.09-.516t.132-.534l.912-3.288a.335.335,0,0,1,.144-.2.456.456,0,0,1,.264-.078h1.122L60.656,9H59.462q-.192,0-.276-.264l-1.11-3.558q-.054-.174-.1-.348T57.9,4.476q-.036.18-.078.36t-.1.354L56.606,8.736A.325.325,0,0,1,56.282,9H55.148Zm12.786-.1a2.965,2.965,0,0,1,1.068.186,2.321,2.321,0,0,1,.846.546,2.445,2.445,0,0,1,.552.876,3.284,3.284,0,0,1,.2,1.182,1.852,1.852,0,0,1-.018.282.406.406,0,0,1-.054.174.224.224,0,0,1-.1.09.5.5,0,0,1-.168.024H64.5a2.12,2.12,0,0,0,.51,1.392,1.59,1.59,0,0,0,1.176.444,2.007,2.007,0,0,0,.618-.084,2.76,2.76,0,0,0,.456-.186q.2-.1.342-.186a.59.59,0,0,1,.288-.084.321.321,0,0,1,.156.036.345.345,0,0,1,.114.1l.432.54a2.536,2.536,0,0,1-.552.486,3.281,3.281,0,0,1-.642.312,3.562,3.562,0,0,1-.678.162,4.79,4.79,0,0,1-.666.048,3.33,3.33,0,0,1-1.194-.21,2.726,2.726,0,0,1-.96-.63,2.993,2.993,0,0,1-.642-1.032,4.019,4.019,0,0,1-.234-1.428,3.383,3.383,0,0,1,.2-1.182,2.836,2.836,0,0,1,.582-.966,2.773,2.773,0,0,1,.93-.654A3.085,3.085,0,0,1,65.984,2.748Zm.03,1.062A1.37,1.37,0,0,0,65,4.176a1.805,1.805,0,0,0-.468,1.038h2.784a1.817,1.817,0,0,0-.078-.54,1.249,1.249,0,0,0-.24-.45,1.106,1.106,0,0,0-.408-.3A1.358,1.358,0,0,0,66.014,3.81ZM71.429.084V9H69.947V.084Zm3.258,0V9H73.2V.084Zm3.18,0V5.19h.276a.532.532,0,0,0,.234-.042.607.607,0,0,0,.18-.156l1.53-1.89a.838.838,0,0,1,.216-.186.555.555,0,0,1,.3-.072h1.356L80.044,5.13a3,3,0,0,1-.21.234,1.456,1.456,0,0,1-.234.18,1.106,1.106,0,0,1,.222.21q.1.12.192.258L82.066,9H80.728a.653.653,0,0,1-.294-.06.576.576,0,0,1-.216-.2L78.652,6.4a.478.478,0,0,0-.18-.18.667.667,0,0,0-.27-.042h-.336V9H76.384V.084ZM87.811,9h-.666a.748.748,0,0,1-.33-.06.419.419,0,0,1-.18-.258L86.5,8.244a5.232,5.232,0,0,1-.462.372,2.8,2.8,0,0,1-.462.264,2.372,2.372,0,0,1-.51.162,3.068,3.068,0,0,1-.6.054,2.428,2.428,0,0,1-.72-.1,1.618,1.618,0,0,1-.57-.318,1.448,1.448,0,0,1-.366-.522,1.852,1.852,0,0,1-.132-.726,1.434,1.434,0,0,1,.18-.684,1.718,1.718,0,0,1,.612-.612,3.837,3.837,0,0,1,1.134-.456,8.015,8.015,0,0,1,1.758-.2v-.36A1.335,1.335,0,0,0,86.1,4.2a.942.942,0,0,0-.756-.3,1.837,1.837,0,0,0-.6.084,2.28,2.28,0,0,0-.42.192q-.174.1-.324.186a.664.664,0,0,1-.33.084.429.429,0,0,1-.258-.078.614.614,0,0,1-.174-.192l-.27-.474a3.661,3.661,0,0,1,2.562-.972,2.417,2.417,0,0,1,.96.18,1.99,1.99,0,0,1,.72.492,2.042,2.042,0,0,1,.444.75,2.843,2.843,0,0,1,.156.96Zm-2.88-.924a1.966,1.966,0,0,0,.42-.042,1.535,1.535,0,0,0,.36-.126,1.882,1.882,0,0,0,.33-.2,3.078,3.078,0,0,0,.324-.294V6.372a7.825,7.825,0,0,0-1.086.114,2.8,2.8,0,0,0-.7.2.923.923,0,0,0-.378.294.664.664,0,0,0-.108.366.647.647,0,0,0,.228.558A1.015,1.015,0,0,0,84.931,8.076Zm7.991-4.032a.429.429,0,0,1-.126.138.348.348,0,0,1-.168.036.548.548,0,0,1-.234-.06q-.12-.06-.282-.132a2.343,2.343,0,0,0-.372-.138,1.735,1.735,0,0,0-.486-.06,1.139,1.139,0,0,0-.69.186.577.577,0,0,0-.252.486.48.48,0,0,0,.126.336,1.253,1.253,0,0,0,.342.234,3.747,3.747,0,0,0,.486.186q.27.078.552.174a5.482,5.482,0,0,1,.552.222,1.772,1.772,0,0,1,.48.312,1.359,1.359,0,0,1,.342.45,1.409,1.409,0,0,1,.132.636,2.065,2.065,0,0,1-.162.822,1.835,1.835,0,0,1-.474.648,2.284,2.284,0,0,1-.774.426,3.359,3.359,0,0,1-1.05.15,3.235,3.235,0,0,1-.624-.06,3.564,3.564,0,0,1-.582-.156,3.391,3.391,0,0,1-.516-.24,2.561,2.561,0,0,1-.414-.3l.342-.564a.484.484,0,0,1,.156-.156.437.437,0,0,1,.228-.054.465.465,0,0,1,.258.078q.126.078.288.168a2.6,2.6,0,0,0,.378.168,1.7,1.7,0,0,0,.558.078,1.477,1.477,0,0,0,.45-.06A.958.958,0,0,0,91.7,7.83a.587.587,0,0,0,.18-.234.7.7,0,0,0,.06-.282.491.491,0,0,0-.132-.354,1.081,1.081,0,0,0-.342-.24,2.954,2.954,0,0,0-.486-.18q-.27-.084-.558-.18a6,6,0,0,1-.558-.222,2.042,2.042,0,0,1-.486-.33,1.541,1.541,0,0,1-.342-.486,1.731,1.731,0,0,1-.126-.7,1.773,1.773,0,0,1,.15-.72,1.676,1.676,0,0,1,.438-.594,2.161,2.161,0,0,1,.726-.408,3,3,0,0,1,1.008-.156,3.077,3.077,0,0,1,1.158.21,2.615,2.615,0,0,1,.87.552ZM99.331,9h-.666a.748.748,0,0,1-.33-.06.419.419,0,0,1-.18-.258l-.132-.438a5.231,5.231,0,0,1-.462.372,2.8,2.8,0,0,1-.462.264,2.372,2.372,0,0,1-.51.162,3.068,3.068,0,0,1-.6.054,2.428,2.428,0,0,1-.72-.1,1.618,1.618,0,0,1-.57-.318,1.448,1.448,0,0,1-.366-.522,1.852,1.852,0,0,1-.132-.726,1.434,1.434,0,0,1,.18-.684,1.718,1.718,0,0,1,.612-.612,3.837,3.837,0,0,1,1.134-.456,8.015,8.015,0,0,1,1.758-.2v-.36a1.335,1.335,0,0,0-.264-.912.942.942,0,0,0-.756-.3,1.837,1.837,0,0,0-.6.084,2.28,2.28,0,0,0-.42.192q-.174.1-.324.186a.664.664,0,0,1-.33.084.429.429,0,0,1-.258-.078.614.614,0,0,1-.174-.192l-.27-.474a3.661,3.661,0,0,1,2.562-.972,2.417,2.417,0,0,1,.96.18,1.99,1.99,0,0,1,.72.492,2.042,2.042,0,0,1,.444.75,2.843,2.843,0,0,1,.156.96Zm-2.88-.924a1.966,1.966,0,0,0,.42-.042,1.535,1.535,0,0,0,.36-.126,1.882,1.882,0,0,0,.33-.2,3.078,3.078,0,0,0,.324-.294V6.372a7.825,7.825,0,0,0-1.086.114,2.8,2.8,0,0,0-.7.2.923.923,0,0,0-.378.294.664.664,0,0,0-.108.366.647.647,0,0,0,.228.558A1.015,1.015,0,0,0,96.451,8.076Zm3.983.108a.959.959,0,0,1,.066-.354.908.908,0,0,1,.192-.288.984.984,0,0,1,.294-.192.9.9,0,0,1,.36-.072.889.889,0,0,1,.354.072.882.882,0,0,1,.48.48.889.889,0,0,1,.072.354.9.9,0,0,1-.072.36.927.927,0,0,1-.192.282.832.832,0,0,1-.288.186.889.889,0,0,1-.354.072.98.98,0,0,1-.654-.258.927.927,0,0,1-.192-.282A.976.976,0,0,1,100.434,8.184ZM108.307,9h-.666a.748.748,0,0,1-.33-.06.419.419,0,0,1-.18-.258L107,8.244a5.231,5.231,0,0,1-.462.372,2.8,2.8,0,0,1-.462.264,2.372,2.372,0,0,1-.51.162,3.068,3.068,0,0,1-.6.054,2.428,2.428,0,0,1-.72-.1,1.618,1.618,0,0,1-.57-.318,1.448,1.448,0,0,1-.366-.522,1.852,1.852,0,0,1-.132-.726,1.433,1.433,0,0,1,.18-.684,1.718,1.718,0,0,1,.612-.612,3.837,3.837,0,0,1,1.134-.456,8.015,8.015,0,0,1,1.758-.2v-.36A1.335,1.335,0,0,0,106.6,4.2a.942.942,0,0,0-.756-.3,1.837,1.837,0,0,0-.6.084,2.281,2.281,0,0,0-.42.192q-.174.1-.324.186a.664.664,0,0,1-.33.084.429.429,0,0,1-.258-.078.614.614,0,0,1-.174-.192l-.27-.474a3.661,3.661,0,0,1,2.562-.972,2.417,2.417,0,0,1,.96.18,1.99,1.99,0,0,1,.72.492,2.042,2.042,0,0,1,.444.75,2.843,2.843,0,0,1,.156.96Zm-2.88-.924a1.966,1.966,0,0,0,.42-.042,1.535,1.535,0,0,0,.36-.126,1.883,1.883,0,0,0,.33-.2,3.078,3.078,0,0,0,.324-.294V6.372a7.825,7.825,0,0,0-1.086.114,2.8,2.8,0,0,0-.7.2.923.923,0,0,0-.378.294.664.664,0,0,0-.108.366.647.647,0,0,0,.228.558A1.015,1.015,0,0,0,105.427,8.076Zm4.338,2.934V2.844h.906a.443.443,0,0,1,.246.066.308.308,0,0,1,.132.2l.12.57a3.124,3.124,0,0,1,.852-.69,2.339,2.339,0,0,1,1.134-.264,2,2,0,0,1,.918.21,2.02,2.02,0,0,1,.72.612,2.813,2.813,0,0,1,.468.984,4.835,4.835,0,0,1,.168,1.338,4.217,4.217,0,0,1-.186,1.278,3.1,3.1,0,0,1-.534,1.02,2.373,2.373,0,0,1-1.926.918,2.262,2.262,0,0,1-.888-.156,2.226,2.226,0,0,1-.648-.444v2.52Zm2.88-7.11a1.512,1.512,0,0,0-.792.2,2.254,2.254,0,0,0-.606.546V7.4a1.446,1.446,0,0,0,.546.438,1.712,1.712,0,0,0,.642.12,1.416,1.416,0,0,0,.606-.126,1.154,1.154,0,0,0,.462-.384A1.866,1.866,0,0,0,113.8,6.8a3.756,3.756,0,0,0,.1-.93,3.943,3.943,0,0,0-.09-.912,1.731,1.731,0,0,0-.246-.612.978.978,0,0,0-.4-.342A1.206,1.206,0,0,0,112.645,3.9Zm3.905,7.11V2.844h.906a.443.443,0,0,1,.246.066.308.308,0,0,1,.132.2l.12.57a3.124,3.124,0,0,1,.852-.69,2.339,2.339,0,0,1,1.134-.264,2,2,0,0,1,.918.21,2.021,2.021,0,0,1,.72.612,2.813,2.813,0,0,1,.468.984,4.835,4.835,0,0,1,.168,1.338,4.217,4.217,0,0,1-.186,1.278,3.1,3.1,0,0,1-.534,1.02,2.373,2.373,0,0,1-1.926.918,2.262,2.262,0,0,1-.888-.156,2.226,2.226,0,0,1-.648-.444v2.52Zm2.88-7.11a1.512,1.512,0,0,0-.792.2,2.254,2.254,0,0,0-.606.546V7.4a1.446,1.446,0,0,0,.546.438,1.712,1.712,0,0,0,.642.12,1.416,1.416,0,0,0,.606-.126,1.154,1.154,0,0,0,.462-.384,1.866,1.866,0,0,0,.294-.648,3.756,3.756,0,0,0,.1-.93,3.943,3.943,0,0,0-.09-.912,1.73,1.73,0,0,0-.246-.612.978.978,0,0,0-.4-.342A1.206,1.206,0,0,0,119.43,3.9Z" transform="translate(3545.784 1695.916)" fill="#fff"/></g></svg>