<svg width="33" height="33" viewBox="0 0 33 33" fill="none" xmlns="http://www.w3.org/2000/svg">
<path  d="M32.9137 12.4688C32.6964 11.7715 32.1037 11.2779 31.4053 11.2119L21.8792 10.3095L18.1144 1.11187C17.8364 0.436129 17.204 0 16.5 0C15.7961 0 15.1634 0.436129 14.8872 1.11187L11.1224 10.3095L1.59476 11.2119C0.896335 11.2792 0.304918 11.7729 0.0863784 12.4688C-0.130902 13.1661 0.0697613 13.9309 0.597983 14.4143L7.79897 21.0033L5.67576 30.7616C5.52041 31.4791 5.78729 32.221 6.35781 32.6514C6.66447 32.8839 7.02476 33 7.38631 33C7.697 33 8.00794 32.9138 8.28565 32.7404L16.5 27.6151L24.7129 32.7404C25.3154 33.1161 26.073 33.0817 26.6422 32.6514C27.2127 32.221 27.4796 31.4791 27.3243 30.7616L25.2011 21.0033L32.4021 14.4143C32.93 13.9309 33.1309 13.1677 32.9137 12.4688Z" fill="#35C0ED"/>
</svg>
