<svg xmlns="http://www.w3.org/2000/svg" width="18" height="36" viewBox="0 0 18 36"><g transform="translate(-117.5)"><path d="M158.116,172.5a.574.574,0,0,0-.574.574l-.005,13.787a.574.574,0,0,0,.574.575h10.718a.574.574,0,0,0,.574-.574l.006-11.489a.574.574,0,0,0-.574-.575h0a.574.574,0,0,0-.574.574l-.005,10.915h-9.569l0-12.638h10.144a.574.574,0,1,0,0-1.149Z" transform="translate(-36.969 -159.287)"/><path d="M130.521,5.574v-5A.574.574,0,0,0,129.947,0h-6.894a.574.574,0,0,0-.574.574v5a9.018,9.018,0,0,0-4.979,8.053v19.5A2.876,2.876,0,0,0,120.372,36h12.255a2.876,2.876,0,0,0,2.872-2.872v-19.5A9.018,9.018,0,0,0,130.521,5.574Zm-1.149-4.425V5.362h-5.745V1.149Zm4.979,31.979a1.725,1.725,0,0,1-1.723,1.723H120.372a1.725,1.725,0,0,1-1.723-1.723v-19.5a7.867,7.867,0,0,1,4.53-7.116h6.643a7.867,7.867,0,0,1,4.53,7.116v19.5Z"/></g></svg>