<svg width="22" height="22" viewBox="0 0 22 22" fill="none" xmlns="http://www.w3.org/2000/svg">
<path d="M13.1966 1.09685C14.5082 1.5299 15.9595 2.37673 17.2834 3.4813C19.7957 5.57775 21.7707 8.61614 20.7306 10.3332C20.6982 10.3954 20.6594 10.4555 20.6126 10.5117L13.65 18.8727C11.1456 21.859 6.67268 22.2571 3.67979 19.76C2.22996 18.5503 1.33945 16.8498 1.17229 14.9716C1.00514 13.0934 1.58135 11.2623 2.79232 9.81811L9.70015 1.52318C9.70323 1.51908 9.70632 1.51498 9.70982 1.51122C9.7126 1.50791 9.71575 1.50457 9.71849 1.50089L9.75244 1.45999C9.79888 1.40421 9.85056 1.35561 9.90544 1.31285C10.3846 0.895265 11.3545 0.488331 13.1966 1.09685ZM16.0148 4.99372C14.9727 4.12424 13.8362 3.43495 12.8153 3.05331C11.8923 2.70809 11.3939 2.74097 11.2401 2.78488C11.1917 3.24869 11.9776 4.99797 14.3506 6.97789C16.7236 8.95781 18.5902 9.41952 19.0379 9.29091C19.0537 9.13226 18.9981 8.63716 18.4948 7.79166C17.9375 6.85685 17.0569 5.86319 16.0148 4.99372ZM4.31049 11.0802C2.50544 13.2323 2.7916 16.4477 4.94832 18.2472C7.10545 20.047 10.3293 19.7601 12.1323 17.6105L17.5773 11.0718C16.134 10.6596 14.4863 9.66194 13.0816 8.49034C11.7482 7.37783 10.6452 6.13003 9.97532 4.97722C9.8893 4.82954 9.8154 4.68882 9.74717 4.55142L4.31049 11.0802Z" fill="#7380B4"/>
<path d="M11.0731 14.7035C11.039 14.5157 10.8599 14.4105 10.672 14.4678L9.06832 14.9634L9.33442 12.1685C9.99113 12.3444 10.7629 12.0826 11.2523 11.4479C11.879 10.6351 11.806 9.52424 11.0895 8.97176L10.0499 8.17014C9.90629 8.05936 9.68835 8.1016 9.56269 8.26457L6.37985 12.3922C6.25419 12.5552 6.26875 12.7767 6.4124 12.8875C6.55606 12.9983 6.774 12.956 6.89966 12.7931L8.03638 11.3189L8.6824 11.817L8.36201 15.1817L6.31945 15.8129C6.13174 15.871 6.00702 16.0706 6.04037 16.2588C6.05481 16.3393 6.09597 16.4045 6.15282 16.4483C6.2292 16.5072 6.33389 16.5274 6.44137 16.4945L8.29151 15.9228L8.11607 17.7652C8.10465 17.885 8.15127 17.9893 8.23251 18.052C8.28479 18.0923 8.35136 18.1152 8.42569 18.1132C8.61528 18.1088 8.7845 17.9455 8.80313 17.7487L8.99779 15.7045L10.794 15.1494C10.9817 15.0913 11.1064 14.8918 11.0731 14.7035ZM8.49111 10.7292L9.85518 8.96018L10.6349 9.56139C11.0648 9.89292 11.1086 10.5594 10.7325 11.0471C10.3564 11.5349 9.70074 11.6619 9.27079 11.3304L8.49111 10.7292Z" fill="#7380B4"/>
</svg>
