<svg width="26" height="26" viewBox="0 0 26 26" fill="none" xmlns="http://www.w3.org/2000/svg">
<path d="M13.3173 2.22036C14.7204 2.45591 16.331 3.0916 17.8527 4.01023C20.7404 5.75385 23.2303 8.54273 22.4433 10.4577C22.4202 10.5263 22.3902 10.5937 22.3515 10.6583L16.5884 20.2816C14.512 23.7216 10.0237 24.8307 6.58359 22.754C4.91714 21.7479 3.74221 20.1532 3.27525 18.2636C2.8083 16.374 3.10518 14.4156 4.10911 12.7521L9.82694 3.20486C9.82943 3.20019 9.83192 3.19552 9.83489 3.19114C9.83719 3.18733 9.83988 3.18343 9.84208 3.17923L9.87016 3.13218C9.9086 3.06797 9.9535 3.01028 10.0026 2.95803C10.4241 2.45675 11.3468 1.88919 13.3173 2.22036ZM16.8009 5.75241C15.6031 5.0293 14.3377 4.50483 13.2385 4.27602C12.2448 4.06896 11.7429 4.18084 11.5934 4.2498C11.6173 4.73054 12.6935 6.39138 15.4211 8.03801C18.1487 9.68463 20.121 9.8622 20.5562 9.66063C20.5472 9.49632 20.4124 9.00001 19.7666 8.21667C19.0518 7.35071 17.9987 6.47552 16.8009 5.75241ZM5.85339 13.8009C4.35685 16.2799 5.15628 19.5149 7.63525 21.0114C10.1147 22.5082 13.3497 21.7088 14.8445 19.2327L19.3515 11.7068C17.8177 11.5133 15.9834 10.7546 14.369 9.78028C12.8364 8.85504 11.5168 7.75559 10.6529 6.68495C10.542 6.54783 10.4446 6.4159 10.3534 6.28647L5.85339 13.8009Z" fill="#87D799"/>
<path d="M9.36032 10.8496L10.0671 10.1581L10.3914 10.6412C10.6759 11.065 10.9932 11.4967 11.3367 11.9274C11.8854 11.5358 12.5301 11.2143 13.2571 10.9701L14.1945 10.6553L14.2761 11.2314C14.4062 12.1497 14.6134 13.0974 14.9095 14.1287C15.1432 14.9427 15.0987 15.8267 14.7841 16.6179C14.4597 17.4336 13.8851 18.0964 13.1224 18.5346L11.0332 19.7349L10.0856 19.0881C9.25714 18.5228 8.61106 17.8956 8.16529 17.2241C7.74266 16.5874 7.49697 15.9081 7.43504 15.2049C7.30587 13.7374 7.98962 12.1907 9.36032 10.8496ZM10.1794 11.2918C10.0685 12.089 10.0349 12.9322 10.0803 13.8075C10.1269 14.7072 10.2563 15.6424 10.4648 16.587C10.6822 17.5724 10.942 18.3642 11.1124 18.8339L12.0831 17.4116C12.5091 16.7875 12.7056 16.0602 12.6513 15.3083C12.5987 14.5785 12.3027 13.8782 11.8177 13.3364C11.621 13.1166 11.4305 12.8965 11.249 12.6796L11.2478 12.6805L11.0838 12.4798C11.0822 12.4779 11.0806 12.476 11.0791 12.4741C10.7572 12.0802 10.4559 11.6839 10.1794 11.2918ZM14.2787 16.417C14.5491 15.737 14.5875 14.9777 14.3868 14.2788C14.0912 13.2496 13.882 12.3001 13.7479 11.379L13.4303 11.4857C12.7673 11.7084 12.1806 11.9984 11.6819 12.3495C11.8548 12.5557 12.036 12.7648 12.223 12.9737C12.7878 13.6047 13.1325 14.42 13.1938 15.2692C13.2569 16.1448 13.0282 16.9917 12.5323 17.7182L11.9393 18.5871L12.8515 18.0631C13.5066 17.6867 14.0002 17.1174 14.2787 16.417ZM7.97681 15.1573C8.03067 15.769 8.24651 16.3632 8.61838 16.9233C9.02517 17.5361 9.62194 18.1133 10.3921 18.6389L10.4902 18.7059C10.3248 18.2191 10.118 17.5367 9.93653 16.7171C9.72058 15.7417 9.58635 14.775 9.53759 13.8437C9.49247 12.9821 9.52102 12.1491 9.62197 11.3569C8.44916 12.5527 7.86586 13.8969 7.97681 15.1573Z" fill="#87D799"/>
</svg>
