<svg width="30" height="30" viewBox="0 0 30 30" fill="none" xmlns="http://www.w3.org/2000/svg">
<path d="M28.8528 10.6667C27.69 10.6667 26.6266 10.7557 25.6317 10.9166C25.3581 8.49964 24.6776 6.11083 23.5616 3.80842C23.4165 3.50867 23.1072 3.37041 22.8338 3.48186C21.1655 4.13592 19.6345 5.05729 18.2558 6.1973C17.3997 4.74733 16.3658 3.38226 15.1266 2.16717C14.8988 1.94428 14.5679 1.94428 14.34 2.16717C13.1008 3.38233 12.0669 4.74733 11.2109 6.1973C9.83214 5.05716 8.3012 4.13592 6.63282 3.48186C6.35703 3.37116 6.05011 3.50935 5.90502 3.80842C4.78891 6.11131 4.10847 8.49978 3.83481 10.9166C2.83997 10.7557 1.77663 10.6667 0.613908 10.6667C0.274581 10.6667 0 10.9897 0 11.389C0 16.4516 1.28053 20.4189 3.91475 23.5179C6.44342 26.4921 10.0836 28 14.7333 28C19.3831 28 23.0233 26.4921 25.5519 23.5179C28.1861 20.4188 29.4667 16.4516 29.4667 11.389C29.4667 10.9897 29.1921 10.6667 28.8528 10.6667ZM22.7415 5.04978C23.6444 7.04182 24.1974 9.09304 24.4255 11.1616C23.012 11.5108 21.7603 12.0458 20.6443 12.7926C20.3542 10.93 19.7686 9.11748 18.9198 7.40893C20.0777 6.44436 21.3548 5.64615 22.7415 5.04978ZM6.72519 5.04978C8.11185 5.64622 9.38893 6.44443 10.5469 7.40887C9.69816 9.11741 9.11257 10.93 8.82239 12.7926C7.70628 12.0458 6.45475 11.5106 5.0411 11.1615C5.26907 9.09345 5.82214 7.04209 6.72519 5.04978ZM4.78281 22.4966C2.48429 19.7918 1.34885 16.4805 1.23737 12.1197C4.35094 12.2021 6.71995 12.9252 8.63535 14.3528C8.59149 15.0089 8.58245 15.6682 8.61244 16.3281C8.79183 20.2721 10.2854 23.7886 12.8398 26.4501C9.43405 26.0986 6.72444 24.7803 4.78281 22.4966ZM14.7333 26.4011C11.7574 23.9107 10.0237 20.3236 9.83778 16.2505C9.63157 11.688 11.4097 7.13532 14.7333 3.67442C18.057 7.13532 19.8351 11.688 19.6289 16.2505C19.443 20.3236 17.7092 23.9107 14.7333 26.4011ZM24.6839 22.4966C22.7422 24.7803 20.0326 26.0986 16.6269 26.45C19.1813 23.7885 20.6748 20.272 20.8542 16.3281C20.8842 15.6681 20.8751 15.0088 20.8313 14.3527C22.7467 12.9251 25.1157 12.2021 28.2293 12.1196C28.1178 16.4805 26.9823 19.7918 24.6839 22.4966Z" fill="#008BC7"/>
</svg>
