<svg xmlns="http://www.w3.org/2000/svg" width="62" height="62" viewBox="0 0 62 62" fill="none"><path d="M31 30.875C38.425 30.875 44.5 24.0125 44.5 15.6875C44.5 7.3625 38.425 0.5 31 0.5C23.575 0.5 17.5 7.3625 17.5 15.6875C17.5 24.0125 23.575 30.875 31 30.875ZM31 2.75C37.1875 2.75 42.25 8.6 42.25 15.6875C42.25 22.775 37.1875 28.625 31 28.625C24.8125 28.625 19.75 22.775 19.75 15.6875C19.75 8.6 24.8125 2.75 31 2.75ZM45.2875 35.825C44.95 35.6 40.5625 34.025 36.5125 33.4625C36.2875 33.4625 35.95 33.4625 35.725 33.6875L31 37.2875L26.275 33.6875C26.1625 33.575 26.05 33.575 25.9375 33.4625C25.825 33.4625 25.6 33.4625 25.4875 33.4625C21.55 34.025 17.5 35.375 16.7125 35.825C0.849999 42.4625 0.625 59.9 0.625 60.125C0.625 60.8 1.075 61.25 1.75 61.25H60.25C60.925 61.25 61.375 60.8 61.375 60.125C61.375 59.9 61.15 42.4625 45.2875 35.825ZM44.5 45.5C45.7375 45.5 46.75 46.5125 46.75 47.75C46.75 48.9875 45.7375 50 44.5 50C43.2625 50 42.25 48.9875 42.25 47.75C42.25 46.5125 43.2625 45.5 44.5 45.5ZM5.6875 48.9875C8.05 44.15 11.65 40.6625 16.375 38.4125V43.475C11.9875 44.2625 10.75 49.4375 10.75 52.3625C10.75 53.0375 11.2 53.4875 11.875 53.4875H14.125C14.8 53.4875 15.25 53.0375 15.25 52.3625C15.25 51.6875 14.8 51.2375 14.125 51.2375H13.1125C13.3375 49.325 14.2375 45.6125 17.5 45.6125C20.7625 45.6125 21.6625 49.325 21.8875 51.2375H20.875C20.2 51.2375 19.75 51.6875 19.75 52.3625C19.75 53.0375 20.2 53.4875 20.875 53.4875H23.125C23.8 53.4875 24.25 53.0375 24.25 52.3625C24.25 49.4375 23.0125 44.2625 18.625 43.475V37.5125C20.65 36.725 22.9 36.1625 25.2625 35.9375L29.875 39.425V59H2.9875C3.1 57.0875 3.6625 53.15 5.6875 48.9875V48.9875ZM32.125 59V39.3125L36.7375 35.825C39.2125 36.1625 41.4625 36.725 43.375 37.5125V43.475C41.4625 43.925 40 45.725 40 47.8625C40 50.3375 42.025 52.3625 44.5 52.3625C46.975 52.3625 49 50.3375 49 47.8625C49 45.725 47.5375 44.0375 45.625 43.475V38.4125C56.9875 43.8125 58.7875 55.2875 59.125 59H32.125Z" fill="#7380B4"></path></svg>