<svg xmlns="http://www.w3.org/2000/svg" width="72" height="72" viewBox="0 0 72 72" fill="none"><g clip-path="url(#clip0_5116_3767)"><path d="M63.2677 35.3208C56.9643 33.2301 50.1341 34.8462 45.4424 39.5374C45.1611 39.8186 44.904 40.096 44.6662 40.3712C41.9894 34.699 37.4328 30.5692 32.6384 29.5189C32.1868 29.4201 31.7226 29.6228 31.4881 30.021C28.9008 34.4167 28.925 40.8843 31.5513 46.901C33.9699 52.4419 36.6912 52.9451 40.1371 53.5818C40.5441 53.657 40.9616 53.7345 41.395 53.8224L42.4579 56.2569C42.5991 56.581 42.8914 56.8145 43.2391 56.8799C43.305 56.8925 43.3715 56.8985 43.4379 56.8985C43.7186 56.8985 43.9916 56.7881 44.1938 56.5854L45.9917 54.7875C46.5663 54.9858 47.115 55.1847 47.6506 55.3786C49.7496 56.1394 51.6343 56.8222 53.5173 56.8222C55.5059 56.8222 57.4933 56.0603 59.7296 53.8246C64.4207 49.1328 66.0368 42.3026 63.9461 35.9992C63.8395 35.679 63.588 35.4274 63.2677 35.3208V35.3208ZM33.5112 46.0451C31.3304 41.0496 31.136 35.5719 32.9542 31.8112C36.9477 33.0351 40.832 36.9023 43.0128 41.8978C44.9425 46.3198 44.0328 47.8853 42.3184 50.5924L36.9752 38.3498C36.739 37.8087 36.1089 37.5615 35.5673 37.7977C35.0262 38.0339 34.7785 38.6645 35.0153 39.2056L40.3585 51.4477C37.2081 50.8643 35.4415 50.4671 33.5112 46.0451V46.0451ZM43.7906 53.9641L43.355 52.9671C43.5742 52.6073 43.7906 52.265 44.0015 51.9311C44.1592 52.3672 44.319 52.8122 44.4789 53.2752L43.7906 53.9641ZM58.2173 52.3123C54.8253 55.7038 52.6714 54.9232 48.379 53.3681C48.1456 53.2829 47.9083 53.1972 47.6682 53.111L57.3499 43.4293C57.7674 43.0118 57.7674 42.3351 57.3499 41.9176C56.9319 41.4995 56.2551 41.4995 55.8376 41.9176L46.1554 51.5993C46.0708 51.3631 45.9868 51.1296 45.9033 50.8994C45.7291 50.4193 45.5627 49.9596 45.4105 49.5174C46.2828 47.7052 46.6289 45.7276 45.5989 42.658C45.9505 42.1378 46.396 41.6083 46.9546 41.0496C50.9432 37.0616 56.6935 35.607 62.0779 37.1891C63.6599 42.574 62.2053 48.3242 58.2173 52.3123Z" fill="#7380B4"></path><path d="M68.2596 39.5787C68.8501 39.5787 69.3285 39.1003 69.3285 38.5097V31.5032C69.3285 25.72 65.2477 20.8745 59.815 19.6875V17.0046C62.0133 16.5152 63.6618 14.5508 63.6618 12.2074V4.91582C63.6618 2.20495 61.4563 0 58.746 0H36.1235C35.533 0 35.0546 0.479003 35.0546 1.06952C35.0546 1.66003 35.533 2.13848 36.1235 2.13848H58.746C60.2775 2.13848 61.5228 3.38433 61.5228 4.91582V12.2074C61.5228 13.7384 60.2775 14.9842 58.746 14.9842H31.5812C30.0498 14.9842 28.8039 13.7384 28.8039 12.2074V4.91582C28.8039 3.38433 30.0498 2.13848 31.5812 2.13848H31.846C32.4365 2.13848 32.9155 1.66003 32.9155 1.06952C32.9155 0.479003 32.4365 0 31.846 0H31.5812C28.8704 0 26.6654 2.20495 26.6654 4.91582V12.2074C26.6654 14.5508 28.3139 16.5152 30.5117 17.0046V19.6875C25.0784 20.874 20.9976 25.72 20.9976 31.5032V48.9187C20.2357 48.6649 19.4304 48.5304 18.6037 48.5304C16.5904 48.5304 14.698 49.3148 13.2742 50.7381L4.87957 59.1327C3.45575 60.5565 2.67188 62.4495 2.67188 64.4627C2.67188 66.4759 3.45575 68.3689 4.87957 69.7922C6.3034 71.216 8.19579 71.9999 10.209 71.9999C11.4697 71.9999 12.6826 71.6928 13.7631 71.1133C14.8513 71.6944 16.0636 71.9999 17.3089 71.9999H29.1813C29.7712 71.9999 30.3508 71.9306 30.9111 71.7994C31.6285 71.9301 32.3613 71.9999 33.0952 71.9999H57.2315C63.9019 71.9999 69.3291 66.5737 69.3291 59.9039V42.7873C69.3291 42.1968 68.8501 41.7178 68.2596 41.7178C67.6691 41.7178 67.1901 42.1968 67.1901 42.7873V59.9039C67.1901 65.3943 62.723 69.8614 57.2315 69.8614H34.4371C34.4608 69.8377 34.4855 69.8158 34.5091 69.7922C35.9335 68.37 36.7179 66.4776 36.7179 64.4632C36.7179 60.3071 33.3369 56.9255 29.1813 56.9255H26.087C26.3375 54.7206 25.6212 52.4256 23.9337 50.7381C23.6821 50.4865 23.4151 50.2563 23.1361 50.0454V31.5032C23.1361 26.0123 27.6037 21.5458 33.0946 21.5458H57.2315C62.7225 21.5458 67.1901 26.0123 67.1901 31.5032V38.5097C67.1901 39.1003 67.6691 39.5787 68.2596 39.5787V39.5787ZM6.39184 68.2799C5.37176 67.2604 4.81036 65.9047 4.81036 64.4627C4.81036 63.0207 5.37176 61.665 6.39184 60.645L9.83275 57.204L17.4677 64.8384L14.0268 68.2799C11.9218 70.3849 8.49682 70.3849 6.39184 68.2799ZM15.7121 69.6191L22.1753 63.1559V69.8614H17.3089C16.7629 69.8614 16.2257 69.7779 15.7121 69.6191V69.6191ZM29.1813 59.064C32.1575 59.064 34.5794 61.4865 34.5794 64.4632C34.5794 65.9058 34.018 67.2609 32.9974 68.2799C31.9778 69.2994 30.6227 69.8614 29.1813 69.8614H24.3138V60.9844C24.8214 60.3961 25.2224 59.7479 25.5179 59.064H29.1813ZM22.4214 59.8853L18.9799 63.3267L11.345 55.6918L14.7865 52.2503C15.806 51.2308 17.1617 50.6694 18.6037 50.6694C20.0462 50.6694 21.4019 51.2308 22.4214 52.2509C24.5264 54.3553 24.5264 57.7803 22.4214 59.8853V59.8853ZM33.0946 19.4073C32.9457 19.4073 32.798 19.4128 32.6502 19.4183V17.1233H57.6765V19.4183C57.5287 19.4128 57.3804 19.4073 57.2315 19.4073H33.0946Z" fill="#7380B4"></path></g><defs><clipPath id="clip0_5116_3767"><rect width="72" height="72" fill="white"></rect></clipPath></defs></svg>