<svg xmlns="http://www.w3.org/2000/svg" width="72" height="72" viewBox="0 0 72 72" fill="none"><path d="M22.4337 54.1274L25.3528 51.2084C25.773 50.7881 25.773 50.107 25.3528 49.6873C24.9331 49.2671 24.2514 49.2671 23.8317 49.6873L20.9127 52.6064C19.0983 54.4202 16.3044 54.9377 13.96 53.8934C13.6117 53.738 13.2074 53.7792 12.8965 54.0011C12.5861 54.223 12.4169 54.5927 12.451 54.9723C12.5306 55.8655 12.2137 56.7405 11.5809 57.3734C11.0123 57.9424 10.2559 58.2556 9.45118 58.2556C8.64643 58.2556 7.89002 57.9424 7.32093 57.3734C6.14649 56.1989 6.14649 54.2878 7.32093 53.1134C7.95374 52.4806 8.82825 52.1636 9.72199 52.2438C10.1005 52.2779 10.4718 52.1082 10.6937 51.7978C10.9151 51.4874 10.9563 51.0831 10.8008 50.7343C9.75715 48.3904 10.2741 45.596 12.0884 43.7822L18.5506 37.3195H36.199L27.0831 46.4359C26.6629 46.8556 26.6629 47.5373 27.0831 47.957C27.5034 48.3772 28.1845 48.3772 28.6047 47.957L39.557 37.0047L41.9982 34.5635L43.9323 36.4971C44.825 37.3903 45.9983 37.8369 47.1711 37.8369C48.3439 37.8369 49.5172 37.3903 50.4099 36.4971C52.1962 34.7113 52.1962 31.8054 50.4099 30.0196L48.7042 28.314L62.1422 14.876C63.7885 13.2297 64.6943 11.0418 64.6943 8.71381C64.6943 6.38635 63.7879 4.19788 62.1422 2.55212C60.4964 0.906372 58.3079 0 55.9805 0C53.6525 0 51.4645 0.906372 49.8182 2.55212L46.2982 6.07214C45.8786 6.49237 45.8786 7.17352 46.2982 7.59375C46.7185 8.01398 47.3996 8.01398 47.8198 7.59375L51.3399 4.07373C52.5797 2.83447 54.2276 2.15167 55.9805 2.15167C57.7333 2.15167 59.3813 2.83447 60.6206 4.07373C61.8598 5.31354 62.5426 6.96149 62.5426 8.71436C62.5426 10.4672 61.8604 12.1152 60.6206 13.3544L47.1826 26.7924L37.9019 17.5117L44.5684 10.8452C44.9887 10.4255 44.9887 9.74377 44.5684 9.3241C44.1482 8.90387 43.4671 8.90387 43.0468 9.3241L36.3803 15.9901L34.6752 14.2844C32.8889 12.4986 29.983 12.4986 28.1971 14.2844C26.4113 16.0703 26.4113 18.9767 28.1971 20.7625L30.1313 22.6961L10.5668 42.2606C8.48328 44.3441 7.67139 47.3884 8.35364 50.1965C7.39673 50.4042 6.50904 50.8821 5.79987 51.5918C4.0047 53.387 3.81134 56.1846 5.21705 58.1973C3.57679 62.5633 2.27381 67.2792 4.17884 70.0521C5.06708 71.3447 6.51123 72 8.47229 72C9.84174 72 10.9014 71.5496 11.6204 70.6619C13.2865 68.6058 12.4944 64.8693 11.8577 61.8668C11.7122 61.1807 11.5721 60.5193 11.4897 59.9897C12.0841 59.7343 12.6312 59.3663 13.1025 58.895C13.8122 58.1847 14.2901 57.2975 14.4977 56.3406C17.3059 57.0223 20.3502 56.211 22.4337 54.1274V54.1274ZM29.7188 15.806C30.6658 14.859 32.2066 14.859 33.1536 15.806L48.8883 31.5406C49.8353 32.4882 49.8353 34.0285 48.8883 34.9755C47.9412 35.9231 46.4004 35.9231 45.4534 34.9755L29.7188 19.2409C28.7717 18.2939 28.7717 16.7531 29.7188 15.806V15.806ZM40.4766 33.0419L38.3507 35.1678H20.7023L31.6524 24.2177L40.4766 33.0419ZM9.94886 69.3073C9.84064 69.4413 9.5105 69.8483 8.47229 69.8483C7.24567 69.8483 6.4217 69.5165 5.95258 68.8337C4.61499 66.8864 5.98664 62.3826 6.93476 59.7535C7.67469 60.1677 8.5091 60.3935 9.37867 60.4056C9.46985 60.9725 9.60499 61.6146 9.75275 62.3128C10.2372 64.5969 10.9689 68.0482 9.94886 69.3073Z" fill="#7380B4"></path><path d="M68.1677 49.6333C67.5854 49.5196 67.0196 49.9009 66.9064 50.4842C65.5936 57.232 61.1298 62.5406 54.9659 64.6846C49.6656 66.5281 44.2026 65.6564 40.3525 62.3522C36.0777 58.6839 31.3799 57.5935 26.3894 59.1107C22.1558 60.3977 18.5655 63.369 16.2995 65.6355C15.8793 66.0557 15.8793 66.7369 16.2995 67.1571C16.7198 67.5768 17.4009 67.5768 17.8212 67.1571C19.9135 65.0642 23.2072 62.3269 27.0151 61.169C31.2552 59.8797 35.2713 60.8273 38.9512 63.9853C41.8697 66.4891 45.5704 67.7883 49.4783 67.7883C51.514 67.7883 53.6064 67.4356 55.6729 66.7165C62.5685 64.3182 67.5579 58.4032 69.0185 50.8946C69.1317 50.3117 68.751 49.7471 68.1677 49.6333V49.6333Z" fill="#7380B4"></path><path d="M58.9906 50.5113C57.8282 53.3447 54.4714 55.9792 51.1815 56.6395C49.5852 56.9597 47.3039 56.9647 45.5043 55.1651C39.4146 49.0748 31.7637 51.2468 28.2761 54.7345C27.8559 55.1547 27.8559 55.8358 28.2761 56.2561C28.6963 56.6763 29.3775 56.6763 29.7977 56.2561C30.9623 55.0915 33.1766 53.7594 35.8973 53.5144C37.9534 53.3293 41.0257 53.7292 43.9827 56.6862C45.473 58.177 47.4269 58.9532 49.6154 58.9532C50.2603 58.9532 50.9255 58.8856 51.605 58.7494C55.6035 57.9469 59.547 54.8256 60.9813 51.3281C61.2065 50.7783 60.9434 50.1499 60.3941 49.9246C59.8442 49.6989 59.2158 49.962 58.9906 50.5113V50.5113Z" fill="#7380B4"></path></svg>