<svg width="32" height="32" viewBox="0 0 32 32" fill="none" xmlns="http://www.w3.org/2000/svg">
<path d="M31.2811 6.73304C30.4118 8.01571 29.3684 9.10238 28.1511 9.99304C28.1511 10.0797 28.1621 10.2157 28.1841 10.401C28.2061 10.5864 28.2171 10.7224 28.2171 10.809C28.2171 12.5044 27.9671 14.1997 27.4671 15.895C26.9671 17.5904 26.2064 19.2097 25.1851 20.753C24.1638 22.2964 22.9521 23.6657 21.5501 24.861C20.1481 26.0564 18.4638 27.0127 16.4971 27.73C14.5304 28.4474 12.4168 28.806 10.1561 28.806C6.63477 28.806 3.4181 27.8607 0.506104 25.97C1.11477 26.0134 1.61477 26.035 2.0061 26.035C4.9401 26.035 7.5591 25.144 9.8631 23.362C8.49377 23.34 7.2711 22.9217 6.1951 22.107C5.1191 21.2924 4.36377 20.2437 3.9291 18.961C4.29844 19.0477 4.70044 19.091 5.1351 19.091C5.72177 19.091 6.2761 19.004 6.7981 18.83C5.3421 18.526 4.13577 17.798 3.1791 16.646C2.22244 15.494 1.7441 14.1684 1.7441 12.669V12.604C2.5701 13.0387 3.51544 13.2777 4.5801 13.321C3.73277 12.7557 3.0591 12.0114 2.5591 11.088C2.0591 10.1647 1.8091 9.17038 1.8091 8.10504C1.8091 7.01838 2.08077 5.95338 2.6241 4.91004C4.21077 6.88804 6.12877 8.44738 8.3781 9.58804C10.6274 10.7287 13.0671 11.3644 15.6971 11.495C15.5451 10.9517 15.4691 10.4737 15.4691 10.061C15.4691 8.32238 16.0884 6.83904 17.3271 5.61104C18.5658 4.38304 20.0764 3.76904 21.8591 3.76904C22.7284 3.76904 23.5651 3.94304 24.3691 4.29104C25.1731 4.63904 25.8578 5.12804 26.4231 5.75804C27.8578 5.47538 29.1944 4.96471 30.4331 4.22604C29.9764 5.70404 29.0528 6.86671 27.6621 7.71404C28.9881 7.54004 30.1944 7.21404 31.2811 6.73604V6.73304Z" fill="#444444"/>
</svg>
