<svg xmlns="http://www.w3.org/2000/svg" xmlns:xlink="http://www.w3.org/1999/xlink" width="72" height="72" viewBox="0 0 72 72"><defs><linearGradient id="a" x1="1" y1="-0.5" x2="-0.402" y2="-0.052" gradientUnits="objectBoundingBox"><stop offset="0.047" stop-color="#35c0ed"/><stop offset="0.862" stop-color="#7380b4"/></linearGradient></defs><g transform="translate(-236 -608)"><circle cx="35.5" cy="35.5" r="35.5" transform="translate(236.5 608.5)" fill="#fafafa" stroke="#35c0ed" stroke-width="1"/><path d="M33.75,10.156H28.438L27.172,6.609a1.253,1.253,0,0,0-1.18-.828H14.008a1.248,1.248,0,0,0-1.176.828l-1.269,3.547H6.25a3.124,3.124,0,0,0-3.125,3.125V31.094A3.124,3.124,0,0,0,6.25,34.219h27.5a3.124,3.124,0,0,0,3.125-3.125V13.281A3.124,3.124,0,0,0,33.75,10.156ZM20,27.969a6.25,6.25,0,1,1,6.25-6.25A6.248,6.248,0,0,1,20,27.969Zm-3.75-6.25a3.75,3.75,0,1,0,1.1-2.652A3.75,3.75,0,0,0,16.25,21.719Z" transform="translate(251.875 624.219)" fill="url(#a)"/></g></svg>