<svg width="20" height="23" viewBox="0 0 20 23" fill="none" xmlns="http://www.w3.org/2000/svg">
<path d="M11.4695 11.7699L19.7595 2.70955C19.9234 2.50047 20.009 2.23153 19.9993 1.95647C19.9895 1.6814 19.8852 1.42048 19.7071 1.22584C19.529 1.0312 19.2903 0.917168 19.0386 0.906544C18.7869 0.89592 18.5408 0.989481 18.3495 1.16853L10.0595 10.2288L1.76954 1.1576C1.58124 0.951799 1.32585 0.836182 1.05954 0.836182C0.793242 0.836182 0.537847 0.951799 0.349543 1.1576C0.16124 1.3634 0.0554518 1.64253 0.0554518 1.93357C0.0554518 2.22462 0.16124 2.50375 0.349543 2.70955L8.64954 11.7699L0.349543 20.8302C0.244862 20.9281 0.159841 21.0487 0.0998181 21.1843C0.0397948 21.3199 0.00606468 21.4676 0.000745191 21.6181C-0.0045743 21.7686 0.0186312 21.9187 0.0689057 22.059C0.11918 22.1992 0.195439 22.3266 0.292893 22.4331C0.390348 22.5396 0.506895 22.6229 0.63522 22.6779C0.763546 22.7328 0.900878 22.7582 1.0386 22.7524C1.17632 22.7466 1.31145 22.7097 1.43551 22.6441C1.55958 22.5785 1.6699 22.4856 1.75954 22.3712L10.0595 13.3109L18.3495 22.3712C18.5408 22.5502 18.7869 22.6438 19.0386 22.6332C19.2903 22.6225 19.529 22.5085 19.7071 22.3139C19.8852 22.1192 19.9895 21.8583 19.9993 21.5832C20.009 21.3082 19.9234 21.0392 19.7595 20.8302L11.4695 11.7699Z" fill="#BDBDBD"/>
</svg>
