<svg width="20" height="20" viewBox="0 0 20 20" fill="none" xmlns="http://www.w3.org/2000/svg">
<g clip-path="url(#clip0_1106_1434)">
<path d="M18.4752 11.5605H17.8418C17.6778 11.5605 17.5447 11.6936 17.5447 11.8576C17.5447 12.0216 17.6778 12.1547 17.8418 12.1547H18.4752C18.9885 12.1547 19.406 12.5722 19.406 13.0853C19.406 13.5985 18.9885 14.016 18.4752 14.016H14.5305C13.7685 14.016 13.1483 13.396 13.1483 12.6338V7.92587H13.1575C14.0126 7.92587 14.7083 8.62152 14.7083 9.47662V11.5607H14.1978C14.0338 11.5607 13.9008 11.6936 13.9008 11.8576C13.9008 12.0216 14.0338 12.1547 14.1978 12.1547H16.6536C16.8176 12.1547 16.9505 12.0216 16.9505 11.8576C16.9505 11.6936 16.8176 11.5607 16.6536 11.5607H15.3023V9.47662C15.3023 8.29391 14.3402 7.33185 13.1575 7.33185H12.7257C12.1805 7.33185 11.7038 7.00363 11.5042 6.51306C11.7871 6.31454 12.0526 6.05911 12.2926 5.75104C12.8621 5.01984 13.2021 4.07639 13.2021 3.22723C13.2021 1.46927 11.7719 0.0390625 10.014 0.0390625C8.25607 0.0390625 6.82587 1.46927 6.82587 3.22723C6.82587 4.07639 7.16583 5.01984 7.73529 5.75104C7.96906 6.05103 8.22693 6.30096 8.50143 6.49719C8.30505 6.99066 7.81738 7.33185 7.27417 7.33185H6.84235C5.65979 7.33185 4.69772 8.29391 4.69772 9.47662V11.5607H1.52481C0.684052 11.5607 0 12.2446 0 13.0853C0 13.9261 0.684052 14.6101 1.52481 14.6101H2.5061C2.34085 14.7839 2.20642 14.9907 2.11334 15.2238C1.92261 15.7002 1.92902 16.2222 2.13104 16.6937C2.33292 17.1652 2.7066 17.5299 3.18283 17.7205L4.65118 18.3081C4.68735 18.3224 4.72473 18.3295 4.76135 18.3295C4.8793 18.3295 4.99084 18.2588 5.03723 18.1427C5.09827 17.9903 5.02411 17.8174 4.87183 17.7565L3.40347 17.169C3.07449 17.0374 2.81662 16.7856 2.677 16.4598C2.53754 16.1342 2.53311 15.7736 2.66479 15.4445C2.86743 14.9377 3.35098 14.6103 3.89664 14.6103C4.06586 14.6103 4.23141 14.6423 4.38919 14.7055L7.03278 15.7632C7.03293 15.7634 7.03323 15.7634 7.03339 15.7635L9.38492 16.7044C9.18945 16.8852 9.03198 17.1063 8.92395 17.3584C8.72192 17.83 8.71567 18.3521 8.90625 18.8284C9.00009 19.063 9.13528 19.269 9.30008 19.4412C9.1449 19.4366 8.99216 19.4052 8.84537 19.3465L6.08719 18.2428C5.93475 18.1819 5.76202 18.2559 5.70114 18.4084C5.64011 18.5606 5.71426 18.7335 5.86655 18.7944L8.62473 19.8981C8.85376 19.9896 9.09378 20.0362 9.33792 20.0362C9.56726 20.0362 9.79843 19.9931 10.0145 19.912C10.2293 19.9928 10.4587 20.0357 10.692 20.0357C10.929 20.0357 11.1699 19.9916 11.4032 19.8982L16.8451 17.7208C17.3213 17.5301 17.695 17.1654 17.897 16.6939C18.0991 16.2222 18.1053 15.7002 17.9147 15.2238C17.8207 14.9887 17.6846 14.7827 17.5192 14.6103H18.4752C19.3159 14.6103 20 13.9262 20 13.0855C20 12.2447 19.3159 11.5605 18.4752 11.5605ZM14.3097 14.5975L13.1483 15.0621V14.0445C13.4555 14.3454 13.8599 14.5471 14.3097 14.5975ZM10.014 16.3162L7.44568 15.2885V14.8566H12.5543V15.2997L10.014 16.3162ZM7.85095 7.83844C8.45901 8.55103 9.23706 8.95554 10.0139 8.95554C10.7883 8.95554 11.5645 8.55331 12.1715 7.84485C12.2946 7.88177 12.4226 7.90665 12.5543 7.91824V12.3941H7.44568V7.91824C7.58545 7.90604 7.72095 7.87888 7.85095 7.83844ZM7.44568 12.9883H12.5543V14.2625H7.44568V12.9883ZM6.85165 15.0508L5.71167 14.5947C6.1528 14.5406 6.54938 14.3407 6.85165 14.0445V15.0508ZM10.014 0.633087C11.4444 0.633087 12.608 1.79672 12.608 3.22708C12.608 3.59497 12.5316 3.98483 12.3918 4.36249C11.8443 3.55072 10.8691 3.48328 9.99039 3.423C9.00009 3.35526 8.0629 3.29102 7.58896 2.30743C7.96097 1.3298 8.90747 0.633087 10.014 0.633087ZM7.41989 3.22708C7.41989 3.19519 7.42126 3.16345 7.42233 3.13171C8.08487 3.88733 9.06448 3.95508 9.9498 4.01581C11.0526 4.09119 11.7596 4.18396 12.0677 5.03204C11.9931 5.15457 11.9118 5.27313 11.824 5.38605C11.3069 6.0498 10.6642 6.41525 10.014 6.41525C9.36386 6.41525 8.72101 6.0498 8.20404 5.38605C7.71301 4.75571 7.41989 3.94867 7.41989 3.22708ZM10.014 7.00943C10.3445 7.00943 10.6706 6.93939 10.9833 6.80527C11.1246 7.11777 11.3445 7.38113 11.6162 7.57385C11.1421 8.0777 10.5721 8.36151 10.014 8.36151C9.4516 8.36151 8.87726 8.07388 8.40088 7.56287C8.66806 7.36923 8.88336 7.10632 9.02145 6.79535C9.34113 6.93619 9.67529 7.00943 10.014 7.00943ZM0.594025 13.0853C0.594025 12.5722 1.01151 12.1547 1.52481 12.1547H5.80215C5.96619 12.1547 6.09909 12.0216 6.09909 11.8576C6.09909 11.6936 5.96619 11.5605 5.80215 11.5605H5.29175V9.47647C5.29175 8.62137 5.9874 7.92572 6.84235 7.92572H6.8515V12.6338C6.8515 13.396 6.23154 14.016 5.46936 14.016H1.52481C1.01151 14.016 0.594025 13.5985 0.594025 13.0853ZM17.3511 16.4598C17.2115 16.7854 16.9534 17.0374 16.6245 17.169L11.1826 19.3466C10.5035 19.6182 9.72961 19.2868 9.45786 18.6076C9.32617 18.2787 9.3306 17.9179 9.47006 17.5923C9.60968 17.2665 9.86771 17.0146 10.1967 16.8829L15.6386 14.7055C15.7982 14.6416 15.965 14.6097 16.1317 14.6097C16.3091 14.6097 16.4862 14.6457 16.6541 14.7177C16.9798 14.8572 17.2318 15.1154 17.3633 15.4443C17.495 15.7735 17.4905 16.134 17.3511 16.4598Z" fill="#828282"/>
<path d="M16.6468 8.15401V9.16018C16.6468 9.32421 16.7797 9.45727 16.9437 9.45727C17.1079 9.45727 17.2408 9.32421 17.2408 9.16018V8.15401C17.9598 8.13723 18.6457 7.84747 19.1604 7.33279C19.7519 6.7412 20.0477 5.92348 19.9715 5.08929C19.9586 4.94646 19.8453 4.8334 19.7027 4.82043C19.1195 4.76717 18.5445 4.89626 18.0489 5.18069C17.9 4.62695 17.5852 4.13226 17.134 3.75628C17.0238 3.66457 16.8638 3.66457 16.7536 3.75628C16.3024 4.13241 15.9875 4.6271 15.8387 5.18053C15.3432 4.89626 14.7684 4.76717 14.1848 4.82043C14.0421 4.8334 13.929 4.94646 13.9161 5.08929C13.8399 5.92348 14.1356 6.7412 14.7271 7.33279C15.2419 7.84762 15.9276 8.13738 16.6468 8.15401ZM18.7403 6.91271C18.3402 7.3128 17.8089 7.54092 17.2507 7.55999C17.2495 7.50445 17.2465 7.44906 17.2422 7.39397C17.293 6.89013 17.5146 6.41634 17.8791 6.05166C18.2839 5.64684 18.823 5.41781 19.3885 5.40347C19.3741 5.96896 19.1451 6.50805 18.7403 6.91271ZM16.9439 4.39043C17.2542 4.71621 17.4555 5.12392 17.5251 5.56902C17.503 5.58978 17.4805 5.61007 17.459 5.63158C17.2483 5.84231 17.076 6.08202 16.9437 6.34066C16.8116 6.08202 16.6392 5.84216 16.4284 5.63158C16.4069 5.61007 16.3845 5.58978 16.3624 5.56902C16.4319 5.12408 16.6334 4.71621 16.9439 4.39043ZM16.0084 6.05166C16.373 6.41634 16.5946 6.89013 16.6454 7.39397C16.641 7.44906 16.6379 7.50445 16.6369 7.55999C16.0787 7.54092 15.5472 7.3128 15.1473 6.91271C14.7425 6.50805 14.5135 5.96896 14.4991 5.40347C15.0644 5.41781 15.6037 5.64684 16.0084 6.05166Z" fill="#828282"/>
<path d="M2.78741 8.15401V9.16018C2.78741 9.32421 2.92047 9.45727 3.0845 9.45727C3.24853 9.45727 3.38159 9.32421 3.38159 9.16018V8.15401C4.10043 8.13723 4.78646 7.84747 5.30114 7.33279C5.89273 6.7412 6.18829 5.92348 6.11215 5.08929C6.09918 4.94646 5.98611 4.8334 5.84344 4.82043C5.2601 4.76717 4.68515 4.89626 4.18969 5.18069C4.04077 4.62695 3.72583 4.13226 3.27462 3.75628C3.16446 3.66457 3.00454 3.66457 2.89437 3.75628C2.44302 4.13241 2.12823 4.6271 1.97931 5.18069C1.48385 4.89626 0.908749 4.76717 0.325558 4.82043C0.182735 4.8334 0.0696677 4.94646 0.0566978 5.08929C-0.0194436 5.92348 0.276272 6.7412 0.867855 7.33279C1.38269 7.84762 2.06842 8.13738 2.78741 8.15401ZM4.88107 6.91271C4.48098 7.3128 3.94967 7.54092 3.39151 7.55999C3.39029 7.50445 3.38723 7.44906 3.38296 7.39397C3.43377 6.89013 3.65518 6.41634 4.01986 6.05166C4.42468 5.64684 4.96377 5.41781 5.52926 5.40347C5.51492 5.9688 5.28588 6.50805 4.88107 6.91271ZM3.0845 4.39043C3.39502 4.71621 3.59628 5.12392 3.66586 5.56902C3.64373 5.58978 3.6213 5.61007 3.59979 5.63158C3.38906 5.84231 3.21664 6.08202 3.0845 6.34066C2.95236 6.08202 2.77993 5.84216 2.56921 5.63143C2.54769 5.60992 2.52526 5.58962 2.50314 5.56902C2.57272 5.12408 2.77414 4.71621 3.0845 4.39043ZM0.639889 5.40347C1.20523 5.41781 1.74447 5.64684 2.14914 6.05166C2.51382 6.41634 2.73523 6.89013 2.78619 7.39397C2.78176 7.44906 2.77871 7.50445 2.77764 7.55999C2.21933 7.54092 1.68801 7.3128 1.28793 6.91271C0.883266 6.50805 0.654232 5.96896 0.639889 5.40347Z" fill="#828282"/>
</g>
<defs>
<clipPath id="clip0_1106_1434">
<rect width="20" height="20" fill="white"/>
</clipPath>
</defs>
</svg>
