<svg width="32" height="31" viewBox="0 0 32 31" fill="none" xmlns="http://www.w3.org/2000/svg">
<g clip-path="url(#clip0_327_17806)">
<path d="M-0.298582 24.0807C-0.298582 25.3303 0.113862 26.3929 0.938751 27.2686C1.76364 28.1442 2.76783 28.5816 3.95132 28.5806H26.7262C27.9097 28.5806 28.9139 28.1432 29.7388 27.2686C30.5636 26.3939 30.9761 25.3313 30.9761 24.0807V5.95656C30.9761 4.70703 30.5596 3.63224 29.7266 2.73218C28.8935 1.83211 27.8934 1.38208 26.7262 1.38208H3.95132C2.7851 1.38208 1.78497 1.83211 0.950942 2.73218C0.11691 3.63224 -0.299598 4.70703 -0.298582 5.95656V24.0807ZM11.0767 20.8061V9.23122C11.0767 9.1144 11.1102 9.02297 11.1772 8.95694C11.227 8.94068 11.2687 8.93256 11.3022 8.93256L11.4271 8.95694L22.3269 14.7566C22.394 14.8236 22.4275 14.9069 22.4275 15.0065C22.4275 15.0735 22.394 15.14 22.3269 15.2061L11.4271 21.0057C11.3936 21.0392 11.3601 21.056 11.3266 21.056C11.2595 21.056 11.2097 21.0392 11.1772 21.0057C11.1102 20.9387 11.0767 20.8721 11.0767 20.8061Z" fill="#444444"/>
</g>
<defs>
<clipPath id="clip0_327_17806">
<rect width="32" height="30.4762" fill="white"/>
</clipPath>
</defs>
</svg>
