<svg width="156" height="145" viewBox="0 0 156 145" fill="none" xmlns="http://www.w3.org/2000/svg">
<mask id="mask0_2_1901" style="mask-type:luminance" maskUnits="userSpaceOnUse" x="0" y="83" width="126" height="46">
<path d="M0 83.4599H125.776V128.708H0V83.4599Z" fill="white"/>
</mask>
<g mask="url(#mask0_2_1901)">
<path d="M3.04761 127.988C2.18111 127.988 1.33617 127.582 0.797299 126.824C-0.0907543 125.578 0.189457 123.845 1.43532 122.952L20.425 109.364C22.8391 105.816 38.7336 83.5634 55.6799 83.5634C70.0483 83.5634 80.2005 93.0776 82.2784 95.1813L97.5478 102.838C100.423 102.131 108.627 100.221 113.852 100.221C122.219 100.221 124.685 107.368 124.793 107.674C125.194 108.877 124.728 110.201 123.659 110.895C121.818 112.076 105.424 122.435 97.2331 122.435C91.0641 122.435 75.881 117.314 74.1739 116.74C72.734 116.24 71.9537 114.667 72.4538 113.214C72.9409 111.761 74.5101 110.981 75.9672 111.481C80.373 112.977 92.7842 116.878 97.2331 116.878C101.647 116.878 111.701 111.684 118.4 107.631C117.533 106.709 116.102 105.773 113.852 105.773C108.269 105.773 98.0349 108.433 97.9358 108.463C97.2848 108.64 96.5951 108.563 95.9872 108.256L79.3685 99.9277C79.0754 99.7768 78.7952 99.5699 78.5667 99.3242C78.4805 99.225 69.0007 89.1158 55.6799 89.1158C40.6045 89.1158 24.9041 112.619 24.7532 112.856C24.5592 113.141 24.3221 113.386 24.0505 113.593L4.6599 127.475C4.17277 127.824 3.60803 127.988 3.04761 127.988Z" fill="#7380B4"/>
</g>
<mask id="mask1_2_1901" style="mask-type:luminance" maskUnits="userSpaceOnUse" x="38" y="91" width="118" height="54">
<path d="M38.5918 91.1851H155.574V144.917H38.5918V91.1851Z" fill="white"/>
</mask>
<g mask="url(#mask1_2_1901)">
<path d="M41.829 144.645C41.3419 144.645 40.8548 144.511 40.4107 144.253C39.1002 143.472 38.6691 141.77 39.4494 140.459C39.8158 139.83 48.5929 125.211 61.2196 125.211C65.5909 125.211 72.2341 126.479 79.2825 127.824C86.8568 129.264 94.6898 130.764 100.001 130.764C105.122 130.764 121.84 122.702 131.479 117.456L148.641 97.8024C148.189 97.5997 147.658 97.4446 147.094 97.4446C144.098 97.4446 138.592 101.523 134.174 104.786C128.69 108.843 125.181 111.326 122.163 111.326C120.637 111.326 119.396 110.08 119.396 108.55C119.396 107.023 120.637 105.773 122.163 105.773C123.539 105.752 127.966 102.488 130.884 100.32C136.48 96.1771 142.278 91.8921 147.094 91.8921C151.65 91.8921 154.495 95.3322 154.81 95.7202C155.634 96.772 155.599 98.2723 154.724 99.281L135.333 121.491C135.118 121.728 134.859 121.935 134.566 122.099C131.915 123.552 108.325 136.316 100.001 136.316C94.1596 136.316 86.0636 134.773 78.2436 133.277C71.4668 131.988 65.0607 130.764 61.2196 130.764C51.7614 130.764 44.2863 143.158 44.2087 143.287C43.6914 144.154 42.7688 144.645 41.829 144.645Z" fill="#7380B4"/>
</g>
<path d="M122.164 110.037C121.72 110.037 121.267 109.929 120.845 109.701C119.504 108.976 118.996 107.282 119.728 105.937L128.04 90.5686C132.92 83.1754 135.92 80.7871 144.327 80.7871C145.159 80.7871 145.939 81.1665 146.469 81.8088C146.999 82.4468 147.206 83.2918 147.043 84.1065L144.49 96.8842C144.197 98.3801 142.736 99.3543 141.231 99.0612C139.74 98.7594 138.766 97.2937 139.054 95.7849L140.917 86.525C137.541 86.9906 135.985 88.5856 132.791 93.4225L124.6 108.584C124.1 109.515 123.138 110.037 122.164 110.037Z" fill="#7380B4"/>
<mask id="mask2_2_1901" style="mask-type:luminance" maskUnits="userSpaceOnUse" x="49" y="0" width="107" height="91">
<path d="M49.6289 0H155.575V90.0814H49.6289V0Z" fill="white"/>
</mask>
<g mask="url(#mask2_2_1901)">
<path d="M75.0688 5.82843C65.6667 5.82843 55.6782 13.4847 55.6782 27.659C55.6782 44.2734 75.8276 67.9491 102.771 83.1624C129.706 67.9491 149.864 44.2734 149.864 27.659C149.864 13.4847 139.875 5.82843 130.473 5.82843C118.885 5.82843 109.349 18.5802 105.401 30.4353C105.021 31.5648 103.961 32.3321 102.771 32.3321C101.581 32.3321 100.521 31.5648 100.141 30.4353C96.1925 18.5802 86.648 5.82843 75.0688 5.82843ZM102.771 89.1158C102.318 89.1158 101.853 89.0081 101.439 88.7796C71.7149 72.4282 50.1387 46.722 50.1387 27.659C50.1387 9.8721 62.981 0.27594 75.0688 0.27594C87.2559 0.27594 97.1538 10.4799 102.771 22.1928C108.388 10.4799 118.277 0.27594 130.473 0.27594C142.561 0.27594 155.403 9.8721 155.403 27.659C155.403 46.722 133.827 72.4282 104.103 88.7796C103.689 89.0081 103.224 89.1158 102.771 89.1158Z" fill="#7380B4"/>
</g>
</svg>
