<svg width="119" height="129" viewBox="0 0 119 129" fill="none" xmlns="http://www.w3.org/2000/svg">
<mask id="mask0_2_1880" style="mask-type:luminance" maskUnits="userSpaceOnUse" x="0" y="0" width="98" height="129">
<path d="M0 0H97.7079V128.737H0V0Z" fill="white"/>
</mask>
<g mask="url(#mask0_2_1880)">
<path d="M97.6161 17.6309C95.8015 16.6812 93.9727 15.7703 92.1157 14.9619L90.7141 14.337C90.2481 14.1358 89.7786 13.9557 89.3126 13.7651C88.8465 13.578 88.3911 13.3767 87.9216 13.2002L86.5059 12.6742L85.7998 12.4094C85.5632 12.3247 85.3232 12.2505 85.0831 12.1693L83.6603 11.6856C83.1908 11.5162 82.7071 11.382 82.2305 11.2338L80.7972 10.796C79.8298 10.5418 78.8731 10.27 77.9093 10.0299C76.9384 9.80747 75.9852 9.54622 75.0073 9.36263L73.5528 9.06608C73.0691 8.97076 72.5784 8.89662 72.0912 8.81189C71.604 8.73422 71.1238 8.63184 70.6331 8.56476L69.1715 8.35293L68.4407 8.25055L67.7099 8.16582L66.2448 8.00695C65.2669 7.91516 64.2889 7.85161 63.3145 7.77747C61.3587 7.67156 59.4099 7.60448 57.4611 7.63626L56.003 7.65744L54.5485 7.72805C53.5776 7.75276 52.6103 7.84808 51.6465 7.91869C51.1628 7.94693 50.6827 8.00695 50.2026 8.05991L48.7622 8.21172L47.3253 8.40942C46.8487 8.48003 46.3721 8.53298 45.8955 8.62124C44.9493 8.79776 43.9961 8.92839 43.057 9.13669L41.6448 9.42265C41.1753 9.52503 40.7093 9.64154 40.2433 9.75098C38.3757 10.1817 36.5328 10.7113 34.7111 11.2797C33.8038 11.5762 32.8965 11.8834 31.9962 12.194L30.6617 12.6989C30.2133 12.8648 29.7685 13.0272 29.3307 13.2179C28.4516 13.5885 27.5655 13.9275 26.7076 14.3335L25.4084 14.916L24.1304 15.5444C22.4252 16.3705 20.7659 17.2849 19.1313 18.2346C18.7218 18.4676 18.3264 18.7288 17.9239 18.976L16.7271 19.7103C16.2752 19.9998 15.9398 20.2222 15.5303 20.494C15.1384 20.7553 14.7501 21.0201 14.3653 21.2884C12.826 22.3652 11.3362 23.4878 9.91342 24.6705L12.1376 20.0845C12.2011 22.6123 12.2541 25.1401 12.3 27.6679C12.3529 30.1956 12.3918 32.7234 12.4306 35.2512C12.473 37.7825 12.5012 40.3103 12.5259 42.8381L12.5471 44.7339L12.5577 45.6836L12.5824 46.5238L12.6283 48.4197L12.6318 48.6562L12.646 48.868L12.6707 49.2881L12.7236 50.1354C12.7695 51.244 12.8966 52.4302 13.0025 53.5953C13.0484 54.1813 13.1367 54.7603 13.2038 55.3463C13.2779 55.9253 13.3344 56.5114 13.4227 57.0904L13.698 58.8273C13.7439 59.1168 13.7828 59.4099 13.8357 59.6994L14.0016 60.5608L14.3335 62.2907L14.7148 64.0065L14.9054 64.8679C14.9725 65.1539 15.0502 65.4363 15.1208 65.7187L15.5586 67.4239C15.7139 67.9888 15.8869 68.5501 16.0493 69.115C16.2187 69.6763 16.367 70.2447 16.5612 70.799L17.1049 72.4724C17.2814 73.0338 17.4968 73.5774 17.6909 74.1317L17.991 74.9578L18.1428 75.3744L18.3052 75.7804L18.9584 77.4185C19.1631 77.9693 19.4138 78.4988 19.6468 79.039C19.8833 79.5756 20.1022 80.1228 20.3564 80.6524C20.8648 81.7115 21.3449 82.7848 21.8992 83.8227C22.171 84.3452 22.4288 84.8712 22.7077 85.3902L23.5585 86.9365C23.7032 87.1907 23.8409 87.452 23.9892 87.7062L24.4411 88.4617L25.3484 89.9798L26.2981 91.4661L26.7712 92.2145L27.269 92.9418L28.2681 94.3998L29.3131 95.8297C29.9909 96.7935 30.7464 97.7043 31.4666 98.6399C31.8303 99.1024 32.2221 99.5472 32.5964 100.003C32.9776 100.451 33.3448 100.917 33.7437 101.351L34.9229 102.679C35.1171 102.901 35.3183 103.116 35.5266 103.328L36.1374 103.971L36.7481 104.617C36.9529 104.832 37.1577 105.044 37.3695 105.249L38.6334 106.499C39.05 106.926 39.4913 107.318 39.9255 107.72C40.3633 108.123 40.794 108.532 41.2353 108.928L42.5839 110.093C42.8099 110.287 43.0288 110.484 43.2582 110.675L43.9502 111.236L45.3376 112.363L46.7604 113.439L47.47 113.983C47.7066 114.163 47.9537 114.329 48.1973 114.502L49.6553 115.54C50.1425 115.886 50.6509 116.2 51.1487 116.532C51.65 116.857 52.1372 117.21 52.6527 117.514L54.1813 118.453L54.5626 118.689L54.658 118.749L54.6827 118.763C54.6968 118.77 54.6544 118.749 54.6862 118.767L54.7356 118.795L54.9404 118.915L55.763 119.392L51.47 119.381L52.3138 118.989L52.5256 118.89L52.5538 118.88C52.515 118.897 52.6527 118.827 52.4762 118.922L52.4903 118.915L52.5432 118.887L52.6527 118.834L53.0869 118.619L54.8274 117.754C56.0419 117.178 57.0163 116.599 58.086 116.027C59.1416 115.484 60.1937 114.806 61.2528 114.177C62.3296 113.563 63.3357 112.85 64.3737 112.176L65.1504 111.66C65.4116 111.494 65.6552 111.303 65.9094 111.123L68.1759 109.492C68.4266 109.309 68.6667 109.108 68.9103 108.917L70.3789 107.766L71.1168 107.187C71.3568 106.989 71.5898 106.785 71.8264 106.58L73.2562 105.365L73.9693 104.758L74.6578 104.123L76.0382 102.845C76.2677 102.629 76.5042 102.421 76.7266 102.202L77.3903 101.531L78.7213 100.193C78.9402 99.9709 79.1732 99.7555 79.385 99.519L80.024 98.827L81.3091 97.4325C81.7469 96.9735 82.1423 96.4828 82.5518 96.0027C82.9613 95.5155 83.3709 95.0353 83.7874 94.5517L84.0981 94.1916C84.2005 94.068 84.2923 93.9409 84.3911 93.8173L84.9807 93.0689L86.1599 91.5649C86.3646 91.3178 86.5518 91.0601 86.7318 90.7988L87.2967 90.0257L88.4264 88.4758C88.8042 87.9568 89.1396 87.4131 89.5032 86.8836L90.58 85.2808C91.2684 84.1969 91.9251 83.0884 92.6206 81.994C93.2631 80.8713 93.9021 79.7451 94.5623 78.6153C94.1987 79.8651 93.8315 81.1149 93.4396 82.3646C93.0054 83.5932 92.5676 84.8289 92.1051 86.0575C91.6073 87.2684 91.1131 88.4864 90.58 89.6903L89.7362 91.4767L89.309 92.3699C89.1678 92.6699 89.0231 92.9665 88.8642 93.256L87.9286 95.0036L87.4591 95.8791C87.3779 96.0238 87.3037 96.1721 87.2225 96.3133L86.9684 96.744C86.633 97.3124 86.2905 97.8808 85.9445 98.4492C85.6021 99.0176 85.2702 99.5931 84.8925 100.14L83.7874 101.803L83.2332 102.636C83.0496 102.919 82.8448 103.176 82.6507 103.448L81.4609 105.062L80.8607 105.867C80.6595 106.131 80.4441 106.386 80.2323 106.647L78.9684 108.207L78.3329 108.991L77.6657 109.743L76.3241 111.247C76.0982 111.494 75.8758 111.748 75.6463 111.995L74.9402 112.716L73.5245 114.156C73.2844 114.393 73.055 114.64 72.8078 114.873L72.0665 115.558L70.5801 116.935C70.3295 117.16 70.0894 117.401 69.8282 117.616L69.0515 118.269C68.01 119.13 66.9932 120.034 65.8988 120.836C64.815 121.651 63.7664 122.495 62.5943 123.268C61.4575 124.048 60.2678 124.892 59.1945 125.535L57.5458 126.562L57.1328 126.82L57.0304 126.883L56.9774 126.915L56.9668 126.926L56.8609 126.982L56.8327 126.996L56.6173 127.127L55.7418 127.632L53.8354 128.737L51.4453 127.621L50.5839 127.219L50.3685 127.12L50.3155 127.092L50.2343 127.053L50.1249 126.996L49.673 126.774L47.8795 125.881L47.4312 125.655L46.1073 124.934C45.5212 124.61 44.9281 124.299 44.3491 123.96L42.6192 122.933C42.3333 122.76 42.0402 122.594 41.7578 122.414L40.9105 121.87L39.2194 120.772L37.5672 119.621L36.7411 119.042C36.4692 118.844 36.2009 118.64 35.9326 118.442L34.3227 117.224C33.7896 116.811 33.2742 116.38 32.7482 115.957C32.2292 115.533 31.6961 115.116 31.1948 114.664L29.6696 113.337C29.4155 113.118 29.1683 112.889 28.9247 112.656L27.449 111.272C27.2019 111.042 26.9583 110.809 26.7217 110.569L25.2955 109.132C24.8118 108.663 24.3634 108.154 23.9045 107.66C23.449 107.162 22.983 106.675 22.5382 106.167C21.6627 105.139 20.7553 104.133 19.9257 103.067C19.502 102.541 19.0784 102.015 18.6618 101.482L17.4509 99.8543L16.8472 99.0388L15.1102 96.5393L13.4685 93.9762C13.2885 93.6867 13.1226 93.3937 12.946 93.1042L11.9116 91.3566C11.5727 90.7706 11.255 90.1739 10.9266 89.5808C10.2594 88.4017 9.68041 87.1766 9.06612 85.9692C8.7625 85.3655 8.49419 84.7406 8.20469 84.1299C7.92579 83.512 7.62924 82.9048 7.37505 82.2764C6.84548 81.0266 6.31945 79.7769 5.85697 78.5059C5.62043 77.8669 5.36624 77.242 5.15088 76.5959L4.49775 74.6719C4.27181 74.0329 4.08117 73.3833 3.88699 72.7337C3.69635 72.0841 3.49512 71.4345 3.31506 70.7813L2.79962 68.8149C2.71489 68.4866 2.62663 68.1618 2.54543 67.8299L2.31949 66.8414L1.87112 64.8573L1.30979 61.86C1.24624 61.5281 1.20387 61.1892 1.15092 60.8573L0.84377 58.845C0.744919 58.1777 0.67784 57.4999 0.596641 56.8291C0.522502 56.1548 0.423649 55.484 0.381285 54.8062C0.275372 53.454 0.151808 52.1231 0.105913 50.7038L0.0600171 49.6553L0.0388346 49.1328L0.0247129 48.8716V48.6315L0.00353042 46.7357L0 45.6836L0.0105913 44.7339L0.0282434 42.8381C0.0529565 40.3103 0.0847292 37.7825 0.127095 35.2512C0.162399 32.7234 0.201235 30.1956 0.25419 27.6679C0.300086 25.1401 0.353042 22.6123 0.416589 20.0845L0.490728 17.119L2.64428 15.495C4.41655 14.1569 6.24178 12.9107 8.10937 11.7633C8.57539 11.4738 9.04494 11.1914 9.51448 10.9125C9.9699 10.6442 10.4995 10.337 10.9196 10.1005L12.3741 9.31321C12.8578 9.06255 13.3309 8.7907 13.8216 8.55417C15.7739 7.57977 17.7474 6.64421 19.7703 5.83221L21.2814 5.22145L22.8171 4.66364C23.8339 4.2753 24.8683 3.94697 25.9027 3.61511C26.4181 3.44212 26.9406 3.29031 27.4631 3.14203L29.0271 2.6972C29.5496 2.55245 30.0792 2.42889 30.6052 2.29473C31.1312 2.16764 31.6537 2.02289 32.1833 1.91345L33.772 1.57806L34.5663 1.41213L35.3642 1.27091L36.9635 0.988477C37.4931 0.889626 38.0297 0.833138 38.5663 0.75547C39.0994 0.68133 39.6325 0.600132 40.1691 0.540114L41.779 0.370654C42.8487 0.24356 43.9255 0.194133 44.9952 0.116464C45.5318 0.0740996 46.072 0.0705678 46.6086 0.0493857L48.2185 -0.00357056L49.8283 -4.0137e-05C50.365 0.00349006 50.9016 -0.00357056 51.4382 0.0246728C52.5079 0.0670378 53.5776 0.0882197 54.6438 0.176481L56.2431 0.296515L57.8353 0.465975C59.9571 0.681331 62.0648 1.03437 64.1513 1.42272C64.6738 1.52157 65.1892 1.64514 65.7082 1.75458C66.2271 1.87461 66.7461 1.97346 67.258 2.11115L68.8008 2.50303L69.5669 2.70073L70.3295 2.92315L71.8511 3.36445C72.3559 3.51273 72.8573 3.68925 73.3551 3.85165C73.8564 4.02464 74.3577 4.18351 74.852 4.36356L76.3312 4.91783C77.3197 5.27088 78.2835 5.70159 79.2544 6.09346C79.7381 6.28764 80.2111 6.51712 80.6877 6.736L82.1105 7.39266L83.5121 8.10227C83.9746 8.34234 84.4441 8.56476 84.8995 8.82248L86.2658 9.57799C86.4917 9.70508 86.7212 9.82865 86.9472 9.9628L87.6144 10.3653L88.9454 11.1737C89.3867 11.442 89.8209 11.7386 90.2587 12.021C90.6894 12.3105 91.1307 12.593 91.5508 12.886L92.7971 13.7792L93.422 14.2276L93.5773 14.3405C93.6444 14.3864 93.6832 14.4182 93.7397 14.4606L94.0468 14.6936C94.4564 15.0078 94.8624 15.3255 95.2648 15.6468C96.0698 16.2858 96.85 16.9495 97.6161 17.6309Z" fill="#7380B4"/>
</g>
<mask id="mask1_2_1880" style="mask-type:luminance" maskUnits="userSpaceOnUse" x="22" y="10" width="97" height="78">
<path d="M22.7227 10.8807H118.002V87.9674H22.7227V10.8807Z" fill="white"/>
</mask>
<g mask="url(#mask1_2_1880)">
<path d="M56.3446 87.9675L22.7773 52.6809L32.0094 43.9396L56.0833 69.2492L108.542 10.9373L118.01 19.4173L56.3446 87.9675Z" fill="#7380B4"/>
</g>
</svg>
