<svg width="135" height="125" viewBox="0 0 135 125" fill="none" xmlns="http://www.w3.org/2000/svg">
<mask id="mask0_2_1867" style="mask-type:luminance" maskUnits="userSpaceOnUse" x="0" y="1" width="135" height="124">
<path d="M0 1.89343H135V124.67H0V1.89343Z" fill="white"/>
</mask>
<g mask="url(#mask0_2_1867)">
<path d="M135 56.9219C135 49.7135 129.143 43.8531 121.935 43.8531L91.2084 43.9991L93.2361 21.7212L93.2477 21.5176C93.2477 14.7586 88.1784 2.35425 79.8947 2.35425H71.7532L67.5288 24.851L48.3232 54.6292C46.8447 56.703 45.6618 58.5386 44.7171 60.2399C43.2386 59.3413 41.545 58.8535 39.7938 58.8535H9.61625C4.31656 58.8535 0 63.174 0 68.4813V115.019C0 120.33 4.31656 124.647 9.61625 124.647H39.7938C42.866 124.647 45.7079 123.13 47.486 120.726C50.2203 122.795 53.5576 123.94 57.0062 123.94H108.586C115.787 123.94 121.643 118.076 121.643 110.871C121.643 109.17 121.321 107.522 120.691 105.982C126.271 104.496 130.395 99.3962 130.395 93.3476C130.395 91.2354 129.873 89.1578 128.898 87.2952C132.634 84.9296 135 80.7743 135 76.258C135 72.506 133.414 69.0305 130.71 66.5919C133.414 64.1494 135 60.6739 135 56.9219ZM39.7938 120.149H9.61625C6.79359 120.149 4.49322 117.849 4.49322 115.019V68.4813C4.49322 65.651 6.79359 63.3506 9.61625 63.3506H39.7938C41.0611 63.3506 42.2669 63.8729 43.2155 64.7562L44.5788 116.701C43.8569 118.74 41.9367 120.149 39.7938 120.149ZM125.752 68.6004C128.686 70.0751 130.507 73.0091 130.507 76.258C130.507 79.8334 128.233 83.067 124.85 84.3036L121.839 85.4019L123.898 87.8636C125.192 89.4074 125.902 91.3545 125.902 93.3476C125.902 98.0751 122.062 101.919 117.338 101.919H112.4L115.287 105.568C116.509 107.104 117.15 108.936 117.15 110.871C117.15 115.595 113.31 119.439 108.586 119.439H57.0062C54.0338 119.439 51.1881 118.233 49.0567 116.129L47.6972 64.2915C48.6611 62.2369 50.0245 59.9865 52.0406 57.1561L71.7839 26.5485L75.4822 6.8513H79.8947C84.5838 6.8513 88.7045 15.8838 88.7506 21.4178L86.2851 48.5153L121.947 48.3502C126.666 48.3502 130.507 52.1944 130.507 56.9219C130.507 60.1708 128.686 63.1048 125.752 64.5795L121.755 66.588L125.752 68.6004Z" fill="#7380B4"/>
</g>
<path d="M42.659 36.7176C31.9828 37.7085 29.7209 39.9704 28.7301 50.662C28.6763 51.2495 27.8199 51.2495 27.7661 50.662C26.7753 39.9704 24.5134 37.7085 13.8372 36.7176C13.2496 36.66 13.2496 35.8075 13.8372 35.7499C24.5134 34.7591 26.7753 32.4971 27.7661 21.8055C27.8199 21.218 28.6763 21.218 28.7301 21.8055C29.7209 32.4971 31.9828 34.7591 42.659 35.7499C43.2466 35.8075 43.2466 36.66 42.659 36.7176Z" fill="#7380B4"/>
<mask id="mask1_2_1867" style="mask-type:luminance" maskUnits="userSpaceOnUse" x="96" y="0" width="19" height="19">
<path d="M96.1582 0H114.838V18.6065H96.1582V0Z" fill="white"/>
</mask>
<g mask="url(#mask1_2_1867)">
<path d="M114.345 9.66235C107.713 10.2768 106.307 11.6862 105.693 18.3262C105.658 18.691 105.125 18.691 105.094 18.3262C104.476 11.6862 103.074 10.2768 96.4377 9.66235C96.0729 9.62779 96.0729 9.09782 96.4377 9.06326C103.074 8.44496 104.476 7.03939 105.094 0.399419C105.125 0.034585 105.658 0.034585 105.693 0.399419C106.307 7.03939 107.713 8.44496 114.345 9.06326C114.71 9.09782 114.71 9.62779 114.345 9.66235Z" fill="#7380B4"/>
</g>
<path d="M132.802 34.1869C127.337 34.6939 126.177 35.8537 125.67 41.3262C125.643 41.6257 125.205 41.6257 125.179 41.3262C124.672 35.8537 123.512 34.6939 118.047 34.1869C117.747 34.1601 117.747 33.7223 118.047 33.6915C123.512 33.1846 124.672 32.0248 125.179 26.5562C125.205 26.2528 125.643 26.2528 125.67 26.5562C126.177 32.0248 127.337 33.1846 132.802 33.6915C133.101 33.7223 133.101 34.1601 132.802 34.1869ZM61.1406 13.234C54.1013 13.8868 52.6112 15.3807 51.9584 22.4278C51.9199 22.8157 51.3593 22.8157 51.3209 22.4278C50.668 15.3807 49.1779 13.8868 42.1386 13.234C41.7507 13.1994 41.7507 12.6349 42.1386 12.5965C49.1779 11.9436 50.668 10.4497 51.3209 3.40266C51.3593 3.01479 51.9199 3.01479 51.9584 3.40266C52.6112 10.4497 54.1013 11.9436 61.1406 12.5965C61.5285 12.6349 61.5285 13.1994 61.1406 13.234Z" fill="#7380B4"/>
</svg>
