<svg width="286" height="227" viewBox="0 0 286 227" fill="none" xmlns="http://www.w3.org/2000/svg">
<path d="M101.154 98.6511C99.4482 98.6511 98.0669 97.2697 98.0669 95.5639C98.0669 93.858 99.4482 92.4767 101.154 92.4767C102.86 92.4767 104.241 93.858 104.241 95.5639C104.241 97.2697 102.86 98.6511 101.154 98.6511ZM81.6044 88.378C81.6044 90.8613 79.5965 92.8692 77.1132 92.8692C74.6298 92.8692 72.622 90.8613 72.622 88.378C72.622 85.8946 74.6298 83.8793 77.1132 83.8793C79.5965 83.8793 81.6044 85.8946 81.6044 88.378ZM82.0271 77.6671C81.1364 77.6671 80.2985 77.4029 79.6041 76.9425C77.2264 75.38 74.4713 74.4742 71.6257 74.4742H70.9463C67.3987 74.4742 63.9944 75.7801 61.262 78.0445C60.1826 78.9428 58.8013 79.4787 57.2917 79.4787C53.7969 79.4787 50.9814 76.6028 51.0569 73.0929C51.1399 69.7642 53.8723 67.0544 57.2011 67.0091C58.7862 66.994 60.2355 67.5601 61.345 68.5112C64.0246 70.8134 67.4742 72.0135 71.0067 72.0135H71.3917C74.3128 72.0135 77.166 71.1455 79.6116 69.5377C80.3514 69.0622 81.2345 68.7905 82.1931 68.8282C84.4878 68.9112 86.3522 70.7756 86.4427 73.0703C86.5409 75.5914 84.5255 77.6671 82.0271 77.6671ZM85.7181 120.45H85.469C81.7931 120.45 78.2228 121.499 75.2488 123.402C73.9505 124.232 72.3578 124.722 70.6368 124.722C66.2514 124.722 62.7113 121.552 62.7716 117.665C62.832 113.936 66.2589 110.894 70.4783 110.819C72.2522 110.789 73.8901 111.272 75.2186 112.117C78.2152 114.012 81.778 115.091 85.469 115.091H85.7181C90.3149 115.091 94.7382 113.491 97.9688 110.592C100.067 108.705 102.988 107.535 106.219 107.535C106.325 107.535 106.423 107.535 106.521 107.543V127.991C106.423 127.998 106.325 128.006 106.219 128.006C103.003 128.006 100.09 126.844 97.9914 124.972C94.7457 122.073 90.33 120.45 85.7181 120.45ZM67.0515 135.267C67.0515 137.637 65.1342 139.555 62.7716 139.555C60.4015 139.555 58.4843 137.637 58.4843 135.267C58.4843 132.897 60.4015 130.98 62.7716 130.98C65.1342 130.98 67.0515 132.897 67.0515 135.267ZM52.8609 106.713C54.9366 106.713 56.6199 108.396 56.6199 110.464C56.6199 112.54 54.9366 114.223 52.8609 114.223C50.7927 114.223 49.1094 112.54 49.1094 110.464C49.1094 108.396 50.7927 106.713 52.8609 106.713ZM34.3905 84.0906C36.7531 84.0906 38.6703 86.0079 38.6703 88.378C38.6703 90.7406 36.7531 92.6654 34.3905 92.6654C32.0204 92.6654 30.1031 90.7406 30.1031 88.378C30.1031 86.0079 32.0204 84.0906 34.3905 84.0906ZM99.0105 141.17C100.196 141.17 101.154 142.129 101.154 143.314C101.154 144.499 100.196 145.457 99.0105 145.457C97.8254 145.457 96.8668 144.499 96.8668 143.314C96.8668 142.129 97.8254 141.17 99.0105 141.17ZM24.8421 136.883C27.2122 136.883 29.1294 138.8 29.1294 141.17C29.1294 143.533 27.2122 145.457 24.8421 145.457C22.4795 145.457 20.5547 143.533 20.5547 141.17C20.5547 138.8 22.4795 136.883 24.8421 136.883ZM59.6618 148.077C61.5564 148.046 63.2925 148.726 64.6134 149.865C67.8138 152.613 71.9351 154.04 76.1546 154.04H76.6075C80.1023 154.04 83.5065 153.006 86.4276 151.096C87.3108 150.515 88.3675 150.198 89.5073 150.235C92.2473 150.341 94.4815 152.568 94.5872 155.308C94.7004 158.319 92.3001 160.795 89.311 160.795C88.2467 160.795 87.2504 160.478 86.4201 159.935C83.582 158.063 80.291 156.991 76.8943 156.991H76.0791C71.837 156.991 67.7761 158.546 64.5153 161.248C63.2245 162.32 61.5715 162.962 59.7675 162.962C55.6009 162.962 52.2344 159.527 52.3325 155.338C52.4306 151.36 55.6915 148.129 59.6618 148.077ZM36.6323 119.227C37.8778 119.227 38.8817 120.231 38.8817 121.477C38.8817 122.715 37.8778 123.726 36.6323 123.726C35.3944 123.726 34.3905 122.715 34.3905 121.477C34.3905 120.231 35.3944 119.227 36.6323 119.227Z" fill="#E7E6E6"/>
<mask id="mask0_1_1796" style="mask-type:luminance" maskUnits="userSpaceOnUse" x="110" y="31" width="90" height="167">
<path d="M110.174 31.744H199.205V197.925H110.174V31.744Z" fill="white"/>
</mask>
<g mask="url(#mask0_1_1796)">
<path d="M194.328 97.0282C194.328 90.6877 191.656 84.6869 187.059 80.4373C185.942 82.4527 184.312 84.5058 181.994 86.491C179.368 88.7479 177.133 90.5141 175.156 92.0766C168.793 97.1037 166.219 99.1342 164.845 106.162C166.332 107.173 167.313 108.886 167.313 110.826C167.313 113.944 164.784 116.472 161.675 116.472C158.557 116.472 156.036 113.944 156.036 110.826C156.036 108.283 157.719 106.131 160.037 105.429C161.788 96.4395 165.434 93.556 172.144 88.2572C174.084 86.7249 176.28 84.9889 178.824 82.7999C181.285 80.6864 182.93 78.3918 183.745 75.9235L183.753 75.9009C184.1 74.6479 184.274 73.3496 184.274 72.0362C184.274 70.8134 184.123 69.6283 183.836 68.4961C183.255 66.4053 182.334 64.7899 181.858 64.0502C179.662 60.7441 176.137 58.3966 172.061 57.7701C172.091 59.4156 171.887 61.2347 171.351 63.2124C172.053 64.0276 172.476 65.0919 172.476 66.2543C172.476 68.8584 170.37 70.9644 167.774 70.9644C165.177 70.9644 163.071 68.8584 163.071 66.2543C163.071 64.02 164.633 62.1481 166.724 61.6725C167.343 59.2722 167.358 57.038 166.785 54.9924C165.871 52.192 164.06 49.8672 161.72 48.3047C161.697 48.2896 161.682 48.2745 161.659 48.267C159.621 46.9159 157.183 46.1459 154.602 46.1459H154.398C155.689 49.0671 156.549 52.3958 156.98 56.1246C160.135 57.038 162.437 59.944 162.437 63.3935C162.437 67.5752 159.048 70.9644 154.874 70.9644C150.692 70.9644 147.303 67.5752 147.303 63.3935C147.303 60.1856 149.296 57.4456 152.111 56.3435C151.643 52.6525 150.707 49.452 149.296 46.78C145.544 47.2857 135.845 49.7842 135.867 62.1254C135.882 68.9867 138.215 73.4175 140.472 77.6973C143.363 83.1849 146.337 88.846 143.453 98.3265C144.744 99.5191 145.552 101.225 145.552 103.12C145.552 106.728 142.631 109.656 139.023 109.656C135.407 109.656 132.486 106.728 132.486 103.12C132.486 99.5493 135.347 96.6433 138.902 96.5829C141.053 89.2385 138.856 85.0719 136.162 79.9693C133.754 75.3876 131.021 70.1944 131.006 62.133C130.991 51.7995 136.388 46.7875 140.925 44.4023C142.766 43.4361 144.593 42.8247 146.171 42.4398C146.005 42.2737 145.846 42.1077 145.672 41.9492C144.744 41.0811 143.725 40.3187 142.638 39.6771C139.732 37.9637 136.841 37.4127 135.12 37.2315C134.562 37.1787 134.003 37.1561 133.437 37.1561C123.511 37.1561 115.442 45.2326 115.442 55.166L115.434 177.847C115.419 178.058 115.412 178.277 115.412 178.488C115.412 178.707 115.419 178.926 115.434 179.137C115.578 181.53 116.499 183.734 118.099 185.523C120.099 187.757 122.96 189.041 125.949 189.041C127.127 189.041 128.274 188.844 129.361 188.474C126.734 184.912 124.56 179.847 124.19 172.691C122.266 171.808 120.922 169.853 120.922 167.596C120.922 164.494 123.436 161.98 126.53 161.98C129.625 161.98 132.139 164.494 132.139 167.596C132.139 169.785 130.886 171.68 129.059 172.601C129.383 178.466 131.089 183.183 134.139 186.693L134.803 187.41C135.467 188.097 136.192 188.739 136.969 189.32C140.2 191.728 143.416 192.46 144.253 192.618C145.099 192.754 145.952 192.822 146.82 192.822C152.141 192.822 157.108 190.188 160.105 185.78C161.916 183.115 162.875 179.99 162.875 176.76C162.875 175.869 162.799 174.986 162.656 174.118C162.361 174.035 162.067 173.937 161.78 173.838C158.889 172.789 156.406 170.789 154.617 168.049C154.534 167.913 154.443 167.777 154.353 167.641C153.794 166.773 153.304 166.026 152.662 165.407C152.036 164.818 151.356 164.35 150.654 164.018C149.424 163.437 148.027 163.271 146.714 163.543C144.872 163.92 142.91 165.264 142.193 167.211C143.944 168.087 145.144 169.898 145.144 171.989C145.144 174.948 142.751 177.341 139.792 177.341C136.841 177.341 134.448 174.948 134.448 171.989C134.448 169.996 135.543 168.26 137.158 167.332C137.815 163.18 141.272 159.693 145.733 158.78C148.065 158.297 150.549 158.591 152.722 159.61C153.892 160.161 155.002 160.924 156.006 161.875C157.078 162.894 157.765 163.958 158.436 165C158.519 165.128 158.602 165.256 158.693 165.385C159.901 167.234 161.539 168.577 163.433 169.257C164.181 169.528 165.003 169.725 165.886 169.853C167.524 169.996 169.11 170.019 170.619 169.913C172.876 169.71 175.088 169.227 177.08 168.502C179.594 167.438 181.33 165.837 182.04 163.867C183.217 160.576 181.519 156.327 177.488 152.349C176.711 152.485 175.918 152.568 175.088 152.59C174.929 152.59 174.763 152.598 174.605 152.598C170.287 152.598 166.136 150.952 162.218 147.692C161.305 148.114 160.293 148.348 159.221 148.348C155.304 148.348 152.126 145.17 152.126 141.245C152.126 137.32 155.304 134.143 159.221 134.143C163.146 134.143 166.324 137.32 166.324 141.245C166.324 142.31 166.09 143.321 165.675 144.227C168.687 146.627 171.789 147.805 174.922 147.729C180.764 147.571 185.3 143.117 186.493 141.834C189.369 138.566 191.082 134.286 191.082 129.704C191.082 125.915 189.92 122.254 187.769 119.19C184.017 121.771 178.93 123.734 172.084 123.802C162.912 123.9 154.843 126.232 148.752 130.565C144.148 133.833 140.91 138.09 139.46 142.74C141.483 143.917 142.849 146.106 142.849 148.62C142.849 152.371 139.808 155.413 136.064 155.413C132.312 155.413 129.278 152.371 129.278 148.62C129.278 145.374 131.557 142.657 134.607 141.985C136.267 136.045 140.23 130.64 145.937 126.587C152.843 121.688 161.871 119.039 172.031 118.933C179.866 118.858 185.897 115.951 189.973 110.305C192.131 107.309 193.173 104.267 193.611 102.667C194.079 100.84 194.328 98.9454 194.328 97.0282ZM199.197 97.0282C199.197 98.8096 199.023 100.568 198.683 102.282V102.319C198.668 102.395 198.563 103.021 198.283 104.025C197.098 108.517 194.781 112.668 191.513 116.057C194.388 120.005 195.951 124.775 195.951 129.704C195.951 135.199 194.003 140.347 190.69 144.401C190.652 144.461 190.607 144.521 190.554 144.582C190.516 144.635 190.297 144.899 189.92 145.299C187.889 147.541 185.414 149.397 182.606 150.718C184.146 152.522 185.338 154.417 186.123 156.297C187.459 159.489 187.633 162.682 186.614 165.513C185.451 168.766 182.794 171.332 179.05 172.94C178.96 172.986 178.877 173.031 178.779 173.061C178.749 173.076 178.711 173.084 178.673 173.099C177.005 173.778 175.141 174.269 173.095 174.556C172.431 174.646 171.744 174.714 171.049 174.767C170.604 174.805 170.159 174.835 169.713 174.865C169.268 174.888 168.823 174.895 168.392 174.895C168.143 174.895 167.894 174.888 167.653 174.88C167.706 175.507 167.736 176.133 167.736 176.76C167.736 180.971 166.49 185.04 164.128 188.512C160.225 194.256 153.757 197.691 146.82 197.691C145.839 197.691 144.857 197.623 143.899 197.487C143.876 197.479 143.861 197.479 143.846 197.479C143.816 197.472 143.687 197.457 143.468 197.419C139.513 196.77 135.799 194.996 132.81 192.301C130.689 193.358 128.349 193.909 125.949 193.909C121.579 193.909 117.389 192.03 114.468 188.769C112.166 186.195 110.785 182.874 110.581 179.432C110.558 179.122 110.551 178.805 110.551 178.488C110.551 178.201 110.558 177.907 110.573 177.628V53.4073L110.641 53.3846C111.547 41.6246 121.39 32.3177 133.369 32.2875C133.641 32.2799 134.796 32.2497 136.464 32.4837C139.287 32.8611 141.981 33.7443 144.427 35.0879C145.823 35.8427 147.25 36.8088 148.609 38.0392C148.707 38.1298 148.805 38.2203 148.903 38.3109C148.911 38.3185 148.918 38.3185 148.926 38.326C149.96 39.2846 150.918 40.3489 151.779 41.5038C152.707 41.3528 153.651 41.2774 154.602 41.2774C158.202 41.2774 161.592 42.3643 164.422 44.2589C165.018 44.6212 167.464 46.2214 169.449 49.2633C170.083 50.2295 170.702 51.407 171.178 52.7732C176.982 53.1733 182.092 56.1548 185.361 60.5781C185.383 60.6007 185.406 60.6233 185.429 60.6535C185.459 60.6913 185.678 60.9857 186.002 61.4914C187.142 63.235 188.003 65.1673 188.539 67.2431C188.69 67.8092 188.833 68.4055 188.939 69.0245C189.271 70.904 189.369 73.1533 188.871 75.5838C195.362 80.7694 199.197 88.6648 199.197 97.0282Z" fill="#E7E6E6"/>
</g>
<mask id="mask1_1_1796" style="mask-type:luminance" maskUnits="userSpaceOnUse" x="0" y="11" width="104" height="208">
<path d="M0 11.0695H103.538V218.886H0V11.0695Z" fill="white"/>
</mask>
<g mask="url(#mask1_1_1796)">
<path d="M-0.4375 114.985C-0.4375 58.5853 44.4515 12.6773 100.429 11.0695C102.089 11.0242 103.463 12.3527 103.463 14.0133C103.463 15.5984 102.203 16.9043 100.618 16.9495C47.7954 18.4516 5.44253 61.7706 5.44253 114.985C5.44253 168.2 47.7954 211.519 100.618 213.021C102.203 213.074 103.463 214.372 103.463 215.965C103.463 217.618 102.089 218.946 100.429 218.901C44.4515 217.293 -0.4375 171.385 -0.4375 114.985Z" fill="#E7E6E6"/>
</g>
<mask id="mask2_1_1796" style="mask-type:luminance" maskUnits="userSpaceOnUse" x="94" y="72" width="105" height="124">
<path d="M94.7148 72.323H198.638V195.992H94.7148V72.323Z" fill="white"/>
</mask>
<g mask="url(#mask2_1_1796)">
<path d="M155.364 157.202C148.691 174.699 134.954 186.572 129.806 190.55C128.628 185.161 127.579 179.734 126.681 174.269C125.511 167.241 124.575 160.214 123.79 153.104C123.013 146.039 122.545 138.89 122.311 131.78C122.039 124.639 122.19 117.529 122.582 110.381C121.843 117.491 121.299 124.639 121.216 131.78C121.103 138.928 121.216 146.114 121.609 153.262C122.001 160.403 122.582 167.589 123.405 174.699C124.024 180.051 124.726 185.395 125.624 190.746C121.178 187.893 110.641 179.892 101.078 162.629C86.3284 136.12 103.07 107.694 109.358 98.1604C116.03 88.0081 128.206 72.3532 128.206 72.3532C128.206 72.3532 130.742 82.3093 146.072 101.678C161.372 121.047 162.074 139.592 155.364 157.202ZM153.998 168.683C147.401 175.439 144.865 184.263 144.125 187.508C146.857 186.919 149.552 186.217 152.239 185.516C155.711 184.58 159.146 183.523 162.542 182.353C165.977 181.221 169.336 179.93 172.649 178.526C175.971 177.16 179.209 175.559 182.409 173.876C179.284 175.71 176.122 177.469 172.883 179.032C169.607 180.594 166.332 182.081 162.935 183.402C159.576 184.73 156.142 185.983 152.707 187.116C150.133 187.976 147.521 188.754 144.865 189.501C147.091 190.943 153.024 194.068 162.973 194.845C178.273 196.015 187.753 182.315 190.795 177.394C194.033 172.163 198.638 163.256 198.638 163.256C198.638 163.256 193.528 164.192 181.39 161.263C169.298 158.259 160.633 161.89 153.998 168.683Z" fill="#8CC63F"/>
</g>
<mask id="mask3_1_1796" style="mask-type:luminance" maskUnits="userSpaceOnUse" x="14" y="60" width="95" height="125">
<path d="M14.1758 60.729H108.241V184.398H14.1758V60.729Z" fill="white"/>
</mask>
<g mask="url(#mask3_1_1796)">
<path d="M95.6195 166.615C92.2606 167.626 88.7884 168.253 85.2332 168.645C84.3803 168.721 83.5198 168.917 82.7423 169.234C74.3865 172.94 65.5702 173.295 56.7917 172.352C50.5871 171.695 44.458 170.17 38.3666 168.645C35.9134 168.019 33.7245 166.419 31.3845 165.324C28.6521 164.079 25.8819 162.788 23.074 161.777C21.0435 161.029 19.6396 159.897 18.6583 157.95C14.4464 149.164 14.1747 139.985 15.8881 130.61C17.9186 119.401 22.606 109.173 27.4066 98.9455C30.6071 92.1899 33.4905 85.238 36.5324 78.3616C40.0046 70.4737 46.6017 65.7108 53.546 61.3027C54.6782 60.6007 56.6709 60.6762 58.0371 61.1065C62.5661 62.5104 66.7025 64.7749 69.9784 68.2546C72.7108 71.138 72.7485 73.0552 70.5671 76.2934C69.2386 78.2484 67.9479 80.2788 66.7779 82.347C65.8042 84.0303 64.438 84.8455 62.5661 84.8832C59.4034 85.004 56.2029 85.2002 53.0403 85.2757C47.5754 85.3965 45.0845 87.2307 43.205 92.6956C44.458 91.3294 45.6279 90.0009 46.7979 88.7101C46.9942 88.8309 47.1904 88.9441 47.4244 89.1026C45.7865 93.7523 47.5754 98.1982 48.0886 102.689C49.4926 114.721 48.7529 126.511 43.9522 137.796C41.9973 142.363 39.4611 146.507 35.2869 149.435C39.6951 148.107 42.9332 145.216 45.2732 141.427C50.4286 133.109 58.4297 129.402 67.5177 127.53C74.8922 126.006 81.9951 127.719 88.9469 130.218C89.0224 130.263 89.1356 130.301 89.2187 130.338C89.0224 131.629 88.8639 132.912 88.7507 134.241C83.5575 138.694 77.5869 141.464 71.0729 143.382C74.779 143.344 78.2889 142.483 81.4516 140.687C83.8746 139.283 86.2522 137.796 88.5922 136.271C88.0487 145.842 89.7244 155.995 95.2648 165.913C95.3402 166.147 95.4988 166.343 95.6195 166.615ZM96.5932 168.291C93.7476 169.423 90.6981 170.283 87.5354 170.91C93.8231 176.027 100.42 180.202 107.478 183.523C103.93 179.462 100.224 174.465 96.5932 168.291Z" fill="#4D4D4D"/>
</g>
<path d="M129.142 225.943L129.112 212.869L122.711 223.648H120.447L114.046 213.141V225.943H109.336V204.144H113.503L121.655 217.7L129.686 204.144H133.822L133.883 225.943H129.142Z" fill="#8CC63F"/>
<path d="M140.926 204.144H145.968V225.943H140.926V204.144Z" fill="#8CC63F"/>
<path d="M167.702 214.711H172.322V223.557C171.129 224.448 169.755 225.127 168.185 225.611C166.63 226.071 165.075 226.305 163.505 226.305C161.248 226.305 159.218 225.822 157.406 224.856C155.595 223.89 154.176 222.554 153.149 220.84C152.123 219.134 151.609 217.202 151.609 215.043C151.609 212.892 152.123 210.96 153.149 209.246C154.176 207.54 155.602 206.197 157.437 205.23C159.263 204.264 161.316 203.781 163.596 203.781C165.506 203.781 167.234 204.106 168.789 204.747C170.359 205.397 171.665 206.333 172.714 207.555L169.483 210.544C167.929 208.899 166.049 208.069 163.837 208.069C162.449 208.069 161.211 208.363 160.124 208.944C159.052 209.533 158.222 210.356 157.618 211.42C157.014 212.469 156.712 213.677 156.712 215.043C156.712 216.394 157.014 217.602 157.618 218.666C158.222 219.715 159.052 220.538 160.124 221.142C161.188 221.731 162.403 222.018 163.777 222.018C165.241 222.018 166.555 221.708 167.702 221.082V214.711Z" fill="#8CC63F"/>
<path d="M198.821 204.144V225.943H193.778V217.006H183.905V225.943H178.863V204.144H183.905V212.748H193.778V204.144H198.821Z" fill="#8CC63F"/>
<path d="M210.375 208.25H203.4V204.144H222.392V208.25H215.417V225.943H210.375V208.25Z" fill="#8CC63F"/>
<path d="M129.101 22.1614L129.071 9.088L122.67 19.8668H120.406L114.005 9.35973V22.1614H109.295V0.362305H113.462L121.614 13.9188L129.645 0.362305H133.781L133.842 22.1614H129.101Z" fill="#8CC63F"/>
<path d="M140.879 0.362305H145.921V22.1614H140.879V0.362305Z" fill="#8CC63F"/>
<path d="M167.661 10.9298H172.281V19.7762C171.088 20.6669 169.714 21.3462 168.144 21.8293C166.589 22.2898 165.034 22.5238 163.464 22.5238C161.207 22.5238 159.177 22.0407 157.365 21.0745C155.554 20.1083 154.135 18.7723 153.108 17.0589C152.082 15.353 151.568 13.4207 151.568 11.2619C151.568 9.11065 152.082 7.17832 153.108 5.46488C154.135 3.75899 155.561 2.41542 157.396 1.44925C159.222 0.483083 161.275 0 163.555 0C165.465 0 167.193 0.324572 168.748 0.966167C170.318 1.61531 171.624 2.55128 172.673 3.77409L169.442 6.76317C167.888 5.11767 166.008 4.28736 163.796 4.28736C162.408 4.28736 161.17 4.58174 160.083 5.16295C159.011 5.75171 158.181 6.57446 157.577 7.63876C156.973 8.68795 156.671 9.89566 156.671 11.2619C156.671 12.613 156.973 13.8207 157.577 14.885C158.181 15.9342 159.011 16.757 160.083 17.3608C161.147 17.9496 162.362 18.2364 163.736 18.2364C165.2 18.2364 166.514 17.9269 167.661 17.3004V10.9298Z" fill="#8CC63F"/>
<path d="M192.681 22.1614L188.484 16.0927H183.864V22.1614H178.822V0.362305H188.242C190.175 0.362305 191.843 0.686877 193.254 1.32847C194.681 1.97762 195.775 2.89094 196.545 4.07601C197.308 5.26862 197.693 6.66503 197.693 8.2728C197.693 9.9032 197.3 11.3072 196.515 12.4696C195.745 13.6396 194.651 14.5378 193.224 15.1567L198.115 22.1614H192.681ZM192.59 8.2728C192.59 7.04999 192.198 6.11402 191.413 5.46487C190.628 4.80063 189.48 4.46851 187.971 4.46851H183.864V12.0771H187.971C189.48 12.0771 190.628 11.745 191.413 11.0807C192.198 10.4165 192.59 9.4805 192.59 8.2728Z" fill="#8CC63F"/>
<path d="M217.901 17.4816H207.787L205.854 22.1614H200.691L210.383 0.362305H215.365L225.117 22.1614H219.834L217.901 17.4816ZM216.301 13.6773L212.859 5.31391L209.387 13.6773H216.301Z" fill="#8CC63F"/>
<path d="M229.268 0.362305H234.31V22.1614H229.268V0.362305Z" fill="#8CC63F"/>
<path d="M261.303 0.362305V22.1614H257.167L246.328 8.93704V22.1614H241.346V0.362305H245.512L256.351 13.5867V0.362305H261.303Z" fill="#8CC63F"/>
<path d="M285.205 18.1156V22.1614H268.357V0.362305H284.812V4.40813H273.369V9.14838H283.484V13.0734H273.369V18.1156H285.205Z" fill="#8CC63F"/>
</svg>
