<svg width="125" height="131" viewBox="0 0 125 131" fill="none" xmlns="http://www.w3.org/2000/svg">
<path d="M52.595 3.1839C50.4702 3.1839 48.3345 3.31852 46.1879 3.58775C24.6127 6.30194 6.74129 23.8568 3.69966 45.3301C1.77135 58.9702 5.3369 72.3556 13.745 83.0304C15.9244 85.7991 15.0476 93.9744 11.1364 107.338L12.0532 108.972L11.3801 107.527C32.3659 97.7983 35.5058 98.8752 36.5391 99.2318C43.561 101.637 50.9395 102.423 58.4672 101.568C80.6973 99.028 98.8562 81.1093 101.65 58.9666C103.593 43.5728 98.4632 28.5102 87.581 17.6426C78.2087 8.28118 65.722 3.1839 52.595 3.1839ZM11.2892 110.736C10.5033 110.736 9.73199 110.456 9.10256 109.914C8.09475 109.048 7.70181 107.716 8.07292 106.443C11.8277 93.6215 12.3698 86.4322 11.2383 84.9987C2.28799 73.6362 -1.51041 59.3922 0.545242 44.8863C3.83428 21.6484 22.4406 3.36582 45.7913 0.426059C62.1965 -1.62959 78.2451 3.81697 89.8331 15.3868C101.421 26.9603 106.879 42.9871 104.816 59.3668C101.84 82.9467 82.4983 102.026 58.8311 104.729C50.8231 105.65 42.9789 104.809 35.5022 102.244C34.3961 101.888 28.3711 103.165 12.7227 110.416C12.2606 110.631 11.7694 110.736 11.2892 110.736Z" fill="#7380B4"/>
<mask id="mask0_2_1891" style="mask-type:luminance" maskUnits="userSpaceOnUse" x="44" y="47" width="81" height="84">
<path d="M44.3965 47.6586H125V130.452H44.3965V47.6586Z" fill="white"/>
</mask>
<g mask="url(#mask0_2_1891)">
<path d="M113.709 130.456C113.228 130.456 112.737 130.35 112.275 130.136C96.6268 122.892 90.5908 121.604 89.492 121.964C82.0189 124.533 74.1747 125.373 66.1668 124.456C58.7628 123.608 51.7445 121.207 45.2974 117.321C44.5406 116.863 44.3005 115.884 44.7553 115.135C45.2101 114.378 46.1924 114.142 46.9419 114.593C52.9961 118.242 59.5851 120.494 66.5306 121.291C74.0619 122.157 81.4368 121.364 88.4551 118.955C89.4811 118.599 92.6246 117.529 113.618 127.247L115.393 126.614L113.861 127.061C109.95 113.698 109.073 105.522 111.253 102.75C119.661 92.0752 123.226 78.6862 121.298 65.0534C120.556 59.8179 118.951 54.7461 116.528 49.9872C116.128 49.2049 116.441 48.2444 117.227 47.8479C118.009 47.4404 118.973 47.7605 119.37 48.5464C121.953 53.6182 123.659 59.0211 124.453 64.6096C126.508 79.1119 122.71 93.3559 113.76 104.718C112.628 106.155 113.17 113.341 116.925 126.166C117.296 127.443 116.899 128.775 115.895 129.637C115.266 130.179 114.495 130.456 113.709 130.456Z" fill="#7380B4"/>
</g>
<path d="M52.6244 20.6151C34.7966 20.6151 20.298 35.0956 20.298 52.8942C20.298 70.6965 34.7966 85.177 52.6244 85.177C70.4521 85.177 84.9545 70.6965 84.9545 52.8942C84.9545 35.0956 70.4521 20.6151 52.6244 20.6151ZM52.6244 88.3605C33.0393 88.3605 17.1035 72.4502 17.1035 52.8942C17.1035 33.3383 33.0393 17.4279 52.6244 17.4279C72.2094 17.4279 88.1453 33.3383 88.1453 52.8942C88.1453 72.4502 72.2094 88.3605 52.6244 88.3605Z" fill="#7380B4"/>
<path d="M86.548 54.4878H18.7007C17.8203 54.4878 17.1035 53.7746 17.1035 52.8942C17.1035 52.0137 17.8203 51.3006 18.7007 51.3006H86.548C87.4285 51.3006 88.1453 52.0137 88.1453 52.8942C88.1453 53.7746 87.4285 54.4878 86.548 54.4878ZM84.6598 44.0931C84.416 44.0931 84.1649 44.0349 83.9321 43.9148C62.8662 33.1163 42.3862 33.0981 21.3276 43.8493C20.5381 44.2568 19.5848 43.9403 19.1846 43.158C18.7808 42.3758 19.0937 41.4153 19.8759 41.0151C41.6076 29.9146 63.6485 29.94 85.3911 41.0806C86.1733 41.4844 86.4825 42.4413 86.0787 43.2272C85.7985 43.7729 85.2382 44.0931 84.6598 44.0931ZM52.5953 73.0905C41.5603 73.0905 30.5253 70.2635 19.5667 64.6168C18.7844 64.213 18.4788 63.2561 18.8827 62.4739C19.2865 61.6916 20.2434 61.3824 21.0329 61.7862C41.9932 72.592 63.2555 72.5811 84.2268 61.7571C85.0054 61.3533 85.9659 61.6625 86.3734 62.4411C86.7772 63.2233 86.4716 64.1839 85.6894 64.5877C74.709 70.2562 63.6521 73.0905 52.5953 73.0905Z" fill="#7380B4"/>
<path d="M61.3498 87.098C61.1205 87.098 60.884 87.047 60.6585 86.9415C59.8653 86.5595 59.5342 85.6063 59.9163 84.8131C70.3146 63.2888 70.6129 42.4377 60.8186 21.0698C60.4511 20.273 60.804 19.3271 61.6044 18.9596C62.3976 18.5958 63.3508 18.9414 63.7147 19.7455C73.7892 41.7209 73.4763 64.0747 62.7869 86.1993C62.514 86.7669 61.9428 87.098 61.3498 87.098ZM43.9113 87.1271C43.3183 87.1271 42.747 86.7924 42.4705 86.2248C31.8066 64.1584 31.5265 41.7828 41.6374 19.7164C42.0048 18.9123 42.9544 18.5667 43.7512 18.9305C44.5517 19.298 44.9046 20.2403 44.5371 21.0407C34.7027 42.5031 34.9647 63.3725 45.3448 84.8422C45.7268 85.6317 45.3957 86.585 44.6026 86.967C44.3807 87.0725 44.1442 87.1271 43.9113 87.1271Z" fill="#7380B4"/>
</svg>
