<svg width="155" height="155" viewBox="0 0 155 155" fill="none" xmlns="http://www.w3.org/2000/svg">
<mask id="mask0_3_1931" style="mask-type:luminance" maskUnits="userSpaceOnUse" x="0" y="0" width="155" height="155">
<path d="M0 0H155V154.996H0V0Z" fill="white"/>
</mask>
<g mask="url(#mask0_3_1931)">
<path d="M147.247 149.83H7.75307C6.32787 149.83 5.17017 148.672 5.17017 147.247V25.8333H149.83V147.247C149.83 148.672 148.672 149.83 147.247 149.83ZM7.75307 5.16579H147.247C148.672 5.16579 149.83 6.32787 149.83 7.74868V20.6675H5.17017V7.74868C5.17017 6.32787 6.32787 5.16579 7.75307 5.16579ZM147.247 0H7.75307C3.47309 0 0 3.4731 0 7.74868V147.247C0 151.527 3.47309 154.996 7.75307 154.996H147.247C151.527 154.996 155 151.527 155 147.247V7.74868C155 3.4731 151.527 0 147.247 0Z" fill="#7380B4"/>
</g>
<path d="M41.337 56.8325H31.0011C29.5802 56.8325 28.4182 55.6705 28.4182 54.2496C28.4182 52.8245 29.5802 51.6668 31.0011 51.6668H41.337C42.7578 51.6668 43.9199 52.8245 43.9199 54.2496C43.9199 55.6705 42.7578 56.8325 41.337 56.8325ZM41.337 46.501H31.0011C26.7255 46.501 23.2524 49.9697 23.2524 54.2496C23.2524 58.5296 26.7255 61.9983 31.0011 61.9983H41.337C45.6126 61.9983 49.0857 58.5296 49.0857 54.2496C49.0857 49.9697 45.6126 46.501 41.337 46.501ZM41.337 77.5001H31.0011C29.5802 77.5001 28.4182 76.338 28.4182 74.9172C28.4182 73.492 29.5802 72.3343 31.0011 72.3343H41.337C42.7578 72.3343 43.9199 73.492 43.9199 74.9172C43.9199 76.338 42.7578 77.5001 41.337 77.5001ZM41.337 67.1641H31.0011C26.7255 67.1641 23.2524 70.6372 23.2524 74.9172C23.2524 79.1928 26.7255 82.6659 31.0011 82.6659H41.337C45.6126 82.6659 49.0857 79.1928 49.0857 74.9172C49.0857 70.6372 45.6126 67.1641 41.337 67.1641ZM41.337 98.1632H31.0011C29.5802 98.1632 28.4182 97.0055 28.4182 95.5803C28.4182 94.1595 29.5802 92.9975 31.0011 92.9975H41.337C42.7578 92.9975 43.9199 94.1595 43.9199 95.5803C43.9199 97.0055 42.7578 98.1632 41.337 98.1632ZM41.337 87.8317H31.0011C26.7255 87.8317 23.2524 91.3048 23.2524 95.5803C23.2524 99.8603 26.7255 103.333 31.0011 103.333H41.337C45.6126 103.333 49.0857 99.8603 49.0857 95.5803C49.0857 91.3048 45.6126 87.8317 41.337 87.8317ZM41.337 118.831H31.0011C29.5802 118.831 28.4182 117.673 28.4182 116.248C28.4182 114.827 29.5802 113.665 31.0011 113.665H41.337C42.7578 113.665 43.9199 114.827 43.9199 116.248C43.9199 117.673 42.7578 118.831 41.337 118.831ZM41.337 108.499H31.0011C26.7255 108.499 23.2524 111.968 23.2524 116.248C23.2524 120.528 26.7255 123.997 31.0011 123.997H41.337C45.6126 123.997 49.0857 120.528 49.0857 116.248C49.0857 111.968 45.6126 108.499 41.337 108.499ZM41.337 139.498H31.0011C29.5802 139.498 28.4182 138.336 28.4182 136.915C28.4182 135.49 29.5802 134.333 31.0011 134.333H41.337C42.7578 134.333 43.9199 135.49 43.9199 136.915C43.9199 138.336 42.7578 139.498 41.337 139.498ZM41.337 129.162H31.0011C26.7255 129.162 23.2524 132.635 23.2524 136.915C23.2524 141.191 26.7255 144.664 31.0011 144.664H41.337C45.6126 144.664 49.0857 141.191 49.0857 136.915C49.0857 132.635 45.6126 129.162 41.337 129.162ZM82.6677 56.8325H72.3361C70.9109 56.8325 69.7532 55.6705 69.7532 54.2496C69.7532 52.8245 70.9109 51.6668 72.3361 51.6668H82.6677C84.0929 51.6668 85.2506 52.8245 85.2506 54.2496C85.2506 55.6705 84.0929 56.8325 82.6677 56.8325ZM82.6677 46.501H72.3361C68.0562 46.501 64.5875 49.9697 64.5875 54.2496C64.5875 58.5296 68.0562 61.9983 72.3361 61.9983H82.6677C86.9477 61.9983 90.4164 58.5296 90.4164 54.2496C90.4164 49.9697 86.9477 46.501 82.6677 46.501ZM82.6677 77.5001H72.3361C70.9109 77.5001 69.7532 76.338 69.7532 74.9172C69.7532 73.492 70.9109 72.3343 72.3361 72.3343H82.6677C84.0929 72.3343 85.2506 73.492 85.2506 74.9172C85.2506 76.338 84.0929 77.5001 82.6677 77.5001ZM82.6677 67.1641H72.3361C68.0562 67.1641 64.5875 70.6372 64.5875 74.9172C64.5875 79.1928 68.0562 82.6659 72.3361 82.6659H82.6677C86.9477 82.6659 90.4164 79.1928 90.4164 74.9172C90.4164 70.6372 86.9477 67.1641 82.6677 67.1641ZM82.6677 98.1632H72.3361C70.9109 98.1632 69.7532 97.0055 69.7532 95.5803C69.7532 94.1595 70.9109 92.9975 72.3361 92.9975H82.6677C84.0929 92.9975 85.2506 94.1595 85.2506 95.5803C85.2506 97.0055 84.0929 98.1632 82.6677 98.1632ZM82.6677 87.8317H72.3361C68.0562 87.8317 64.5875 91.3048 64.5875 95.5803C64.5875 99.8603 68.0562 103.333 72.3361 103.333H82.6677C86.9477 103.333 90.4164 99.8603 90.4164 95.5803C90.4164 91.3048 86.9477 87.8317 82.6677 87.8317ZM124.003 56.8325H113.667C112.246 56.8325 111.084 55.6705 111.084 54.2496C111.084 52.8245 112.246 51.6668 113.667 51.6668H124.003C125.424 51.6668 126.586 52.8245 126.586 54.2496C126.586 55.6705 125.424 56.8325 124.003 56.8325ZM124.003 46.501H113.667C109.391 46.501 105.918 49.9697 105.918 54.2496C105.918 58.5296 109.391 61.9983 113.667 61.9983H124.003C128.278 61.9983 131.752 58.5296 131.752 54.2496C131.752 49.9697 128.278 46.501 124.003 46.501ZM124.003 77.5001H113.667C112.246 77.5001 111.084 76.338 111.084 74.9172C111.084 73.492 112.246 72.3343 113.667 72.3343H124.003C125.424 72.3343 126.586 73.492 126.586 74.9172C126.586 76.338 125.424 77.5001 124.003 77.5001ZM124.003 67.1641H113.667C109.391 67.1641 105.918 70.6372 105.918 74.9172C105.918 79.1928 109.391 82.6659 113.667 82.6659H124.003C128.278 82.6659 131.752 79.1928 131.752 74.9172C131.752 70.6372 128.278 67.1641 124.003 67.1641ZM124.003 98.1632H113.667C112.246 98.1632 111.084 97.0055 111.084 95.5803C111.084 94.1595 112.246 92.9975 113.667 92.9975H124.003C125.424 92.9975 126.586 94.1595 126.586 95.5803C126.586 97.0055 125.424 98.1632 124.003 98.1632ZM124.003 87.8317H113.667C109.391 87.8317 105.918 91.3048 105.918 95.5803C105.918 99.8603 109.391 103.333 113.667 103.333H124.003C128.278 103.333 131.752 99.8603 131.752 95.5803C131.752 91.3048 128.278 87.8317 124.003 87.8317ZM124.003 118.831H113.667C112.246 118.831 111.084 117.673 111.084 116.248C111.084 114.827 112.246 113.665 113.667 113.665H124.003C125.424 113.665 126.586 114.827 126.586 116.248C126.586 117.673 125.424 118.831 124.003 118.831ZM124.003 108.499H113.667C109.391 108.499 105.918 111.968 105.918 116.248C105.918 120.528 109.391 123.997 113.667 123.997H124.003C128.278 123.997 131.752 120.528 131.752 116.248C131.752 111.968 128.278 108.499 124.003 108.499ZM12.9208 15.5018H15.5037C16.9245 15.5018 18.0866 14.3398 18.0866 12.9189C18.0866 11.4937 16.9245 10.3317 15.5037 10.3317H12.9208C11.4956 10.3317 10.3379 11.4937 10.3379 12.9189C10.3379 14.3398 11.4956 15.5018 12.9208 15.5018ZM25.8353 15.5018H28.4182C29.8434 15.5018 31.0011 14.3398 31.0011 12.9189C31.0011 11.4937 29.8434 10.3317 28.4182 10.3317H25.8353C24.4144 10.3317 23.2524 11.4937 23.2524 12.9189C23.2524 14.3398 24.4144 15.5018 25.8353 15.5018ZM38.7541 15.5018H41.337C42.7578 15.5018 43.9199 14.3398 43.9199 12.9189C43.9199 11.4937 42.7578 10.3317 41.337 10.3317H38.7541C37.3289 10.3317 36.1712 11.4937 36.1712 12.9189C36.1712 14.3398 37.3289 15.5018 38.7541 15.5018ZM121.42 15.5018H142.083C143.508 15.5018 144.666 14.3398 144.666 12.9189C144.666 11.4937 143.508 10.3317 142.083 10.3317H121.42C119.995 10.3317 118.833 11.4937 118.833 12.9189C118.833 14.3398 119.995 15.5018 121.42 15.5018Z" fill="#7380B4"/>
<path d="M139.497 36.1649H100.75V33.582C100.75 32.1612 99.5875 30.9991 98.1666 30.9991C96.7415 30.9991 95.5838 32.1612 95.5838 33.582V36.1649H59.4145V33.582C59.4145 32.1612 58.2568 30.9991 56.8316 30.9991C55.4108 30.9991 54.2487 32.1612 54.2487 33.582V36.1649H15.5009C14.0757 36.1649 12.918 37.327 12.918 38.7478C12.918 40.173 14.0757 41.3351 15.5009 41.3351H54.2487V142.081C54.2487 143.502 55.4108 144.664 56.8316 144.664C58.2568 144.664 59.4145 143.502 59.4145 142.081V41.3351H95.5838V142.081C95.5838 143.502 96.7415 144.664 98.1666 144.664C99.5875 144.664 100.75 143.502 100.75 142.081V41.3351H139.497C140.923 41.3351 142.08 40.173 142.08 38.7478C142.08 37.327 140.923 36.1649 139.497 36.1649Z" fill="#7380B4"/>
</svg>
